/* XPM */
static char *ezgif_7_9a14b9d3db[] = {
/* columns rows colors chars-per-pixel */
"32 32 209 2 ",
"   c None",
".  c #350A33",
"X  c #2C082F",
"o  c #460C17",
"O  c #520F17",
"+  c #581110",
"@  c #591425",
"#  c #400E33",
"$  c #49133A",
"%  c #591935",
"&  c #6D1E29",
"*  c #5F2739",
"=  c #76293A",
"-  c #753230",
";  c #1C553B",
":  c #29792C",
">  c #266935",
",  c #307B33",
"<  c #795533",
"1  c #7A743E",
"2  c #09024D",
"3  c #1C054A",
"4  c #080459",
"5  c #0F1152",
"6  c #250844",
"7  c #3B144A",
"8  c #250D51",
"9  c #2F1552",
"0  c #13354C",
"q  c #173F48",
"w  c #383C47",
"e  c #000062",
"r  c #14186C",
"t  c #231563",
"y  c #1C2C64",
"u  c #213465",
"i  c #233A63",
"p  c #5E1F43",
"a  c #593546",
"s  c #422659",
"d  c #562655",
"f  c #5D305A",
"g  c #432954",
"h  c #682844",
"j  c #773248",
"k  c #63395D",
"l  c #78344D",
"z  c #4A2E62",
"x  c #553562",
"c  c #473266",
"v  c #1A4645",
"b  c #235744",
"n  c #264759",
"m  c #395658",
"M  c #2C5146",
"N  c #2C6645",
"B  c #357343",
"V  c #38625D",
"C  c #376955",
"Z  c #3C7353",
"A  c #3F7853",
"S  c #306A47",
"D  c #3A5D65",
"F  c #304D65",
"G  c #3D6264",
"H  c #5D5551",
"J  c #784856",
"K  c #774855",
"L  c #755057",
"P  c #427D53",
"I  c #4A725F",
"U  c #577A5B",
"Y  c #496E58",
"T  c #5B436C",
"R  c #5B4872",
"E  c #694A68",
"W  c #684468",
"Q  c #764969",
"!  c #755274",
"~  c #655572",
"^  c #416C63",
"/  c #497762",
"(  c #52746C",
")  c #756368",
"_  c #627768",
"`  c #706A71",
"'  c #746F4D",
"]  c #872B36",
"[  c #8D2D2E",
"{  c #90532B",
"}  c #A05126",
"|  c #926429",
" . c #A86B23",
".. c #823446",
"X. c #81726C",
"o. c #846979",
"O. c #90727C",
"+. c #369A1E",
"@. c #3BA819",
"#. c #3C992B",
"$. c #388539",
"%. c #44983A",
"&. c #46A72C",
"*. c #4AA33B",
"=. c #4DAA37",
"-. c #53AD3E",
";. c #468B4C",
":. c #458B44",
">. c #4D964D",
",. c #4C9949",
"<. c #519C4E",
"1. c #4B8C52",
"2. c #4C865B",
"3. c #498755",
"4. c #4D9151",
"5. c #519154",
"6. c #59985E",
"7. c #569759",
"8. c #528F53",
"9. c #56A54D",
"0. c #5AAC4C",
"q. c #54AA44",
"w. c #5DB34B",
"e. c #5DB944",
"r. c #5AA553",
"t. c #61BE47",
"y. c #63BE4A",
"u. c #65AE5B",
"i. c #65B455",
"p. c #68B955",
"a. c #4F8263",
"s. c #528665",
"d. c #5E856D",
"f. c #598B65",
"g. c #6E836C",
"h. c #70857A",
"j. c #6BB162",
"k. c #65C04B",
"l. c #69C24E",
"z. c #63C146",
"x. c #6DC552",
"c. c #72C858",
"v. c #C69015",
"b. c #CC8930",
"n. c #BF815D",
"m. c #91836A",
"M. c #A88D7D",
"N. c #D2A146",
"B. c #363381",
"V. c #554C89",
"C. c #695B84",
"Z. c #766884",
"A. c #6B669C",
"S. c #756891",
"D. c #70708F",
"F. c #6B6BA5",
"G. c #7C74A1",
"H. c #977E88",
"J. c #8F7C93",
"K. c #887293",
"L. c #89748A",
"P. c #827CA6",
"I. c #7D8099",
"U. c #8A8488",
"Y. c #9C928D",
"T. c #9A8798",
"R. c #A88A8C",
"E. c #B49387",
"W. c #A79C99",
"Q. c #AB9398",
"!. c #B8A299",
"~. c #8D83A4",
"^. c #938AAA",
"/. c #968BA6",
"(. c #9D98A9",
"). c #9C98B9",
"_. c #8C88B1",
"`. c #BDA6A5",
"'. c #C7A08A",
"]. c #DDB28E",
"[. c #C7A797",
"{. c #D9B69B",
"}. c #D4A98A",
"|. c #E1B491",
" X c #E4B488",
".X c #C3ADA3",
"XX c #CAAFA3",
"oX c #D7BBA9",
"OX c #CCB7B0",
"+X c #E9C099",
"@X c #DBC0AE",
"#X c #E2C3AC",
"$X c #E9CBAE",
"%X c #EBC9A8",
"&X c #F8D4AD",
"*X c #F3D3B2",
"=X c #FFDEB5",
"-X c #EFCEAD",
";X c #FFE1B6",
":X c #FFE2B7",
">X c #FFE2B6",
",X c #FFE0B5",
"<X c #FFE2B6",
"1X c #FFE2B8",
"2X c #AEB0D1",
"3X c #B3B1CD",
"4X c #D8D8E9",
"5X c #CACBE0",
"6X c #ECEDF5",
/* pixels */
"            D i.c.c.a.D   y j.^   u                             ",
"              / l.y.l.p.u.a.p.i.G u s.                          ",
"            / i p.y.y.>.1.l.y.y.i.m i.5.                        ",
"            6.3.6.k.y.w.1.1.y.y.y.w.y.y.C F                     ",
"            G r.7.k.y.y.y.A 9.y.y.y.y.y.3.V V y     4 0         ",
"              ^ p.y.y.y.y.9.A y.y.y.y.4.N b C n f.G C b         ",
"              u u.y.y.<.w.9.Z k.y.y.1.;.N V B S 0.P >.b         ",
"          y i 3.2.l.w.Z w.w.Z w.y.w.Z 3.6.0.B 0.y.%.v           ",
"          s.u.P V p.9.Z k.k.P 0.k.w.P s.x.$.;.k.y.t.$.          ",
"          u 7.0.P p.9.Z y.y.<.C ;.z.3.u.-.S w.y.y.y.-.v         ",
"          7.4.4.<.y.9.Z y.;.b ; : #.,.w.-.>.y.y.y.y.t.$.        ",
"        6.9.2./ Z >.w.Z 0.$.: > _ U.U._ :.e.y.x.c.k.y.e.$.      ",
"    r / l.3.W.oXU.U <.>.,.$.U !.*X>X>X*XY.:.k.x.l.l.y.y.e., v   ",
"      a.r.m oX>X=X.XW./ g.!.$X>X=X=X>X$Xg.#.@.&.t.y.y.y.*.0     ",
"        Z : Y.>X>X>X=X#X*X>X>X>X>X>X>X[./ q.&.> =.k.y.w.e.N     ",
"      D i.U oX$XQ.`.*X>X=X=X=X.XT.`.$X*XoXh.0.$.N 8.y.$.;.*.0   ",
"        n I.`.^.4X2X(.$X>X*X`.3X5X3X~.XX1XoXd.*.) M.5.%.q b     ",
"          B.S._.6XF.).[.>XXX~.4XF.6X).#X>X#Xd.*.X.|.Y %.5       ",
"            G.Q.^.P.J.{.-X*X.X^.P.^.!.&X>X#Xd.*.X.E.B v         ",
"            D.}.'.].E.Z.) m.-X].].].+X X=X#Xd.*.) U $.          ",
"          y ( T.C.H.R ' 1 H ` O.o.H.~ E.,X#Xd.*.v +.>           ",
"      t l g ( OX/.2XR J J J K K s 2XJ.%X1X!.5., ; @.:           ",
"        j j I (.oXC.c E E E E k R A.oX>X*X_ ,.w v : : 0         ",
"        ..] m h.o.~ o.E.[.{.'.H.L.T '.}.o.m a ] = * 7           ",
"      t d [ a n 8 R.R.f ! Z.z Z.[.c f l h h = [ - # 6           ",
"        7 p = s x L.Q j d x k W Q ! f h [ & $ % # 3             ",
"            7 V.G.A.S.x T J.J.K.J.! g 7 . . 6 3   4             ",
"                  $ o 6 {  .| } v.} v.- @ O O 6                 ",
"                9 @ . 2 ) b.<  .n.N.| 9 % + o X 2               ",
"                  3 4 e r )     V.t     8 X 2 2 4               ",
"                                e e                             ",
"                                                                "
};
