/* XPM */
static char *ezgif_7_2f83352d50[] = {
/* columns rows colors chars-per-pixel */
"32 32 183 2 ",
"   c None",
".  c #5A0C3C",
"X  c #52413F",
"o  c #2B1759",
"O  c #3D295B",
"+  c #372559",
"@  c #010162",
"#  c #0D0A64",
"$  c #130C60",
"%  c #1A1260",
"&  c #1A1668",
"*  c #261E67",
"=  c #292368",
"-  c #372C67",
";  c #2F2F7F",
":  c #3C3577",
">  c #531143",
",  c #4B3359",
"<  c #543751",
"1  c #593A50",
"2  c #623A4A",
"3  c #7E3F4C",
"4  c #652C53",
"5  c #443A69",
"6  c #5A3663",
"7  c #453C76",
"8  c #5E4058",
"9  c #6F494C",
"0  c #68444B",
"q  c #704A4D",
"w  c #664657",
"e  c #704C56",
"r  c #6D505B",
"t  c #7A5959",
"y  c #746E41",
"u  c #4C4275",
"i  c #414973",
"p  c #594D7A",
"a  c #534776",
"s  c #5B507B",
"d  c #685A7B",
"f  c #695265",
"g  c #7A6968",
"h  c #6F607C",
"j  c #7A7673",
"k  c #BB1B1D",
"l  c #801D3A",
"z  c #A2192C",
"x  c #A7262F",
"c  c #A2693F",
"v  c #AF723D",
"b  c #BB7A3C",
"n  c #84294E",
"m  c #9E2E4C",
"M  c #86314E",
"N  c #B82E43",
"B  c #824144",
"V  c #895B4B",
"C  c #8B5F52",
"Z  c #825E5A",
"A  c #94634B",
"S  c #996547",
"D  c #84605D",
"F  c #956755",
"G  c #A46D46",
"H  c #AC744D",
"J  c #A8714B",
"K  c #B47A4C",
"L  c #B97D4C",
"P  c #A67755",
"I  c #805F62",
"U  c #8A6462",
"Y  c #876B65",
"T  c #936D67",
"R  c #8C7363",
"E  c #8C736B",
"W  c #917D67",
"Q  c #917D68",
"!  c #97746A",
"~  c #8D777F",
"^  c #937979",
"/  c #886D73",
"(  c #7B8369",
")  c #C4823F",
"_  c #BB804D",
"`  c #B58858",
"'  c #998468",
"]  c #988268",
"[  c #858973",
"{  c #9D8773",
"}  c #AB8767",
"|  c #B08E61",
" . c #B29969",
".. c #B69678",
"X. c #AD9166",
"o. c #BBA26A",
"O. c #C3844B",
"+. c #CD8B4A",
"@. c #C88643",
"#. c #D18E4A",
"$. c #D4964E",
"%. c #C69759",
"&. c #D8A659",
"*. c #E2AF5A",
"=. c #E2B05B",
"-. c #C09A60",
";. c #CAAF6A",
":. c #CFB068",
">. c #D2B56B",
",. c #DBBA68",
"<. c #D5B56A",
"1. c #DABC78",
"2. c #D7AD7D",
"3. c #E4BE65",
"4. c #E8C56A",
"5. c #F6D473",
"6. c #ECCA71",
"7. c #0C1485",
"8. c #2E39A3",
"9. c #665A83",
"0. c #776882",
"q. c #7F718A",
"w. c #6469A9",
"e. c #5A67C2",
"r. c #747FCC",
"t. c #806F84",
"y. c #837285",
"u. c #8D7A83",
"i. c #887680",
"p. c #967F88",
"a. c #9B878B",
"s. c #9B868A",
"d. c #8F8093",
"f. c #9E8C94",
"g. c #958491",
"h. c #A38E8C",
"j. c #A9938F",
"k. c #B19A8F",
"l. c #B79F81",
"z. c #A89698",
"x. c #B99B95",
"c. c #B6A096",
"v. c #BBA393",
"b. c #BEA99C",
"n. c #8D8EBA",
"m. c #9E99B6",
"M. c #968CA4",
"N. c #A296A7",
"B. c #A398A8",
"V. c #A19EBC",
"C. c #D6B584",
"Z. c #C0A999",
"A. c #DCBE99",
"S. c #DBB0A0",
"D. c #CFBFB6",
"F. c #DEC19D",
"G. c #E2C59D",
"H. c #EACC9F",
"J. c #E7C99F",
"K. c #F2CB90",
"L. c #FFDD9D",
"P. c #FAD69B",
"I. c #DBC5AF",
"U. c #D4C2AE",
"Y. c #D7C4B4",
"T. c #E3CAA8",
"R. c #EFD1A5",
"E. c #F4D4A3",
"W. c #FFDEA5",
"Q. c #F7D8A7",
"!. c #E2CBB0",
"~. c #E6D0B3",
"^. c #FFE2A6",
"/. c #FFE2AD",
"(. c #8896DF",
"). c #B4B1CA",
"_. c #BDBED8",
"`. c #C8C9DF",
"'. c #C7C8DF",
"]. c #D0CBD5",
"[. c #D3D0DC",
"{. c #D9D9E9",
"}. c #CBCBE0",
/* pixels */
"                                                                ",
"                                                                ",
"                                                                ",
"                        h u.u.u.u.i.7                           ",
"                  d l.C.6.5.5.5.5.5.1.C.^ -                     ",
"                ..<.<. .W W W W Q ' ;.>.4.%.r                   ",
"              u.{ W Q  .>.>.>.>.>.;.' Q Q ' | w                 ",
"            - g o.4.6.4.=.*.=.=.=.*.3.4.4.;.' t O               ",
"          E ] R | &.+._ K K K L L L #.$.&.&.,.:.f               ",
"        X.&.P F t w O - h - a % $ * 8 e K J Z %.,.g             ",
"      R ` #.+.A O @ 7 F.E.p u.= @ d p @ % C _ H &.<.g           ",
"    R F H O.H , # # a.^.^.k.s.y.@ y.G.7 @ $ C +.+.$.%.5         ",
"    -.+.#.S + * p s.j.h.H.W.E.F.& u h.v.u @ % K +.+.$.t         ",
"  5 %.+.A , $ p y.c.f.q.s.E.W.W.u.9.d.z.a.u : w #.+.#.K +       ",
"  g $.S * z.q.z.v.).'.}.M.H.W.^.c.).`.`.B.x.0.# r O.J A 1       ",
"  Y $.O.t ~.f.!.Y.{.8.n.[.R.W.W.D.{.; n.[.Q.t.@ d U w e 2       ",
"  t +.#.U I.f.!.Y.{.n._.].E.W.W.Y.{.n._.].Q.s.= ~ Y t S <       ",
"    J #._ ^ 9.I.H.B.V.m.Z.W.W.W.J.B.V.m.b.E.P.! C.T L J         ",
"    q +.+.b S a./.E.k.v.W.^.^.^.^.G.h.v.x.Z.K.f I P +.q         ",
"      V ) @.b Z I.^.H.h.s.s.s.s.s.a.v.q.j.A...C L +.A           ",
"        9 G ) v ^ I./.W.G.F.F.F.F.E.^.E.P.C.F O.O.V             ",
"            9 c c D d.U.T.L.L.L.L.L.K.2.! V G A <               ",
"                < 0 4 n M T ! ! U F 3 o , 0 +                   ",
"                    N x B x.S.x.n z k .                         ",
"                    m l 2 / { ^ 6 . z >                         ",
"                    p.6 [ [ ( j i X 2 E                         ",
"                    k.w.(.e.7.8.r.j y }                         ",
"                    = 7 a       : 7 =                           ",
"                      p           u 7                           ",
"                                                                ",
"                                                                ",
"                                                                "
};
