/* XPM */
static char *result[] = {
/* columns rows colors chars-per-pixel */
"32 31 11 1 ",
"  c #080800",
". c #391808",
"X c #211010",
"o c #000063",
"O c #5A4A4A",
"+ c #944A29",
"@ c #5AD6E7",
"# c #A5A5A5",
"$ c #ADEFFF",
"% c white",
"& c None",
/* pixels */
"&&&&&&&&&&&&&&&&&&&&&&&&&&&&&&&&",
"&&&&&&&&&&&&&&&&&&&&&&&&&&&&&&&&",
"&&&&&&&&&&&&&&&&&&&&&&&&&&&&&&&&",
"&&&&&&&&&&&&&&&&&&&&&&&&&&&&&&&&",
"&&&&&&&&&&&&&&&&&&&&&&&&&&&&&&&&",
"&&&&&&&&&&&&&&&&&&&&&&&&&&&&&&&&",
"&&&&&&&&&&&&&&&&&&&&&&&&&&&&&&&&",
"&&&&&&&&&&&&&&&ooo&&&&&&&&&&&&&&",
"&&&&&&&&&&&&&&o%$@o&&&&&&&&&&&&&",
"&&&&&&&&&&&&&&o%$@o&&&&&&&&&&&&&",
"&&&&&&&&&&&&&o%+++@o&&&&&&&&&&&&",
"&&&&&&&&&&&&&o+++++o&&&&&&&&&&&&",
"&&&&&&&&&&&&o#+++++ o&&&&&&&&&&&",
"&&&&&&&&&&&&oO.+++  o&&&&&&&&&&&",
"&&&&&&&&&&&&oO..XX  o&&&&&&&&&&&",
"&&&&&&&&&&&&oO..XX  o&&&&&&&&&&&",
"&&&&&&&&&&&&o#..XX  o&&&&&&&&&&&",
"&&&&&&&&&&&&o#ooooo o&&&&&&&&&&&",
"&&&&&&&&&&&&oo%%###oo&&&&&&&&&&&",
"&&&&&&&&&&&&oo#OOO#oo&&&&&&&&&&&",
"&&&&&&&&&&&&o%OOOOO#o&&&&&&&&&&&",
"&&&&&&&&&&&&o#OOOOO#o&&&&&&&&&&&",
"&&&&&&&&&&&&&o#OOO#o&&&&&&&&&&&&",
"&&&&&&&&&&&&&o%###%o&&&&&&&&&&&&",
"&&&&&&&&&&&&&&ooooo&&&&&&&&&&&&&",
"&&&&&&&&&&&&&&&&&&&&&&&&&&&&&&&&",
"&&&&&&&&&&&&&&&&&&&&&&&&&&&&&&&&",
"&&&&&&&&&&&&&&&&&&&&&&&&&&&&&&&&",
"&&&&&&&&&&&&&&&&&&&&&&&&&&&&&&&&",
"&&&&&&&&&&&&&&&&&&&&&&&&&&&&&&&&",
"&&&&&&&&&&&&&&&&&&&&&&&&&&&&&&&&"
};
