/* XPM */
static char *ezgif_7_8e9fdb49e1[] = {
/* columns rows colors chars-per-pixel */
"32 32 170 2 ",
"   c None",
".  c #464444",
"X  c #494747",
"o  c #4D4C4C",
"O  c #4F4F50",
"+  c #4D545A",
"@  c #535354",
"#  c #565758",
"$  c #56585A",
"%  c #5B5B5C",
"&  c #4E5A62",
"*  c #525C64",
"=  c #5D5E60",
"-  c #545E68",
";  c #5F6062",
":  c #556069",
">  c #59636C",
",  c #5A6772",
"<  c #5D6A74",
"1  c #546879",
"2  c #5C6C78",
"3  c #626365",
"4  c #646669",
"5  c #67696B",
"6  c #6A6B6D",
"7  c #6C6E71",
"8  c #616E79",
"9  c #6F7174",
"0  c #65737E",
"q  c #6D767E",
"w  c #717376",
"e  c #5F7280",
"r  c #587489",
"t  c #5E7C94",
"y  c #5F7F98",
"u  c #657583",
"i  c #697681",
"p  c #6C7984",
"a  c #657A8A",
"s  c #6C7D8A",
"d  c #737D86",
"f  c #717D88",
"g  c #627E95",
"h  c #74818C",
"j  c #79838C",
"k  c #678297",
"l  c #6F8393",
"z  c #64859D",
"x  c #69879E",
"c  c #6A889F",
"v  c #758593",
"b  c #798591",
"n  c #7C8995",
"m  c #72899B",
"M  c #7E8C99",
"N  c #6486A0",
"B  c #6788A1",
"V  c #6D8BA3",
"C  c #6D8FA9",
"Z  c #748EA3",
"A  c #7791A5",
"S  c #7D91A1",
"D  c #7493AB",
"F  c #7D96AA",
"G  c #7D9BB3",
"H  c #7E9FB9",
"J  c #6E9EC2",
"K  c #709FC1",
"L  c #6EA0C5",
"P  c #73A2C4",
"I  c #7BA4C5",
"U  c #74A4C8",
"Y  c #7AA7C9",
"T  c #7EA9CB",
"R  c #76ABD1",
"E  c #7CADD2",
"W  c #808B95",
"Q  c #818D99",
"!  c #819EB6",
"~  c #809FB8",
"^  c #85A1B7",
"/  c #84A2BB",
"(  c #8BA5BC",
")  c #8EA8BE",
"_  c #90A6BA",
"`  c #91A9BE",
"'  c #85AAC7",
"]  c #8DA9C0",
"[  c #83ABCA",
"{  c #8BADC9",
"}  c #92ABC1",
"|  c #8FB0CA",
" . c #94B3CC",
".. c #9BB6CE",
"X. c #81AFD3",
"o. c #86B2D4",
"O. c #87B2D5",
"+. c #87B3D5",
"@. c #86B2D5",
"#. c #87B3D6",
"$. c #86B3D7",
"%. c #87B3D7",
"&. c #85B1D4",
"*. c #85B1D4",
"=. c #88B2D3",
"-. c #8CB3D2",
";. c #88B3D5",
":. c #89B3D5",
">. c #88B4D6",
",. c #89B4D6",
"<. c #8BB4D6",
"1. c #8BB5D6",
"2. c #8AB5D7",
"3. c #8CB4D5",
"4. c #8CB4D4",
"5. c #8CB6D7",
"6. c #8DB6D7",
"7. c #8EB7D7",
"8. c #8BB4D6",
"9. c #87B4D8",
"0. c #87B4D8",
"q. c #8BB6D8",
"w. c #8CB6D8",
"e. c #8DB7D8",
"r. c #8FB7D8",
"t. c #8EB7D8",
"y. c #8FB8D9",
"u. c #8EB8D8",
"i. c #92B7D4",
"p. c #93B7D5",
"a. c #91B6D4",
"s. c #95B9D7",
"d. c #99BBD6",
"f. c #99BBD7",
"g. c #98BAD6",
"h. c #90B7D8",
"j. c #90B8D8",
"k. c #91B8D8",
"l. c #91B8D9",
"z. c #90B9D9",
"x. c #91B9D9",
"c. c #92B9D9",
"v. c #93B9D8",
"b. c #93BAD9",
"n. c #92BADA",
"m. c #94BAD9",
"M. c #94BBDB",
"N. c #96BCDA",
"B. c #96BCDB",
"V. c #97BCDB",
"C. c #97BDDB",
"Z. c #94BCDC",
"A. c #93BADA",
"S. c #9BBDD9",
"D. c #98BDDB",
"F. c #9EBED9",
"G. c #9CBFDB",
"H. c #9FBFDA",
"J. c #9EBEDA",
"K. c #99BEDC",
"L. c #9ABEDC",
"P. c #9BBFDD",
"I. c #9ABFDD",
"U. c #9BBEDB",
"Y. c #9FC0DC",
"T. c #9EC0DD",
"R. c #9EC1DE",
"E. c #9FC1DE",
"W. c #9FC2DF",
"Q. c #9EC1DE",
/* pixels */
"                                                                ",
"                                                                ",
"                                                                ",
"    .... . . .{ { ' ' A 7 W .... . .| { { ' ' m 3 n .. . .F     ",
"  ` F.E.L.V.x.x.6.1.&.D 6 Q F.E.L.V.x.x.6.1.&.V 3 M F.V.x.Z     ",
"    d.D.m.x.6.1.&.&.*.D 6 W d.D.x.x.6.1.&.&.*.x 3 n x.w.1.V     ",
"    i.x.6.1.:.&.*.E E C 6 n i.x.w.1.&.&.*.E E x 3 v 6.:.&.c     ",
"    -.1.:.&.*.X.E E E C 5 v 6.6.:.&.*.X.E E E z = v =.*.E z     ",
"    =.&.&.X.E E E R R C 4 v =.&.*.X.E E E E R z % l E E E z     ",
"    [ [ T Y Y U U U U N 4 h T T T Y Y U U U U g % s U U U y     ",
"    p i 0 0 0 0 0 0 8 < 5 7 0 8 8 8 2 2 < < < > = 4 < , , *     ",
"    w w 9 9 6 7 7 7 7 7 7 7 5 5 5 3 3 3 3 3 3 3 4 3 ; = = $     ",
"    ` ` ) S 6 j ` ` ) ( ( ^ ^ ! H l 3 d ( _ ( ( ^ ! ! G G s     ",
"    D.L.Z.G 4 j F.E.L.V.x.x.w.1.9.V % b Y.E.L.V.x.y.w.1.&.V     ",
"    i.w.w.D 3 j g.V.x.x.6.1.&.&.*.c $ j D.V.x.w.6.1.&.&.*.x     ",
"    =.:.&.D 3 h i.x.w.1.&.&.X.X.E x $ h v.x.w.1.&.*.X.X.E z     ",
"    [ X.E C 3 f =.1.&.&.*.X.E E E z # s 6.1.:.&.X.X.E E E z     ",
"    T E E C ; s =.&.&.*.X.E E R R z @ s =.&.*.*.E E E R R z     ",
"    P U U N = p I T Y I U P U U L t @ u I Y I I U U U L J t     ",
"    < < , > 3 4 < > > > > > : : : $ @ = > - - - - - * & & +     ",
"    6 6 5 4 4 4 3 3 3 = % % ; = = = = % % $ $ @ @ @ # @ @ @     ",
"    } } } ] ( / / / / l $ q ` } ) ( ( / / ~ H a o q ) ) ( l     ",
"    F.E.L.V.x.w.w.1.9.V @ d F.E.L.V.x.y.6.1.9.k X f G.L.x.Z     ",
"    d.D.x.w.6.1.&.*.*.V @ p d.V.x.w.6.1.&.&.*.g X p v.w.1.V     ",
"    i.x.6.1.&.&.X.X.E B @ i i.x.6.1.&.&.X.E E g . u 1.&.&.c     ",
"    -.6.&.&.*.E E E E N @ 0 =.1.:.&.X.E E E E t . u *.X.E z     ",
"    =.&.&.X.E E E E R z O 0 X.&.&.X.E E E R R t . e E E E z     ",
"    I I I P P P K J J t o 8 I I I P P P K K J r . 2 P K J t     ",
"      2                                                 1       ",
"                                                                ",
"                                                                ",
"                                                                "
};
