/* XPM */
static char *result[] = {
/* columns rows colors chars-per-pixel */
"64 64 15 1 ",
"  c #290808",
". c #5A1010",
"X c #000063",
"o c #943131",
"O c #AD5252",
"+ c #39A518",
"@ c #63BD4A",
"# c #FFBD00",
"$ c #FFF700",
"% c #EFB57B",
"& c #8CDE6B",
"* c #FFDEB5",
"= c #FFF7EF",
"- c white",
"; c None",
/* pixels */
";;;;;;;;;;;;X&@@&&&&XXX;;;;X&&X;;;XX;;;;;;;;;;;;;;;;;;;;;;;;;;;;",
";;;;;;;;;;;;;X&@@@@@&&&XXX;X&@&X;;X&X;;;;;;;;;;;;;;;;;;;;;;;;;;;",
";;;;;;;;;;;;;;X&@@@@@@@&&&XX&@@&X;;X&X;;;;;;;;;;;;;;;;;;;;;;;;;;",
";;;;;;;;;;;;X;X&@@@@@@@@@@&&@@@@&X;X&&X;;;;;;;;;;;;;;;;;;;;;;;;;",
";;;;;;;;;;;X&X;X&@@@@@@@@@@@@@@@@&XX&@&X;;;;;;;;;;;;;;;;;;;;;;;;",
";;;;;;;;;;;X&@XX&@@@@@@XX@@@@@@@@@@X@@@@X;;;;;;;;;;;;;;;;;;;;;;;",
";;;;;;;;;;;X&@@X&@@@@@@@@X@@@@@@@@@@@@@@@XX;;;;;;;;;;;;;;;;;;;;;",
";;;;;;;;;;;;X&@@X&@@@@@@@@X@@@@@@@@@@@@@@X&XX;;;;;;;;;;;;;;;;;;;",
";;;;;;;;;;;;X&@@X&@@@@@@@@@X@@@@@@@@@@@@@X@&&X;;;;;;XXX;;;;;;;;;",
";;;;;;;;;;;;;X&@@@@@@@@@@@@X@@@@@@@@@@@@@@XXX@XXX;;;;X+X;;;;;;;;",
";;;;;;;;;;;;;;X&@@@@@@@@@@@@X@@@@@@@@@@@XX+X@@X&&XX;;X+X;;;;;;;;",
";;;;;;;;;;;;;;;X&@@@@@@@@@@@X@@@@@@@@@@X@+X@@XXX@&&XX@+X;;;;;;;;",
";;;;;;;;;;;;;;;X&@@@@@@@@@@@X@@@@@@@@@X@+X@XX++X@@@&&&+X;;;;;;;;",
";;;;;;;;;;;;;;XX&@@@@@@X@@@@X@@@@@@@@X@@+XX&@+X@@@XX++X;;;;;;;;;",
";;;;;;;;;;;;;X&@X&@@@@@X@@@@X@@@@@@@@X@@X&&@+X@@@@++XX;;;;;;;;;;",
";;;;;;;;XXXXXX@@X&@@@@X@@@@@@X@@@@@@X@@X&@@+X@@@@@@@+X;;;;;;;;;;",
";;;;;;;;;X&&&&X@@X&@@@X@@@@@@X@@@@@@X@X&&@@+X@@@@@@@+X;;;;;;;;;;",
";;;;;;;;;;X&@@@X@X&@@@X@@@@@@X@@@@@@@@X&@@+X@@@@@@@@@+X;;;;;;;;;",
";;;;;;;;;;;X&@@@XX&@@@X@@@@@@@@@@@@@@X&@@@+X@@@@@@@@@+X;;;;;;;;;",
";;;;;;;;;;;XX&@@@@@@@@X@@@@@@@XXX@@@@X&@@+X@@@@@@@@@@@+X;;;;;;;;",
";;;;;;;;;;X&@X@@@@@@@@X@@@@@XX+XX++@@@@@@+X@@@@@@@@@@@+X;;;;;;;;",
";;;;;;;;;X&@@@X@X@@@@@X@@@@X++X+++++@@@@@@@@@@@@@@@@@@@+X;;;;;;;",
";;;;;;;;X&@@@@@@@X@@@@X@@@X++X+++XXXXXX++@@@@@@&&@@@@@@@+X;;;;;;",
";;;;X;;X&@@X@XXX@@X@@@@X@@@++++XX******XX+@@@@@@@&@@@@@@@+XX;;;;",
";;;;;XXX&@@@X=**XX@@@@@X@@+++XX**********X+@@&&@@@&@@@@@@@++XX;;",
";;;;;X&&@@@X******X@X@@@@+X+X*************X@@@@&@@@@@@@@@@++++X;",
";;;;;X&&@@@X*******X*X@@+X*X*************X+++++@@@@@@@@@@+XXXX;;",
";;;;;;XX&@XX**********XXX***************X+++++++@@@@@@@@@+X;;;;;",
";;;;;;;;XX++X**************************X@@@@++X++@@@@@@@@@+X;;;;",
";;;;;X;X&+++X***************************XX@@@++X+@@@@@@@@@+X;;;;",
";;;;;XXX&@@X******************************X@@@+X+@@@@@+X@@@+XX;;",
";;;;;X&&&@@X****XXX************XXXX********X@@@+XXX@@@@+X@@@+X;;",
";;;;;;XXX@X=*X*X---XX*********X----XX*X*****X&@+X%%X@@@+X+++X;;;",
";;;;;;;;;XX=**X------X*******X-------X******X&@+X%*%X@@+XXXX;;;;",
";;;;;;;;;;;X=XX---XX--X****XX---XX---X******X&@+X%*%X@@+X;;;;;;;",
";;;;;;;;;;;XX*X---XX-X%******X--XX---X******X&@+X%*%X@@+X;;;;;;;",
";;;;;;;;;;;X=X%X-----X%******X------X%******X&@+X%*%X+X+X;;;;;;;",
";;;;;;;;;;;XX=*%XXXXX%********XXXXXX%*******X&@+X%%X@+XX;;;;;;;;",
";;;;;;;;;;;XX=%%%%%%%*XX*XX***%%%%%%**%%****X&@+X%%X@+X;;;;;;;;;",
";;;;;;;;;;;X&X%%%****X-XXX$X*********%%%****X&@+X%X+++X;;;;;;;;;",
";;;;;;;;;;;X&X%XX*%%%X$$$$$X%%%%%%%%%XX%****X&@+XX+++X;;;;;;;;;;",
";;;;;;;XXX;X&X=*XXXXXXXXXXXXXXXXXXXXXX%*****X&@+X++++X;;;;;;;;;;",
";;;;;;;XOOXX&X=*X---X-.-.-.-.-.-.X---X%*****X@@+X++++X;;;;;;;;;;",
";;;;;;;XOoOX&X=**X--X............X--X%*****X@@+XX+++++X;;;;;;;;;",
";;;;;;;XOooX&@X=**X-X.-.-.-.-.-..X-X%******X@@+XX++++++X;;;;;;;;",
";;;;;;;;XoooX&X=**XXXXXXXXXXXXXXX-XX******X@@@XoX+X++XX;;;;;;;;;",
";;;;;;;XOoooX@X=*X*X%%%%%%%%%%%%%X*X****%%X@XXoooXoXXX;;;;;;;;;;",
";;;;;;;XOoooX@@X%.X*XX*********XX*X.%%%%XX@XooooooooooX;;;;;;;;;",
";;;;;;XOXOoooX@XXXX***XXX***XXX***XXXXXXOXXooooooo...X;;;;;;;;;;",
";;;;;;XX;XoooX@X.X%**XoooXXXooX**%%XOOOOooooXoooo.XXXXX;;;;;;;;;",
";;;;;;;;XoooooXXXX%%XooXoXXXXXXXXXXXXOoooooooX.o..X;;;;;;;;;;;;;",
";;;;;;;;XoXXoooXo.XXXoooXoooooooooo-oXXoo...X.oXX..X;;;;;;;;;;;;",
";;;;;;;;XX;;XoX--------X.----------ooXXX..X.XX.X;XXXX;;;;;;;;;;;",
";;;;;;;;;;;;;X;XXXXXXX XXXXXXXXXXXXXXXo.XX.XX.XX;;;;;;;;;;;;;;;;",
";;;;;;;;;;;;;;;;;;Xo...X#oo###oo$#oo##Xo......X;;;;;;;;;;;;;;;;;",
";;;;;;;;;;;;;;;;;Xo...XXX##oX#oo##oo#$#Xo......X;;;;;;;;;;;;;;;;",
";;;;;;;;;;;;;;;;;Xo...X.X##oXX##oo##$oXXo......XX;;;;;;;;;;;;;;;",
";;;;;;;;;;;;;;;XXo...X;XX-o###X#o--#oX;;Xo..     X;;;;;;;;;;;;;;",
";;;;;;;;;;;;;;;;;XXXXXXXXX-#XX;X-XXXX;;;Xo  XXXXXX;;;;;;;;;;;;;;",
";;;;;;;;;;;;;;;;;;;;;;XXXXXX;;;;XXX;;;;;XXXXX;;;XX;;;;;;;;;;;;;;",
";;;;;;;;;;;;;;;;;;;;;;;XX;;;;;;;;XXX;;;;;;;;;;;;;;;;;;;;;;;;;;;;",
";;;;;;;;;;;;;;;;;;;;;;;;;;;;;;;;XXXX;;;;;;;;;;;;;;;;;;;;;;;;;;;;",
";;;;;;;;;;;;;;;;;;;;;;;;;;;;;;;;;;;;;;;;;;;;;;;;;;;;;;;;;;;;;;;;",
";;;;;;;;;;;;;;;;;;;;;;;;;;;;;;;;;;;;;;;;;;;;;;;;;;;;;;;;;;;;;;;;"
};
