/* XPM */
static char *result[] = {
/* columns rows colors chars-per-pixel */
"64 64 13 1 ",
"  c #211821",
". c #000063",
"X c #FFBD39",
"o c #FFF700",
"O c #F74AB5",
"+ c #088C84",
"@ c #189C94",
"# c #29B5AD",
"$ c #42CEC6",
"% c #CECECE",
"& c #E7E7E7",
"* c white",
"= c None",
/* pixels */
"================================================================",
"========================.=====.=====.===========================",
"=======================.*.===.X.===.X.==========================",
"=======================.*o.=.*oX.=.*X.==========================",
"=================..===.*ooo.*oooX.*ooX.===..====================",
"=================.*...*oooooooooooooooX...X.====================",
"=================.***o..ooooo..oooo..ooXXXX.====================",
"=================..oo.oX.ooo.oX.oo.oX.oooo..====================",
"=================.o.o.XX.ooo.XX.oo.XX.ooo.X.====================",
"==================..oo..ooooo..oooo..oooo..=====================",
"==================.ooooooooooooooooooooooX.=====================",
"==================.XXXXXXXXXXXXXXXXXXXXXXX.=====================",
"==================.*oooooooooooooooooooooX.=====================",
"==================.........................=====================",
"==================.XXXXXXXXXXXXXXXXXXXXXXX.=====================",
"============.....................................===============",
"===========.*****ooooooooooooooooooooooooooooXXXX.==============",
"============.....................................===============",
"===============.........oo.........oo........===================",
"==============.........o..o.......o..o........==================",
"============..........o.OO.o.&.&.o.OO.o.........================",
"===========..........o.**OO.o...o.**OO.o.........===============",
"==========...........o.**OOO.ooo.O**OO.o.........===============",
"==========........ooooo.OOOOO.o.OOOOO.ooooo.........============",
"==========...........o.OOOOO.ooo.OOOOO.o.............===========",
"===========........&.o.OOOO.o...o.OOOO.o.%............==========",
"==========........&&&.o.OO.o.&&&.o.OO.o.&&%...........==========",
"=========........&&&&&.o..o.&&&&&.o..o.&&&&%...........=========",
"=========.......&&&&&&&.oo.&&&&&&&.oo.&&&&&&%......#*##.========",
"=========.......&&&&&&&....&&&&&&&....&&&&&&%.....#*@@+.========",
"==========.....&&&&&&&......&&&&&......&&&&&&%...#*@@++.========",
"========.......&&&&&&.......&&&&&.......&&&&&%....@@+..=========",
"=======........&&&&&&.......&&&&&.......&&&&&%... .+..==========",
"=======........&&&&&&.......&&&&&.......&&&&&%..   ...==========",
"=======.........&&&&&.......&&&&&.......&&&&%..   ....==========",
"=======.........&&&&&&.....&&&.&&&.....&&&&&%.   ....===========",
"========.........&&&&&&&&&&&&...&&&&&&...&&%.%. ...=============",
"===========.......%%%%%%%.&&&&&&&&&.%.$#.%%.&&%.....============",
"==========................%%.%.%.%%..$@....&&&.&&....===========",
"=========.............o.%...........$@....   .&&&....===========",
"=========............o.*%%.&.**..&..$@.o.   .*&&.....===========",
"=========............o.**%.&...#.&..#@..   ..*......============",
"==========...........X..*%.&..$@.&..#@@.  .........=============",
"===========.........oXX.*%.&..$@.&..#.@@......+...==============",
"=============.......oXX....&..#@#....@.@@...@@+...==============",
"============.........XXoXX.&..#@@#.#@.@.@@@@@++...==============",
"============.........XoXXo..$#@@@@#..@.@+++++....===============",
"============..........o.Xo...@...@@..@++........================",
"=============......=.......*&.&&&.@@@+...==....=================",
"==============....==.......*&.&&&%.@+.==========================",
"====================.......*&.%%%..@.===========================",
"=====================.......&....@@@.===========================",
"=========================.$*..@@@@@@#.==========================",
"=========================.#@@..@+.####.=========================",
"========================.#@@.*.+...####.========================",
"=======================..++.*.+.==......========================",
"======================.........====....=========================",
"=====================....===========....========================",
"================================================================",
"================================================================",
"================================================================",
"================================================================",
"================================================================",
"================================================================"
};
