/* XPM */
static char *result[] = {
/* columns rows colors chars-per-pixel */
"64 64 15 1 ",
"  c #000063",
". c #A56B00",
"X c #E77B18",
"o c #F75A63",
"O c #F7C631",
"+ c #F79C4A",
"@ c #D6A542",
"# c #EFC673",
"$ c #0031BD",
"% c #4A9CEF",
"& c #5ACEF7",
"* c #FF9CA5",
"= c #BDDEF7",
"- c white",
"; c None",
/* pixels */
";;;;;;;;;;;;;;;;;;;;;;;;;;;;;;;;;;;;;;;;;;;;;;;;;;;;;;;;;;;;;;;;",
";;;;;;;;;;;;;;;;;;;;;;;;;;;;;;;;;;;;;;;;;;;;;;;;;;;;;;;;;;;;;;;;",
";;;;;;;;;;;;;;;;;;;;;;;;;;;;;;;;;;;;;;;;;;;;;;;;;;;;;;;;;;;;;;;;",
";;;;;;;;;;;;;;;;;;;;;;;;;;;;;;;;;;;;;;;;;;;;;;;;;;;;;;;;;;;;;;;;",
";;;;;;;;;;;;;;;;;;;;;;;;;;;;;;;;;;;;;;;;;;;;;;;;;;;;;;;;;;;;;;;;",
";;;;;;;;;;;;;;;;;;;;;;;;;;;;;;;;;;;;;;;;;;;;;;;;;;;;;;;;;;;;;;;;",
";;;;;;;;;;;;;;;;;;;;;;;;;;;;;;;;;;;;;;;;;;;;;;;;;;;;;;;;;;;;;;;;",
";;;;;;;;;;;;;;;;;;;;;;;;;;;;;;;;;;;;;;;;;;;;;;;;;;;;;;;;;;;;;;;;",
";;;;;;;;;;;;;;;;;;;;;;;;;;;;;;;;;;;;;;;;;;;;;;;;;;;;;;;;;;;;;;;;",
";;;;;;;;;;;;;;;;;;;;;;;;;;;;;;;;;;;;;;;;;;;;;;;;;;;;;;;;;;;;;;;;",
";;;;;;;;;;;;;;;;;;;;;;;;;;;;;;;;;;;;;;;;;;;;;;;;;;;;;;;;;;;;;;;;",
";;;;;;;;;;;;;;;;;;;;;;;;;;          ;;;;;;;;;;;;;;;;;;;;;;;;;;;;",
";;;;;;;;;;;;;;;;;;;;;;;   ==========   ;;;;;;;;;;;;;;;;;;;;;;;;;",
";;;;;;;;;;;;;;;;;;;;   ===&&&&&&&&&&%%%   ;;;;;;;;;;;;;;;;;;;;;;",
";;;;;;;;;;;;;;;;;;; ===&&&&&&&-&&&&&&&&%%% ;;;;;;;;;;;;;;;;;;;;;",
";;;;;;;;;;;;;;;;;  =&&&&&&-&&&&&&&&-&&&&&&%  ;;;;;;;;;;;;;;;;;;;",
";;;;;;;;;;;;;;;; ==&&&&&&&&&      &&&&&&&&&%% ;;;;;;;;;;;;;;;;;;",
";;;;;;;;;;;;;;; = &&&&&&&&  ------  &&&&&&&& % ;;;;;;;;;;;;;;;;;",
";;;;;;;;;;;;;; = . &&&-&& --      -- &&-&&& . % ;;;;;;;;;;;;;;;;",
";;;;;;;;;;;;;;  . . &&&& -    oo    - &&&& . .  ;;;;;;;;;;;;;;;;",
";;;;;;;;;;;;; =& . . &&& -  --  --  - &&& . .  % ;;;;;;;;;;;;;;;",
";;;;;;;;;;;  . && . . & - o ------ o - & . . && .  ;;;;;;;;;;;;;",
";;;;;;;;;; . . && . . & - oo ---- oo - & . . && . . ;;;;;;;;;;;;",
";;;;;;;;;  . . && . . & - ooo -- ooo - & . . && . .  ;;;;;;;;;;;",
";;;;;;;; . . . && . . & - oo ---- oo - & . . && . . . ;;;;;;;;;;",
";;;;;;;; . .. .  . . && - o ------ o - && . .  . .. . ;;;;;;;;;;",
";;;;;;;; .. .. .... &&&& -  --  --  - &&&& .... .. .. ;;;;;;;;;;",
";;;;;;;;; ..  .... &&&-& - o      o - &-&&& ....  .. ;;;;;;;;;;;",
";;;;;;;;;; ....  .. &&&&& -  ****  - &&&&& ..  .... ;;;;;;;;;;;;",
";;;;;;;;;;;     =  &&&&&&  **oooooo  &&&&&&  &     ;;;;;;;;;;;;;",
";;;;;;;;;;; =&    &&&    **oo    oooo    &&&    &% ;;;;;;;;;;;;;",
";;;;;;;;;;;; = ### & ****oo  @@@@  oooooo & ### % ;;;;;;;;;;;;;;",
";;;;;;;;;;;; =& ## & *ooo     @@     oooo & ## &% ;;;;;;;;;;;;;;",
";;;;;;;;;;;; =&&  &&&    @@@@@@@@@@@@    &&&  &&% ;;;;;;;;;;;;;;",
";;;;;;;;;;;;; =&&&&&& @@    @@@@@@     @ &&&&&&% ;;;;;;;;;;;;;;;",
";;;;;;;;;;;;;; =&&& & # ---- #### ---- @ & &&&% ;;;;;;;;;;;;;;;;",
";;;;;;;;;;;;;; =&&& & # -  - #### -  - # & &&&% ;;;;;;;;;;;;;;;;",
";;;;;;;;;;;;;;; =&& & # -  - #### -  - # & &&% ;;;;;;;;;;;;;;;;;",
";;;;;;;;;;;;;;;; =& & # ---- #$$# ---- # & %% ;;;;;;;;;;;;;;;;;;",
";;;;;;;;;;;;;;;;; = & ##    ######    ## &   ;;;;;;;;;;;;;;;;;;;",
";;;;;;;;;;;;;;;;;;  &  #####      ###### & ;;;;;;;;;;;;;;;;;;;;;",
";;;;;;;;;;;;;;;;;;     ###### oo ######  & ;;;;;;;;;;;;;;;;;;;;;",
";;;;;;;;;;;;;;;;;; ###  ##### oo ####  ;; ;;;;;;;;;;;;;;;;;;;;;;",
";;;;;;;;;;;;;;;;;;  # @#     #  #     ;;;;;;;;;;;;;;;;;;;;;;;;;;",
";;;;;;;;;;;;;;;;;;;     ##  - ## O  # ;;;;;;;;;;;;;;;;;;;;;;;;;;",
";;;;;;;;;;;;;;;;;;;;;;;;  $ -O  -O $ # ;;;;;;;;;;;;;;;;;;;;;;;;;",
";;;;;;;;;;;;;;;;;;;;;;;; $ O-O-O-O-  # ;;;;;;;;;;;;;;;;;;;;;;;;;",
";;;;;;;;;;;;;;;;;;;;;;;;             ## ;;;;;;;;;;;;;;;;;;;;;;;;",
";;;;;;;;;;;;;;;;;;;;;;;;; O++XXXX++X #  ;;;;;;;;;;;;;;;;;;;;;;;;",
";;;;;;;;;;;;;;;;;;;;;;;;; OXX    XXX    ;;;;;;;;;;;;;;;;;;;;;;;;",
";;;;;;;;;;;;;;;;;;;;;;;;;;   ;;;;   ;   ;;;;;;;;;;;;;;;;;;;;;;;;",
";;;;;;;;;;;;;;;;;;;;;;;;;; # ;;;; # ;;;;;;;;;;;;;;;;;;;;;;;;;;;;",
";;;;;;;;;;;;;;;;;;;;;;;;;    ;;;;    ;;;;;;;;;;;;;;;;;;;;;;;;;;;",
";;;;;;;;;;;;;;;;;;;;;;;;;;;;;;;;;;;;;;;;;;;;;;;;;;;;;;;;;;;;;;;;",
";;;;;;;;;;;;;;;;;;;;;;;;;;;;;;;;;;;;;;;;;;;;;;;;;;;;;;;;;;;;;;;;",
";;;;;;;;;;;;;;;;;;;;;;;;;;;;;;;;;;;;;;;;;;;;;;;;;;;;;;;;;;;;;;;;",
";;;;;;;;;;;;;;;;;;;;;;;;;;;;;;;;;;;;;;;;;;;;;;;;;;;;;;;;;;;;;;;;",
";;;;;;;;;;;;;;;;;;;;;;;;;;;;;;;;;;;;;;;;;;;;;;;;;;;;;;;;;;;;;;;;",
";;;;;;;;;;;;;;;;;;;;;;;;;;;;;;;;;;;;;;;;;;;;;;;;;;;;;;;;;;;;;;;;",
";;;;;;;;;;;;;;;;;;;;;;;;;;;;;;;;;;;;;;;;;;;;;;;;;;;;;;;;;;;;;;;;",
";;;;;;;;;;;;;;;;;;;;;;;;;;;;;;;;;;;;;;;;;;;;;;;;;;;;;;;;;;;;;;;;",
";;;;;;;;;;;;;;;;;;;;;;;;;;;;;;;;;;;;;;;;;;;;;;;;;;;;;;;;;;;;;;;;",
";;;;;;;;;;;;;;;;;;;;;;;;;;;;;;;;;;;;;;;;;;;;;;;;;;;;;;;;;;;;;;;;",
";;;;;;;;;;;;;;;;;;;;;;;;;;;;;;;;;;;;;;;;;;;;;;;;;;;;;;;;;;;;;;;;"
};
