/* XPM */
static char *result[] = {
/* columns rows colors chars-per-pixel */
"64 64 78 1 ",
"  c #020202",
". c #0C0505",
"X c #0B0B0B",
"o c #110707",
"O c #160909",
"+ c #1D0D0D",
"@ c #151515",
"# c #1E1212",
"$ c #1C1C1C",
"% c #230F0F",
"& c #251111",
"* c #2C1313",
"= c #201F1F",
"- c #291818",
"; c #341616",
": c #371818",
"> c #3B1919",
", c #222121",
"< c #2B2B2B",
"1 c #3C2626",
"2 c #332828",
"3 c #333333",
"4 c #383737",
"5 c #3C3C3C",
"6 c #441D1D",
"7 c #4D2121",
"8 c #522323",
"9 c #592626",
"0 c #5B2828",
"q c #612A2A",
"w c #6F2F2F",
"e c #733131",
"r c #7C3535",
"t c #424242",
"y c #4C4C4C",
"u c #555555",
"i c #5B5B5B",
"p c #646464",
"a c #6D6D6D",
"s c #757575",
"d c #7B7B7B",
"f c #803737",
"g c #863A3A",
"h c #8B3C3C",
"j c #913F3F",
"k c #964141",
"l c #9D4343",
"z c #A24545",
"x c #A74848",
"c c #AB4A4A",
"v c #B34D4D",
"b c #B94F4F",
"n c #BB5151",
"m c #C35454",
"M c #C95757",
"N c #CE5959",
"B c #D15A5A",
"V c #DB5E5E",
"C c #E36262",
"Z c #ED6666",
"A c #F06868",
"S c #848484",
"D c #8C8C8C",
"F c gray58",
"G c #9C9C9C",
"H c #A3A3A3",
"J c #ABABAB",
"K c #B4B4B4",
"L c #BBBBBB",
"P c #C3C3C3",
"I c #CDCDCD",
"U c #D3D3D3",
"Y c #DBDBDB",
"T c #E4E4E4",
"R c #ECECEC",
"E c #F4F4F4",
"W c #FFFFFF",
"Q c None",
/* pixels */
"QQQQQQQQQQQQQQQQQQQQQQQQQQQQQQQQQQQQQQQQQQQQQQQQQQQQQQQQQQQQQQQQ",
"QQQQQQQQQQQQQQQQQQQQQQQQQQQQQQQQQQQQQQQQQQQQQQQQQQQQQQQQQQQQQQQQ",
"QQQQQQQQQQQQQQQQQQQQQQQQQQQQQQQQQQQQQQQQQQQQQQQQQQQQQQQQQQQQQQQQ",
"QQQQQQQQQQQQQQQQQQQQQQQQQQQQQQQQQQQQQQQQQQQQQQQQQQQQQQQQQQQQQQQQ",
"QQQQQQQQQQQQQQQQQQQQQQQQQQQQQQQQQQQQQQQQQQQQQQQQQQQQQQQQQQQQQQQQ",
"QQQQQQQQQQQQQQQQQQQQQQQQQQQQQQQQQQQQQQQQQQQQQQQQQQQQQQQQQQQQQQQQ",
"QQQQQQQQQQQQQQQQQQQQQQQQQQQQQQQQQQQQQQQQQQQQQQQQQQQQQQQQQQQQQQQQ",
"QQQQQQQQQQQQQQQQQQQQQQQQQQQQQQQQQQQQQQQQQQQQQQQQQQQQQQQQQQQQQQQQ",
"QQQQQQQQQQQQQQQQQQQQQQQQQQQQQQQQQQQQQQQQQQQQQQQQQQQQQQQQQQQQQQQQ",
"QQQQQQQQQQQQQQQQQQQQQQQQQQQQQQQQQQQQ .o QQQQQQQQQQQQQQQQQQQQQQQQ",
"QQQQQQXX<@ QQQQQQQQQQQQQQQQQQQQQ.6gnCZ: QQQQQQQQQQQQQQQQQQQQQQQQ",
"QQQQQ5KWWWS QQQQQQQQQQQQQQQQQQQ:nAAAAg QQ o QQQQQQQQQQQQQQQQQQQQ",
"QQQQ3EWWWWW5QQQQQQQQQQQQQQQ X 9ZAAAAA*o6fMqQQQQQQQQQ$py QQQQQQQQ",
"QQQQSWWWWWWdQQQQQQQQQQQX@pGIF6ZAAAAAAZAAAB.QQQQQQQQpEWWF QQQQQQQ",
"QQQQsWWWWWWuQQQQQQQQQQ,GWWWE2VAAAAAAAAAAZ:QQQQQQQQ@EWWWW$QQQQQQQ",
"QQQ,JWWWWWYXQQQQQQQQXiRWWWWHeZAAAAAAAAAZ8QQQQQQQQQ3WWWWW,QQQQQQQ",
"QQyEWWWWWWi QQQQQQQQaWWWWWW4NAAAAAAAAAV>tQQQQQQQQQXWWWWT XQQQQQQ",
"Q3EWWWWWWWWd QQQQQQ5WWWWWWT&ZAAAAAAAZh&FWyQQQQQQQQ<TWWWWTLu QQQQ",
" GWWWWWWWWWWI<QQQQ IWWWWWWJ7AAAAAZBr-aTWWIXQQQQQXdEWWWWWWWW4QQQQ",
" LWWWWWWWWWWWEa QQyWWWWWWWDqCNvg01uJEWWWWW,QQQQ5UWWWWWWWWWWdQQQQ",
"QDWWWWWLUWWWWWWL$ GWWWWWWWG5yaDKYWWWWWWWsWuQQ@FWWWWWWWWWWWWpQQQQ",
"Q$UWWWH@XdEWWWWWE$ISRWWWWWWWWWWWWWWWWWWTDWs uTWWWWWWUaLWWWR@QQQQ",
"QQX5y$QQQQ<PWWWWW@EPDWWWWWWWWWWWWWWWWWWPLWsDWWWWWWK5 QXLWTtQQQQQ",
"QQQQQQQQQQQXpRWWW$EYsWWEPKYWWWWWWWUHKEWTFWyIWWWWK3 QQQQX,XQQQQQQ",
"QQQQQQQQQQQQQ$JWW3RFPWI$   pWWWWWa   @PWdR=EWWUt QQQQQQQQQQQQQQQ",
"QQQQQQQQQQQQQQ uTyJaWE$     SWWWG     @RT54WEdXQQQQQQQQQQ o..QQQ",
"QQQQQQQQQQQQQQQQ@< IWP      =WWWt      JWK5U<QQQQQQQQQ &rnVV*QQQ",
"QQQQQQQQ..* QQQQQ  WWJ       WWWt      DWW@ QQQQQQQQQ.gZAAC>QQQQ",
"QQQQQQ 8cZb QQQQQQ JWY      <WWWs      IWG QQQQQQQQQ.vAAAZ6QQ O ",
"QQQQQ*mAAV+QQQQQQQQXJWa     GWWWR,    iTt.QQQQQQQQQ zAAAAg  >hl ",
"QQQ.6CAAAw Q.;6 QQQQXSWD<X3GWW54ERp<3DWGQQQQQQQQQQQ8AAAAAjkVZZ;Q",
"QQQ:ZAAAAxrlVAM QQQQQXEWWWWWWD XSWWWWWWE$QQQQQQQQQ BAAAAAAAAAgQQ",
"QQoBAAAAAAAAAA9QQQQQ JWEWWWWWtaF3WWWWWYDXQQQQQQQQQ8AAAAAAAAAb.QQ",
"Q fAAAAAAAAAAz QQQQQQ$<sWWWWWIEWIWWWWWPXQQQQQQQQQ zAAAAAAAAnOQQQ",
"QoCAAAAAAAAAvoQQQQQQQQ GYRRRRRRRRRTTULdXQQQQQQQQQ CAAAAAAZg.QQQQ",
"QqAAAAAAAAAl.QQQQQQQQQ  sss,ssa<sditDD4t.QQQQQQQQXlMCZZmf% QQQQQ",
" cAAAAAAAB8 QQQQQQQQQ5H5WWUpWWRiWWRuWWLpP,QQQQQQQQQ.   .QQQQQQQQ",
" CAAAAVl6.QQQQQQQQQ,HWSDWWJFWWRiWWW5WWW3WEaXQQQQQQQQQQQQQQQQQQQQ",
" +&;&O  QQQQQQQQQ@dEWWytuu<5uuu$uuu@uuu@TWWP<QQ o QQQQQQQQQQQQQQ",
"QQQQQQQQQQQQQQQQyUWWWW<TEEiUEETuEEEuUEEdLWWWEa hl Q  QQQQQQQQQQQ",
"QQQQQQQQQQQQQQ3JWWWWWY@WWWtEWWRiWWWpIWWHHWWWWWL,% %l;QQQQQQQQQQQ",
"QQQQQ@,@QQQQ@dEWWWWEdXXWWWtWWWRiWWWsLWEGFWWWWWWEp zm QQQQQQQQQQQ",
"QQQ pYERF, tUWWWWWK<QQ 5tt3t5t55t555ttt$0YWWWWWWWL,+QQQ .QQQQQQQ",
"QQ pWWWWWRJWWWWWYyQQQQ JWWWWWWWWWWWWWWE,QXdEWWWWWWEp $SIYLyQQQQQ",
"QQ UWWWWWWWWWWEd@QQQQQQ,EWWWWWWWWWWWWWd @Ml<LWWWWWWWLYWWWWW<QQQQ",
"QQ EWWWWWWWWWK<QQQQQQQQ aWWWWWWWWWWWWK QlAAV7iRWWWWWWWWWWWWSQQQQ",
"QQ YWWWWWWWWE,QQQQQQQQQQ DWWWWWWWWWWKXQ:ZAAAAz2PWWWWWWWWWWWdQQQQ",
"QQQpWWWWWWWWWFQQQQQQQQQQQ iTWWWWWWEd QQkAAAAAAr GWWWWWWWWWE<QQQQ",
"QQQQ5DJLWWWWWU QQQQQQQQQQQQXiFKLHa@QQQXVAAAVh*QXJWWWWWWWWIyQQQQQ",
"QQQQQQXaWWWWWE QQQQQQQQQQQQQQQQQQQQQQQ&Amg7.QQQ RWWWWWa<,QQQQQQQ",
"QQQQQQQsWWWWWU QQQQQQQQQQQQQQQQQQQQQQQo+.QQQQQQ WWWWWW5QQQQQQQQQ",
"QQQQQQQtWWWWWpQQQQQQQQQQQQQQQQQQQQQQQQQQQQQQQQQ RWWWWEXQQQQQQQQQ",
"QQQQQQQ GWWEs QQQQQQQQQQQQQQQQQQQQQQQQQQQQQQQQQQGWWWWdXQQQQQQQQQ",
"QQQQQQQQ <5XXQQQQQQQQQQQQQQQQQQQQQQQQQQQQQQQQQQQ@KWEDXQQQQQQQQQQ",
"QQQQQQQQQQQQQQQQQQQQQQQQQQQQQQQQQQQQQQQQQQQQQQQQQX<,XQQQQQQQQQQQ",
"QQQQQQQQQQQQQQQQQQQQQQQQQQQQQQQQQQQQQQQQQQQQQQQQQQQQQQQQQQQQQQQQ",
"QQQQQQQQQQQQQQQQQQQQQQQQQQQQQQQQQQQQQQQQQQQQQQQQQQQQQQQQQQQQQQQQ",
"QQQQQQQQQQQQQQQQQQQQQQQQQQQQQQQQQQQQQQQQQQQQQQQQQQQQQQQQQQQQQQQQ",
"QQQQQQQQQQQQQQQQQQQQQQQQQQQQQQQQQQQQQQQQQQQQQQQQQQQQQQQQQQQQQQQQ",
"QQQQQQQQQQQQQQQQQQQQQQQQQQQQQQQQQQQQQQQQQQQQQQQQQQQQQQQQQQQQQQQQ",
"QQQQQQQQQQQQQQQQQQQQQQQQQQQQQQQQQQQQQQQQQQQQQQQQQQQQQQQQQQQQQQQQ",
"QQQQQQQQQQQQQQQQQQQQQQQQQQQQQQQQQQQQQQQQQQQQQQQQQQQQQQQQQQQQQQQQ",
"QQQQQQQQQQQQQQQQQQQQQQQQQQQQQQQQQQQQQQQQQQQQQQQQQQQQQQQQQQQQQQQQ",
"QQQQQQQQQQQQQQQQQQQQQQQQQQQQQQQQQQQQQQQQQQQQQQQQQQQQQQQQQQQQQQQQ"
};
