/* XPM */
static char *result[] = {
/* columns rows colors chars-per-pixel */
"64 64 16 1 ",
"  c #000063",
". c #940000",
"X c #D62929",
"o c #FF6B6B",
"O c #5AC65A",
"+ c #FFDE31",
"@ c #F7B55A",
"# c #18BDE7",
"$ c #73E7FF",
"% c #FF949C",
"& c #FFDEA5",
"* c #FFF7AD",
"= c #B5F7FF",
"- c #C6C6C6",
"; c white",
": c None",
/* pixels */
"::::::::::::::::::::::::::::::::::::::::::::::::::::::::::::::::",
"::::::::::::::::::::::::::::::::::::::::::::::::::::::::::::::::",
":::::::::::::::::::::::::::         ::::::::::::::::::::::::::::",
"::::::::::::::::::::::::   =========   :::::::::::::::::::::::::",
"::::::::::::::::::::::  ===$$ $$$$ $===  :::::::::::::::::::::::",
"::::::::::::::::::::: ==$$$$$$$$$$$$ $$## ::::::::::::::::::::::",
":::::::::::::::::::: =$$$ $ $$$$ $$$$$$$$# :::::::::::::::::::::",
"::::::::::::::::::: =$ $$$$$$$$$$$$$$ $$ $# ::::::::::::::::::::",
":::::::::::::::::: =$ & $$$$$ $$$$ $$$$ & $# :::::::::::::::::::",
":::::::::::::::::: =$ && $$$$$$$$$$$$$ && $# :::::::::::::::::::",
"::::::::::::::::: = $                     $$# ::::::::::::::::::",
"::::::::::::::::: =$ &     $   &     $   & $  ::::::::::::::::::",
"::::::::::::::::: =$ &&&  $   &&&   $  &&& $# ::::::::::::::::::",
"::::::::::::::::: = &&&&&    &&&&&    &&&&& # ::::::::::::::::::",
"::::::::::::::::: = &&&&&&&&&&&&&&&&&&&&&&& # ::::::::::::::::::",
":::::::::::::::::  &&&&&&&&&&&&&&&&&&&&&&&&&  ::::::::::::::::::",
":::::::::::::::::  &&    &&&&&&&&&&&&&    &&  ::::::::::::::::::",
"::::::::::::::::  && & ;; &&&&&&&&&&& ;; & &&  :::::::::::::::::",
"::::::::::::::: *  && ;;;; &&&   &&& ;;;; &&  @ ::::::::::::::::",
"::::::::       *&  && ;;  ; & --- & ;  ;; &&  &@       :::::::::",
"::::::  oooooo *& = & ;;  ; & --- & ;  ;; & # &@ oooooo  :::::::",
"::::: ooXXXXXX *& = && ;;; && --- && ;;; && # &@ XXXXXXoo ::::::",
":::: oXXXXXXXX *&   & &   &&&     &&&   & &   &@ XXXXXXXXo :::::",
":::    XXXXXXXX * =$ && &&&&& --- &&&&& && $# @ XXXXXXXX    ::::",
"::: *++  XXXXXXX     & &&&&&&& - &&&&&&& &     XXXXXXX  +++ ::::",
":: *+++++  XXXXXX =$ &  &&&&&&& &&&&&&&  & $= XXXXXX  ++++++ :::",
":: *+++++++ XXXXX =$ & ;   &&&&&&&&&   ; & $= XXXXX ++++++++ :::",
":: *++++++++ XXXX    & ;; ;         ; ;; &    XXXX +++++++++ :::",
"::    +++++++ XXX - *&& ; ;; ;; ;; ;; ; &&* - XXX +++++++    :::",
":: oXX  ++++++ XX -  @&&  ;; ;; ;; ;;  &&@  - XX ++++++  XX. :::",
":: oXXXX  +++++ X -  @&&&&           &&&&@  - X +++++  XXXX. :::",
"::: oXXXXX +++++   XX @&&&&&@&&&&&@&&&&&@ XX   +++++ XXXXX. ::::",
"::: oXXXXXX +++++   X  @@&&@ @&&&@ @&&@@  X   *++++ XXXXXX. ::::",
":::: oXXXXXX ++++ : XX   @@ @ @@@ @ @@   XX : *+++ XXXXXX. :::::",
"::::: ooXXXXX ++ ::: X @@  @@@   @@@  @@ X ::: *+ XXXXX.. ::::::",
"::::::  ......  :::: X *& @&&&@@@&&&@ &@ X ::::  ......  :::::::",
":::::::       :::::: X *& &&&&&&&&&&& &@ X ::::::       ::::::::",
"::::::: ----- :::::: OO *& &&&&&&&&& &@ OO :::::: ----- ::::::::",
"::::::        :::::: OX *& &&&&&&&&& &@ XO ::::::        :::::::",
":::::: ====== :::::: XX  *& &&&&&&& &@  XX :::::: ====== :::::::",
"::::: ======  :::::: XX . *& &&&&& &@ . XX ::::::  ====== ::::::",
"::::        # :::::: XX ..           .. XX :::::: #        :::::",
":::: $$$$$$ # ::::::: X .  XXXXXXXXX  . X ::::::: # $$$$$$ :::::",
"::::        # :::::::    :    XXX    :    ::::::: #        :::::",
":::: %%%%%%  ::::::::::::: *&&   &&@ :::::::::::::  %%%%%% :::::",
"::: %%%%%%%% ::::::::::::: *&&@ *&&@ ::::::::::::: %%%%%%%% ::::",
"::: %oXoXoX% ::::::::::::: *&@ : *&@ ::::::::::::: %XoXoXo% ::::",
"::: oXoXooXo ::::::::::::: --- : --- ::::::::::::: oXooXoXo ::::",
"::: oXoXooXo ::::::::::::: -- ::: -- ::::::::::::: oXooXoXo ::::",
":::: oXoXoX :::::::::::::: - ::::: - :::::::::::::: XoXoXo :::::",
":::::      ::::::::::::::    :::::    ::::::::::::::      ::::::",
"::::::::::::::::::::::::::::::::::::::::::::::::::::::::::::::::",
"::::::::::::::::::::::::::::::::::::::::::::::::::::::::::::::::",
"::::::::::::::::::::::::::::::::::::::::::::::::::::::::::::::::",
"::::::::::::::::::::::::::::::::::::::::::::::::::::::::::::::::",
"::::::::::::::::::::::::::::::::::::::::::::::::::::::::::::::::",
"::::::::::::::::::::::::::::::::::::::::::::::::::::::::::::::::",
"::::::::::::::::::::::::::::::::::::::::::::::::::::::::::::::::",
"::::::::::::::::::::::::::::::::::::::::::::::::::::::::::::::::",
"::::::::::::::::::::::::::::::::::::::::::::::::::::::::::::::::",
"::::::::::::::::::::::::::::::::::::::::::::::::::::::::::::::::",
"::::::::::::::::::::::::::::::::::::::::::::::::::::::::::::::::",
"::::::::::::::::::::::::::::::::::::::::::::::::::::::::::::::::",
"::::::::::::::::::::::::::::::::::::::::::::::::::::::::::::::::"
};
