/* XPM */
static char *result[] = {
/* columns rows colors chars-per-pixel */
"64 64 16 1 ",
"  c #00C8F8",
". c #00C0F8",
"X c #08D0F8",
"o c #58D8F8",
"O c #40D8F8",
"+ c #68E8F8",
"@ c #58E0F8",
"# c #48D8F8",
"$ c #98F0F8",
"% c #30D0F8",
"& c #98F8F8",
"* c #F8F8F8",
"= c #78E8F8",
"- c #38E0F8",
"; c #10C0F8",
": c white",
/* pixels */
"     ..  ..   ..   ....  XoX  ..     ..  ..   ..   ....  XoX  ..",
" XXXoXXX   XXX  XX   XX          XXXoXXX   XXX  XX   XX         ",
"XXX   XXX     XXXXXoXXXX XXXX  XXXX   XXX     XXXXXoXXXX XXXX  X",
"XXXXXXXXXXXXoXXXXXXXXX     XXoXXXXXXXXXXXXXXoXXXXXXXXX     XXoXX",
"OOOOOOOOOOOOOOOOOOOOOOOOOOOOOOOOOOOOOOOOOOOOOOOOOOOOOOOOOOOOOOOO",
"++@@@@++++++@@@OOOOOOOOOO@@@++++++@@@@++++++@@@OOOOOOOOOO@@@++++",
"OOOOOOOOOOOOOOOOOOOOOOOOOOOOOOOOOOOOOOOOOOOOOOOOOOOOOOOOOOOOOOOO",
"OOOOOOOOOOOOOOOOOOOOOOOOOOOOOOOOOOOOOOOOOOOOOOOOOOOOOOOOOOOOOOOO",
"OOOOOOOOOOOOOOOOOOOOOOOOOOOOOOOOOOOOOOOOOOOOOOOOOOOOOOOOOOOOOOOO",
"OOOOOOOOOOOOOOOOOOOOOOOOOOOOOOOOOOOOOOOOOOOOOOOOOOOOOOOOOOOOOOOO",
"++++@@@OOOOOOOOOO@@@++++++@@@@++++++@@@OOOOOOOOOO@@@++++++@@@@++",
"OOOOOOOOOOOOOOOOOOOOOOOOOOOOOOOOOOOOOOOOOOOOOOOOOOOOOOOOOOOOOOOO",
"OOOOOOOOOOOOOOOOOOOOOOOOOOOOOOOOOOOOOOOOOOOOOOOOOOOOOOOOOOOOOOOO",
"OOOOOOOOOOOOOOOOOOOOOOOOOOOOOOOOOOOOOOOOOOOOOOOOOOOOOOOOOOOOOOOO",
"OOOOOOOOOOOOOOOOOOOOOOOOOOOOOOOOOOOOOOOOOOOOOOOOOOOOOOOOOOOOOOOO",
"OOOOOOOOOOOOOOOOOOOOOOOOOOOOOOOOOOOOOOOOOOOOOOOOOOOOOOOOOOOOOOOO",
"++@@@@++++++@@@OOOOOOOOOO@@@++++++@@@@++++++@@@OOOOOOOOOO@@@++++",
"################################################################",
"@@++++++@@@OOOOOOOOOO@@@++++++@@@@++++++@@@OOOOOOOOOO@@@++++++@@",
"################################################################",
"################################################################",
"################################################################",
"ooo+++$$$$$$++++$$$$$$+++oooooooooo+++$$$$$$++++$$$$$$+++ooooooo",
"OOOOOOOOOOOOOOOOOOOOOOOOOOOOOOOOOOOOOOOOOOOOOOOOOOOOOOOOOOOOOOOO",
"OOOOOOOOOOOOOOOOOOOOOOOOOOOOOOOOOOOOOOOOOOOOOOOOOOOOOOOOOOOOOOOO",
"++$$$$$$++++$$$$$$+++oooooooooo+++$$$$$$++++$$$$$$+++oooooooooo+",
"################################################################",
"################################################################",
"################################################################",
"$$++++$$$$$$+++oooooooooo+++$$$$$$++++$$$$$$+++oooooooooo+++$$$$",
"################################################################",
"ooo+++$$$$$$++++$$$$$$+++oooooooooo+++$$$$$$++++$$$$$$+++ooooooo",
"OOOOOOOOOOOOOOOOOOOOOOOOOOOOOOOOOOOOOOOOOOOOOOOOOOOOOOOOOOOOOOOO",
"OOOOOOOOOOOOOOOOOOOOOOOOOOOOOOOOOOOOOOOOOOOOOOOOOOOOOOOOOOOOOOOO",
"################################################################",
"oooo+++$$$$$$++++$$$$$$+++oooooooooo+++$$$$$$++++$$$$$$+++oooooo",
"%%%%%%%%%%%%%%%%%%%%%%%%%%%%%%%%%%%%%%%%%%%%%%%%%%%%%%%%%%%%%%%%",
"%%%%%%%%%%%%%%%%%%%%%%%%%%%%%%%%%%%%%%%%%%%%%%%%%%%%%%%%%%%%%%%%",
"%%%%%%%%%%%%%%%%%%%%%%%%%%%%%%%%%%%%%%%%%%%%%%%%%%%%%%%%%%%%%%%%",
"&***&&&&***&&&===---%%%%---===&&&***&&&&***&&&===---%%%%---===&&",
"%%%%%%%%%%%%%%%%%%%%%%%%%%%%%%%%%%%%%%%%%%%%%%%%%%%%%%%%%%%%%%%%",
"%%%%%%%%%%%%%%%%%%%%%%%%%%%%%%%%%%%%%%%%%%%%%%%%%%%%%%%%%%%%%%%%",
";;;%%%---===&&&&===---%%%;;;;;;;;;;%%%---===&&&&===---%%%;;;;;;;",
"%%%%%%%%%%%%%%%%%%%%%%%%%%%%%%%%%%%%%%%%%%%%%%%%%%%%%%%%%%%%%%%%",
"%%%%%%%%%%%%%%%%%%%%%%%%%%%%%%%%%%%%%%%%%%%%%%%%%%%%%%%%%%%%%%%%",
"%%%%%%%%%%%%%%%%%%%%%%%%%%%%%%%%%%%%%%%%%%%%%%%%%%%%%%%%%%%%%%%%",
"-===&&&&===---%%%;;;;;;;;;;%%%---===&&&&===---%%%;;;;;;;;;;%%%--",
"%%%%%%%%%%%%%%%%%%%%%%%%%%%%%%%%%%%%%%%%%%%%%%%%%%%%%%%%%%%%%%%%",
"===&&&***&&&====&&&***&&&===----===&&&***&&&====&&&***&&&===----",
"%%%%%%%%%%%%%%%%%%%%%%%%%%%%%%%%%%%%%%%%%%%%%%%%%%%%%%%%%%%%%%%%",
";;;%%%---===&&&&===---%%%;;;;;;;;;;%%%---===&&&&===---%%%;;;;;;;",
";%%%----%%%;;;;;;;;;%%%%;;;;;;;;;%%%----%%%;;;;;;;;;%%%%;;;;;;;;",
"%%%%%%%%%%%%%%%%%%%%%%%%%%%%%%%%%%%%%%%%%%%%%%%%%%%%%%%%%%%%%%%%",
"---===&&&***&&&&***&&&===---%%%%---===&&&***&&&&***&&&===---%%%%",
"%%%%%%%%%%%%%%%%%%%%%%%%%%%%%%%%%%%%%%%%%%%%%%%%%%%%%%%%%%%%%%%%",
"%%%%%%%%%%%%%%%%%%%%%%%%%%%%%%%%%%%%%%%%%%%%%%%%%%%%%%%%%%%%%%%%",
"&===----===&&&***&&&====&&&***&&&===----===&&&***&&&====&&&***&&",
"%%%%%%%%%%%%%%%%%%%%%%%%%%%%%%%%%%%%%%%%%%%%%%%%%%%%%%%%%%%%%%%%",
";;;%%%---===&&&&===---%%%;;;;;;;;;;%%%---===&&&&===---%%%;;;;;;;",
"%%%%%%%%%%%%%%%%%%%%%%%%%%%%%%%%%%%%%%%%%%%%%%%%%%%%%%%%%%%%%%%%",
"&&&***&&&===----===&&&***&&&====&&&***&&&===----===&&&***&&&====",
"&***&&&&***&&&===---%%%%---===&&&***&&&&***&&&===---%%%%---===&&",
";;;%%%---===&&&&===---%%%;;;;;;;;;;%%%---===&&&&===---%%%;;;;;;;",
"%%%%%%%%%%%%%%%%%%%%%%%%%%%%%%%%%%%%%%%%%%%%%%%%%%%%%%%%%%%%%%%%"
};
