/* XPM */
static char *result[] = {
/* columns rows colors chars-per-pixel */
"64 64 16 1 ",
"  c #000063",
". c #C61800",
"X c #EF2918",
"o c #BD7B39",
"O c #FF5252",
"+ c #FFF700",
"@ c #CE8C4A",
"# c #F7B55A",
"$ c #EFCE6B",
"% c #4A63D6",
"& c #7B9CF7",
"* c #E7A5A5",
"= c #FFDEA5",
"- c #FFEFD6",
"; c white",
": c None",
/* pixels */
"::::::::::::::::::::::::::::::::::::::::::::::::::::::::::::::::",
"::::::::::::::::::::::::::::::::::::::::::::::::::::::::::::::::",
"::::::::::::::::::::::::::::::::::::::::::::::::::::::::::::::::",
"::::::::::::::::::::::::::::::::::::::::::::::::::::::::::::::::",
"::::::::::::::::::::::::::::::::::::::::::::::::::::::::::::::::",
"::::::::::::::::::::::::::::::::::::::::::::::::::::::::::::::::",
":::::::::::::::::::::::::           ::::::::::::::::::::::::::::",
":::::::::::::::::::::    ===========    ::::::::::::::::::::::::",
":::::::::::::::::::  ====$$$$$$$$$$$====  ::::::::::::::::::::::",
":::::::::::::::::  ==$$$$$$$$$$$$$$$$$$$==  ::::::::::::::::::::",
":::::::::::::::: =$$$$$$$$$$$$$$$$$$$$$$$$@@ :::::::::::::::::::",
"::::::::::::::: =$$$$$$             $$$$$$$$@ ::::::::::::::::::",
":::::::::::::: =$$$    $$$$$$$$$$$$$     $$$$@ :::::::::::::::::",
"::::::::::::: ==   $$$$$$$$$$$$$$$$$$$$$$   $$@ ::::::::::::::::",
":::::::::::::   $$$$$$$$$$$$$$$$$$$$$$$$$$$$  #@ :::::::::::::::",
"::::::::::::  $$$$$$$$$$@@@@@@@@@@@@@$$$$$$$$$  @ ::::::::::::::",
"::::::::::  $$$  $$$@@@@@@@@@@@@@@@@@@@@@$$$$$$$  ::::::::::::::",
"::::::::: $$$  $@$@@@@@@@@@@@@@@@@@@@@@@@@@@$$$$$ ::::::::::::::",
":::::::: $$$ $@@@  @@               @@@@@@@  @@$$$ :::::::::::::",
"::::::: $$@@@@@  @@     ==  =           @@@@@ @@$$$ ::::::::::::",
":::::: $$@@@@@ @@     ====  ==     =      @@@@ @@$$$ :::::::::::",
"::::: $@ @@@@@@@     ======  =     ==      @@@@@@@$$$ ::::::::::",
":::: $@ @@@@@@@      ======  ==    ===      @@@@@@@@$$ :::::::::",
":::: $@ @@@@@@      ======== ==    ====      @@@@@@@@$ :::::::::",
"::: $$@@@@@     =  =  ==========   ==  =      @@@@@@@@$ ::::::::",
"::: $@@@@@@@@   = ====  ========     ====     @@@@@@@@@ ::::::::",
"::: $@@@@@@    =  ====== ========  ======  =   @@@@@@@@@ :::::::",
"::: $@@@@      = ==     = ======= =     ==  =  @@@@@@@@@ :::::::",
":: $@@@@   ==  === ;;;;; ========= ;;;;; == =   @@@@@@@@o ::::::",
":: $@@@   -== -== ;;;;;;; ======= ;;;;;;; ===     @@@ @ o ::::::",
":: $@@@@@ -== -== ;;   ;; ======= ;;   ;; ===    = @@ @ o ::::::",
":: $@@@@@ -== -==;;;   ;;;=======;;;   ;;;===    =#  @ @o ::::::",
":: $@@@@@ -== -==;;;   ;;;=======;;;   ;;;===    =#  @ oo ::::::",
":: @@@@@@ -== -== ;;;;;;; ======= ;;;;;;; === #  =# @@@o :::::::",
"::: o@@@@@ -- -=== ;;;;; ========= ;;;;; =====# ==# @@@o :::::::",
"::: o@@@@@@   -====     ===========     ======# ==# @@@o :::::::",
":::: o@@@@@ooo -========================== ===# ## @@@o ::::::::",
":::: o@@@@oooo -===== =============== === ===#    @@@@o ::::::::",
"::::: o@o@@oooo -=====  ===========  =   = ==# @@@@@@o :::::::::",
":::::: ooo@@ooo -=======           ==== ====# @@@@@@o ::::::::::",
"::::::: ooo@@ooo -==========================# @@@@@o :::::::::::",
"::::::::  ooo@ooo --======================## @@@@@o ::::::::::::",
"::::::::::  oooooo  --==================##  @@@oo  :::::::::::::",
"::::::::::::  oooooo  --=============###  ooooo  :::::::::::::::",
"::::::::::::::   oooo     ###########   oooo   :::::::::::::::::",
":::::::::::::::::    OXXXX           .      ::::::::::::::::::::",
":::::::::::::::::::: OX X *====* XXXX. :::::::::::::::::::::::::",
"::::::::::::::::::: OXX + =****= XX XX. ::::::::::::::::::::::::",
"::::::::::::::::::: OXX X **===** X XX. ::::::::::::::::::::::::",
"::::::::::::::::::: O  X           . X  ::::::::::::::::::::::::",
":::::::::::::::::::: = X++++++++ +  . # ::::::::::::::::::::::::",
"::::::::::::::::::: ==  %%%%%%%%%  +  =# :::::::::::::::::::::::",
"::::::::::::::::::: == &%%%%   %%% ++ =# :::::::::::::::::::::::",
"::::::::::::::::::: == ;;;; ::: ;;; + ## :::::::::::::::::::::::",
"::::::::::::::::::::  :    :::::        ::::::::::::::::::::::::",
"::::::::::::::::::::::  # ::::::: #  :::::::::::::::::::::::::::",
"::::::::::::::::::::: == ::::::::: == ::::::::::::::::::::::::::",
":::::::::::::::::::::    :::::::::    ::::::::::::::::::::::::::",
"::::::::::::::::::::::::::::::::::::::::::::::::::::::::::::::::",
"::::::::::::::::::::::::::::::::::::::::::::::::::::::::::::::::",
"::::::::::::::::::::::::::::::::::::::::::::::::::::::::::::::::",
"::::::::::::::::::::::::::::::::::::::::::::::::::::::::::::::::",
"::::::::::::::::::::::::::::::::::::::::::::::::::::::::::::::::",
"::::::::::::::::::::::::::::::::::::::::::::::::::::::::::::::::"
};
