/* XPM */
static char *result[] = {
/* columns rows colors chars-per-pixel */
"64 64 189 2 ",
"   c #32262C",
".  c #3E2E34",
"X  c #2A2425",
"o  c #5E3E25",
"O  c #49393D",
"+  c #533C3E",
"@  c #51363F",
"#  c #753E2F",
"$  c #584E3A",
"%  c #65443E",
"&  c #754639",
"*  c #62583E",
"=  c #6A623F",
"-  c #4E3C41",
";  c #543A42",
":  c #583A43",
">  c #5D4545",
",  c #5F424B",
"<  c #534742",
"1  c #62414C",
"2  c #684949",
"3  c #764C47",
"4  c #635A44",
"5  c #64514F",
"6  c #78544F",
"7  c #6B4C55",
"8  c #6B5458",
"9  c #745759",
"0  c #79744F",
"q  c #7B615B",
"w  c #617151",
"e  c #765963",
"r  c #5E696D",
"t  c #5C6B75",
"y  c #796461",
"u  c #66737B",
"i  c #8F2C10",
"p  c #98351A",
"a  c #A03D1E",
"s  c #824934",
"d  c #BF4B26",
"f  c #BC552E",
"g  c #A65A3F",
"h  c #D64C1A",
"j  c #E15E2D",
"k  c #DB6033",
"l  c #E77339",
"z  c #825145",
"x  c #8F5B4E",
"c  c #815E5C",
"v  c #80794E",
"b  c #87665E",
"n  c #876D52",
"m  c #827055",
"M  c #AA624F",
"N  c #AE6F5D",
"B  c #B26F59",
"V  c #8C6A66",
"C  c #83636E",
"Z  c #876865",
"A  c #9A6E67",
"S  c #84726F",
"D  c #88766C",
"F  c #9B766A",
"G  c #99756A",
"H  c #917874",
"J  c #8C7A7A",
"K  c #A37266",
"L  c #A77A6D",
"P  c #A4796A",
"I  c #B57E6B",
"U  c #BE7B68",
"Y  c #AB7B71",
"T  c #C66A42",
"R  c #C4704A",
"E  c #C0735C",
"W  c #E87D45",
"Q  c #C97B69",
"!  c #E67F6B",
"~  c #958774",
"^  c #9E947B",
"/  c #AF8B6F",
"(  c #BD8962",
")  c #BA8768",
"_  c #AB8377",
"`  c #B38B7A",
"'  c #BC8879",
"]  c #B58277",
"[  c #BD957B",
"{  c #F58E56",
"}  c #C0836D",
"|  c #C58C7A",
" . c #C68876",
".. c #D68878",
"X. c #CA947F",
"o. c #D0927B",
"O. c #D98A65",
"+. c #ED927D",
"@. c #C0A77F",
"#. c #DEA574",
"$. c #5E7591",
"%. c #777B89",
"&. c #697E96",
"*. c #678199",
"=. c #77848B",
"-. c #6D89A1",
";. c #7492A9",
":. c #7D9BAD",
">. c #7897AB",
",. c #7D9CB4",
"<. c #9E918C",
"1. c #9F9099",
"2. c #98838A",
"3. c #AB8D85",
"4. c #BE8F83",
"5. c #B99585",
"6. c #AA9890",
"7. c #ABA185",
"8. c #ACA48B",
"9. c #BEAF8D",
"0. c #BCA79E",
"q. c #BCB491",
"w. c #809BA9",
"e. c #9096A0",
"r. c #87A0AF",
"t. c #84A3B5",
"y. c #8BA8B8",
"u. c #99ADB8",
"i. c #BDACA1",
"p. c #C49481",
"a. c #C99A86",
"s. c #D29E8A",
"d. c #D69B85",
"f. c #E09C88",
"g. c #F19980",
"h. c #CBA28E",
"j. c #D8A587",
"k. c #CCA493",
"l. c #C3A79D",
"z. c #C8A898",
"x. c #D2A494",
"c. c #DAA694",
"v. c #D4AA95",
"b. c #D3AC9C",
"n. c #DCAD9A",
"m. c #D4B194",
"M. c #E0A28A",
"N. c #E3AA94",
"B. c #E1AF9C",
"V. c #EBAF9C",
"C. c #F3AE96",
"Z. c #E4B39D",
"A. c #ECB49C",
"S. c #F6B29B",
"D. c #C3AEA4",
"F. c #CEB2A2",
"G. c #CDB8AA",
"H. c #D2B1A3",
"J. c #DBB4A3",
"K. c #DCB9AA",
"L. c #E3B4A1",
"P. c #EEBBA4",
"I. c #E4BCAA",
"U. c #EABCAB",
"Y. c #F4BCA4",
"T. c #FABCA4",
"R. c #F0BFAD",
"E. c #E0BFB1",
"W. c #D9C0AC",
"Q. c #ECC2AE",
"!. c #F6C1AB",
"~. c #FEC5AD",
"^. c #F8C1A7",
"/. c #EAC1B1",
"(. c #FFC6B0",
"). c #FECBB4",
"_. c #F2C7B2",
"`. c #92AFC6",
"'. c #93B3C1",
"]. c #9CB7C6",
"[. c #9ABBCB",
"{. c #9CBED1",
"}. c #9FC0CF",
"|. c #A2C6D9",
" X c #A8CDE0",
".X c #AFD4E4",
"XX c #B2D4E6",
"oX c #B1D9E7",
"OX c None",
/* pixels */
"OXOXOXOXOXOXOXOXOXOXOXOXOXOXOXOXOXOXOXOXOXOXOXOXOXOXOXOXOXk j k OXOXOXOXOXOXOXOXOXOXOXOXOXOXOXOXOXOXOXOXOXOXOXOXOXOXOXOXOXOXOXOX",
"OXOXOXOXOXOXOXOXOXOXOXOXOXOXOXOXOXOXOXOXOXOXOXOXOXOXOXOX{ R k l { OXOXOXOXOXOXOXOXOXOXOXOXOXOXOXOXOXOXOXOXOXOXOXOXOXOXOXOXOXOXOX",
"OXOXOXOXOXOXOXOXOXOXOXOXOXOXOXOXOXOXOXOXOXOXOXOXOXOXOXh.j. .( } #.( OXOXOXOXOXOXOXOXOXOXOXOXOXOXOXOXOXOXOXOXOXOXOXOXOXOXOXOXOXOX",
"OXOXOXOXOXOXOXOXOXOXOXOXOXOXOXOXOXOXOXOXOXOXOXOXOXOXOX( O.M.M.B f h OXOXOXOXOXOXOXOXOXOXOXOXOXOXOXOXOXOXOXOXOXOXOXOXOXOXOXOXOXOX",
"OXOXOXOXOXOXOXOXOXOXOXOXOXOXOXOXOXOXOXOXOXOXOXOXOXOXOXd 3 A ~.G & p OXOXOXOXOXOXOXOXOXOXOXOXOXOXOXOXOXOXOXOXOXOXOXOXOXOXOXOXOXOX",
"OXOXOXOXOXOXOXOXOXOXOXOXOXOXOXOXOXOXOXOXOXOXOXOXOXOXOX& G 5.B.z.K s OXOXOXOXOXOXOXOXOXOXOXOXOXOXOXOXOXOXOXOXOXOXOXOXOXOXOXOXOXOX",
"OXOXOXOXOXOXOXOXOXOXOXOXOXOXOXOXOXOXOXOXOXOXOXOXOXOXOXOX) Y.p.T.g OXOXOXOXOXOXOXOXOXOXOXOXOXOXOXOXOXOXOXOXOXOXOXOXOXOXOXOXOXOXOX",
"OXOXOXOXOXOXOXOXOXOXOXOXOXOXOXOXOXOXOXOXOXOXOXOXOXOXOXOXd ) N.M i OXOXOXOXOXOXOXOXOXOXOXOXOXOXOXOXOXOXOXOXOXOXOXOXOXOXOXOXOXOXOX",
"OXOXOXOXOXOXOXOXOXOXOXOXOXOXOXOXOXOXOXOXOXOXOXOXOXOXOXOXx Y I N # OXOXOXOXOXOXOXOXOXOXOXOXOXOXOXOXOXOXOXOXOXOXOXOXOXOXOXOXOXOXOX",
"OXOXOXOXOXOXOXOXOXOXOXOXOXOXOXOXOXOXOXOXOXOXOXOXOXOXOXOXOXv.~.Z.OXOXOXOXOXOXOXOXOXOXOXOXOXOXOXOXOXOXOXOXOXOXOXOXOXOXOXOXOXOXOXOX",
"OXOXOXOXOXOXOXOXOXOXOXOXOXOXOXOXOXOXOXOXOXOXOXOXOXOXC S 8.Y.~.Z.8.9 8 OXOXOXOXOXOXOXOXOXOXOXOXOXOXOXOXOXOXOXOXOXOXOXOXOXOXOXOXOX",
"OXOXOXOXOXOXOXOXOXOXOXOXOXOXOXOXOXOXOXOXOXOXOXOXOXC 1 9 9.~.~.Y.7.1 1 e OXOXOXOXOXOXOXOXOXOXOXOXOXOXOXOXOXOXOXOXOXOXOXOXOXOXOXOX",
"OXOXOXOXOXOXOXOXOXOXOXOXOXOXOXOXOXOXOXOXOXOXOXOXOX7 ; 1 q.P.Z.m.~ , ; e OXOXOXOXOXOXD.OXOXOXOXOXOXOXOXOXOXOXOXOXOXOXOXOXOXOXOXOX",
"OXOXOXOXOXOXOXOXOXOXOXOXOXOXOXOXOXOXOXOXOXOXOXOXD.6 ; 1 ^ m.X.^ 7 , : Z OXOXOXOXOXY.N.a._ ` OXOXOXOXOXOXOXOXOXOXOXOXOXOXOXOXOXOX",
"OXOXOXOXOXOXOXOXOXOXOXOXOXOXOXOXOXOXOXOXOXOXOXOX(...: ; 5 8.~ 4 ; : V _.OXOXOXOXa.d.f.} ] A OXOXOXOXOXOXOXOXOXOXOXOXOXOXOXOXOXOX",
"OXOXOXOXOXOXOXOXOXOXOXOXOXOXOXOXOXOXOXOXOXOXOXU.S.B - . . 4 0 . . . P ).OXOXOXm j.| OXOXOXOXOXOXOXOXOXOXOXOXOXOXOXOXOXOXOXOXOXOX",
"OXOXOXOXOXOXOXOXOXOXOXOXOXOXOXOXOXOXOXOXOXOXK.~.Q OXOX< * 4 v = $ < Q ~.OXOXOX/ o w OXOXOXOXOXOXOXOXOXOXOXOXOXOXOXOXOXOXOXOXOXOX",
"OXOXOXOXOXOXOXOXOXOXOXOXOXOXOXOXOXOXOXOXOXl.~...OXOXOXOXX.}  .B n OXOXT.I.OX~.d.OXOXOXOXOXOXOXOXOXOXOXOXOXOXOXOXOXOXOXOXOXOXOXOX",
"OXOXOXOXOXOXOXOXOXOXOXOXOXOXOXOXOXOXOXOXOXU.T.OXOXOXOXOX_.~.~.~.Q OXOXC.J.!.V.OXOXOXOXOXOXOXOXOXOXOXOXOXOXOXOXOXOXOXOXOXOXOXOXOX",
"OXOXOXOXOXOXOXOXOXOXOXOXOXOXOXOXOXOXOXOXOXd.(.x.OXOXOXOXm.).).^.OXOXOX' ~.^.OXOXOXOXOXOXOXOXOXOXOXOXOXOXOXOXOXOXOXOXOXOXOXOXOXOX",
"OXOXOXOXOXOXOXOXOXOXOXOXOXOXOXOXOXOXOXOXOXOXV.~.OXOXOXOXJ.~.(.T.OXOXOX] ~.[ OXOXOXOXOXOXOXOXOXOXOXOXOXOXOXOXOXOXOXOXOXOXOXOXOXOX",
"OXOXOXOXOXOXOXOXOXOXOXOXOXOXOXOXOXOXOXOXOXOXOXT.n.OXOXOX~.(.C.~.p.OXOXOXOXOXOXOXOXOXOXOXOXOXOXOXOXOXOXOXOXOXOXOXOXOXOXOXOXOXOXOX",
"OXOXOXOXOXOXOXOXOXOXOXOXOXOXOXOXOXOXOXOXOXOXOX| ~.` OXz.~.(.~.~.Y.OXOXOXOXOXOXOXOXOXOXOXOXOXOXOXOXOXOXOXOXOXOXOXOXOXOXOXOXOXOXOX",
"OXOXOXOXOXOXOXOXOXOXOXOXOXOXOXOXOXOXOXOXOXOXOXOXo.Y.OX5.B.j.L.L.L.L OXOXOXOXOXOXOXOXOXOXOXOXOXOXOXOXOXOXOXOXOXOXOXOXOXOXOXOXOXOX",
"OXOXOXOXOXOXOXOXOXOXOXOXOXOXOXOXOXOXOXOXOXOXOXOXOX..N.N.o.p.=.r u t OXOXOXOXOXOXOXOXOXOXOXOXOXOXOXOXOXOXOXOXOXOXOXOXOXOXOXOXOXOX",
"OXOXOXOXOXOXOXOXOXOXOXOXOXOXOXOXOXOXOXOXOXOXOXOXOXOXY A F S {.r.:.y.&.OXOXOXOXOXOXOXOXOXOXOXOXOXOXOXOXOXOXOXOXOXOXOXOXOXOXOXOXOX",
"OXOXOXOXOXOXOXOXOXOXOXOXOXOXOXOXOXOXOXOXOXOXOXOXOXOX[.{.'.'..Xt.:.{.-.OXOXOXOXOXOXOXOXOXOXOXOXOXOXOXOXOXOXOXOXOXOXOXOXOXOXOXOXOX",
"OXOXOXOXOXOXOXOXOXOXOXOXOXOXOXOXOXOXOXOXOXOXOXOXOXu.t.oXt.t.XX:.;. X*.$.OXOXOXOXOXOXOXOXOXOXOXOXOXOXOXOXOXOXOXOXOXOXOXOXOXOXOXOX",
"OXOXOXOXOXOXOXOXOXOXOXOXOXOXOXOXOXOXOXOXOXOXOXOXOX].,.|.`.;.XX;.,.`.*.*.OXOXOXOXOXOXOXOXOXOXOXOXOXOXOXOXOXOXOXOXOXOXOXOXOXOXOXOX",
"OXOXOXOXOXOXOXOXOXOXOXOXOXOXOXOXOXOXOXOXOXOXOXOXOXOXJ 6.e.%.u.%.2.Y  .OXOXOXOXOXOXOXOXOXOXOXOXOXOXOXOXOXOXOXOXOXOXOXOXOXOXOXOXOX",
"OXOXOXOXOXOXOXOXOXOXOXOXOXOXOXOXOXOXOXOXOXOXOXOXOXOXF.C.g.! U Q g.T.).OXOXOXOXOXOXOXOXOXOXOXOXOXOXOXOXOXOXOXOXOXOXOXOXOXOXOXOXOX",
"OXOXOXOXOXOXOXOXOXOXOXOXOXOXOXOXOXOXOXOXOXOXOXOXOXOXOX~.!.(.n.x.~.~.(.OXOXOXOXOXOXOXOXOXOXOXOXOXOXOXOXOXOXOXOXOXOXOXOXOXOXOXOXOX",
"OXOXOXOXOXOXOXOXOXOXOXOXOXOXOXOXOXOXOXOXOXOXOXOXOXOXOX).~.~.n.OX~.(.(.i.OXOXOXOXOXOXOXOXOXOXOXOXOXOXOXOXOXOXOXOXOXOXOXOXOXOXOXOX",
"OXOXOXOXOXOXOXOXOXOXOXOXOXOXOXOXOXOXOXOXOXOXOXOXOXOXOX/.(.~.b.OXZ.~.~.l.OXOXOXOXOXOXOXOXOXOXOXOXOXOXOXOXOXOXOXOXOXOXOXOXOXOXOXOX",
"OXOXOXOXOXOXOXOXOXOXOXOXOXOXOXOXOXOXOXOXOXOXOXOXOXOXOXH.~.~.b.OXk.~.~.l.OXOXOXOXOXOXOXOXOXOXOXOXOXOXOXOXOXOXOXOXOXOXOXOXOXOXOXOX",
"OXOXOXOXOXOXOXOXOXOXOXOXOXOXOXOXOXOXOXOXOXOXOXOXOXOXOXH.(.~.H.OXOX~.(.F.OXOXOXOXOXOXOXOXOXOXOXOXOXOXOXOXOXOXOXOXOXOXOXOXOXOXOXOX",
"OXOXOXOXOXOXOXOXOXOXOXOXOXOXOXOXOXOXOXOXOXOXOXOXOXOXOXG.(.~.OXOXOX^.(.K.OXOXOXOXOXOXOXOXOXOXOXOXOXOXOXOXOXOXOXOXOXOXOXOXOXOXOXOX",
"OXOXOXOXOXOXOXOXOXOXOXOXOXOXOXOXOXOXOXOXOXOXOXOXOXOXOXOX(.~.OXOXOXn.(.n.OXOXOXOXOXOXOXOXOXOXOXOXOXOXOXOXOXOXOXOXOXOXOXOXOXOXOXOX",
"OXOXOXOXOXOXOXOXOXOXOXOXOXOXOXOXOXOXOXOXOXOXOXOXOXOXOXOX(.(.OXOXOXn.(.J.OXOXOXOXOXOXOXOXOXOXOXOXOXOXOXOXOXOXOXOXOXOXOXOXOXOXOXOX",
"OXOXOXOXOXOXOXOXOXOXOXOXOXOXOXOXOXOXOXOXOXOXOXOXOXOXOXOXI.(.OXOXOXOX~.~.OXOXOXOXOXOXOXOXOXOXOXOXOXOXOXOXOXOXOXOXOXOXOXOXOXOXOXOX",
"OXOXOXOXOXOXOXOXOXOXOXOXOXOXOXOXOXOXOXOXOXOXOXOXOXOXOXOXb.~.n.OXOXOX(.(.OXOXOXOXOXOXOXOXOXOXOXOXOXOXOXOXOXOXOXOXOXOXOXOXOXOXOXOX",
"OXOXOXOXOXOXOXOXOXOXOXOXOXOXOXOXOXOXOXOXOXOXOXOXOXOXOXOXK.(.n.OXOXOXZ.~.k.OXOXOXOXOXOXOXOXOXOXOXOXOXOXOXOXOXOXOXOXOXOXOXOXOXOXOX",
"OXOXOXOXOXOXOXOXOXOXOXOXOXOXOXOXOXOXOXOXOXOXOXOXOXOXOXOXQ.!.n.OXOXOXh.(.Q.OXOXOXOXOXOXOXOXOXOXOXOXOXOXOXOXOXOXOXOXOXOXOXOXOXOXOX",
"OXOXOXOXOXOXOXOXOXOXOXOXOXOXOXOXOXOXOXOXOXOXOXOXOXOXOXOX/.~.P.OXOXOXh.~.(.OXOXOXOXOXOXOXOXOXOXOXOXOXOXOXOXOXOXOXOXOXOXOXOXOXOXOX",
"OXOXOXOXOXOXOXOXOXOXOXOXOXOXOXOXOXOXOXOXOXOXOXOXOXOXOXOXOX~.!.OXOXOXOX(.(.z.OXOXOXOXOXOXOXOXOXOXOXOXOXOXOXOXOXOXOXOXOXOXOXOXOXOX",
"OXOXOXOXOXOXOXOXOXOXOXOXOXOXOXOXOXOXOXOXOXOXOXOXOXOXOXOXOX~.!.OXOXOXOXZ.(.b.OXOXOXOXOXOXOXOXOXOXOXOXOXOXOXOXOXOXOXOXOXOXOXOXOXOX",
"OXOXOXOXOXOXOXOXOXOXOXOXOXOXOXOXOXOXOXOXOXOXOXOXOXOXOXOXOX~.P.OXOXOXOXh.~.Q.OXOXOXOXOXOXOXOXOXOXOXOXOXOXOXOXOXOXOXOXOXOXOXOXOXOX",
"OXOXOXOXOXOXOXOXOXOXOXOXOXOXOXOXOXOXOXOXOXOXOXOXOXOXOXOXOX(.Z.OXOXOXOXOX~.).OXOXOXOXOXOXOXOXOXOXOXOXOXOXOXOXOXOXOXOXOXOXOXOXOXOX",
"OXOXOXOXOXOXOXOXOXOXOXOXOXOXOXOXOXOXOXOXOXOXOXOXOXOXOXOXOX).Z.OXOXOXOXOXn.~.0.OXOXOXOXOXOXOXOXOXOXOXOXOXOXOXOXOXOXOXOXOXOXOXOXOX",
"OXOXOXOXOXOXOXOXOXOXOXOXOXOXOXOXOXOXOXOXOXOXOXOXOXOXOXOXOX).s.OXOXOXOXOXx.(.K.OXOXOXOXOXOXOXOXOXOXOXOXOXOXOXOXOXOXOXOXOXOXOXOXOX",
"OXOXOXOXOXOXOXOXOXOXOXOXOXOXOXOXOXOXOXOXOXOXOXOXOXOXOXOXOX).c.OXOXOXOXOXOX!.K.OXOXOXOXOXOXOXOXOXOXOXOXOXOXOXOXOXOXOXOXOXOXOXOXOX",
"OXOXOXOXOXOXOXOXOXOXOXOXOXOXOXOXOXOXOXOXOXOXOXOXOXOXOXOXOX).s.OXOXOXOXOXOXx.(.OXOXOXOXOXOXOXOXOXOXOXOXOXOXOXOXOXOXOXOXOXOXOXOXOX",
"OXOXOXOXOXOXOXOXOXOXOXOXOXOXOXOXOXOXOXOXOXOXOXOXOXOXOXOXOX).s.OXOXOXOXOXOXh.(.OXOXOXOXOXOXOXOXOXOXOXOXOXOXOXOXOXOXOXOXOXOXOXOXOX",
"OXOXOXOXOXOXOXOXOXOXOXOXOXOXOXOXOXOXOXOXOXOXOXOXOXOXOXOXOXx.] OXOXOXOXOXOXOX~.z.OXOXOXOXOXOXOXOXOXOXOXOXOXOXOXOXOXOXOXOXOXOXOXOX",
"OXOXOXOXOXOXOXOXOXOXOXOXOXOXOXOXOXOXOXOXOXOXOXOXOXOXOXOXOX6 P OXOXOXOXOXOXOXV 9 OXOXOXOXOXOXOXOXOXOXOXOXOXOXOXOXOXOXOXOXOXOXOXOX",
"OXOXOXOXOXOXOXOXOXOXOXOXOXOXOXOXOXOXOXOXOXOXOXOXOXOXOXOXOX9 V OXOXOXOXOXOXOXh.9 OXOXOXOXOXOXOXOXOXOXOXOXOXOXOXOXOXOXOXOXOXOXOXOX",
"OXOXOXOXOXOXOXOXOXOXOXOXOXOXOXOXOXOXOXOXOXOXOXOXOXOXOXOXH Y x.OXOXOXOXOXOXOXq 2 3.OXOXOXOXOXOXOXOXOXOXOXOXOXOXOXOXOXOXOXOXOXOXOX",
"OXOXOXOXOXOXOXOXOXOXOXOXOXOXOXOXOXOXOXOXOXOXOXOXOXOXOXOXZ x.c.OXOXOXOXOXOXOXOXP x.OXOXOXOXOXOXOXOXOXOXOXOXOXOXOXOXOXOXOXOXOXOXOX",
"OXOXOXOXOXOXOXOXOXOXOXOXOXOXOXOXOXOXOXOXOXOXOXOXOXOXOX6.c T.z OXOXOXOXOXOXOXOX4.Y W.OXOXOXOXOXOXOXOXOXOXOXOXOXOXOXOXOXOXOXOXOXOX",
"OXOXOXOXOXOXOXOXOXOXOXOXOXOXOXOXOXOXOXOXOXOXOXOXOXOXOX9 L & . OXOXOXOXOXOXOXOX' 6 _.OXOXOXOXOXOXOXOXOXOXOXOXOXOXOXOXOXOXOXOXOXOX",
"OXOXOXOXOXOXOXOXOXOXOXOXOXOXOXOXOXOXOXOXOXOXOXOXOXOXy 2 % X O OXOXOXOXOXOXOXOX2 Z ] <.OXOXOXOXOXOXOXOXOXOXOXOXOXOXOXOXOXOXOXOXOX",
"OXOXOXOXOXOXOXOXOXOXOXOXOXOXOXOXOXOXOXOXOXOXOXOXOX9 G K O OXOXOXOXOXOXOXOXOXOXX 6 2 b OXOXOXOXOXOXOXOXOXOXOXOXOXOXOXOXOXOXOXOXOX",
"OXOXOXOXOXOXOXOXOXOXOXOXOXOXOXOXOXOXOXOXOXOXOXOXOXOX; O OXOXOXOXOXOXOXOXOXOXOXOX+ | 5.D OXOXOXOXOXOXOXOXOXOXOXOXOXOXOXOXOXOXOXOX",
"OXOXOXOXOXOXOXOXOXOXOXOXOXOXOXOXOXOXOXOXOXOXOXOXOXOXOXOXOXOXOXOXOXOXOXOXOXOXOXOXO $ : > OXOXOXOXOXOXOXOXOXOXOXOXOXOXOXOXOXOXOXOX"
};
