/* XPM */
static char *result[] = {
/* columns rows colors chars-per-pixel */
"64 64 82 1 ",
"  c #000000",
". c #060009",
"X c #09030D",
"o c #0A0A0A",
"O c #0D0014",
"+ c #0F0A12",
"@ c #100017",
"# c #110B13",
"$ c #12011B",
"% c #150D1B",
"& c #190A1F",
"* c #121212",
"= c #1A161D",
"- c #1B1B1B",
"; c #170023",
": c #190026",
"> c #1B0A24",
", c #1D012C",
"< c #1C1021",
"1 c #1F1C21",
"2 c #230B2F",
"3 c #271B2E",
"4 c #230233",
"5 c #270B36",
"6 c #270239",
"7 c #29033D",
"8 c #2D0F3B",
"9 c #301E3A",
"0 c #242424",
"q c #29212C",
"w c #2C2C2C",
"e c #343434",
"r c #3C3C3C",
"t c #2D0143",
"y c #2F0F40",
"u c #2F0048",
"i c #33004D",
"p c #331543",
"a c #371B45",
"s c #391C46",
"d c #360051",
"f c #390055",
"g c #3D005B",
"h c #3C2548",
"j c #3F0060",
"k c #420063",
"l c #450069",
"z c #49006E",
"x c #4D0073",
"c c #52007C",
"v c #434343",
"b c #4B4B4B",
"n c #545454",
"m c #5B5B5B",
"M c #636363",
"N c #6B6B6B",
"B c #737373",
"V c #7C7C7C",
"C c #560081",
"Z c #580085",
"A c #5C008B",
"S c #620094",
"D c #66009A",
"F c #6A009F",
"G c #6B00A1",
"H c #838383",
"J c #8B8B8B",
"K c #939393",
"L c #9B9B9B",
"P c #A3A3A3",
"I c #ABABAB",
"U c #B4B4B4",
"Y c #BBBBBB",
"T c #C4C4C4",
"R c #CACACA",
"E c #D4D4D4",
"W c #DCDCDC",
"Q c #E3E3E3",
"! c #ECECEC",
"~ c #F4F4F4",
"^ c #FFFFFF",
"/ c None",
/* pixels */
"//////////vnmr-/////////////////////////////////////////////////",
"//////////bLTQ~EYIPHMb-/////////////////////////////////////////",
"////////eJLKHBVW^^^^^^EBw///////////////////////////////////////",
"////////*vMVKIE^^^^^^^^^!M//////////////////////////////////////",
"///////rRWERRRQ^^^^^^^^^^^Pw////////////////////////////////////",
"///////0ebMBHKE^^^^^^^^^^^^Y0///////////////////////////////////",
"////////vTREW!^^^^^^^^^^^^^^Ue//////////////////////////////////",
"////////0bmmMNHP!^^^^^^^^^^^^B//////////////////////////////////",
"////////////////w^^^^^^^^^^^^^r/////////////////////////////////",
"//////////////0nI^^^~UVNVT^^^^I//////////////////////////Mw/////",
"////////////-Y~^^QUNe/////M~^^^v///////////////////////N*Tbn-///",
"/////////////wbr0////////=&9haa5pap4%//////////////////EeQbW-0//",
"//////////////////////>gZFFFFFFFFFGGDct>//////////////oQv~v~-T//",
"/////////////////////%AFGGFFFFFFFFFFFFFz//////////////*!b^n~eT//",
"/////////////////////6FFFFFFFFFFFFFFFFFF6//////////r-/0^N^M~mI//",
"/////////////////////iFFGFFFFFFGFFFFFFFFf//////////Un/w^J^HQVJ//",
"/////////////////////xFFFFFFFFFFFFFFFFFFc//////////YB/b^!^W!PN//",
"/////////////////////AFFFFFFFGFFFFFFFFFGD+/////////IY/m^^^^^~n//",
"////////////////////&FFFFFFFFFFFFFGFFFFFG,/////////K^VR^^^^^^n//",
"////////////////////4GFFFGFFFFFFFFFFFFFFF8/////////B^^^^^^^^^b//",
"////////////////////8GGGFFFFFGFFGFFFFFFFF6/////////b^^^^^^^^^r//",
"////////////<t2/////5GFFFFFFFFFFFFFFFFFFFt/////+t</-W^^^^^^^~0//",
"////////////7Fk *///tFFFGFFFFFFFGFFFFFFFFi////O gk//H^^^^^^^R///",
"////////////>z .z2//iFFFFFFFFFFFFFFFFFFFFf//ogDOOt//n^^^^^^^H///",
"///////////// .cFk X,CSFFGFFFFFFFFFFFFFSx7>$ kFg ///w^^^^^^^v///",
"//////////////5DDO gZ:.4dkdCFGDcFGSffjtO tFz tFu#///w^^^^^^Y////",
"///////////////>: OSG$ jCi X66$ ;66. gSz tDZ ;4/////b^^^^^^v////",
"////////////////*odDc .SGx ,FFg iFF$ xFx 5Fk =//////L^^^^^H/////",
"///////////////////q$ uGFi iFFd dGGO CGg ;33///////m^^^^^Uw/////",
"///////////////////IQKnO4X fxc, fxz. 4$bJWU//////0B^^^^^Yw//////",
"///////////////////K^^B      vBNv      B^^Io oebBW^^^^^L0///////",
"//////////////-rmHLN^^w      b^^b      w^^HY!~^^^^^^^Wn/////////",
"////////////rVE^^^^n^^w      b^^b      w^^n^^^^^^^^WN0//////////",
"//////////rI^^^^^^^BE^V      L^^K      V^QM^^^^^WKn-////////////",
"////////0J^^^^^^!RUHM^~e    b^^^^v    e~^NNKVMnr*///////////////",
"///////eR^^^^^Pb-///0R^~KnnL~^^^^^LnnK~^E0//////////////////////",
"//////rQ^^^^Qb///////r!^^^^^^^RE^^^^^^^!r///////////////////////",
"/////wW^^^^!r/////////b!^^^^^WooQ^^^^^!b////////////////////////",
"/////U^^^^^V///////////rT^^^^!--!^^^^Te/////////////////////////",
"////M^^^^^^v////////////-NR^^^~~^^^Rm0//////////////////////////",
"///-E^^^^^~w////////////JWVvNKPPKNbVWN//////////////////////////",
"///m^^^^^^^e///////////*K^^m!TVHTYJ^^J//////////////////////////",
"///L^^^^^^^m///////////eYBIM^^IY^~mINV//////////////////////////",
"///E^^^^^^^K///////////b^^UvVHmMHVrR^!-/////////////////////////",
"//w~^^^^^^^!0//////////wR^YI^^IU^^N^^Rw/////////////////////////",
"//v^^^^^^^^^n//////////vJmvL!^IY^!mVnJe/////////////////////////",
"//n^^^^^^^^^V//////////v^^WIVMnnmNLE^!//////////////////////////",
"//n^^^^^^Pn^K//////////-W^^^^^^^^^^^^L//////////////////////////",
"//mQ^^^^^n/II///////////N^^^^^^^^^^^~b//////////////////////////",
"//BK!T^E^r/NY///////////wU^^^^^^^^^^B///////////////////////////",
"//LB!V^H^0/bP////////////wJ^^^^^^^WM////////////////////////////",
"//Ub~m^m~=//0//////////////eNJPPHBw/////////////////////////////",
"//Re^b^b!o////////////////////eTQ^U0/////////-rvv///////////////",
"//K-!v!vW//////////////////////T^^^Ie////0nLW~^^Wv//////////////",
"///0TbWrT//////////////////////m^^^^!KBBLQ^^^WMe*///////////////",
"////enU-b///////////////////////U^^^^^^^^^^^^H//////////////////",
"/////0r/////////////////////////e~^^^^^^^^^^^^TJVNMmne//////////",
"/////////////////////////////////m^^^^^^^^^^^^^^!WERRH//////////",
"//////////////////////////////////M^^^^^^^^^^^^~PJVNmr0/////////",
"///////////////////////////////////m~^^^^^^^^^^~RTTREEH/////////",
"////////////////////////////////////eY^^^^^^^^^!TPJBn-//////////",
"//////////////////////////////////////bI^^^^^^^KNVHKKn//////////",
"////////////////////////////////////////enVKPITQ~EIH0///////////",
"////////////////////////////////////////////////ennnw///////////"
};
