/* XPM */
static char *result[] = {
/* columns rows colors chars-per-pixel */
"64 64 145 2 ",
"   c #3E3D3D",
".  c #553C2F",
"X  c #4F3F36",
"o  c #403F3F",
"O  c #563D30",
"+  c #583F31",
"@  c #42403F",
"#  c #5B4232",
"$  c #644C3E",
"%  c #6E4E3E",
"&  c #7B4D36",
"*  c #73523E",
"=  c #454444",
"-  c #484746",
";  c #4A4847",
":  c #484748",
">  c #4C4B4C",
",  c #5C4E46",
"<  c #514F4E",
"1  c #5C4F48",
"2  c #5D524B",
"3  c #4F4F50",
"4  c #504F50",
"5  c #535353",
"6  c #585757",
"7  c #565758",
"8  c #595758",
"9  c #57585A",
"0  c #5C5B5C",
"q  c #654D41",
"w  c #6A5243",
"e  c #61544C",
"r  c #6F584A",
"t  c #775641",
"y  c #7A5A45",
"u  c #7C5D4A",
"i  c #625751",
"p  c #645A54",
"a  c #695C55",
"s  c #665E59",
"d  c #695F59",
"f  c #7E614F",
"g  c #66615F",
"h  c #6C625D",
"j  c #7B6151",
"k  c #5F5F60",
"l  c #605F60",
"z  c #5F6061",
"x  c #636364",
"c  c #6E6661",
"v  c #6F6865",
"b  c #676768",
"n  c #676869",
"m  c #6A6B6C",
"M  c #716761",
"N  c #706965",
"B  c #736D6A",
"V  c #78726F",
"C  c #6E6E70",
"Z  c #6F7072",
"A  c #727274",
"S  c #757678",
"D  c #98522F",
"F  c #9D582F",
"G  c #8B5536",
"H  c #955330",
"J  c #9B5631",
"K  c #9F5930",
"L  c #AB562C",
"P  c #A35B2F",
"I  c #AC5A2D",
"U  c #B35D2C",
"Y  c #B95F2B",
"T  c #A65F31",
"R  c #AA5A33",
"E  c #AE602E",
"W  c #B6612C",
"Q  c #BB612B",
"!  c #AF6434",
"~  c #AD6639",
"^  c #AC693D",
"/  c #BA6332",
"(  c #B26738",
")  c #B46A3A",
"_  c #B86E3F",
"`  c #C15E2B",
"'  c #CA5F29",
"]  c #CE6627",
"[  c #C3642B",
"{  c #CC6329",
"}  c #C7682C",
"|  c #D46626",
" . c #DD6627",
".. c #D46A26",
"X. c #DE6926",
"o. c #D36628",
"O. c #DA6428",
"+. c #D66E29",
"@. c #D7702B",
"#. c #D8722F",
"$. c #C06B34",
"%. c #CB6D30",
"&. c #D97533",
"*. c #D97A3B",
"=. c #E46B25",
"-. c #EA6E23",
";. c #E37126",
":. c #EE7122",
">. c #E2742B",
",. c #EF7828",
"<. c #F27422",
"1. c #F47826",
"2. c #F47B2B",
"3. c #E17731",
"4. c #E37934",
"5. c #E27C3A",
"6. c #F47E31",
"7. c #966243",
"8. c #816554",
"9. c #846A5A",
"0. c #AD6D44",
"q. c #B16E43",
"w. c #AE724B",
"e. c #B97244",
"r. c #B2734B",
"t. c #B9764B",
"y. c #BA794F",
"u. c #AF7651",
"i. c #B07956",
"p. c #BB7B53",
"a. c #B27D5C",
"s. c #E4813E",
"d. c #F48134",
"f. c #F5853B",
"g. c #F6883F",
"h. c #BC8058",
"j. c #E48343",
"k. c #E48648",
"l. c #E5894D",
"z. c #F38741",
"x. c #F58A43",
"c. c #F48E4A",
"v. c #F4904F",
"b. c #E48B52",
"n. c None",
/* pixels */
"n.n.n.n.n.n.n.n.n.n.n.n.n.n.n.n.n.n.n.n.n.n.n.n.n.n.n.n.n.n.n.n.n.n.n.n.n.n.n.n.n.n.n.n.n.n.n.n.n.n.n.n.n.n.n.n.n.n.n.n.n.n.n.n.",
"n.n.n.n.n.n.n.n.n.n.n.n.n.n.n.n.n.n.n.n.n.n.n.n.n.n.n.n.n.n.n.n.n.n.n.n.n.n.n.n.n.n.n.n.n.n.n.n.n.n.n.n.n.n.n.n.n.n.n.n.n.n.n.n.",
"n.n.n.n.n.n.n.n.n.n.n.n.n.n.n.n.n.n.n.n.n.n.n.n.n.n.n.n.n.n.n.n.n.n.n.n.n.n.n.n.n.n.n.n.n.n.n.n.n.n.n.n.n.n.n.n.n.n.n.n.n.n.n.n.",
"n.n.n.n.n.n.n.n.n.n.n.n.n.n.n.n.n.n.n.n.n.n.n.n.n.n.n.n.n.n.n.n.n.n.n.n.n.n.n.n.n.n.n.n.n.n.n.n.n.n.n.n.n.n.n.n.n.n.n.n.n.n.n.n.",
"n.n.n.n.n.n.n.n.n.n.n.n.n.n.n.n.n.n.n.n.n.n.n.n.n.n.n.n.n.n.n.n.n.n.n.n.n.n.n.n.n.n.n.n.n.n.n.n.n.n.n.n.n.n.n.n.n.n.n.n.n.n.n.n.",
"n.n.v.v.c.c.x.x.x.x.f.f.f.d.d.6.2.d.2.2.2.1.>.n A S A b.v.v.c.x.x.z.x.f.g.f.d.d.d.d.6.2.2.2.1.<.j n C m h.c.c.x.x.z.z.f.*.n.n.n.",
"n.n.c.c.x.x.x.g.f.f.g.d.d.d.d.6.d.1.2.1.<.<.;.9 A S Z l.v.x.x.x.x.f.g.f.f.d.d.d.2.2.2.2.1.1.<.<.r x m n p.x.x.x.z.f.d.d.&.- n.n.",
"n.n.c.x.x.x.g.g.f.f.d.d.6.6.2.2.2.1.<.<.<.<.;.9 Z A Z l.x.x.x.g.g.g.f.d.d.d.6.6.2.2.1.1.<.<.<.<.w k m n p.x.x.f.g.d.6.6.&.- n.n.",
"n.n.x.x.g.g.f.f.d.d.d.2.2.2.2.1.1.<.<.<.<.:.X.7 C S Z k.x.g.g.f.d.d.d.d.d.2.2.2.1.<.1.<.<.<.<.:.w k n n t.f.f.d.6.6.2.2.#.= n.n.",
"n.n.g.g.f.f.d.d.d.d.2.2.2.2.1.1.<.<.<.<.<.-.X.7 m S B j.g.d.f.d.d.d.d.6.2.2.2.1.1.1.<.<.<.:.:.:.w s m b t.f.d.d.6.2.1.1.X.= n.n.",
"n.n.g.d.d.d.d.d.6.2.2.2.1.<.<.<.<.<.<.:.-.-.=.7 m S m j.g.f.d.d.6.6.2.2.2.1.<.<.<.<.<.<.:.:.-.-.q k n n e.d.d.1.2.1.1.<...= n.n.",
"n.n.f.d.d.d.2.2.2.2.1.1.1.<.<.<.<.:.:.-.-.-. .5 m A B s.d.d.d.d.2.2.2.2.1.<.<.<.<.:.<.<.:.-.-.-.q k n v e.2.2.1.1.<.<.<...= n.n.",
"n.n.d.d.d.2.2.2.1.<.<.<.<.<.<.:.:.:.-.-.:.=...5 m Z C 5.d.d.1.d.2.2.<.<.1.<.<.:.:.:.-.:.-.-.-.=.q k n b _ 1.1.1.:.<.:.:.| @ n.n.",
"n.n.d.2.2.2.2.1.<.<.<.<.<.<.:.:.-.-.-.-.=.=.o.5 m A m 5.d.2.1.1.1.1.<.<.<.<.<.:.:.:.-.-.-.=.=.=.q 0 n x ) <.<.<.:.<.:.-.] = n.n.",
"n.n.2.2.1.1.<.<.<.<.<.:.:.:.:.-.-.-.=.=.=.=.o.5 n Z m 4.d.1.<.<.<.<.<.<.<.:.:.:.-.-.-.-.=.=.=.=.q 0 b x ) <.:.:.:.:.-.-.] = n.n.",
"n.n.2.1.1.1.<.<.<.<.:.:.:.-.-.-.-.=.=.=.=.X.o.5 m Z n 4.1.1.1.<.<.<.<.<.:.:.:.-.-.-.=.=.=.=.=. .q 9 x x / :.:.-.-.-.=.=.[ = n.n.",
"n.n.1.1.<.<.<.<.:.:.:.-.-.-.=.=.=.=.=.=.O.O.{ 4 n C m >.1.<.:.:.<.<.-.<.-.-.-.=.=.=.=.=.=.X.X. .q 0 x x ( -.-.-.=.-.=.=.' @ n.n.",
"n.n.<.<.<.<.:.:.:.-.-.-.-.=.=.=.=.=.O.=.=.O.o.4 n C n ;.<.<.<.<.-.:.:.-.-.-.-.=.=.=.=.=. . . .O.$ 0 x k ( -.-.=.=.=.O.=.` @ n.n.",
"n.n.1.<.:.<.:.:.-.-.-.=.=.=.=.=.=.=.O.O.=.O.' 5 n C m >.<.<.<.<.-.-.-.=.-.=.=.=.=.O. . .O.O.O.O.# 9 x l ( =.=.=.=.O.O.O.Y - n.n.",
"n.n.+.} [ [ [ [ [ [ / [ Q / Y / U U U / R R R 7 n C n / } } Q [ [ [ [ Y [ Y Y Y Y U Y U U U U I 1 0 x x 7.Y Y U U U U U P : n.n.",
"n.n.b 0 0 0 0 7 8 0 9 9 9 9 9 9 7 8 7 7 7 7 8 l m C m z 7 4 5 4 4 5 5 4 4 4 4 4 4 4 3 3 > > > > 9 k x l 8 4 > > > : : : : n.n.n.",
"n.n.Z Z C Z Z m Z m m m m m m m m m b m b b b m m m m n b b b b x x x x l l x x l l l l k k z z l l x x l 0 0 9 k 0 9 8 8 n.n.n.",
"n.n.S S S A A A A Z A A A C Z Z C C C m C m C m m m m m n n n n n n n n n b b b b x x x g x x x x l x l x l l k k 0 k k k n.n.n.",
"n.n.V B B B B B B B m m A Z B B N v N v v v v M c c c h c c h h d c h s l b b c l c d l g s s s s s s p p s p p p p i i i n.n.n.",
"n.n.v.c.x.x.x.z.f.f.8.m Z m a.c.c.c.c.x.x.z.z.g.d.f.6.f.d.6.2.2.,.,.<.~ 9 x x 9.v.c.c.c.x.x.x.g.f.f.d.d.d.d.d.1.,.2.1.<.+.n.n.n.",
"n.n.c.c.x.g.g.d.d.d.u x C m a.c.c.x.x.z.g.f.f.f.d.d.6.6.2.2.2.2.1.1.<.T 9 x x 9.c.c.c.x.x.g.g.g.f.f.d.d.d.2.2.d.2.1.1.<...: n.n.",
"n.n.x.f.f.f.d.d.6.6.t k C m i.x.x.x.x.z.g.f.d.d.d.6.6.2.2.1.<.<.<.<.<.P 4 x x 8.x.x.g.g.g.f.g.d.d.d.d.d.2.2.1.1.1.<.<.<...= n.n.",
"n.n.g.f.f.d.d.d.6.2.t k m m u.x.x.z.z.6.d.f.d.d.6.2.2.2.1.1.<.<.<.<.:.P 4 k x 8.x.g.g.g.f.d.d.d.d.6.2.2.2.<.1.<.<.<.<.-...= n.n.",
"n.n.f.d.d.6.2.2.2.<.t k m m u.z.g.f.f.d.d.d.2.2.2.2.1.1.<.<.<.<.:.:.:.F 4 z x j g.g.f.f.d.d.d.d.,.2.2.1.<.<.<.<.:.<.:.:.] = n.n.",
"n.n.6.6.2.2.1.<.1.<.t k m n u.f.g.6.d.d.6.2.2.1.2.1.<.<.<.<.<.:.:.:.-.T 4 z x 8.g.f.d.d.d.d.2.d.2.2.1.1.<.<.<.<.:.:.:.:.] = n.n.",
"n.n.2.2.2.1.1.<.<.:.* 0 m n r.d.6.6.d.6.2.2.2.1.<.<.<.<.<.<.:.:.:.-.=.F 3 k k j d.d.d.d.2.d.2.1.1.<.<.<.:.:.:.-.<.-.:.-.] = n.n.",
"n.n.2.2.<.<.<.:.-.:.* s n n w.6.6.6.2.2.2.1.1.1.<.<.<.:.:.:.:.-.-.-.=.J 3 s l f d.d.2.d.2.<.2.1.<.<.<.<.:.<.<.<.-.-.=.=.{ = n.n.",
"n.n.<.:.<.:.<.:.:.:.* k b b 0.d.d.2.1.<.1.<.<.<.<.:.:.:.-.-.-.-.=.=.=.J > z k f d.d.2.2.1.1.<.<.<.<.:.:.<.-.-.-.-.=.=.=.{ @ n.n.",
"n.n.<.<.:.:.:.-.-.=.* 0 b b 0.d.1.1.1.<.<.<.<.:.:.<.-.-.-.-.=.=.=.=.=.D > 0 0 f 2.2.1.<.1.<.<.<.<.:.:.:.-.-.-.-.-.=.=.=.[ @ n.n.",
"n.n.<.:.:.-.=.=.=.=.% 9 b x 0.1.1.1.<.<.<.<.<.-.:.-.-.-.-.-.=.=.=.X.=.H < 0 0 u 2.1.<.<.<.<.<.<.:.:.-.-.-.-.=.=.=.=. .=.[ = n.n.",
"n.n.:.-.-.-.=.=.=. .* 0 b b ^ <.1.<.<.<.<.:.:.:.-.-.=.-.=.=.=.=.X.=.O.H > 0 0 u <.<.<.<.<.<.<.<.<.-.-.-.-.=.=.=. .=.X. .` = n.n.",
"n.n.-.-.=.=.=.=. . .% 6 n x ^ <.<.<.:.:.-.-.-.-.-.-.=.=.=.X.X.=.X.O.O.H > 0 0 u <.<.<.<.-.<.<.-.-.-.-.=.=.=.=.=.X.X.X.O.` = n.n.",
"n.n.=.=.=.=.=.O.|  .% 0 n x ^ <.<.<.:.:.-.-.-.-.-.=.=.=.=.=.O.O.O.O.O.H : 0 0 y <.<.<.<.:.-.-.-.-.=.=.=.=.X. . .O.X.O.O.` = n.n.",
"n.n./ W U R U I R I q 9 x x 7.Q Q [ Q Y Y Y Y U U U U U U I L I I L L & > 6 0 r [ Q Q Q Y Y Y Y U U U U U U L U L L L L H - n.n.",
"n.n.9 5 5 4 4 4 < 4 6 x x b k 5 > > > ; > > > > > : : - > - - > - - - > 6 6 0 6 > = @ @ @ @ @ = @ @   @   o   o o o o o o n.n.n.",
"n.n.v x x x x k g z x x b x z k g 0 0 0 0 0 0 0 0 0 0 0 0 9 6 6 8 6 6 6 6 0 6 8 6 5 5 5 5 5 5 5 5 < 4 4 < < < < < < > > > n.n.n.",
"n.n.n n n x n x x x x x x x x k k g g k x z k k k s 0 0 0 0 0 0 0 0 6 0 0 0 6 8 6 6 6 6 5 6 5 5 5 6 5 5 5 4 4 < < < 3 3 < n.n.n.",
"n.n.M h h h h d h h h h a h a s h h a s a p p 0 0 0 0 s p p p p p p i e p e e e e 2 e e 2 e w e < < 5 5 e e e e q 1 1 1 1 n.n.n.",
"n.n.v.v.c.c.c.x.g.g.f.f.f.d.d.6.,.2.,.2.1.1.;.< 0 0 0 l.v.c.c.x.x.x.x.f.f.f.d.d.d.6.2.2.,.2.,.<.% < 5 4 r.c.c.x.x.z.f.f.*.n.n.n.",
"n.n.v.x.x.x.x.g.g.f.f.d.d.d.d.2.2.2.1.<.<.<.;.= 6 0 6 l.c.x.x.g.g.f.f.f.f.d.d.d.6.2.2.2.1.<.<.<.$ ; < < r.x.x.z.f.f.f.d.&.= n.n.",
"n.n.x.x.x.x.g.f.f.d.d.d.d.d.1.d.2.1.1.<.<.<.=.= 5 0 5 k.x.x.g.g.f.f.f.d.d.d.d.2.2.2.1.1.<.<.<.<.+ - < < q.x.z.g.f.d.d.6.&.= n.n.",
"n.n.x.g.g.f.f.d.d.d.d.2.1.2.2.1.<.<.<.<.<.<.X.@ 6 0 6 k.x.g.g.f.f.d.d.d.6.2.2.2.2.1.1.<.<.<.:.:.+ - < > q.f.g.d.d.6.2.2.+.= n.n.",
"n.n.g.g.f.f.f.d.d.2.d.d.2.1.1.1.<.<.<.<.:.<.X.@ 5 p 5 s.g.g.f.d.d.d.d.2.2.2.2.1.<.<.<.<.<.<.<.-.# - < > q.d.6.d.2.2.2.<.+.= n.n.",
"n.n.g.f.f.d.d.d.2.2.1.1.1.1.<.<.<.<.:.:.:.:.X.@ 5 6 5 s.f.d.d.d.d.2.2.2.1.1.<.<.<.<.<.:.:.:.-.-.+ ; , > ) f.2.2.2.1.<.<...= n.n.",
"n.n.f.d.d.6.6.2.2.2.1.1.1.<.<.<.:.<.:.:.-.-.| o 5 6 5 5.d.d.d.d.2.2.2.1.1.<.<.<.<.:.<.:.-.-.-.-.+ @ > > ! 2.2.1.1.<.<.<...= n.n.",
"n.n.d.d.6.2.2.1.1.1.<.<.<.:.<.<.-.-.-.-.-.-.O.o 5 6 5 4.d.d.d.2.2.2.<.1.<.<.<.<.:.:.-.-.-.-.-.=.+ = > ; ! 2.<.<.<.<.:.:.] = n.n.",
"n.n.d.2.2.2.1.<.1.1.<.<.<.<.:.<.-.-.-.-.=.=.|   3 6 5 4.d.2.1.2.1.1.<.<.<.<.:.:.:.:.-.-.-.-.=.=.+ = < ; W <.<.:.<.:.:.-.] = n.n.",
"n.n.2.2.1.1.<.<.<.:.:.-.:.:.:.:.-.-.=.=.=.=.|   5 5 3 3.2.2.1.<.1.<.<.<.:.:.:.:.:.-.-.=.=.=.=.=.+ @ > ; U <.<.-.:.-.-.=.] = n.n.",
"n.n.1.1.1.1.<.<.<.:.:.:.:.:.=.=.=.=.=.=.=.=.{ o < 6 5 >.2.<.<.<.<.<.<.<.:.:.-.-.-.-.=.=.=.=.X.O.+ @ ; ; I :.:.:.-.-.=.=.[ = n.n.",
"n.n.1.1.<.<.<.<.:.:.:.:.=.:.:.=.=.=.=.=.O.X.{   < 5 3 ;.<.<.<.<.<.:.<.:.-.-.-.-.=.=.=.=.=.O.X.O.. @ ; ; I :.=.:.-.=.=. .` = n.n.",
"n.n.1.<.<.<.<.<.:.:.:.:.=.=.=.=.=.=.O.O.X.O.'   < 5 < ;.<.<.<.:.:.:.:.-.-.-.=.=.=.=.O.=.X.X.X.O.. @ ; ; E ;.=.=.=.=.=. .[ = n.n.",
"n.n.<.<.:.:.:.-.:.-.=.=.=.=.=.X.X.X.X.X.O.O.{   < 5 3 X.<.:.:.:.:.-.=.-.=.=.=.=.=.X.X.X. .O.O.O.. o - - P =.=.=. . . . .Q = n.n.",
"n.n.[ Q Q W W W U Y U U W U U I I L L R L L J = < 5 3 W Q W W W U Y Y Y U U I U I I I I R L R L O - > > G U I I I L L L J : n.n.",
"n.n.n.n.- ; - : X - - : - ; ; - ; ; ; ; : : n.n.n.n.n.n.n.- ; ; @ ; - - ; ; ; ; - : : - - - - : n.n.n.n.n.n.: : - - - - n.n.n.n.",
"n.n.n.n.n.n.n.n.n.n.n.n.n.n.n.n.n.n.n.n.n.n.n.n.n.n.n.n.n.n.n.n.n.n.n.n.n.n.n.n.n.n.n.n.n.n.n.n.n.n.n.n.n.n.n.n.n.n.n.n.n.n.n.n.",
"n.n.n.n.n.n.n.n.n.n.n.n.n.n.n.n.n.n.n.n.n.n.n.n.n.n.n.n.n.n.n.n.n.n.n.n.n.n.n.n.n.n.n.n.n.n.n.n.n.n.n.n.n.n.n.n.n.n.n.n.n.n.n.n.",
"n.n.n.n.n.n.n.n.n.n.n.n.n.n.n.n.n.n.n.n.n.n.n.n.n.n.n.n.n.n.n.n.n.n.n.n.n.n.n.n.n.n.n.n.n.n.n.n.n.n.n.n.n.n.n.n.n.n.n.n.n.n.n.n.",
"n.n.n.n.n.n.n.n.n.n.n.n.n.n.n.n.n.n.n.n.n.n.n.n.n.n.n.n.n.n.n.n.n.n.n.n.n.n.n.n.n.n.n.n.n.n.n.n.n.n.n.n.n.n.n.n.n.n.n.n.n.n.n.n.",
"n.n.n.n.n.n.n.n.n.n.n.n.n.n.n.n.n.n.n.n.n.n.n.n.n.n.n.n.n.n.n.n.n.n.n.n.n.n.n.n.n.n.n.n.n.n.n.n.n.n.n.n.n.n.n.n.n.n.n.n.n.n.n.n."
};
