/* XPM */
static char *result[] = {
/* columns rows colors chars-per-pixel */
"64 64 199 2 ",
"   c #070709",
".  c #070707",
"X  c #120E0D",
"o  c #1B1712",
"O  c #261C15",
"+  c #31271C",
"@  c #372C24",
"#  c #3A2E25",
"$  c #2D312A",
"%  c #3E3329",
"&  c #37372A",
"*  c #393F3A",
"=  c #43362C",
"-  c #46392D",
";  c #4A3A2E",
":  c #483A27",
">  c #533F2F",
",  c #4B3D31",
"<  c #503F32",
"1  c #544C2A",
"2  c #574F26",
"3  c #4F4233",
"4  c #43433C",
"5  c #4D463C",
"6  c #534235",
"7  c #584637",
"8  c #56463A",
"9  c #5A4639",
"0  c #5D4A3B",
"q  c #554C30",
"w  c #524A26",
"e  c #664A28",
"r  c #685427",
"t  c #624D3E",
"y  c #635B3B",
"u  c #6C5937",
"i  c #765C38",
"p  c #735326",
"a  c #5D653A",
"s  c #6B6239",
"d  c #736A3B",
"f  c #796E3A",
"g  c #7B633C",
"h  c #7D713C",
"j  c #413F45",
"k  c #3D557F",
"l  c #524D44",
"z  c #4E5343",
"x  c #565546",
"c  c #525B54",
"v  c #585B53",
"b  c #644F40",
"n  c #655141",
"m  c #6A5343",
"M  c #6C5B4B",
"N  c #655A44",
"B  c #725A46",
"V  c #715F51",
"C  c #6E644D",
"Z  c #646A41",
"A  c #746343",
"S  c #726A45",
"D  c #746A4B",
"F  c #78634E",
"G  c #7B7348",
"H  c #696554",
"J  c #746251",
"K  c #796251",
"L  c #7F6B56",
"P  c #797452",
"I  c #59576A",
"U  c #596A69",
"Y  c #607167",
"T  c #706D66",
"R  c #8B6628",
"E  c #916D2C",
"W  c #9C742E",
"Q  c #8A6F3D",
"!  c #84793E",
"~  c #83773E",
"^  c #917239",
"/  c #9C7838",
"(  c #946B3B",
")  c #866B48",
"_  c #8A7D42",
"`  c #8A7F4B",
"'  c #83784A",
"]  c #997546",
"[  c #856B56",
"{  c #847855",
"}  c #927152",
"|  c #9B7E52",
" . c #93785D",
".. c #A97D4E",
"X. c #957F69",
"o. c #877361",
"O. c #78817D",
"+. c #9B893F",
"@. c #B7862E",
"#. c #AD8234",
"$. c #BD8C30",
"%. c #C68F2E",
"&. c #C6912D",
"*. c #C8902E",
"=. c #8C814A",
"-. c #958746",
";. c #9C8453",
":. c #978859",
">. c #AB8E4B",
",. c #B2864E",
"<. c #A28352",
"1. c #A68856",
"2. c #B68956",
"3. c #B58B58",
"4. c #BC965C",
"5. c #B9955C",
"6. c #8A8060",
"7. c #9B856B",
"8. c #988167",
"9. c #968372",
"0. c #AF9061",
"q. c #B99564",
"w. c #B4997B",
"e. c #A68E75",
"r. c #C69C5E",
"t. c #CE9B5C",
"y. c #C7945C",
"u. c #C29C63",
"i. c #CCA365",
"p. c #C3A06B",
"a. c #D0A464",
"s. c #D6AC6A",
"d. c #D8AD6C",
"f. c #D5A965",
"g. c #C8AA76",
"h. c #D3AE75",
"j. c #DCB779",
"k. c #D7BA7E",
"l. c #E3AF6A",
"z. c #E6B66C",
"x. c #E5BA70",
"c. c #EDBD73",
"v. c #E2BA78",
"b. c #F1BF72",
"n. c #F1C06F",
"m. c #EFC175",
"M. c #F1C072",
"N. c #576787",
"B. c #7B8A84",
"V. c #7E8681",
"C. c #7D908D",
"Z. c #6687B7",
"A. c #7997C0",
"S. c #828A85",
"D. c #828E88",
"F. c #908F82",
"G. c #889489",
"H. c #9A9984",
"J. c #839692",
"K. c #8A9D9B",
"L. c #889A96",
"P. c #949D9C",
"I. c #AD9A82",
"U. c #8BA19D",
"Y. c #96A19F",
"T. c #98A28C",
"R. c #ADA39A",
"E. c #93A6A3",
"W. c #96A9A6",
"Q. c #9AADAA",
"!. c #98A9A5",
"~. c #9CB1AD",
"^. c #94AEAB",
"/. c #A4ACA5",
"(. c #A0AEAD",
"). c #A5B1AF",
"_. c #ADB8AD",
"`. c #ADB1A3",
"'. c #A7BDBA",
"]. c #AABDBB",
"[. c #A7B8B3",
"{. c #C8AE8D",
"}. c #D8BB88",
"|. c #CEB197",
" X c #CEB297",
".X c #DCBEA2",
"XX c #C1BBB2",
"oX c #C3B6A2",
"OX c #B1C4BF",
"+X c #B6CCC9",
"@X c #B4C9C5",
"#X c #B8D2CD",
"$X c #BED7D2",
"%X c #C2DAD7",
"&X c #C5DEDA",
"*X c #D7D5D2",
"=X c #CAE3DE",
"-X c #CDE5E1",
";X c None",
/* pixels */
";X;X;X;X;X;X;X;X;X;X;X;X;X;X;X;X;X;X;X;X;X;X;X;X;X;X;X;X;X;Xc H a c ;X;X;X;X;X;X;X;X;X;X;X;X;X;X;X;X;X;X;X;X;X;X;X;X;X;X;X;X;X;X",
";X;X;X;X;X;X;X;X;X;X;X;X;X;X;X;X;X;X;X;X;X;X;X;X;X;X;X;X;Xz Y P +.U z ;X;X;X;X;X;X;X;X;X;X;X;X;X;X;X;X;X;X;X;X;X;X;X;X;X;X;X;X;X",
";X;X;X;X;X;X;X;X;X;X;X;X;X;X;X;X;X;X;X;X;X;X;X;X;X;X;X;X;XZ P P +.P a & ;X;X;X;X;X;X;X;X;X;X;X;X;X;X;X;X;X;X;X;X;X;X;X;X;X;X;X;X",
";X;X;X;X;X;X;X;X;X;X;X;X;X;X;X;X;X;X;X;X;X;X;X;X;X;X;X;X;X& ;.3.m.;.g $ ;X;X;X;X;X;X;X;X;X;X;X;X;X;X;X;X;X;X;X;X;X;X;X;X;X;X;X;X",
";X;X;X;X;X;X;X;X;X;X;X;X;X;X;X;X;X;X;X;X;X;X;X;X;X;X;X;X;X* {.oXc.].) c ;X;X;X;X;X;X;X;X;X;X;X;X;X;X;X;X;X;X;X;X;X;X;X;X;X;X;X;X",
";X;X;X;X;X;X;X;X;X;X;X;X;X;X;X;X;X;X;X;X;X;X;X;X;X;X;X;X;Xc g.g.d.g.;.c ;X;X;X;X;X;X;X;X;X;X;X;X;X;X;X;X;X;X;X;X;X;X;X;X;X;X;X;X",
";X;X;X;X;X;X;X;X;X;X;X;X;X;X;X;X;X;X;X;X;X;X;X;X;X;X;X;X. D q.y...y.;.3 ;X;X;X;X;X;X;X;X;X;X;X;X;X;X;X;X;X;X;X;X;X;X;X;X;X;X;X;X",
";X;X;X;X;X;X;X;X;X;X;X;X;X;X;X;X;X;X;X;X;X;X;X;X;X;X;X;X. : [ *X*XR.i o ;X;X;X;X;X;X;X;X;X;X;X;X;X;X;X;X;X;X;X;X;X;X;X;X;X;X;X;X",
";X;X;X;X;X;X;X;X;X;X;X;X;X;X;X;X;X;X;X;X;X;X;X;X;X;X;X;X.   O } e.) X . ;X;X;X;X;X;X;X;X;X;X;X;X;X;X;X;X;X;X;X;X;X;X;X;X;X;X;X;X",
";X;X;X;X;X;X;X;X;X;X;X;X;X;X;X;X;X;X;X;X;X;X;X;X;X;X;X;X;X;X;Xy.] 2.;X;X;X;X;X;X;X;X;X;X;X;X;X;X;X;X;X;X;X;X;X;X;X;X;X;X;X;X;X;X",
";X;X;X;X;X;X;X;X;X;X;X;X;X;X;X;X;X;X;X;X;X;X;X;X;X;X;X;X;X;Xw.z.b.c.) ;X;X;X;X;X;X;X;X;X;X;X;X;X;X;X;X;X;X;X;X;X;X;X;X;X;X;X;X;X",
";X;X;X;X;X;X;X;X;X;X;X;X;X;X;X;X;X;X;X;X;X;X;X;X;X;X;Xh.u.e.{.v.b.f.4.t j.j.;X;X;X;X;X;X;X;X;X;X;X;X;X;X;X;X;X;X;X;X;X;X;X;X;X;X",
";X;X;X;X;X;X;X;X;X;X;X;X;X;X;X;X;X;X;X;X;X;X;X;X;X;X;Xb.p.{  Xc.b.c.i.t f.b.h.;X;X;X;X;X;X;X;X;X;X;X;X;X;X;X;X;X;X;X;X;X;X;X;X;X",
";X;X;X;X;X;X;X;X;X;X;X;X;X;X;X;X;X;X;X;X;X;X;X;X;X;X}.M.5.0 .Xh.b.c.t.6 t.x.v.;X;X;X;X;X;X;X;X;X;X;X;X;X;X;X;X;X;X;X;X;X;X;X;X;X",
";X;X;X;X;X;X;X;X;X;X;X;X;X;X;X;X;X;X;X;X;X;X;X;X;X;X}.M.] p w.7.B B u p ( c.i.;X;X;X;X;X;X;X;X;X;X;X;X;X;X;X;X;X;X;X;X;X;X;X;X;X",
";X;X;X;X;X;X;X;X;X;X;X;X;X;X;X;X;X;X;X;X;X;X;X;X;X;X;Xb...e [ |.9 9 7 e ) c.r.;X;X;X;X;X;X;X;X;X;X;X;X;X;X;X;X;X;X;X;X;X;X;X;X;X",
";X;X;X;X;X;X;X;X;X;X;X;X;X;X;X;X;X;X;X;X;X;X;X;X;X;X}.M.<.0 t w.J 9 t t ) b.u.;X;X;X;X;X;X;X;X;X;X;X;X;X;X;X;X;X;X;X;X;X;X;X;X;X",
";X;X;X;X;X;X;X;X;X;X;X;X;X;X;X;X;X;X;X;X;X;X;X;X;X;X;X4.q.t > V 8.m > t ) b.d.;X;X;X;X;X;X;X;X;X;X;X;X;X;X;X;X;X;X;X;X;X;X;X;X;X",
";X;X;X;X;X;X;X;X;X;X;X;X;X;X;X;X;X;X;X;X;X;X;X;X;X;X;X0.g.B t t 7.F m F <.M.d.;X;X;X;X;X;X;X;X;X;X;X;X;X;X;X;X;X;X;X;X;X;X;X;X;X",
";X;X;X;X;X;X;X;X;X;X;X;X;X;X;X;X;X;X;X;X;X;X;X;X;X;X;X1.| 1.[ :.p.v.b.z.a.b.;X;X;X;X;X;X;X;X;X;X;X;X;X;X;X;X;X;X;X;X;X;X;X;X;X;X",
";X;X;X;X;X;X;X;X;X;X;X;X;X;X;X;X;X;X;X;X;X;X;X;X;X;X;XM.b.b.b.b.x.u.9.[ ,.c.;X;X;X;X;X;X;X;X;X;X;X;X;X;X;X;X;X;X;X;X;X;X;X;X;X;X",
";X;X;X;X;X;X;X;X;X;X;X;X;X;X;X;X;X;X;X;X;X;X;X;X;X;X;Xd.b.l.2.X.N.Z.A.T b.m.;X;X;X;X;X;X;X;X;X;X;X;X;X;X;X;X;X;X;X;X;X;X;X;X;X;X",
";X;X;X;X;X;X;X;X;X;X;X;X;X;X;X;X;X;X;X;X;X;X;X;X;X;X;X;X} < > l j I N.X.l.f.;X;X;X;X;X;X;X;X;X;X;X;X;X;X;X;X;X;X;X;X;X;X;X;X;X;X",
";X;X;X;X;X;X;X;X;X;X;X;X;X;X;X;X;X;X;X;X;X;X;X;X;X;X;X;XV ; = t b , = $  .;X;X;X;X;X;X;X;X;X;X;X;X;X;X;X;X;X;X;X;X;X;X;X;X;X;X;X",
";X;X;X;X;X;X;X;X;X;X;X;X;X;X;X;X;X;X;X;X;X;X;X;X;X;X;X;XP.!.).(.!.J.P.B.H.X.;X;X;X;X;X;X;X;X;X;X;X;X;X;X;X;X;X;X;X;X;X;X;X;X;X;X",
";X;X;X;X;X;X;X;X;X;X;X;X;X;X;X;X;X;X;X;X;X;X;X;X;X;X;X;X).[.Q.W.J.C.W.E.L.|.;X;X;X;X;X;X;X;X;X;X;X;X;X;X;X;X;X;X;X;X;X;X;X;X;X;X",
";X;X;X;X;X;X;X;X;X;X;X;X;X;X;X;X;X;X;X;X;X;X;X;X;X;X;X;X(.+X].L.Q.].E.'.U.F.e.;X;X;X;X;X;X;X;X;X;X;X;X;X;X;X;X;X;X;X;X;X;X;X;X;X",
";X;X;X;X;X;X;X;X;X;X;X;X;X;X;X;X;X;X;X;X;X;X;X;X;X;X;X;X].E.E.L.P.E.K.+X~.J.9.P ;X;X;X;X;X;X;X;X;X;X;X;X;X;X;X;X;X;X;X;X;X;X;X;X",
";X;X;X;X;X;X;X;X;X;X;X;X;X;X;X;X;X;X;X;X;X;X;X;X;X;X;X;XS.V.G.D.B.S.E.+X'.K.6.:.R ;X;X;X;X;X;X;X;X;X;X;X;X;X;X;X;X;X;X;X;X;X;X;X",
";X;X;X;X;X;X;X;X;X;X;X;X;X;X;X;X;X;X;X;X;X;X;X;X;X;X;X;Xb < 9 < 6 = Q.&X'.U.K.I.R R ;X;X;X;X;X;X;X;X;X;X;X;X;X;X;X;X;X;X;X;X;X;X",
";X;X;X;X;X;X;X;X;X;X;X;X;X;X;X;X;X;X;X;X;X;X;X;X;X;X;X;X8 n b 0 7 ; @X=X[.U.Q.1.W @.;X;X;X;X;X;X;X;X;X;X;X;X;X;X;X;X;X;X;X;X;X;X",
";X;X;X;X;X;X;X;X;X;X;X;X;X;X;X;X;X;X;X;X;X;X;X;X;X;X;X{ m b t < ; % $X&X'.E.U.G.@.@.E ;X;X;X;X;X;X;X;X;X;X;X;X;X;X;X;X;X;X;X;X;X",
";X;X;X;X;X;X;X;X;X;X;X;X;X;X;X;X;X;X;X;X;X;X;X;X;X;X;XM m m t < % l $X$X@XK.U.^.>.&.W ;X;X;X;X;X;X;X;X;X;X;X;X;X;X;X;X;X;X;X;X;X",
";X;X;X;X;X;X;X;X;X;X;X;X;X;X;X;X;X;X;X;X;X;X;X;X;X;X;XM m m m ; o l #X$X+XU.E.~.1.%./ ;X;X;X;X;X;X;X;X;X;X;X;X;X;X;X;X;X;X;X;X;X",
";X;X;X;X;X;X;X;X;X;X;X;X;X;X;X;X;X;X;X;X;X;X;X;X;X;X;XJ m m n 6 o l B.B.~.U.~.T.%.%.^ ;X;X;X;X;X;X;X;X;X;X;X;X;X;X;X;X;X;X;X;X;X",
";X;X;X;X;X;X;X;X;X;X;X;X;X;X;X;X;X;X;X;X;X;X;X;X;X;X;XV m m m = ;X- 7 H B.O.T.$.*./ Q ;X;X;X;X;X;X;X;X;X;X;X;X;X;X;X;X;X;X;X;X;X",
";X;X;X;X;X;X;X;X;X;X;X;X;X;X;X;X;X;X;X;X;X;X;X;X;X;X;Xm m m n % ;X3 t t x t @.%.#.Q u ;X;X;X;X;X;X;X;X;X;X;X;X;X;X;X;X;X;X;X;X;X",
";X;X;X;X;X;X;X;X;X;X;X;X;X;X;X;X;X;X;X;X;X;X;X;X;X;XJ m m m m @ ;X= t m m m ] ^ Q g ;X;X;X;X;X;X;X;X;X;X;X;X;X;X;X;X;X;X;X;X;X;X",
";X;X;X;X;X;X;X;X;X;X;X;X;X;X;X;X;X;X;X;X;X;X;X;X;X;Xn m m m b ;X;X# m m m t A i u ;X;X;X;X;X;X;X;X;X;X;X;X;X;X;X;X;X;X;X;X;X;X;X",
";X;X;X;X;X;X;X;X;X;X;X;X;X;X;X;X;X;X;X;X;X;X;X;X;X;XM m m m 0 ;X;X+ m m m m M ;X;X;X;X;X;X;X;X;X;X;X;X;X;X;X;X;X;X;X;X;X;X;X;X;X",
";X;X;X;X;X;X;X;X;X;X;X;X;X;X;X;X;X;X;X;X;X;X;X;X;X;XM m m B , ;X;X;Xt m m m M ;X;X;X;X;X;X;X;X;X;X;X;X;X;X;X;X;X;X;X;X;X;X;X;X;X",
";X;X;X;X;X;X;X;X;X;X;X;X;X;X;X;X;X;X;X;X;X;X;X;X;X;Xm m m m % ;X;X;X6 m m m B ;X;X;X;X;X;X;X;X;X;X;X;X;X;X;X;X;X;X;X;X;X;X;X;X;X",
";X;X;X;X;X;X;X;X;X;X;X;X;X;X;X;X;X;X;X;X;X;X;X;X;XJ m m m m # ;X;X;X, m m M m ;X;X;X;X;X;X;X;X;X;X;X;X;X;X;X;X;X;X;X;X;X;X;X;X;X",
";X;X;X;X;X;X;X;X;X;X;X;X;X;X;X;X;X;X;X;X;X;X;X;X;XV m m m m ;X;X;X;X= m m m m M ;X;X;X;X;X;X;X;X;X;X;X;X;X;X;X;X;X;X;X;X;X;X;X;X",
";X;X;X;X;X;X;X;X;X;X;X;X;X;X;X;X;X;X;X;X;X;X;X;X;XB m m m 0 ;X;X;X;X@ m m m m M ;X;X;X;X;X;X;X;X;X;X;X;X;X;X;X;X;X;X;X;X;X;X;X;X",
";X;X;X;X;X;X;X;X;X;X;X;X;X;X;X;X;X;X;X;X;X;X;X;XV m m m m 7 ;X;X;X;X% b m m m B ;X;X;X;X;X;X;X;X;X;X;X;X;X;X;X;X;X;X;X;X;X;X;X;X",
";X;X;X;X;X;X;X;X;X;X;X;X;X;X;X;X;X;X;X;X;X;X;X;XJ m m m m 6 ;X;X;X;X# 8 m m m m ;X;X;X;X;X;X;X;X;X;X;X;X;X;X;X;X;X;X;X;X;X;X;X;X",
";X;X;X;X;X;X;X;X;X;X;X;X;X;X;X;X;X;X;X;X;X;X;X;XM 9 t m m , ;X;X;X;X;X0 m m m t ;X;X;X;X;X;X;X;X;X;X;X;X;X;X;X;X;X;X;X;X;X;X;X;X",
";X;X;X;X;X;X;X;X;X;X;X;X;X;X;X;X;X;X;X;X;X;X;X;X6 8 8 9 0 - ;X;X;X;X;X- 9 8 b b ;X;X;X;X;X;X;X;X;X;X;X;X;X;X;X;X;X;X;X;X;X;X;X;X",
";X;X;X;X;X;X;X;X;X;X;X;X;X;X;X;X;X;X;X;X;X;X;X;Xv x 5 5 4 ;X;X;X;X;X;X, v H T T ;X;X;X;X;X;X;X;X;X;X;X;X;X;X;X;X;X;X;X;X;X;X;X;X",
";X;X;X;X;X;X;X;X;X;X;X;X;X;X;X;X;X;X;X;X;X;X;X;X[.-X-X-X+X;X;X;X;X;X;XK.%X-X-X-XOX;X;X;X;X;X;X;X;X;X;X;X;X;X;X;X;X;X;X;X;X;X;X;X",
";X;X;X;X;X;X;X;X;X;X;X;X;X;X;X;X;X;X;X;X;X;X;X;X;X/.`.).W.;X;X;X;X;X;X;X(._._./.;X;X;X;X;X;X;X;X;X;X;X;X;X;X;X;X;X;X;X;X;X;X;X;X",
";X;X;X;X;X;X;X;X;X;X;X;X;X;X;X;X;X;X;X;X;X;X;X;X;X3.t...;X;X;X;X;X;X;X;X;X2.t.,.;X;X;X;X;X;X;X;X;X;X;X;X;X;X;X;X;X;X;X;X;X;X;X;X",
";X;X;X;X;X;X;X;X;X;X;X;X;X;X;X;X;X;X;X;X;X;X;X;X;Xr.n.f.;X;X;X;X;X;X;X;X;Xr.n.u.;X;X;X;X;X;X;X;X;X;X;X;X;X;X;X;X;X;X;X;X;X;X;X;X",
";X;X;X;X;X;X;X;X;X;X;X;X;X;X;X;X;X;X;X;X;X;X;X;X;Xu.M.;X;X;X;X;X;X;X;X;X;Xu.M.i.;X;X;X;X;X;X;X;X;X;X;X;X;X;X;X;X;X;X;X;X;X;X;X;X",
";X;X;X;X;X;X;X;X;X;X;X;X;X;X;X;X;X;X;X;X;X;X;X;X;X3.f.;X;X;X;X;X;X;X;X;X;X;.4.;.;X;X;X;X;X;X;X;X;X;X;X;X;X;X;X;X;X;X;X;X;X;X;X;X",
";X;X;X;X;X;X;X;X;X;X;X;X;X;X;X;X;X;X;X;X;X;X;X;X=.G =.s ;X;X;X;X;X;X;X;X;Xf ! _ { ;X;X;X;X;X;X;X;X;X;X;X;X;X;X;X;X;X;X;X;X;X;X;X",
";X;X;X;X;X;X;X;X;X;X;X;X;X;X;X;X;X;X;X;X;X;X;X;X=.+.=.s ;X;X;X;X;X;X;X;X;XG _ _ :.;X;X;X;X;X;X;X;X;X;X;X;X;X;X;X;X;X;X;X;X;X;X;X",
";X;X;X;X;X;X;X;X;X;X;X;X;X;X;X;X;X;X;X;X;X;X;X;Xw 2 r w ;X;X;X;X;X;X;X;X;X1 2 2 q ;X;X;X;X;X;X;X;X;X;X;X;X;X;X;X;X;X;X;X;X;X;X;X",
";X;X;X;X;X;X;X;X;X;X;X;X;X;X;X;X;X;X;X;X;X;X;X;X:.f f ;X;X;X;X;X;X;X;X;X;Xs ! ~ =.;X;X;X;X;X;X;X;X;X;X;X;X;X;X;X;X;X;X;X;X;X;X;X",
";X;X;X;X;X;X;X;X;X;X;X;X;X;X;X;X;X;X;X;X;X;XD ` +.h =.s ;X;X;X;X;X;X;X;X;Xf _ _ _ ` N ;X;X;X;X;X;X;X;X;X;X;X;X;X;X;X;X;X;X;X;X;X",
";X;X;X;X;X;X;X;X;X;X;X;X;X;X;X;X;X;X;X;X:.:._ _ G +.+.d ;X;X;X;X;X;X;X;X;Xh _ _ _ ~ ~ =.G ;X;X;X;X;X;X;X;X;X;X;X;X;X;X;X;X;X;X;X",
";X;X;X;X;X;X;X;X;X;X;X;X;X;X;X;X;X;X;XG _ _ _ _ _ d P x ;X;X;X;X;X;X;X;X;Xn P S ~ _ _ _ ! f ;X;X;X;X;X;X;X;X;X;X;X;X;X;X;X;X;X;X",
";X;X;X;X;X;X;X;X;X;X;X;X;X;X;X;X;X;X;XN G G P S y ;X;X;X;X;X;X;X;X;X;X;X;X;X;X;XD N s S s y ;X;X;X;X;X;X;X;X;X;X;X;X;X;X;X;X;X;X"
};
