/* XPM */
static char *_0d8d408498a4014d5439f22da01c261NwXCzMcHLHzjiaq2[] = {
/* columns rows colors chars-per-pixel */
"64 64 254 2 ",
"   c None",
".  c #0C0301",
"X  c #090302",
"o  c #140501",
"O  c #190A02",
"+  c #1B1007",
"@  c #220C00",
"#  c #2A0D00",
"$  c #241203",
"%  c #2D1302",
"&  c #2B1909",
"*  c #351B04",
"=  c #3B1C03",
"-  c #341906",
";  c #311A13",
":  c #2B1712",
">  c #39220A",
",  c #392817",
"<  c #3C301E",
"1  c #382D22",
"2  c #4A1F08",
"3  c #422305",
"4  c #47290A",
"5  c #57340A",
"6  c #452917",
"7  c #4A341B",
"8  c #493317",
"9  c #523515",
"0  c #543A1B",
"q  c #5A3D1C",
"w  c #573915",
"e  c #512F14",
"r  c #623B15",
"t  c #493624",
"y  c #533D23",
"u  c #583A26",
"i  c #512E2F",
"p  c #683C38",
"a  c #491335",
"s  c #5E421A",
"d  c #66471B",
"f  c #76501B",
"g  c #5B4324",
"h  c #5B442B",
"j  c #574429",
"k  c #5C4937",
"l  c #564B36",
"z  c #644A26",
"x  c #634C2B",
"c  c #674927",
"v  c #6B512C",
"b  c #75562A",
"n  c #644C34",
"m  c #654937",
"M  c #6C5433",
"N  c #6B553A",
"B  c #6C5B39",
"V  c #675537",
"C  c #735A34",
"Z  c #735B3B",
"A  c #775A36",
"S  c #734B2E",
"D  c #73623D",
"F  c #7D6339",
"G  c #6E6339",
"H  c #5A164F",
"J  c #611E56",
"K  c #662D5A",
"L  c #753269",
"P  c #5A274A",
"I  c #674744",
"U  c #764B4B",
"Y  c #6D5446",
"T  c #755949",
"R  c #7A5856",
"E  c #705153",
"W  c #7B6444",
"Q  c #7C6C4C",
"!  c #776449",
"~  c #7C7249",
"^  c #796754",
"/  c #7B7559",
"(  c #6C624F",
")  c #7D5764",
"_  c #7C4270",
"`  c #7C6764",
"'  c #7C7667",
"]  c #8E611C",
"[  c #865A2A",
"{  c #86663A",
"}  c #8F713E",
"|  c #815959",
" . c #836C4A",
".. c #866C45",
"X. c #897148",
"o. c #957848",
"O. c #856959",
"+. c #8B7453",
"@. c #88785A",
"#. c #967A59",
"$. c #966B49",
"%. c #875A6A",
"&. c #875579",
"*. c #884F73",
"=. c #876866",
"-. c #8A7867",
";. c #947867",
":. c #8A6777",
">. c #94697B",
",. c #8B7776",
"<. c #9A7879",
"1. c #926C69",
"2. c #A17B77",
"3. c #998258",
"4. c #918151",
"5. c #A68B5C",
"6. c #AE915C",
"7. c #A48549",
"8. c #8A8165",
"9. c #9C8464",
"0. c #94826B",
"q. c #998768",
"w. c #8B8378",
"e. c #928574",
"r. c #9C8776",
"t. c #9C9879",
"y. c #A38C6B",
"u. c #A88B64",
"i. c #AA956A",
"p. c #B79C6B",
"a. c #A28976",
"s. c #A89577",
"d. c #B29D78",
"f. c #B38C75",
"g. c #B9A679",
"h. c #B0A678",
"j. c #9CA47A",
"k. c #C5A97B",
"l. c #C5B77D",
"z. c #8D5B82",
"x. c #956C8B",
"c. c #956887",
"v. c #987688",
"b. c #9D7C94",
"n. c #9E7799",
"m. c #94688D",
"M. c #A5788E",
"N. c #A17DA0",
"B. c #988785",
"V. c #9B9586",
"C. c #9F839B",
"Z. c #A78987",
"A. c #A99886",
"S. c #B39F89",
"D. c #A58799",
"F. c #A89898",
"G. c #B39896",
"H. c #BF8D95",
"J. c #ACA788",
"K. c #B7A488",
"L. c #BAB28A",
"P. c #A9A698",
"I. c #BAAA96",
"U. c #B7B598",
"Y. c #ADB293",
"T. c #A78CA5",
"R. c #A995A7",
"E. c #B49AA8",
"W. c #B58FAA",
"Q. c #ABA6A8",
"!. c #B7A8A8",
"~. c #B6B8A9",
"^. c #ADAAB3",
"/. c #B3ACB3",
"(. c #B7A9B8",
"). c #BCBCBB",
"_. c #B6B5B7",
"`. c #AFB2B6",
"'. c #9FA284",
"]. c #C4AD88",
"[. c #C7B788",
"{. c #C2AB95",
"}. c #C7B697",
"|. c #D1BC97",
" X c #D2B98A",
".X c #C69DA8",
"XX c #C8B8A7",
"oX c #D2BEA6",
"OX c #C7BAB6",
"+X c #C9AEB2",
"@X c #E3BDB1",
"#X c #CD9B9E",
"$X c #BAC2AA",
"%X c #BAC6B8",
"&X c #D2C899",
"*X c #D8D49D",
"=X c #CDC293",
"-X c #CDC5A9",
";X c #D8C8A8",
":X c #DCD3A7",
">X c #C9C8B9",
",X c #DBCCBC",
"<X c #D6C8B7",
"1X c #D9D7B8",
"2X c #C8D6BB",
"3X c #E4DBAA",
"4X c #E5D7B6",
"5X c #E0CDAF",
"6X c #E9E6AC",
"7X c #EAE1B3",
"8X c #E9E6B7",
"9X c #F2ECB7",
"0X c #F6F3BA",
"qX c #F8F6BB",
"wX c #FEFEBC",
"eX c #F5F3B5",
"rX c #F0F0B5",
"tX c #BCBCC1",
"yX c #CD99C2",
"uX c #BCC8C0",
"iX c #C8C7C4",
"pX c #D8CAC3",
"aX c #CCD7C6",
"sX c #D9D6C6",
"dX c #E5C8C5",
"fX c #E2D3C5",
"gX c #E4D5C9",
"hX c #EADCCC",
"jX c #E7DBC8",
"kX c #EADDD4",
"lX c #F2DDD1",
"zX c #D9E7D2",
"xX c #D6E6CA",
"cX c #E8E4C9",
"vX c #F3ECC8",
"bX c #FCFCC6",
"nX c #ECE4DA",
"mX c #E8E7D8",
"MX c #F2E2D4",
"NX c #F4E4DB",
"BX c #F6EBDA",
"VX c #FAF7D7",
"CX c #F4EBE3",
"ZX c #F9EBE4",
"AX c #FCEEEC",
"SX c #F6ECE7",
"DX c #F4F2EC",
"FX c #FBF3EC",
"GX c #FDF7E7",
"HX c #FDF5F3",
"JX c #FDFAF5",
"KX c #FFFDFC",
"LX c #FEF7F9",
"PX c #F6ECE8",
/* pixels */
"                                                                                                                                ",
"                                                                                                                                ",
"                                                                                                                                ",
"                                                                                                                                ",
"                                                                                                                                ",
"                                                                                                                                ",
"                                                                                                                                ",
"                                                                                                                                ",
"                                                                                                                                ",
"                                                                                                [ ]                             ",
"                                                                                              g.FX5X]                           ",
"                                                                                              I.KXKX#.                          ",
"                                                                                              , ! Q c                           ",
"                    >         y z b                                     * % % $ $ O     3                                       ",
"                  @ Z u.X.b q 9.}.[.C                             % 7 W #.3.I.Y.'.t.' V , & @ %                                 ",
"                  Z BXGXGXy.W <XfXHXX.                        $ j {.cXHXd.p.@.~.%X%X%X%X$XY./ < o O                             ",
"              * > s.GXFXHXfX<X,X-XS.{                     @ < L.cXmXmXU.].HXs.w.^.`.%X).>X%X2X-Xt.t o                           ",
"            & #.M ;.HXJXFXfXfX,XX.b                     O / sXCXmXaXaX8.A.).' B././._./.~.>X2XaX1X9.o .                         ",
"          o -.KXFX;XHXNXhXfXgXK.F                   X < L.>XaXsXiXuX_.Q.^ / e././._._.r.Z Z  .d.3.= e 4 O                       ",
"          = +.DXKXKXNXfXpX<Xs.].&Xg               X / 6X1X_.`.^.^.`._.`._._.)._.).tXe.j k ;.Z d s A jXcX].c                     ",
"        O & 3 }.KXKXfXA.q. .s.cXeXz 8         * . -.rX>X`.`.>X^.T.R.^.`.tX).~.F.0.e. .V DXKXKX}.w k.HXKXKXFX#.                  ",
"      O x BXBXJXKXKXgXXXI.@.D ~.rX=X8 8       + ' 1X%X`.^.R.7X+XT.B.w.-.-.;.Z g g z y W HXKXKXFX;XKXKXKXKXKXnX5 5 = *           ",
"      @ u.KXKXKXKXKXfX,X>XP.x 8.>XbX3XZ > > + ' _.)./.!.E.T.C.` V j h v x x v u.].p.].#.fXKXKXKXKXKXKXKXKXKXJX].sX,Xs.3         ",
"      4 i.KXKXKXKXDX,X,XI.e.D X.C 8.:X7XQ O ( _.(.>X0X<XR.B.! h q.-XjXDX4X0 I.KXKXKXKXKXKXKXKXKXPXCXhXI.I.DXKXKXKXKXKXu.#       ",
"    O 5 9 nXKXHXnXfX+.#.3.*X3.4.~ 9 > 7 t 7 R.!.8XqXOXR.B.@.B ,XJXSXjXoXg.b a.KXKXKXKXLXHXFXZXkX>X>Xe.M y F.iXKXKXKXKX;X>       ",
"    T vXvXbXHXZXMX<X5.3.MX9Xg.G ~ ~ D < $ -.!.0X9X!.R.w.J.J.<X{.y...A { o.{ C gXKXKXAXAXAXK.sX>X).~.@.M h T O.OXDXnX-X|.d       ",
"  # oXbXbXwXBXNXsX~.i.p.gXHXqXF & < k : I E.qX8XW.D.e.U.2X}.5.A { 5.5XdXdX9.q M hXHXZXAXMXF ^ P.V.-.N -.P.! V F o.o.g.nXz       ",
"    {.wXJXFXMX<X@.! 6X-XF sXHXvXj./ , 6 c.9X8XT.C.-.$X~.g.MXy.jXkXy.T.yXH.q #.jXHXAXZXZXHXg.9 * 7 h w.Q.!.!.J.K.:XFXKXXX*       ",
"    d g.GXFXlXy.D V.XX0Xy.9  .XXOXw.: *.G.0XT.C.` ~.>X].BX>Xm C.,.R c.x.^ W JXKXHXZXAXHXJXo.= # % ( F./.8X!.K.;X}.CXHXq.5       ",
"  3 A ..oXHXZX#.! ^.(.OX4X;.t * = 4 U m..X+XN.-.-X>X[.MXpXR.Y T ^ T n W Z +.KXKXHXAXZXNXK.=       * ^ Q.>X:Xh.sXL.mXDXSX<Xb     ",
"  f ;XwXVXZXnX~ Q Q e.F.R.T.R.a.#.q &.m.m.n.>.K.HX|.jXgXT.T.T.<.Y e.!.>XoXx sXKXKXAXNXNX9.O         0 B.Q.0XJ.Y.2XzXDXHXKXy.    ",
"  f |.VXHXZX)./ Z t.B 8 e u n N W o.1.R R ^ +.K.}.g.,XE.T.D.,.,.E.(.B.Y Y z M ;.XXHXAXMXoX+   % &     I D.8X1X_.aXxXmXDXKXW o   ",
"  5 u.CXKXkXq.M V t.>XP.Q M - @ 3 q q c b C C z z v { n I ` O.E.(.O.u U U B j v nXKXAXZXlXh o 9 5XQ   e v.1X8X_.>XwXxXzXnXb o   ",
"    4 { BX{.C =.=.,.b.T.b.K.d 4 c ;.-XfXhXgXOXXXy.9.3.X.N j k P.r.n v.R 7 j t #.KXKXHXAXNX4X].jXKXi.  i &.<X8X/.1X0XzXzXd.s o   ",
"    5 p.ZXd.{ s.R.v.O.R C s C K.XXI.r.@.9.y.A.!.OXOXOXBX-XJ.d.C  .V.' 7 -.e.h n SXHX{.].HXHXHXKXhX7.  I z.1X8X_.>XaXmX$Xo.3     ",
"    r CXJXoXo.u.<XdXpX .F {.XXq.Z A #.s.K.K.s.y.s.S.gXDXPXnXFXp.A j , ( , o 3 % x o.0 9.JXKXKX;X6.  w %.c.8X>X_.uXaX$XD 4 #     ",
"    5 4XKXAXK...o.i.d.3.oXa.Z v B Z V N Q 0.F._.Q.F.e.O.-.B.!.nXhXo.> . .             w K.nX].o.    n c.v.1X)._.%X/ z v u.}.%   ",
"    2 u.KXCXpX,Xg.v K.,X#.z y h M -.A.a.9.T N ^ ,.F.).7X&Xs.O.q.-X;X0 5 %               9 x d     0  .x g Z 0.@. .u.cXFXKXFX9   ",
"      w -XNXfXgX+.9.jX9.g y Y Z.}.4XqXqX7XoXG.;.R T =.R.OX8XrX:X[.6.p.k.{ @ %                   b M 6 j *Xh.8 #.i.F ,XKXKXXX3   ",
"        w +.A.+.M hXS.h 6 T a.9XeX|.r.=.:.Z.-X7X9X6X&XK.r.E.iX8XbXVX4Xp.g.#.6 % * 4       4 > q y.! > U.wXeX .CXJXi.X.FXk.w =   ",
"          5 9 w oXpXV 7 N 0.rXI.D.E.D.D.Z.<.1.O.O.A.{.:X9X;XF.+XpX9XbXFX;Xp.6.o.o. .8 , > j C z 9 0 > A.wXwXVXKXKX}.v nXFX[.d   ",
"              T ZXS.V h W *X9.n Y I.4X9X0X9X4X{.2.O.1.1.<.I.3XA.b.W.<XqX<X(.G.@.! ^ 8.V.P.>X! 6  X6Xh.s.bXbXJXKXJXg.v kXKXCXb   ",
"            * -XkXL.n C M |.<.B.Z.A.=.T O.D.+X7X9X{.O.1.F.<.r.I.<.%.v.!.9X+XD.D.D.,.=.R Y k ; v qXwXwXwXwXGXKXKXA.0 w  .XX3.    ",
"            7 FXoX[.g M #.G.T j t t u m m m ) T.OX9X9Xa.R E.G.<.v.M.<.| ;.:XB.b.D.C.D.x.c.:., W vXwXwXwXrXGXKXJXoX{.4Xb 9       ",
"            Y FXS.L.x M K.x 6 6 i p R U U U p I M..X1X0XK.O.<.E.v.=.:.>.>.R O.u 3X-Xc.c.x.c.i , Z -.d.3. .kXJXFXKXKXKXd.%       ",
"            ! bX}.[.C  .x 6 U *.*.z.m.m.m.>.M.%.m ) /.,X:XZ.=.O.D.G.2.=.R >.>.R s.y.u m I R ^ Z z 0 z Z 6 A.FX;XJXHX<XF %       ",
"            V wXwX[.A M 6 %.L L L L _ i 6 6 u R M.U T !.,Xt.;.Z. .Z.E.Z.%.I ) x.x.:.R I m u t 7 u S f..Xk Y FX XFXS.5           ",
"            t wXwX[.} c u &.L H J K ; 3 $.f.$.r u c.>.m F.>XJ.Q q.;.;.4XZ.| p I ) c.:.v.v.b.b.v..X#X;.E.h C hX XFXY             ",
"            ; 6XwX*X5.s 7 _ K H H : % #.HXKXHXlX$.u N.>.N V.).!.#.Q @.q.3X4X{.#.m k m E Y E =.=.<.Z.M k : F :Xk.MX,             ",
"              h.wXqX4.} 4 K L J a O y >X>XA.I.SXMX[ p c.|.V w.>XBX}.D D @.q.g.=XK.O.T h u u y y j g , + x 6.;X X}.$             ",
"              l qXwX[.5.d u &.K E o -.V.9 c w -.NX@XS %.!.&XT s.CXZXjXs.B h B B W B V n y 7 , , ; + 1 T i.4X5.|.g $             ",
"                @.wXwX;Xo.d m B.B.- -.K.+.,X9.z gXZX$.| c.:X;X^ T G.sXcX1XU.8.W j y g y 7 6 j j 6 m ^ [.eX3.6.{ +               ",
"                  h.wXwX7X{ s s +.s W fX,XhXq.C jXkX#.1.x.b.;X7Xa.U T A.~.>X)./.Q.F.,.-.,.,.-.Y R U %.g.4.d w $ $               ",
"                  , *XwXwXqXl.X.v c 8  .I.I. .=XMXs.8 =.n.n.z.Z.7X7XS.=.E R R R T R R =.r.6XwXK.%.<.{ d 4 - .                   ",
"                    u =XwXwXwXrX1XXXI.W x i.qXVXCXV 4 T :.x.x._ *.Z.5XqX:XI.Z.Z.F.Z.a.v.G.wX9Xr.Y y $ o .                       ",
"                        p.rXwXwXwXwX0X0XeXwXVXnXr.* % * > > i i a P K %.S.:X9X0XeX3XA.) R #.z 3 % O @                           ",
"                            =XcXvXcXVXVXGXBX}.g %           X X . . X o # 2 r b b [                                             ",
"                                 .r.I.s.0.g >                                                                                   ",
"                                                                                                                                ",
"                                                                                                                                ",
"                                                                                                                                ",
"                                                                                                                                ",
"                                                                                                                                ",
"                                                                                                                                "
};
