/* XPM */
static char *result[] = {
/* columns rows colors chars-per-pixel */
"64 64 16 1 ",
"  c #216B39",
". c #000063",
"X c #844A10",
"o c #AD4A63",
"O c #4A845A",
"+ c #63BD4A",
"@ c #4A9C63",
"# c #42E77B",
"$ c #F7B55A",
"% c #D6CE73",
"& c #E7A5A5",
"* c #8CFFB5",
"= c #FFDEA5",
"- c #FFEFD6",
"; c white",
": c None",
/* pixels */
"::::::::::::::::::::::::::::::::::::::::::::::::::::::::::::::::",
"::::::::::::::::::::::::::::::::::::::::::::::::::::::::::::::::",
"::::::::::::::::::::::::::::::::::::::::::::::::::::::::::::::::",
"::::::::::::::::::::::::::::::::::::::::::::::::::::::::::::::::",
"::::::::::::::::::::::::::::::::::::::::::::::::::::::::::::::::",
":::::::::::::::::::::::::::::::::::::::::::::::::...::::::::::::",
"::::::::::::::::::::::::::::::::::::::::::::::.....:::::::::::::",
"::::::::::::::::::::::::::::::::::::::::::::...o..::::::::::::::",
":::::::::::::::::::::::::::::::::::::::::::.oo..::::::::::::::::",
":::::::::::::::::::::::::::::::::::::::::...o..:::::::::::::::::",
":::::::::::::::::::::::::::::::::::::::..oo..:::::::::::::::::::",
"::::::::::::::::::::::::::::::::::::::...o..::::::::::::::::::::",
"::::::::::::::::::::::::::::::::::::..oo...:::::::::::::::::::::",
"::::::::::::::::::::.::::..:::::.:....o..:::::::::::::::::::::::",
":::::::::::::::::.:.*.:..*.:..:.*....*..::::::::::::::::::::::::",
"::::::::::::::::.*.*#..**#..*..*#*.**##.::::::::::::::::::::::::",
"::::::::::::::::.*###**###**#**###*#####..::::::::::::::::::::::",
":::::::::::::::.*########################+.:::::::::::::::::::::",
"::::::::::::::.*#####+###+#######+###+####+.::::::::::::::::::::",
":::::::::::::.*#+#####+##+##+####+##+######+.:::::::::::::::::::",
"::::::::::::.*###++++++++++++##+++++++##+###+.::::::::::::::::::",
"::::::::::::.*##+#++..++.++..+++.++...+++#+#+.::::::::::::::::::",
":::::::::::.*##++++.=.+.=.+.=.++..+.==.+#++##+.:::::::::::::::::",
":::::::::::.*##+++.==..===.===.+.=..===.++++#+.:::::::::::::::::",
":::::::::::.*#+++.=============.========.+++#+...:::::::::::::::",
"::::::::::.*#+++.========================.+++##+.:::::::::::::::",
"::::::::::.*#+++.=========================.++##+.:::::::::::::::",
":::::::::.*##++.==================&=======.++##.::::::::::::::::",
":::::::::..*#+..===================&=======.###.::::::::::::::::",
"::::::::::.*#.+.==..================&..===.+.#+.::::::::::::::::",
"::::::::::.*#++.=.==..=============..==.==.++#+.::::::::::::::::",
":::::::::.*##+..======..==========.=&=====..+##+.:::::::::::::::",
":::::::::..*#.++.=======.========.==&====.++.#+..:::::::::::::::",
"::::::::::.*.+++.......==.======.===&====.+++.#.::::::::::::::::",
":::::::::.*#++++.;;.......==========&====.++++#+.:::::::::::::::",
"::::::::.*##+++.=;;....;;========..=&=...=.++++++.::::::::::::::",
"::::::::.....++.=;;;..;;;==========...====.++.....::::::::::::::",
":::::::::.-=.++.==.;;;;;.===========&=====.++.=$.:::::::::::::::",
"::::::::..-==.+.===.....============&=====.+.==$.:::::::::::::::",
"::::::....-==.+.====================&=====.+.==$;.::::::::::::::",
":::::.-.%.-===.============================..$..%.::::::::::::::",
":::::..%...---.-===================..======$..;.%.::::::::::::::",
":::::....$=...O.-======............=======$.;.%..:::::::::::::::",
"::::.%..$.$.@OO.;=========================$.%..:::::::::::::::::",
":::.%%%..:..@OOO.--=====================$$.:.:::::::::::::::::::",
"::..%%.::::.@@OOO..--=================$$..::::::::::::::::::::::",
"::.%..::::::..@@OOO..$$$$$$$$$$$$$$$$$..::::::::::::::::::::::::",
":::..:::::::::..@OO....................:::::::::::::::::::::::::",
"::::::::::::::::..@%;.OO.$$$$$.$$.OOOOO.::::::::::::::::::::::::",
":::::::::::::::::.X.;;...====.====.%O.O.::::::::::::::::::::::::",
"::::::::::::::::::.X.;.............OO.O.::::::::::::::::::::::::",
"::::::::::::::::::....%.%.O+O+O+O.%O .OO.:::::::::::::::::::::::",
"::::::::::::::::::.%.%%...............OO.:::::::::::::::::::::::",
"::::::::::::::::::.%%..ooooooooooo.oo....:::::::::::::::::::::::",
":::::::::::::::::::....@O.%OOOOOOO.oo.==$.::::::::::::::::::::::",
"::::::::::::::::::::::.@O.OOOOOOOO.....=$.::::::::::::::::::::::",
":::::::::::::::::::::.   .            .$$.::::::::::::::::::::::",
":::::::::::::::::::::....................:::::::::::::::::::::::",
":::::::::::::::::::::::..::::::::::..:::::::::::::::::::::::::::",
"::::::::::::::::::::::...::::::::::...::::::::::::::::::::::::::",
"::::::::::::::::::::::::::::::::::::::::::::::::::::::::::::::::",
"::::::::::::::::::::::::::::::::::::::::::::::::::::::::::::::::",
"::::::::::::::::::::::::::::::::::::::::::::::::::::::::::::::::",
"::::::::::::::::::::::::::::::::::::::::::::::::::::::::::::::::"
};
