/* XPM */
static char *result[] = {
/* columns rows colors chars-per-pixel */
"32 32 209 2 ",
"   c #38261E",
".  c #4B1412",
"X  c #521B16",
"o  c #521E1B",
"O  c #4B2F1F",
"+  c #57221A",
"@  c #5B241C",
"#  c #582618",
"$  c #56311D",
"%  c #5C2B25",
"&  c #5B2825",
"*  c #463320",
"=  c #5F3727",
"-  c #612A21",
";  c #6B3423",
":  c #6D3628",
">  c #6C3929",
",  c #673625",
"<  c #713C24",
"1  c #733C2A",
"2  c #6A3B37",
"3  c #6A451E",
"4  c #7B401E",
"5  c #6D4A27",
"6  c #7B4326",
"7  c #76412C",
"8  c #78422D",
"9  c #754924",
"0  c #79522B",
"q  c #7D4632",
"w  c #73443C",
"e  c #7B5938",
"r  c #724542",
"t  c #784C46",
"y  c #7D534C",
"u  c #8F541E",
"i  c #9A591F",
"p  c #8B592E",
"a  c #9E5D21",
"s  c #834C35",
"d  c #845434",
"f  c #885535",
"g  c #8D5B36",
"h  c #8B543A",
"j  c #895B3D",
"k  c #925B3D",
"l  c #824C2A",
"z  c #9C662D",
"x  c #8E6438",
"c  c #936333",
"v  c #9F6435",
"b  c #956239",
"n  c #9B633B",
"m  c #9B6B3C",
"M  c #9E723F",
"N  c #A56A2C",
"B  c #A56533",
"V  c #A96536",
"C  c #A46934",
"Z  c #AD6C34",
"A  c #A36639",
"S  c #A36B3C",
"D  c #AD6C39",
"F  c #B16A35",
"G  c #AC753B",
"H  c #A9763A",
"J  c #B47336",
"K  c #B1763C",
"L  c #BB763C",
"P  c #B3793B",
"I  c #BC7C3D",
"U  c #C0783F",
"Y  c #865948",
"T  c #945D40",
"R  c #845A54",
"E  c #8A6646",
"W  c #9C6542",
"Q  c #9E6943",
"!  c #986B46",
"~  c #9B7143",
"^  c #9D724D",
"/  c #8B635C",
"(  c #8B6055",
")  c #9A6F5F",
"_  c #93695A",
"`  c #8D7052",
"'  c #9F745C",
"]  c #9F7452",
"[  c #A36D42",
"{  c #A16E4C",
"}  c #A86A44",
"|  c #B36E40",
" . c #AC7543",
".. c #AD7A45",
"X. c #AB754A",
"o. c #A67848",
"O. c #B47645",
"+. c #B47944",
"@. c #BB7D45",
"#. c #B47C4D",
"$. c #BB7E49",
"%. c #B97647",
"&. c #AB7C52",
"*. c #A77A5D",
"=. c #A87555",
"-. c #B67D55",
";. c #8A6562",
":. c #896561",
">. c #926C64",
",. c #9C7464",
"<. c #9A746C",
"1. c #9D786F",
"2. c #9D7971",
"3. c #A77662",
"4. c #A47963",
"5. c #A47F74",
"6. c #C37A40",
"7. c #BE803D",
"8. c #D78533",
"9. c #E28B34",
"0. c #BD8345",
"q. c #BC824C",
"w. c #BB8A4D",
"e. c #B6874A",
"r. c #B48253",
"t. c #BC8354",
"y. c #B98A5D",
"u. c #BD935D",
"i. c #9C8266",
"p. c #AE836B",
"a. c #AC8C69",
"s. c #A38569",
"d. c #B18467",
"f. c #A98579",
"g. c #B28D7B",
"h. c #B68D75",
"j. c #B5907D",
"k. c #BE967B",
"l. c #BB9B78",
"z. c #CA8A45",
"x. c #C4864A",
"c. c #C58B4C",
"v. c #CB8B4B",
"b. c #C88646",
"n. c #D18E49",
"m. c #D08E47",
"M. c #CA914E",
"N. c #CB9249",
"B. c #D2954E",
"V. c #D29244",
"C. c #C78B52",
"Z. c #CB8C54",
"A. c #C48B5A",
"S. c #CE9452",
"D. c #CF9853",
"F. c #C2915A",
"G. c #CD955B",
"H. c #C9985B",
"J. c #D29553",
"K. c #D49B54",
"L. c #DB9D55",
"P. c #D59B5C",
"I. c #DE9D58",
"U. c #D2965B",
"Y. c #E29E4D",
"T. c #E09E52",
"R. c #E09E58",
"E. c #DFA35A",
"W. c #DFA756",
"Q. c #E3A45C",
"!. c #EAA75D",
"~. c #EEAA5D",
"^. c #E0A254",
"/. c #CB9561",
"(. c #C39667",
"). c #D29C63",
"_. c #D59E65",
"`. c #C79A73",
"'. c #DBA264",
"]. c #D4A36C",
"[. c #DCA76C",
"{. c #D6A665",
"}. c #CFA474",
"|. c #CCA47D",
" X c #D6A472",
".X c #D8A574",
"XX c #DFB17D",
"oX c #EBAC65",
"OX c #F3AE62",
"+X c #F5B063",
"@X c #F5B168",
"#X c #E8B378",
"$X c #AA8A83",
"%X c #AF9086",
"&X c #B39182",
"*X c #B99584",
"=X c #B7988E",
"-X c #B99A8D",
";X c #B4958B",
":X c #D7AD85",
">X c #DCB68C",
",X c #DBB181",
"<X c #D8B995",
"1X c #E1B483",
"2X c #E9BA88",
"3X c #E1BE96",
"4X c #E7C39D",
"5X c #EDC698",
"6X c None",
/* pixels */
"6X6X6X6X6X6X6X6X6X6X6X6X6X6X6X6X6X6X6X6X6X6X6X6X6X6X6X6X6X6X6X6X",
"6X6X6X6X6X6X6X6X6XS S S S [ S  . .+.$.q.Z.J.I.6X6X6X6X6X6X6X6X6X",
"6X6X6X6X6X6XS g f g g b b n [ [  .+.$.q.c.J.I.!.~.!.6X6X6X6X6X6X",
"6X6X6X6X6X9.+.n m  .+.0.x.c.v.x.x.0.x.x.c.v.J.R.Q.P.a 6X6X6X6X6X",
"6X6X6X6X6XN E a.|.XX[.).G.J.J.J.J.J.J.Z.A.y.d.3._ r 4 6X6X6X6X6X",
"6X6X6X6X6Xz 3 i.y.1X:Xl.g.g.g.g.f.5.1.>.R R w ;.o + 6 6X6X6X6X6X",
"6X6X6X6X9.V.e.M w.).G.k.W k f ,.8 1 < _ ; < < < 6 g ~ a 6X6X6X6X",
"6X6X6X6X9.^.L.N.L.Q.S...u. .H x &.S C C c =.| B C n -.a 6X6X6X6X",
"6X6X6X6X9.^.^.J.~.+XL.H.'.m.b.G H.0.I I D ..6.F J A &.a 6X6X6X6X",
"6X6X6Xs.H.'.L.L.~.OXJ.J.U.n.b.P H.I I U G [ C.J Z B 4.! >.6X6X6X",
"6X6X6Xe ` l.>X2X1XXX/._.G.c.b.J G.I +.%.O.{ d.=.) ,.;.r 2 6X6X6X",
"6X6X6X0 5 E :X1X,X:Xg.j.&X&X&X&X%Xf.f.2.>./ R t ;.- o . % 6X6X6X",
"6X6X6Xz c m u.[.).-.p.T Y h s ,.q 1 > ; R - o @ X X + , < 6X6X6X",
"6X6X6X8.N.c.e.G.G.C.Q W k h s l 1 1 1 : < , 1 8 6 l j W u 6X6X6X",
"6X6X6X9.Y.W.M.E.R.J.q.F.L G G p &.C A B A c X.G V V W  .a 6X6X6X",
"6X6X6Xn.Y.W.K.~.@XQ.S.{.n.b.b.H G.U 0.L J A e.+.Z V [  .n 6X6X6X",
"6X6X6Xr.Y.Q.D.~.+XQ.J.'.n.x.m.K G.6.@.I L C +.O.V F }  .R 6X6X6X",
"6X6X6XE (.{.D.!.OXQ.S.[.V.z.v.G U.@.I L L B #.+.F F ' 4.t 6X6X6X",
"6X6X6X5 E l.XX#X@XQ.S.].M.V.z.K U.U I I L A -.O.X.*.;.2 % 6X6X6X",
"6X6X6X0 5 ^ <X4X4X>X`..XG.Z.z. .H.@.@.q.-.*.5.5.$Xr o . , 6X6X6X",
"6X6X6X6XN ~ F.[..X`.p.g.&X*X-X=X;X&Xf.2.>.R w , o . @ < 6X6X6X6X",
"6X6X6X6Xy.w.w.{.).t.p.T h f s ,.8 1 ; ; R % @ @ ; 9 Y ] 6X6X6X6X",
"6X6X6X6Xx L.M.M.G.Z.Q { k h d q q 8 1 7 6 < k p B k ^ w 6X6X6X6X",
"6X6X6X6Xe P.K.K.!.!.w.(.0.P  .c  .S S V S c -.D J } ] > 6X6X6X6X",
"6X6X6X6X0 i.].D.OXOXP._.I.v.z.P c.7.I L G D t.J D ' :.= 6X6X6X6X",
"6X6X6X6X* 5 a.}.oXOXL.P.E.z.v.J C.7.I L V  .-.| *.R .   6X6X6X6X",
"6X6X6X6X6X3 E l.3X5X1X`..XM.x.P c.b.6.-.&.p.p.<.y & X 6X6X6X6X6X",
"6X6X6X6X6X6Xp e.>X,X:X`.*X*X-X-X=X%X$X1._ R w R X # 6X6X6X6X6X6X",
"6X6X6X6X6X6X5 M G.[./.h.k h h ,.q 1 1 R - % @ @ # O 6X6X6X6X6X6X",
"6X6X6X6X6X6X6X6X6X~ X.[ n h f s q 8 1 1 < , $ 6X6X6X6X6X6X6X6X6X",
"6X6X6X6X6X6X6X6X6X6X6X6X6X6X6X6X6X6X6X6X6X6X6X6X6X6X6X6X6X6X6X6X",
"6X6X6X6X6X6X6X6X6X6X6X6X6X6X6X6X6X6X6X6X6X6X6X6X6X6X6X6X6X6X6X6X"
};
