/* XPM */
static char *result[] = {
/* columns rows colors chars-per-pixel */
"32 31 10 1 ",
"  c #6B4A18",
". c #000063",
"X c #845200",
"o c #9C5A00",
"O c #C67B10",
"+ c #FF6B63",
"@ c #FFB5AD",
"# c #E7E7E7",
"$ c white",
"% c None",
/* pixels */
"%%%%%%%%%%%%%%%%%%%%%%%%%%%%%%%%",
"%%%%%%%%%%%%%%%%%%%%%%%%%%%%%%%%",
"%%%%%%%%%%%%%%%%%%%%%%%%%%%%%%%%",
"%%%%%%%%%%%%%%%%%%%%%%%%%%%%%%%%",
"%%%%%%%%%%%%%%%%%%%%%%%%%%%%%%%%",
"%%%%%%%%%%%%%%%%%%%%%%%%%%%%%%%%",
"%%%%%%%%%%%%%%%%%%%%%%...%%%%%%%",
"%%%%%%%%%%%%%%%...%%%%.$#.%%%%%%",
"%%%%%%%%%%%%%%.OOO..%%.$#..%%%%%",
"%%%%%%%%%%%%%.OooooX.%.$$##.%%%%",
"%%%%%%%%%%%%%.OO oooX.$$###.%%%%",
"%%%%%%%%%%%%.OOOOooooX.#....%%%%",
"%%%%%%%%%%%%.OooooooooX.%%%%%%%%",
"%%%%%%%%%...Oooooo oo oX.%%%%%%%",
"%%%%%%%..OOOoooooooooooo.%%%%%%%",
"%%%%%%.OOOOoooo ooooooooX.%%%%%%",
"%%%%%.....OOOooooo ooo oX.%%%%%%",
"%%%%%.@+++...OoooooooooXX.%%%%%%",
"%%%%.@+++++@@.Ooo ooooX..%%%%%%%",
"%%%%.@+++++@+@.Oooooo..%%%%%%%%%",
"%%%%.@++++@@++@.Oo o.%%%%%%%%%%%",
"%%%%%.@+@..++++@.OoX.%%%%%%%%%%%",
"%%%%%%.@.$$.+++@.OXX.%%%%%%%%%%%",
"%%%%....$$#.+++@@.o.%%%%%%%%%%%%",
"%%%%.$$$$#.+++@+@.o.%%%%%%%%%%%%",
"%%%%.$$$#.@+++@+@.X.%%%%%%%%%%%%",
"%%%%%..$#..@@@+@@..%%%%%%%%%%%%%",
"%%%%%%.##.%.@@@..%%%%%%%%%%%%%%%",
"%%%%%%%...%%...%%%%%%%%%%%%%%%%%",
"%%%%%%%%%%%%%%%%%%%%%%%%%%%%%%%%",
"%%%%%%%%%%%%%%%%%%%%%%%%%%%%%%%%"
};
