/* XPM */
static char *result[] = {
/* columns rows colors chars-per-pixel */
"32 32 247 2 ",
"   c #763616",
".  c #8A4717",
"X  c #8F4B18",
"o  c #8F4B19",
"O  c #924C12",
"+  c #934C13",
"@  c #944F1A",
"#  c #9E571C",
"$  c #AD5E0C",
"%  c #AD5E0D",
"&  c #A75E17",
"*  c #AA5E13",
"=  c #A45D1C",
"-  c #A55E1D",
";  c #A85D18",
":  c #A85E1A",
">  c #AA5F1A",
",  c #AF6113",
"<  c #AE6213",
"1  c #AC6014",
"2  c #AD6014",
"3  c #AC6015",
"4  c #AE6015",
"5  c #AE6115",
"6  c #AE6214",
"7  c #AF6214",
"8  c #AF6314",
"9  c #AE6215",
"0  c #AF6315",
"q  c #AB6019",
"w  c #A9601A",
"e  c #AF6319",
"r  c #AB601C",
"t  c #AA601D",
"y  c #AB621C",
"u  c #A8601E",
"i  c #A9601E",
"p  c #AD621C",
"a  c #B06214",
"s  c #B06215",
"d  c #B06315",
"f  c #B06316",
"g  c #B16519",
"h  c #B26419",
"j  c #B36618",
"k  c #B46619",
"l  c #B0651D",
"z  c #B3671E",
"x  c #B36A1E",
"c  c #814624",
"v  c #8D4C24",
"b  c #905125",
"n  c #935225",
"m  c #955428",
"M  c #995828",
"N  c #935530",
"B  c #A05C29",
"V  c #A96120",
"C  c #AA6220",
"Z  c #AB6423",
"A  c #AC6421",
"S  c #A4612F",
"D  c #AA662D",
"F  c #AF692A",
"G  c #B06622",
"H  c #B26823",
"J  c #B46A22",
"K  c #B66F27",
"L  c #B96C21",
"P  c #BD6F22",
"I  c #BE6F23",
"U  c #BA6F25",
"Y  c #B86E27",
"T  c #BD6F24",
"R  c #B46C2D",
"E  c #B76E2C",
"W  c #BE7024",
"Q  c #B7712D",
"!  c #BA7129",
"~  c #BA732D",
"^  c #BB732E",
"/  c #BE752D",
"(  c #BD762F",
")  c #A56431",
"_  c #AE6B33",
"`  c #B06B33",
"'  c #B46F30",
"]  c #B67534",
"[  c #B67437",
"{  c #B97230",
"}  c #BF7433",
"|  c #B87234",
" . c #B87335",
".. c #B87136",
"X. c #B97336",
"o. c #BE7534",
"O. c #BD7635",
"+. c #BF7734",
"@. c #BE7736",
"#. c #BA753B",
"$. c #BE7F3F",
"%. c #C37426",
"&. c #C47525",
"*. c #C47526",
"=. c #C17329",
"-. c #C0722A",
";. c #C0752D",
":. c #C2762C",
">. c #C0772E",
",. c #C1762F",
"<. c #C67828",
"1. c #C7792A",
"2. c #C77A2B",
"3. c #C77A2C",
"4. c #C87A2B",
"5. c #C97B2C",
"6. c #C87A2D",
"7. c #C87B2E",
"8. c #C97C2F",
"9. c #C07630",
"0. c #C37730",
"q. c #C57732",
"w. c #C37830",
"e. c #C77B30",
"r. c #C47932",
"t. c #C47B33",
"y. c #C77C31",
"u. c #C47A35",
"i. c #C17C37",
"p. c #C67D36",
"a. c #C97C30",
"s. c #CA7D30",
"d. c #CA7E30",
"f. c #CB7F31",
"g. c #C97D32",
"h. c #CB7E32",
"j. c #CB7F33",
"k. c #CC7F33",
"l. c #C97E36",
"z. c #C97F36",
"x. c #C97F37",
"c. c #C07939",
"v. c #C1793A",
"b. c #C67D3C",
"n. c #C47E3E",
"m. c #C87E38",
"M. c #BD7A41",
"N. c #B17648",
"B. c #BA7E49",
"V. c #C37E40",
"C. c #C77F42",
"Z. c #CD8135",
"A. c #CC8237",
"S. c #CE8237",
"D. c #CE8337",
"F. c #CD8238",
"G. c #CC8239",
"H. c #CD8239",
"J. c #CE8238",
"K. c #CC833B",
"L. c #CD833B",
"P. c #CC8439",
"I. c #CF8439",
"U. c #CD843D",
"Y. c #CE853E",
"T. c #CE873E",
"R. c #D0853C",
"E. c #BD854C",
"W. c #CD8945",
"Q. c #CF8847",
"!. c #CF8947",
"~. c #CE8A46",
"^. c #C3894E",
"/. c #C9884A",
"(. c #CA884A",
"). c #CD8949",
"_. c #CF8849",
"`. c #CF8A48",
"'. c #CE8A49",
"]. c #CF8B4B",
"[. c #CF8C4B",
"{. c #D18840",
"}. c #D28840",
"|. c #D18943",
" X c #D28942",
".X c #D18A42",
"XX c #D38A42",
"oX c #D38C43",
"OX c #D38B44",
"+X c #D38B46",
"@X c #D38C44",
"#X c #D38D46",
"$X c #D48C44",
"%X c #D58E46",
"&X c #D48E47",
"*X c #D08C48",
"=X c #D18C49",
"-X c #D08C4A",
";X c #D48D48",
":X c #D58D48",
">X c #D58E48",
",X c #D48E49",
"<X c #D68F48",
"1X c #D18E4C",
"2X c #D18E4F",
"3X c #D6904A",
"4X c #D7914C",
"5X c #D7934C",
"6X c #D7934D",
"7X c #D6934E",
"8X c #D8924D",
"9X c #D8934E",
"0X c #D9934E",
"qX c #D9944F",
"wX c #D49050",
"eX c #D49151",
"rX c #D79351",
"tX c #D99450",
"yX c #DA9450",
"uX c #DB9451",
"iX c #DB9651",
"pX c #DA9552",
"aX c #DA9652",
"sX c #D99655",
"dX c #DA9754",
"fX c #DA9755",
"gX c #DB9755",
"hX c #D99656",
"jX c #D99756",
"kX c #DB9756",
"lX c #DC9755",
"zX c #DB9855",
"xX c #DB9856",
"cX c #DC9856",
"vX c #DC9957",
"bX c #DD9957",
"nX c #D59559",
"mX c #D79758",
"MX c #D9975B",
"NX c #D8995A",
"BX c #DB9E61",
"VX c #DFA267",
"CX c #DEA169",
"ZX c #DCA36C",
"AX c #E0A66C",
"SX c #E4B17F",
"DX c None",
/* pixels */
"DXDXDXDXDXDXDXDXDXDXDXDXDXDXDXDXDXDXDXDXDXDXDXDXDXDXDXDXDXDXDXDX",
"DXDXDXDXDXDXDXDXDXDXDXDXDXDXDX^.7 DXDXDXDXDXDXDXDXDXDXDXDXDXDXDX",
"DXDXDXDXDXDXDXDXDXDXDXDXDXDXDXh a DXDXDXDXDXDXDXDXDXDXDXDXDXDXDX",
"DXDXDXDXDXDXDXDXDXDXDXDXDXDXDXh 6 DXDXDXDXDXDXDXDXDXDXDXDXDXDXDX",
"DXDXDXDXDXDXDXDXDXDXDXDXDXDXDXg 7 DXDXDXDXDXDXDXDXDXDXDXDXDXDXDX",
"DXDXDXDXDXK $.DXDXDXDXDXDXaXiXpXqX0X4XDXDXDXDXDXDX$.K DXDXDXDXDX",
"DXDXDXDXDX% x DXDXDXkXlXzXzXgXVXSXtX8X|.:X+XDXDXDXx % DXDXDXDXDX",
"DXDXDXDXDXDXDX$ / fXcXxXsXwX[.`.=X;X&Xu.7X$X.XU $ DXDXDXDXDXDXDX",
"DXDXDXDXDXDXDXi.rXvXhX2XM.) v . X n D o.BXOX{.P.Q DXDXDXDXDXDXDX",
"DXDXDXDXDXDXDXlXbXZX(.)   DXDX1 1 DXDXN B.U.mXR.F.DXDXDXDXDXDXDX",
"DXDXDXDXDXDXkXcXjX/.B O DXDXDXDXa DXDXDX# F K.I.D.^ DXDXDXDXDXDX",
"DXDXDXDXDXDXlXQ.).) + 2 DXDXDXDXDXDXDXDX5 = X.J.Z.w.DXDXDXDXDXDX",
"DXDXDXDXDXDXdX!.#.c DXDXDXDXDXDXDXDXDXDX5 DXS p.k.e.DXDXDXDXDXDX",
"DXDXDXDXDXaXzXeXN.DXDXDXDXDXDXDXa DXDXDXDXDXDX@.j.8.G DXDXDXDXDX",
"DXDXDXDXDXuXgX].b DXDXDXDXDXj 0.q.k DXDXDXDXDX| h.5.A DXDXDXDXDX",
"DX^.h h g yXdX'.o 3 DXDXDXDX,.CXMX-.DXDXDXDX0 R d.4.C g h h ^.DX",
"DX7 a 6 7 qXAX*X@ 4 a DXDX< +.nX_.;.s DXDXa f E s.W.i 7 6 a 7 DX",
"DXDXDXDXDX6XtX,XM DXDXDXDXDXDX~ >.DXDXDXDXDXDXv.7.%.u DXDXDXDXDX",
"DXDXDXDXDX5X9X>X_ DXDXDXDXDXDXDX, DXDXDXDXDXDX9.T L r DXDXDXDXDX",
"DXDXDXDXDXDX3X<Xn.m DXDXa DXDXDXDXDXDXDXDXDXV.y.y. .] DXDXDXDXDX",
"DXDXDXDXDXDX>X%XoX..- 9 8 DXDXDXDXDXDXDXd Y l.1.W Z DXDXDXDXDXDX",
"DXDXDXDXDXDX#X@XXXY.' C DXDXDXDXa DXDXDX! r.6.&.p q DXDXDXDXDXDX",
"DXDXDXDXDXDXDX X}.NXL.O.` DXDXd f DXDXC.x.3.~.z > DXDXDXDXDXDXDX",
"DXDXDXDXDXDXDX( P.R.I.J.t.} c.{ ^ b.m.g.1.*.z ; H DXDXDXDXDXDXDX",
"DXDXDXDXDXDXDX$ J G.S.Z.=.z.T.f.a.7.2.<.I p w e $ DXDXDXDXDXDXDX",
"DXDXDXDXDX% x DXDXDX^ 0.:.1XH.A.-X%.P l : q DXDXDXx % DXDXDXDXDX",
"DXDXDXDXDXK $.DXDXDXDXDXDX[ A V i t y DXDXDXDXDXDX$.K DXDXDXDXDX",
"DXDXDXDXDXDXDXDXDXDXDXDXDXDXDXg 7 DXDXDXDXDXDXDXDXDXDXDXDXDXDXDX",
"DXDXDXDXDXDXDXDXDXDXDXDXDXDXDXh 6 DXDXDXDXDXDXDXDXDXDXDXDXDXDXDX",
"DXDXDXDXDXDXDXDXDXDXDXDXDXDXDX& * DXDXDXDXDXDXDXDXDXDXDXDXDXDXDX",
"DXDXDXDXDXDXDXDXDXDXDXDXDXDXDXE.7 DXDXDXDXDXDXDXDXDXDXDXDXDXDXDX",
"DXDXDXDXDXDXDXDXDXDXDXDXDXDXDXDXDXDXDXDXDXDXDXDXDXDXDXDXDXDXDXDX"
};
