/* XPM */
static char *result[] = {
/* columns rows colors chars-per-pixel */
"32 32 12 1 ",
"  c #58D8F8",
". c #68E8F8",
"X c #98F0F8",
"o c #40D8F8",
"O c #48D8F8",
"+ c #30D0F8",
"@ c #38E0F8",
"# c #78E8F8",
"$ c #98F8F8",
"% c #F8F8F8",
"& c #10C0F8",
"* c white",
/* pixels */
"          ...XXXXXX....XXXXXX...",
"oooooooooooooooooooooooooooooooo",
"oooooooooooooooooooooooooooooooo",
"      ...XXXXXX....XXXXXX...    ",
"OOOOOOOOOOOOOOOOOOOOOOOOOOOOOOOO",
"OOOOOOOOOOOOOOOOOOOOOOOOOOOOOOOO",
"OOOOOOOOOOOOOOOOOOOOOOOOOOOOOOOO",
"...XXXXXX....XXXXXX...          ",
"OOOOOOOOOOOOOOOOOOOOOOOOOOOOOOOO",
"          ...XXXXXX....XXXXXX...",
"oooooooooooooooooooooooooooooooo",
"oooooooooooooooooooooooooooooooo",
"OOOOOOOOOOOOOOOOOOOOOOOOOOOOOOOO",
".          ...XXXXXX....XXXXXX..",
"++++++++++++++++++++++++++++++++",
"++++++++++++++++++++++++++++++++",
"++++++++++++++++++++++++++++++++",
"@@###$$$%%%$$$$%%%$$$###@@@++++@",
"++++++++++++++++++++++++++++++++",
"++++++++++++++++++++++++++++++++",
"&&&&&&&&&&+++@@@###$$$$###@@@+++",
"++++++++++++++++++++++++++++++++",
"++++++++++++++++++++++++++++++++",
"++++++++++++++++++++++++++++++++",
"&&+++@@@###$$$$###@@@+++&&&&&&&&",
"++++++++++++++++++++++++++++++++",
"###@@@@###$$$%%%$$$####$$$%%%$$$",
"++++++++++++++++++++++++++++++++",
"&&&&&&&&&&+++@@@###$$$$###@@@+++",
"&&&&&&&&+++@@@@+++&&&&&&&&&++++&",
"++++++++++++++++++++++++++++++++",
"@@@++++@@@###$$$%%%$$$$%%%$$$###"
};
