/* XPM */
static char *result[] = {
/* columns rows colors chars-per-pixel */
"32 32 184 2 ",
"   c #392304",
".  c #663F06",
"X  c #754907",
"o  c #7C4A09",
"O  c #A41E04",
"+  c #AB1F04",
"@  c #A72106",
"#  c #AD2105",
"$  c #B22306",
"%  c #B72509",
"&  c #B72A0A",
"*  c #BA2C0A",
"=  c #BF360C",
"-  c #BF3C09",
";  c #BF2E10",
":  c #BE3610",
">  c #C33413",
",  c #824D08",
"<  c #855109",
"1  c #985D0A",
"2  c #AB5A0C",
"3  c #9D620B",
"4  c #AC6A0A",
"5  c #B4640C",
"6  c #B66C0C",
"7  c #BB6C0C",
"8  c #B7700B",
"9  c #BB730E",
"0  c #B36718",
"q  c #BA6A15",
"w  c #B36A26",
"e  c #B56E2C",
"r  c #BB7527",
"t  c #B77328",
"y  c #C5440C",
"u  c #C94C0F",
"i  c #C6510D",
"p  c #CA550C",
"a  c #C45E0E",
"s  c #CD4719",
"d  c #C74E19",
"f  c #C74316",
"g  c #CC541B",
"h  c #C96F07",
"j  c #C7600C",
"k  c #C46F0F",
"l  c #CF6D0B",
"z  c #D6680F",
"x  c #CB7207",
"c  c #C6720A",
"v  c #CC7509",
"b  c #C3790E",
"n  c #CD7B0C",
"m  c #D0770A",
"M  c #DE7509",
"N  c #D17D0C",
"B  c #DE780A",
"V  c #C16610",
"C  c #CB6411",
"Z  c #D66316",
"A  c #D3641A",
"S  c #C17613",
"D  c #C27A10",
"F  c #CB7B11",
"G  c #C87217",
"H  c #D07715",
"J  c #DC7517",
"K  c #D67D16",
"L  c #DE7B16",
"P  c #DB781A",
"I  c #E07C0E",
"U  c #CF5721",
"Y  c #D46A25",
"T  c #D56423",
"R  c #DD7D2B",
"E  c #DB7B22",
"W  c #CF840E",
"Q  c #D4830B",
"!  c #D6890E",
"~  c #DB8B0F",
"^  c #CD8514",
"/  c #CE8812",
"(  c #CF8C18",
")  c #D58413",
"_  c #DA8311",
"`  c #D48A14",
"'  c #D3801B",
"]  c #D08C1A",
"[  c #DB8F18",
"{  c #DB8C12",
"}  c #DD9312",
"|  c #DA921A",
" . c #E28E0C",
".. c #E98E0B",
"X. c #E5920D",
"o. c #EA9A0C",
"O. c #EB940B",
"+. c #E28F14",
"@. c #E38313",
"#. c #E39517",
"$. c #E59C15",
"%. c #E99F10",
"&. c #E5951B",
"*. c #E29C1B",
"=. c #EC9E1B",
"-. c #ECA20C",
";. c #EEA90E",
":. c #F3A507",
">. c #F6AC06",
",. c #F2A409",
"<. c #F4AC0A",
"1. c #F7B007",
"2. c #F9B307",
"3. c #F6B30C",
"4. c #F9B509",
"5. c #F6BC0F",
"6. c #FABC0A",
"7. c #ECA611",
"8. c #EDAB11",
"9. c #E4A21F",
"0. c #ECA419",
"q. c #EBAB1F",
"w. c #F1AA1C",
"e. c #EFB112",
"r. c #F3B212",
"t. c #F8B517",
"y. c #F4BC12",
"u. c #F7B51E",
"i. c #F2BB1E",
"p. c #C3812C",
"a. c #CB8C2A",
"s. c #DE862F",
"d. c #EA9C20",
"f. c #E4972F",
"g. c #DFA633",
"h. c #EEA523",
"j. c #E9AC2A",
"k. c #E6A524",
"l. c #F3AB23",
"z. c #F1AD28",
"x. c #ECB02D",
"c. c #EDB425",
"v. c #F4B224",
"b. c #F9BB25",
"n. c #F6B52A",
"m. c #FAB62A",
"M. c #F4BB2C",
"N. c #FABC2C",
"B. c #EBBA32",
"V. c #EBB738",
"C. c #F2B730",
"Z. c #F4BA33",
"A. c #FABE31",
"S. c #F1B538",
"D. c #FBC30C",
"F. c #FDCB0E",
"G. c #F8C411",
"H. c #FCCE13",
"J. c #FDCE1D",
"K. c #FDD013",
"L. c #FDD01D",
"P. c #FBC323",
"I. c #FDD322",
"U. c #FED72D",
"Y. c #EDC035",
"T. c #F4C437",
"R. c #FAC234",
"E. c #FCCA32",
"W. c #F5C53A",
"Q. c #FBC43B",
"!. c #F5CB3C",
"~. c #FBCB3D",
"^. c #FED937",
"/. c #F9D33E",
"(. c #FED334",
"). c #FCC541",
"_. c #FCCC44",
"`. c #FCC94B",
"'. c #FAD543",
"]. c #FDDA45",
"[. c #FED64C",
"{. c #FEDD4C",
"}. c #FEDA55",
"|. c None",
/* pixels */
"|.|.|.|.|.|.|.|.|.|.|.|.|.|.|.|.|.|.|.|.|.|.|.|.|.|.|.|.|.|.|.|.",
"|.|.|.|.|.|.|.|.|.|.|.|.|.|.|.|.|.|.|.|.|.|.|.|.|.|.|.|.|.|.|.|.",
"|.|.|.|.|.|.|.|.|.|.|.|.|.|.|.|.|.|.|.|.|.|.|.|.|.|.|.|.|.|.|.|.",
"|.|.|.|.|.|.|.|.|.|.|.|.|.|.|.|.|.|.|.|.|.|.|.|.|.|.|.|.|.|.|.|.",
"|.|.|.|.|.|.|.|.|.|.|.|.|.w w w t |.|.|.|.|.|.|.|.|.|.|.|.|.|.|.",
"|.|.|.|.|.|.|.|.|.|.p.B./.].}.[.'.!.Y.a.|.|.|.|.|.|.|.|.|.|.|.|.",
"|.|.|.|.|.|.|.|.|.B.{.{.^.I.H.G.y.y.i.M.B.r |.|.|.|.|.|.|.|.|.|.",
"|.|.|.|.|.|.|.t /.{.^.K.I.H.H.D.y.r.e.8.e.c.p.|.|.|.|.|.|.|.|.|.",
"|.|.|.|.|.|.|./.{.L.}.F.L.F.D.D.5.e.-.8.7.8.k.w |.|.|.|.|.|.|.|.",
"|.|.|.|.|.|.a.{.U.}.F.F.D.D.D.6.6.3.;.%.%.-.7.K q 7 5 2 |.|.|.|.",
"|.|.|.|.|.|.T.{.F.F.F.F.6.6.6.2.4.3.:.-.o.+.o. .G l n m c 2 |.|.",
"|.|.|.|.|.|./.U.F.[.D.E.6.6.2.2.>.<.:.-.o.X. .~ C j x v v n 2 |.",
"|.|.|.|.|.|.].L.^.F.D.E.4.4.1.>.>.<.,.o.o.O.~ y i a x x x Q 5 |.",
"|.|.|.|.|.|.].L.[.D.6.4.2.1.1.>.>.,.:.o...o.p $ - q h h v Q 5 |.",
"|.|.|.|.|.0 '.J.[.D.J.2.2.t.>.>.:.:.:.:. .y + O y k x x v Q 5 |.",
"|.|.|.|.S g.S.J.D.6.Q.>.>.r.:.:.:.:.o.M * # O + H c v v Q Q 5 |.",
"|.|.|.S ~.V.R w.D.6.P.2.>.u.:.<.:.M > & @ O + a H v v n ! n |.|.",
"|.|.9 x.'.C.f.s @.3.1.<.O...I z u = & @ # # G ) v v n ! ! 7 |.|.",
"|.|.^ _.Q.A.V.T s Z J L L P C g d f & $ i ` F v v n ! { 7 |.|.|.",
"|.|.x.~.A.R.W.!.g > U Y R s.Y g = & p Q ` v n m Q { ! 8 |.|.|.|.",
"|.7 Z.Q.).R.Q.R.).E > * * f u Z K | ` N m N K ! } W 6 o |.|.|.|.",
"|.|.j.R.N.A._.Q.T.~.!.W.C.j.k.| [ ) K ) _ { } } b 6 |.|.|.|.|.|.",
"|.|.` R.`.A.A._.R.A.A.n.S.z.h.d.&.#.+.#.$.*./ 9 o |.|.|.|.|.|.|.",
"|.|.D C.m.`.Q.A.A.`.).n.n.l.h.=.=.0.0.0.` 9 , |.|.|.|.|.|.|.|.|.",
"|.|.|.] n.n.m.m.).n.n.z.z.w.w.w.q.} / 9 <   |.|.|.|.|.|.|.|.|.|.",
"|.|.|.|.W 9.b.b.b.b.m.b.b.w.*./ 9 1 X |.|.|.|.|.|.|.|.|.|.|.|.|.",
"|.|.|.|.|.|.b n ` ` ^ ^ 6 4 1 X |.|.|.|.|.|.|.|.|.|.|.|.|.|.|.|.",
"|.|.|.|.|.|.|.|.|.|.|.|.|.|.|.|.|.|.|.|.|.|.|.|.|.|.|.|.|.|.|.|.",
"|.|.|.|.|.|.|.|.|.|.|.|.|.|.|.|.|.|.|.|.|.|.|.|.|.|.|.|.|.|.|.|.",
"|.|.|.|.|.|.|.|.|.|.|.|.|.|.|.|.|.|.|.|.|.|.|.|.|.|.|.|.|.|.|.|.",
"|.|.|.|.|.|.|.|.|.|.|.|.|.|.|.|.|.|.|.|.|.|.|.|.|.|.|.|.|.|.|.|.",
"|.|.|.|.|.|.|.|.|.|.|.|.|.|.|.|.|.|.|.|.|.|.|.|.|.|.|.|.|.|.|.|."
};
