/* XPM */
static char *result[] = {
/* columns rows colors chars-per-pixel */
"32 32 196 2 ",
"   c #2F2A1E",
".  c #332B1F",
"X  c #362D22",
"o  c #3D3223",
"O  c #4D3A26",
"+  c #413628",
"@  c #483929",
"#  c #543F29",
"$  c #5B442B",
"%  c #544532",
"&  c #5B4C34",
"*  c #5B4A38",
"=  c #5F513E",
"-  c #6B4E2A",
";  c #6E4E26",
":  c #7B572A",
">  c #654E34",
",  c #695338",
"<  c #71573A",
"1  c #785A39",
"2  c #635543",
"3  c #6C5C46",
"4  c #735E44",
"5  c #7A5F43",
"6  c #7B6244",
"7  c #7F684A",
"8  c #7D6D55",
"9  c #7D755B",
"0  c #8E5B1F",
"q  c #875A25",
"w  c #8D632F",
"e  c #986528",
"r  c #96692E",
"t  c #836438",
"y  c #8D6B3B",
"u  c #896438",
"i  c #956A36",
"p  c #9B6C34",
"a  c #986D3B",
"s  c #AC7C3E",
"d  c #866643",
"f  c #876946",
"g  c #846B4F",
"h  c #916D40",
"j  c #867543",
"k  c #93734D",
"l  c #9A764C",
"z  c #9F7B49",
"x  c #947645",
"c  c #846F51",
"v  c #896F50",
"b  c #877453",
"n  c #897758",
"m  c #9A7752",
"M  c #977B55",
"N  c #9C7C54",
"B  c #937C5C",
"V  c #9D7E5C",
"C  c #907354",
"Z  c #A97C44",
"A  c #A47B4C",
"S  c #A47744",
"D  c #A27E54",
"F  c #A27F58",
"G  c #9F884E",
"H  c #95814B",
"J  c #95815D",
"K  c #9D835C",
"L  c #AF844A",
"P  c #B3854B",
"I  c #AA8554",
"U  c #AE8B53",
"Y  c #A2825D",
"T  c #AF8458",
"R  c #A48A5C",
"E  c #AD8A5C",
"W  c #A78353",
"Q  c #B08657",
"!  c #B58D56",
"~  c #B1875B",
"^  c #B58C5B",
"/  c #AC9355",
"(  c #B6915A",
")  c #BA945B",
"_  c #BB9B5C",
"`  c #9B8564",
"'  c #9E8B6D",
"]  c #9C8862",
"[  c #9C9173",
"{  c #A38B62",
"}  c #AB8D64",
"|  c #A48E6A",
" . c #A58766",
".. c #B08E60",
"X. c #BB8D62",
"o. c #AC956D",
"O. c #A79168",
"+. c #B19261",
"@. c #BB9362",
"#. c #B69966",
"$. c #BE9C62",
"%. c #B3956A",
"&. c #BF9568",
"*. c #BD9B6B",
"=. c #A49673",
"-. c #A89A7A",
";. c #B49E74",
":. c #B19670",
">. c #BFA76A",
",. c #B9A162",
"<. c #ACA17B",
"1. c #BCA574",
"2. c #BAA87A",
"3. c #C39C5E",
"4. c #C2A25E",
"5. c #CCAA5E",
"6. c #C19067",
"7. c #C49A64",
"8. c #C59D6A",
"9. c #C99D6E",
"0. c #C29369",
"q. c #CA9C70",
"w. c #C3A464",
"e. c #C9A465",
"r. c #CBAE64",
"t. c #C5A56C",
"y. c #C7A86A",
"u. c #CEAB69",
"i. c #C5A961",
"p. c #D4AE64",
"a. c #D3AD6C",
"s. c #CDB067",
"d. c #CFB36B",
"f. c #D3B366",
"g. c #D4B46C",
"h. c #DAB46D",
"j. c #D9B86F",
"k. c #C3A472",
"l. c #CDA475",
"z. c #C4AB72",
"x. c #C9AB74",
"c. c #C5AC7D",
"v. c #C9AB79",
"b. c #D1A677",
"n. c #CCB07F",
"m. c #D5B572",
"M. c #D9B572",
"N. c #D6B973",
"B. c #DBBA74",
"V. c #D1B47D",
"C. c #DBBE7A",
"Z. c #D7BD7A",
"A. c #E2BE7D",
"S. c #E1BA76",
"D. c #DEC17D",
"F. c #E9C47F",
"G. c #E0C97F",
"H. c #E2C07E",
"J. c #BDAE85",
"K. c #B7AB89",
"L. c #C7B183",
"P. c #CBB383",
"I. c #CDB886",
"U. c #DCB685",
"Y. c #D5BA83",
"T. c #D4BE8B",
"R. c #D0B281",
"E. c #E1BC8A",
"W. c #DEC382",
"Q. c #D9C38D",
"!. c #D9C493",
"~. c #D8C594",
"^. c #E2C483",
"/. c #EAC685",
"(. c #E5CA85",
"). c #E6C48A",
"_. c #E8C78F",
"`. c #E7CB89",
"'. c #EACC8C",
"]. c #EDD28C",
"[. c #F3D28C",
"{. c #EBCD92",
"}. c #E2CF9B",
"|. c #EED394",
" X c #F3D494",
".X c #F5D996",
"XX c #FAD997",
"oX c #F2D59B",
"OX c #FAD69A",
"+X c #F5DA9C",
"@X c #FBDB9C",
"#X c #F6DBA1",
"$X c #F9DDA3",
"%X c #F7E2A4",
"&X c #FBE3A4",
"*X c None",
/* pixels */
"*X*X*X*X*X*X*X*X*X*X*X*X*X*X*X*X*X*X*X*X*X*X*X*X*X*X*X*X*X*X*X*X",
"*X*X*X*X*X*Xq.6.q.U.|.$X$X$X$X$X$X$X$X$X$X$X$X$X&X$X$X#X*X*X*X*X",
"*X*X*X*X*Xq.0.l.E.oX&X$X&X&X&X&X$X#X#X@X+X$X#X+XOX+X#X#X*X*X*X*X",
"*X*X*X*Xq.X.q.K v.R.XX&XR.!.OX.X1..X%.z.XXv.#.V.V..X.X+X*X*X*X*X",
"*X*X*X*Xb.U.).B | ] @XY.c ^.+XY.{ .X>.} OXt.N D k.[.+X+X*X*X*X*X",
"*X*X*X*X_.oXoXo.J g XX1.b k..XM #..Xk.( .Xk.W l x.].|.+X*X*X*X*X",
"*X*X*X*X+X$X$Xk.o.J @XO.*.C  XV.#..Xt.E  Xk.N ..x.'.|.oX*X*X*X*X",
"*X*X*X*XoX$X@X+XOXOX.XOX X X.X.X.X{. X].'.].'.'.'.].].oX*X*X*X*X",
"*X*X*X*XoX#X.X( ) U t w p e 0 q w i p p a I -.J.~.`.{. X*X*X*X*X",
"*X*X*X*X|.#X#XU n.} y : - O O @ % & < y Z L ! :.K.).'.|.*X*X*X*X",
"*X*X*X*X'.+X.XU R : ; o X o % > < 6 & & > S Z s | /.'.].*X*X*X*X",
"*X*X*X*X'.oX Xz w : $   o 1 Q l 7.$.6 & & > y s y H./.'.*X*X*X*X",
"*X*X*X*X'.oX XA w ;     * I 7.E 8.e.@.V % t U u f H.(.'.*X*X*X*X",
"*X*X*X*X`.|.].Z i $ X o k @.*.8.8.8...^ m E ^ < J D.W.`.*X*X*X*X",
"*X*X*X*X).|.].z 1 O * % D T #.&.8.9.@.Q V g E n 9 B.^.`.*X*X*X*X",
"*X*X*X*X^.|.'.K , $ 6 % N @.l.k.:.v.k.v.v * *.n.n j.^.^.*X*X*X*X",
"*X*X*X*XW.|.].} [ 2.' 3 B P.~.E.~.Q.Q.~.B V q.0.n C.W.D.*X*X*X*X",
"*X*X*X*XD.{./.%.J.}.J.' F ;.T.R.L.L.L.L.V ' X.%.3 B.W.x.*X*X*X*X",
"*X*X*X*XD.`.F.1.[ =.K.` k C T.}.Q.Y.P.` 8 [ ) X.6 B.W.K *X*X*X*X",
"*X*X*X*XC.`.G.;.3 b V F F F } } @.0.D 4 d m ~ @.f M.C.t.*X*X*X*X",
"*X*X*X*XZ.(.E.B 2 3 B Y } } } V m T P h A D l Q f a.Z.N.*X*X*X*X",
"*X*X*X*XZ.W.A.C 3 = n [ K.c 3 4 , > < < d V v 6 g f.B.d.*X*X*X*X",
"*X*X*X*XN.(.H.H.C.Z.S.B.B.j.h.a.t.u.a.a.g.g.p.f.p.*XD.>.*X*X*X*X",
"*X*X*X*XN.^.S.I I @.I I ) M.l a.W W ( g.l I ( a.W f.B.,.*X*X*X*X",
"*X*X*X*Xg.W.C.S.B.h.h.j.m.M.h.h.p.h.f.f.a.f.p.5.p.u.N.g.*X*X*X*X",
"*X*X*X*Xd.C.C.e.w._ ) #.) w.( p.^ 5.) 3.( 3.^ 4.) p.g.d.*X*X*X*X",
"*X*X*X*Xd.D.h.w.e.7.e._ e.3.3.3.g._ 3.) _ _ ) 4.4.5.g.d.*X*X*X*X",
"*X*X*X*Xs.C.h.h.h.f.j.g.a.h.f.a.f.p.p.a.p.f.a.r.5.r.g.r.*X*X*X*X",
"*X*X*X*Xs.D.B.B.B.Z.N.M.M.N.m.h.h.N.N.y.$.w.,.y._ m.N.w.*X*X*X*X",
"*X*X*X*Xs.r.r.s.r.r.r.r.r.r.r.r.i.i._ / G j x ,.r.s.4.H *X*X*X*X",
"*X*X*X*X*X*X*X*X*X*X*X*X*X*X*X*X*X*X*X*X*X*X*X*X*X*X*X*X*X*X*X*X",
"*X*X*X*X*X*X*X*X*X*X*X*X*X*X*X*X*X*X*X*X*X*X*X*X*X*X*X*X*X*X*X*X"
};
