/* XPM */
static char *result[] = {
/* columns rows colors chars-per-pixel */
"32 32 156 2 ",
"   c #010101",
".  c #080708",
"X  c #0B0B0B",
"o  c #13100C",
"O  c #141414",
"+  c #1C151B",
"@  c #1C1B1C",
"#  c #260000",
"$  c #350D08",
"%  c #2A1611",
"&  c #311714",
"*  c #25201D",
"=  c #2D2219",
"-  c #201F20",
";  c #232323",
":  c #282523",
">  c #2A2827",
",  c #2D2C2C",
"<  c #3F2726",
"1  c #392B24",
"2  c #37332F",
"3  c #333333",
"4  c #3A3634",
"5  c #3B3A3B",
"6  c #4E100B",
"7  c #481611",
"8  c #6C140E",
"9  c #661011",
"0  c #45211D",
"q  c #502D1D",
"w  c #67311F",
"e  c #4A3324",
"r  c #4E3822",
"t  c #48362A",
"y  c #43382B",
"u  c #543927",
"i  c #473B3C",
"p  c #543B32",
"a  c #45413F",
"s  c #4D443D",
"d  c #524231",
"f  c #705132",
"g  c #765638",
"h  c #745839",
"j  c #423D40",
"k  c #424242",
"l  c #4D4C4C",
"z  c #4A4641",
"x  c #524242",
"c  c #5A4746",
"v  c #514842",
"b  c #504C48",
"n  c #59484A",
"m  c #5D5348",
"M  c #535252",
"N  c #5C5B5A",
"B  c #5A5654",
"V  c #664A42",
"C  c #6C5650",
"Z  c #6E5C54",
"A  c #625F5F",
"S  c #675B55",
"D  c #725B59",
"F  c #6D614C",
"G  c #766256",
"H  c #7C665C",
"J  c #605F61",
"K  c #6D5E60",
"L  c #676667",
"P  c #6C6866",
"I  c #676568",
"U  c #6C6668",
"Y  c #6D6B6C",
"T  c #7D6C6B",
"R  c #77676A",
"E  c #7F716D",
"W  c #7F6F70",
"Q  c #747273",
"!  c #7C7879",
"~  c #A53526",
"^  c #BC3E37",
"/  c #87522E",
"(  c #8A542E",
")  c #805E38",
"_  c #8B5739",
"`  c #965833",
"'  c #9D6739",
"]  c #9E683D",
"[  c #A16A3B",
"{  c #A9713F",
"}  c #915641",
"|  c #8F6A42",
" . c #966C40",
".. c #9A7249",
"X. c #816755",
"o. c #866C5E",
"O. c #9B6E54",
"+. c #8B7058",
"@. c #AD7B4C",
"#. c #AC7548",
"$. c #B67C46",
"%. c #A36851",
"&. c #886966",
"*. c #857266",
"=. c #8B7F74",
"-. c #907B79",
";. c #A56266",
":. c #A67B60",
">. c #BA824A",
",. c #BE8651",
"<. c #B28154",
"1. c #9B8175",
"2. c #A8836A",
"3. c #C68C4F",
"4. c #C48C53",
"5. c #CB955B",
"6. c #CA9155",
"7. c #C8976C",
"8. c #D59D61",
"9. c #DBA465",
"0. c #DBAD7A",
"q. c #E4AD6D",
"w. c #EFB775",
"e. c #887882",
"r. c #848485",
"t. c #8A8487",
"y. c #8D898B",
"u. c #988E84",
"i. c #938D8C",
"p. c #968787",
"a. c #9D9098",
"s. c #9F9998",
"d. c #A79789",
"f. c #B79585",
"g. c #A59595",
"h. c #A89898",
"j. c #AEA39E",
"k. c #AB9EA4",
"l. c #ADA5A7",
"z. c #B6A7AB",
"x. c #B6A7A6",
"c. c #B9AEB1",
"v. c #B9BABD",
"b. c #E7BB86",
"n. c #C5B5B3",
"m. c #FFD28F",
"M. c #D2C4BD",
"N. c #E9CABF",
"B. c #CBC8C7",
"V. c #D0C5C4",
"C. c #DED2D2",
"Z. c #E0DFDC",
"A. c #DFDEE1",
"S. c #E9E6E8",
"D. c #F1ECF3",
"F. c None",
/* pixels */
"F.F.F.F.F.F.F.F.F.F.F.F.F.F.F.F.F.F.F.F.F.F.F.F.F.F.F.F.F.F.F.F.",
"F.F.F.F.F.F.F.F.F.F.F.F.F.F.F.F.F.F.F.F.F.F.F.F.F.F.F.F.F.F.F.F.",
"F.F.F.F.F.F.F.F.F.F.F.F.F.F.F.F.F.F.F.F.F.F.F.        F.F.F.F.F.",
"F.F.3.F.F.F.F.F.F.F.F.F.F.F.F.F.F.F.F.    O ; ; ;   F.F.F.F.F.F.",
"F.F.3.F.F.F.F.F.F.F.F.F.F.F.F.F.F.    @ A h.W 5 O   F.F.F.F.F.F.",
"F.F.h ) F.F.F.F.F.F.F.F.F.F.      @ , 3 c x.V.Q O F.F.F.F.F.F.F.",
"F.F.4 d @   .                 @ , 3 5 5 R j M 3   F.F.F.F.F.F.F.",
"F.F.] ..F.  O : - o + @ @ : 4 v v z 5 x *.3 4 3   F.F.F.F.F.F.F.",
"F.F.>.6.F.F.  ; k k 3 , : e ..@.@.g % x l 3 3 3 . F.F.F.F.F.F.F.",
"F.F.$.6.F.F.  @ i 5 M k p 7.m.5.#._ 0 & 1 4 3 , X F.F.F.F.F.F.F.",
"F.F.F.4.8.F.F.  Z C J N X.b.0._ 7 # $ q t 3 3 3 X F.F.F.F.F.F.F.",
"F.F.F.>.9.F.F.  f.d.u.*.&.` ~ 9 6 w O.G k 2 3 3 O F.F.F.F.F.F.F.",
"F.F.F.$.9.F.F.  *.m f.&.;.8 ^ } 2.+.G y.I 4 , 3 @   F.F.F.F.F.F.",
"F.F.F.{ 9.F.F.  - 3 n V C.%.:.F l.r.+ e.y., . X > . F.F.F.F.F.F.",
"F.F.F.[ 8.F.F.F.  3 l 0 2.1.D + R a.y.k.c.B O . . X   F.F.F.F.F.",
"F.F.F.' 5.F.F.F.  O b , b L i *.s.R D.v.U r.Q .   .   F.F.F.F.F.",
"F.F.F.F.,.w.F.F.  X k @ , N y R z.l.z.A.L , k Y M X O   F.F.F.F.",
"F.F.F.F.#.w.F.    ; 5 @ , l C H -.g.Z.S.! ; @ ; ! B.Y @   F.F.F.",
"F.F.F.F.' q.F.    ; , @ , U d.S p.n.V.A.l > - @ @ E ;     F.F.F.",
"F.F.F.F.` 8.F.    ; : ; k M.3 > n.i.B.y.l 5 , ; @ - -   F.F.F.F.",
"F.F.F.F.( 4.F.    ; 5 t.1.s.O O 3 t.! 3 @ , 5 , : ;         F.F.",
"F.F.F.F.( @.|     @ i k.Z.B O @ + @ @ @ - - , 3 ; @ @       F.F.",
"F.F.F.F.F.] f   . 3 3 M S.> @ @ + @ @ + @ O . X .       F.F.F.F.",
"F.F.F.F.F.` t   , 3 % O O                       F.F.F.F.F.F.F.F.",
"F.F.F.F.F.u = * > X .         F.F.F.F.F.F.F.F.F.F.F.F.F.F.F.F.F.",
"F.F.F.F.; N b @ X   F.F.F.F.F.F.F.F.F.F.F.F.F.F.F.F.F.F.F.F.F.F.",
"F.F.F.F.: ; : o F.F.F.F.F.F.F.F.F.F.F.F.F.F.F.F.F.F.F.F.F.F.F.F.",
"F.F.F.F.F.F.e F.  F.F.F.F.F.F.F.F.F.F.F.F.F.F.F.F.F.F.F.F.F.F.F.",
"F.F.F.F.F.F.F.F.F.F.F.F.F.F.F.F.F.F.F.F.F.F.F.F.F.F.F.F.F.F.F.F.",
"F.F.F.F.F.F.F.F.F.F.F.F.F.F.F.F.F.F.F.F.F.F.F.F.F.F.F.F.F.F.F.F.",
"F.F.F.F.F.F.F.F.F.F.F.F.F.F.F.F.F.F.F.F.F.F.F.F.F.F.F.F.F.F.F.F.",
"F.F.F.F.F.F.F.F.F.F.F.F.F.F.F.F.F.F.F.F.F.F.F.F.F.F.F.F.F.F.F.F."
};
