/* XPM */
static char *result[] = {
/* columns rows colors chars-per-pixel */
"64 64 188 2 ",
"   c #020102",
".  c #0B030C",
"X  c #0C0C0C",
"o  c #070108",
"O  c #150A09",
"+  c #0B0811",
"@  c #120513",
"#  c #120C12",
"$  c #170618",
"%  c #19071B",
"&  c #1C091E",
"*  c #190F14",
"=  c #131313",
"-  c #1D111D",
";  c #1C1B1C",
":  c #171218",
">  c #191209",
",  c #200F09",
"<  c #391D0C",
"1  c #2C161E",
"2  c #341F1E",
"3  c #20190A",
"4  c #35221B",
"5  c #1F0921",
"6  c #1F1620",
"7  c #230A24",
"8  c #290F26",
"9  c #270B28",
"0  c #2A0C2C",
"q  c #2D1522",
"w  c #231C23",
"e  c #321B21",
"r  c #2F0D31",
"t  c #330E35",
"y  c #360F39",
"u  c #380F3A",
"i  c #3B113D",
"p  c #341637",
"a  c #242424",
"s  c #2B232B",
"d  c #2C2B2C",
"f  c #272128",
"g  c #382722",
"h  c #3C382B",
"j  c #312C31",
"k  c #333333",
"l  c #383538",
"z  c #3C3C3C",
"x  c #373438",
"c  c #432E1F",
"v  c #49351E",
"b  c #403D35",
"n  c #4A3421",
"m  c #5B471E",
"M  c #5C4424",
"N  c #564020",
"B  c #41413C",
"V  c #634C23",
"C  c #6E5525",
"Z  c #675021",
"A  c #775C28",
"S  c #7E6329",
"D  c #3E1141",
"F  c #203A54",
"G  c #421345",
"H  c #461449",
"J  c #49154C",
"K  c #413F41",
"L  c #22405E",
"P  c #37434E",
"I  c #244667",
"U  c #334C65",
"Y  c #314D69",
"T  c #2C5175",
"R  c #2C547B",
"E  c #345472",
"W  c #395978",
"Q  c #3A5874",
"!  c #315170",
"~  c #434343",
"^  c #494649",
"/  c #4C4C4D",
"(  c #454749",
")  c #504F4C",
"_  c #414F5C",
"`  c #525252",
"'  c #5C5C5C",
"]  c #4A5055",
"[  c #6F674F",
"{  c #776B4B",
"}  c #6E6957",
"|  c #716A54",
" . c #534F60",
".. c #495966",
"X. c #4F5F6D",
"o. c #5A636A",
"O. c #586978",
"+. c #48627A",
"@. c #656565",
"#. c #6D6D6D",
"$. c #6E6E63",
"%. c #74756B",
"&. c #69757D",
"*. c gray45",
"=. c #757973",
"-. c #7C7C7C",
";. c #777C78",
":. c #676F7A",
">. c #8D4A19",
",. c #A4541A",
"<. c #A8571A",
"1. c #B55D1B",
"2. c #BB611D",
"3. c #8B6D2D",
"4. c #84672B",
"5. c #92722F",
"6. c #87703D",
"7. c #8B733C",
"8. c #9B7932",
"9. c #967736",
"0. c #886F38",
"q. c #A07E34",
"w. c #C2631D",
"e. c #897648",
"r. c #8B7A50",
"t. c #847C61",
"y. c #A88336",
"u. c #B58E3B",
"i. c #BD953E",
"p. c #C2993F",
"a. c #C69B40",
"s. c #CB9F41",
"d. c #CFA343",
"f. c #D4A645",
"g. c #D9AA46",
"h. c #DFAF49",
"j. c #D5A845",
"k. c #E4B34A",
"l. c #EDBA4D",
"z. c #E9B74C",
"x. c #F2BE4F",
"c. c #2F5781",
"v. c #2F5A84",
"b. c #315B85",
"n. c #325F8B",
"m. c #32608D",
"M. c #3A6EA2",
"N. c #3C73A8",
"B. c #3F79B2",
"V. c #3E77B0",
"C. c #5C758B",
"Z. c #647584",
"A. c #6C7A84",
"S. c #6C7984",
"D. c #727D86",
"F. c #717F89",
"G. c #667D92",
"H. c #427EB9",
"J. c #417DB7",
"K. c #75828C",
"L. c #78858F",
"P. c #7E8285",
"I. c #7A8791",
"U. c #7B8993",
"Y. c #838383",
"T. c #8A8A8A",
"R. c #818F9A",
"E. c #83919C",
"W. c #959595",
"Q. c #9C9C9C",
"!. c #8C9BA6",
"~. c #90A0AB",
"^. c #9AABB7",
"/. c #A3A3A3",
"(. c #ABABAB",
"). c #B4B4B4",
"_. c #BCBCBC",
"`. c #B8CCDB",
"'. c #B7CBDA",
"]. c #C4C4C4",
"[. c #CDCDCD",
"{. c #D3D3D3",
"}. c #DBDBDB",
"|. c #E4E4E4",
" X c #ECECEC",
".X c #F4F4F4",
"XX c #FFFFFF",
"oX c None",
/* pixels */
"oXoXoXoXoXoXoXoXoXoXoXoXoXoXoXoXoXoXoXoXoXoXoXoXoXoXoXoXoXoXoXoX  oXoXoXoXoXoXoXoXoXoXoXoXoXoXoXoXoXoXoXoXoXoXoXoXoXoXoXoXoXoXoX",
"oXoXoXoXoXoXoXoXoXoXoXoXoXoXoXoXoXoXoXoXoXoXoXoXoXoXoXoXoXoXoX@ 7   oXoXoXoXoXoXoXoXoXoXoXoXoXoXoXoXoXoXoXoXoXoXoXoXoXoXoXoXoXoX",
"oXoXoXoXoXoXoXoXoXoXoXoXoXoXoXoXoXoXoXoXoXoXoXoXoXoXoXoXoXoX@ t t 5 oXoXoXoXoXoXoXoXoXoXoXoXoXoXoXoXoXoXoXoXoXoXoXoXoXoXoXoXoXoX",
"oXoXoXoXoXoXoXoXoXoXoXoXoXoXoXoXoXoXoXoXoXoXoXoXoXoXoXoXoX. G H @ 1 $ oXoXoXoXoXoXoXoXoXoXoXoXoXoXoXoXoXoXoXoXoXoXoXoXoXoXoXoXoX",
"oXoXoXoXoXoXoXoXoXoXoXoXoXoXoXoXoXoXoXoXoXoXoXoXoXoXoXoX. D J J i 3.2 @ oXoXoXoXoXoXoXoXoXoXoXoXoXoXoXoXoXoXoXoXoXoXoXoXoXoXoXoX",
"oXoXoXoXoXoXoXoXoXoXoXoXoXoXoXoXoXoXoXoXoXoXoXoXoXoXoX  i J J J J n f.q @ oXoXoXoXoXoXoXoXoXoXoXoXoXoXoXoXoXoXoXoXoXoXoXoXoXoXoX",
"oXoXoXoXoXoXoXoXoXoXoXoXoXoXoXoXoXoXoXoXoXoXoXoXoXoX  u J J J J J q z.q.0 . oXoXoXoXoXoXoXoXoXoXoXoXoXoXoXoXoXoXoXoXoXoXoXoXoXoX",
"oXoXoXoXoXoXoXoXoXoXoXoXoXoXoXoXoXoXoXoXoXoXoXoXoX  r J J H 0 & H 0 i.x.c D   oXoXoXoXoXoXoXoXoXoXoXoXoXoXoXoXoXoXoXoXoXoXoXoXoX",
"oXoXoXoXoXoXoXoXoXoXoXoXoXoXoXoXoXoXoXoXoXoXoXoXo 7 J J y N C u J i q.x.S H t o oXoXoXoXoXoXoXoXoXoXoXoXoXoXoXoXoXoXoXoXoXoXoXoX",
"oXoXoXoXoXoXoXoXoXoXoXoXoXoXoXoXoXoXoXoXoXoXoXoX$ J J G M x.e J J H 5.x.u.u J 0   oXoXoXoXoXoXoXoXoXoXoXoXoXoXoXoXoXoXoXoXoXoXoX",
"oXoXoXoXoXoXoXoXoXoXoXoXoXoXoXoXoXoXoXoXoXoXoX@ H G J 0 h.j.0 J J G 8.x.p.t J J & oXoXoXoXoXoXoXoXoXoXoXoXoXoXoXoXoXoXoXoXoXoXoX",
"oXoXoXoXoXoXoXoXoXoXoXoXoXoXoXoXoXoXoXoXoXoX  4 > & H 1 x.h.8 J J 0 p.x.y.u J J u   oXoXoXoXoXoXoXoXoXoXoXoXoXoXoXoXoXoXoXoXoXoX",
"oXoXoXoXoXoXoXoXoXoXoXoXoXoXoXoXoXoXoXoXoX  4.3.t J J e x.x.3.e 8 C x.x.C J J J H e Z oXoXoXoXoXoXoXoXoXoXoXoXoXoXoXoXoXoXoXoXoX",
"oXoXoXoXoXoXoXoXoXoXoXoXoXoXoXoXoXoXoXoX  4.l.q H J H 8 l.x.x.x.l.x.x.x.g J J J J 0 z.m oXoXoXoXoXoXoXoXoXoXoXoXoXoXoXoXoXoXoXoX",
"oXoXoXoXoXoXoXoXoXoXf Y.=.; oXoXoXoXoXoX3 x.d.r J J J r d.x.x.x.x.x.x.k.9 J J J J 9 l.a.  oXoXoXoXo ` T.` o oXoXoXoXoXoXoXoXoXoX",
"oXoXoXoXoXoXoXoXoXk .XXXXX|.; oXoXoXoX# A x.k.q J J J y u.x.x.x.x.x.x.x.1 J J J i Z x.f..   oXoXoXT.XXXXXXT.oXoXoXoXoXoXoXoXoXoX",
"oXoXoXoXoXoXoXoXoXQ.XXXXXXXX#.oXoXoX. u 5.x.x.4.0 D D 1 h.x.x.x.x.x.x.x.p.n 0 w A z.x.5.i $ oXoX= .XXXXXXX.X= oXoXoXoXoXoXoXoXoX",
"oXoXoXoXoXoXoXoX  Q.XXXXXXXX*.oXoX  u G 3.x.x.x.a.3.9.h.x.x.x.x.x.x.x.x.x.x.l.l.x.x.j.e H H . oX; XXXXXXXXXXX oXoXoXoXoXoXoXoXoX",
"oXoXoXoXoXoXo Y.[.|.XXXXXX Xa oX  9 J J V x.x.x.p.6.r.e.i.x.x.x.x.x.l.u.e.r.S d.x.l.c H J J i o oXQ.XXXXXX.X[.(.k oXoXoXoXoXoXoX",
"oXoXoXoXoXoXY.XXXXXXXXXXXX[.; oX% J J J 9 f.k.{ L.Z.O.Z.L.[ h.x.x.h.| L.C.O.C.C.{ u.t J J y H 0 o -.XXXXXXXXXXXX|.= oXoXoXoXoXoX",
"oXoXoXoXoXo [.XXXXXXXXXXXXXX}.f y J J J H c [ A.c.B.H.H.n.Z.} z.k.$.Z.n.H.H.H.c.K.B y H y # G & W.XXXXXXXXXXXXXXXXz oXoXoXoXoXoX",
"oXoXoXoXoXoX).XXXXXXXX.XXXXXXX XF r J J J p K.b.B.H.H.H.B.m.K.7.6.A.M.T m.H.c.c.n.I.* q A v - ).XXXXXXXX.XXXXXXXXXf oXoXoXoXoXoX",
"oXoXoXoXoXoXk  XXXXXW.d }.XXXXXX.X' 0 J J  .+.v.  m.B.M.+ I W %.;.T R   b.K.m.  R +.t.l.d.g [.XXXXXXXX#.z .XXXXXY.oXoXoXoXoXoXoX",
"oXoXoXoXoXoXoX; ) k o oX; ].XXXXXXXX-.5 J S.F B.T T H.v.I V.L D.D.c.M.R U C.Q R M.W =.u.b |.XXXXXX.X/ o oX; ` k oXoXoXoXoXoXoXoX",
"oXoXoXoXoXoXoXoXoXoXoXoXo * (.XXXXXXXXQ.& :.o.Q M.B.H.H.N.W o.;.D.R U ~.K.`.E.U.W W o.) .XXXXXXX|.x t . oXoXoXoXoXoXoXoXoXoXoXoX",
"oXoXoXoXoXoXoXoXoXoXoXoX9 H % T.XXXXXXXX_.] A.L.!...K...E.U.A.%.=.P !.^.K.'.R.E.^...D.XXXXXXXX{.f i J u   oXoXoXoXoXoXoXoXoXoXoX",
"oXoXoXoXoXoXoXoXoXoXoX. H J H 9 @..XXXXXXX).L.o.'.L.'.K.'.o.U.8.9.L.D.X.E W E _ K.L._.XXXXXX).- G J J J & oXoXoXoXoXoXoXoXoXoXoX",
"oXoXoXoXoXoXoXoXoXoX  u J J J H r ^  XXXXXXXP.U.A.A.'.G.K.U.[ x.l.| A.T B.J.N.Y I.T.XXXXXXW.& H J J J J G . oXoXoXoXoXoXoXoXoXoX",
"oXoXoXoXoXoXoXoXoXoX@ r r t t t t 5 d (.(.(./.( &.K.K.D.&.h 8.y.y.8.h A.F.G.D.:.( (.(.(.*.. r t t t r t t 7   oXoXoXoXoXoXoXoXoX",
"oXoXoXoXoXoXoXoXoX  O 1.2.2.2.2.2.2.2.2.2.2.2.2.2.,.>.,.2.2.2.2.2.2.2.2.,.>.<.2.2.2.2.2.2.2.2.2.2.2.2.2.2.< . oXoXoXoXoXoXoXoXoX",
"oXoXoXoXoXoXoXoXoX7 > w.w.w.w.w.w.w.w.w.w.w.w.w.w.w.w.w.w.w.w.w.2.w.w.w.w.w.w.w.w.w.w.w.w.w.w.w.w.w.w.w.w.< u   oXoXoXoXoXoXoXoX",
"oXoXoXoXoXoXoXoX. H u 0 9 9 9 9 q 0 & ~ Y.Y.Y.Y.Y.Y.Y.Y.Y.Y.Y.Y.Y.Y.Y.Y.Y.Y.Y.Y.Y.Y.Y.Y.~ 7 t y t y t t t G H $ oXoXoXoXoXoXoXoX",
"oXoXoXoXoXoXoXoXr J J J J J J J J J i ' XXXXXXXX X#.k z Q.XXXXXXXXXX.XT.~ ~ T..XXXXXXXXX/ i J J J J J J J J J i   oXoXoXoXoXoXoX",
"oXoXoXoXoXoXoX. H J J J J J J J J J H w XXXXXX.Xk         #.XXXXXXXX(         ` XXXXXX.X# J J J J J J J J J J J % oXoXoXoXoXoXoX",
"oXoXoXoXoXoXoX7 J J J J J J J J J J J & _.XXXX).            {.XXXX).            ].XXXX/.7 J J J J J J J J J J J u   oXoXoXoXoXoX",
"oXoXoXoXoXoX  G J J J J J J J J J J J i / XXXXT.            Q.XXXXW.            Q.XXXXj G J J J J J J J J J J J J @ oXoXoXoXoXoX",
"oXoXoXoXoXoX% J J J J J J J J J J J J J & ].XX_.            _.XXXX(.            _.XXQ.% J J J J J J J J J J J J J 0 oXoXoXoXoXoX",
"oXoXoXoXoXoXt J J J J J J J J J J J J J D d .X.Xl         z XXXXXX.Xf         k XX}.: H J J J J J J J J J J J J J G   oXoXoXoXoX",
"oXoXoXoXoX  H J J J J J J J J J J J J J J t / XX X`   o @. XXX.X.XXX|.' X o ) |. Xd u J J J J J J J J J J J J J J J @ oXoXoXoXoX",
"oXoXoXoXoXX J J J J J J J J J J J J J J J J 0 ` .XXX.X.XXXXX[.X X }.XXXXXXXXXX}.d t J J J J J J J J J J J J J J J J 7 oXoXoXoXoX",
"oXoXoXoXoX% J J J J J J J J J J J J J J J J J 0 a _.XXXXXXXX}.k k |.XXXXXX.XW.# y J J J J J J J J J J J J J J J J J 0 oXoXoXoXoX",
"oXoXoXoXoX7 J J J J J J J J J J J J J J J J i f ~ / z W.}.XXXXXXXXXX.X[.;.k a ~ 9 J J J J J J J J J J J J J J J J J u oXoXoXoXoX",
"oXoXoXoXoX7 J J J J J J J J J J J J J J J y l }.k XX XW.; l k k k k k k )..X(.-.Y.& H J J J J J J J J J J J J J J J u oXoXoXoXoX",
"oXoXoXoXoX5 J J J J J J J J J J J J J J r ` .X_.l  XXX_.W.XXXXW.].XX.X' XXXX.Xl XX/.* H J J J J J J J J J J J J J J t oXoXoXoXoX",
"oXoXoXoXoX& J J J J J J J J J J J J H 5 =.XXXXY.Y.` -.#.].XXXXW.].XXXX` }.-./ k .XXX].- D J J J J J J J J J J J J J r oXoXoXoXoX",
"oXoXoXoXoX@ J J J J J J J J J J J H & W.XXXXXX' }.XX[.d ^ @.T.' =.T.@.f #.{.XXP.].XXXX}.d i J J J J J J J J J J J J 9 oXoXoXoXoX",
"oXoXoXoXoX. H J J J J J J J J J G - ).XXXXXXXX~ @. XXX) XX X[.*.Q.{..XY.[.XX X` (.XXXXXX X~ t H J J J J J J J J J J & oXoXoXoXoX",
"oXoXoXoXoX  H J J J J J J J J D w [.XXXXXXXX#.. _.z T.^ XXXXXXW.].XXXXQ.W.T.k @.d }.XXXXXX.X' 9 J J J J J J J J J J @ oXoXoXoXoX",
"oXoXoXoXoXoXr J J H y D J J y k |.XXXXXX.X/ 0 &  XXX(.) ` Y.(.*.Q.(.-.z / /.XX/.7 w ].XXXXXXXX-.7 J J G y G J J J G   oXoXoXoXoX",
"oXoXoXoXoXoX$ J t k -.@.& 0 / .XXXXXXX|.l y J 0 ).XXXXXX.X].Q.T.T./.[..XXXXXXX*.i G & (.XXXXXXXXQ.& 7 ~ P.' & H J 9 oXoXoXoXoXoX",
"oXoXoXoXoXoX  t / XXXXXX].#.XXXXXXXX{.s i J J i #.XXXXXXXXXXXXXXXXXXXXXXXXXXXXj J J J & T.XXXXXXXX_.*.XXXXXX).7 J . oXoXoXoXoXoX",
"oXoXoXoXoXoXoX  ].XXXXXXXXXXXXXXXX_.- G J J J J 7 |.XXXXXXXXXXXXXXXXXXXXXXXX).9 J J J J 7 @..XXXXXXXXXXXXXXXXXj 0 oXoXoXoXoXoXoX",
"oXoXoXoXoXoXoXo ].XXXXXXXXXXXXXXQ.% G J J J J J i ( .XXXXXXXXXXXXXXXXXXXXX|.s H J J J J J r ^  XXXXXXXXXXXXXXXd o oXoXoXoXoXoXoX",
"oXoXoXoXoXoXoXoX' XXXXXXXXXXXX(.$ H J J J J J J J y ~ |.XXXXXXXXXXXXXXXX].j G J J J J J J J t ~ XXXXXXXXXXXX].  oXoXoXoXoXoXoXoX",
"oXoXoXoXoXoXoXoXoX) Q.[.XXXXXXXXj H J J J J J J J J i & ' Q.].}.{._.W.^ 7 G J J J J J J J J 5 ].XXXXXX.XQ.-.= oXoXoXoXoXoXoXoXoX",
"oXoXoXoXoXoXoXoXoXoX  /.XXXXXXXX-.i J J J J J H y & . G G t 0 7 0 0 u J H @ % r G J J J J J w XXXXXXXXXXX X oXoXoXoXoXoXoXoXoXoX",
"oXoXoXoXoXoXoXoXoXoXoXT.XXXXXXXX' 7 0 0 7 & .     oX$ J J J J J J J J J J 9 oXoX  . @ 7 9 0 #  XXXXXXX XX oXoXoXoXoXoXoXoXoXoXoX",
"oXoXoXoXoXoXoXoXoXoXoX; }.XXXX_.# oXoXoXoXoXoXoXoXoX9 J J J J J J J J J J D   oXoXoXoXoXoXoXoX@.XXXX.X' oXoXoXoXoXoXoXoXoXoXoXoX",
"oXoXoXoXoXoXoXoXoXoXoXoXX ~ z X oXoXoXoXoXoXoXoXoXo H H J J J J J J J J J J . oXoXoXoXoXoXoXoXoXa ^ f oXoXoXoXoXoXoXoXoXoXoXoXoX",
"oXoXoXoXoXoXoXoXoXoXoXoXoXoXoXoXoXoXoXoXoXoXoXoXoX. J J J J J J J J J J J J 7 oXoXoXoXoXoXoXoXoXoXoXoXoXoXoXoXoXoXoXoXoXoXoXoXoX",
"oXoXoXoXoXoXoXoXoXoXoXoXoXoXoXoXoXoXoXoXoXoXoXoXoX9 J J J J J J J J J J J J i   oXoXoXoXoXoXoXoXoXoXoXoXoXoXoXoXoXoXoXoXoXoXoXoX",
"oXoXoXoXoXoXoXoXoXoXoXoXoXoXoXoXoXoXoXoXoXoXoXoXo i J J J J J J J J J J J J J . oXoXoXoXoXoXoXoXoXoXoXoXoXoXoXoXoXoXoXoXoXoXoXoX",
"oXoXoXoXoXoXoXoXoXoXoXoXoXoXoXoXoXoXoXoXoXoXoXoX@ J J J J J J J J J H J J J J 7 oXoXoXoXoXoXoXoXoXoXoXoXoXoXoXoXoXoXoXoXoXoXoXoX",
"oXoXoXoXoXoXoXoXoXoXoXoXoXoXoXoXoXoXoXoXoXoXoXoX. 5 & 5 % 7 % 5 % 7 7 % 7 % & $   oXoXoXoXoXoXoXoXoXoXoXoXoXoXoXoXoXoXoXoXoXoXoX"
};
