/* XPM */
static char *result[] = {
/* columns rows colors chars-per-pixel */
"64 64 110 2 ",
"   c #000000",
".  c #090000",
"X  c #150000",
"o  c #1A0000",
"O  c #151212",
"+  c #250000",
"@  c #2D0202",
"#  c #340000",
"$  c #3C0000",
"%  c #241C1C",
"&  c #222020",
"*  c #292525",
"=  c #343030",
"-  c #3D3D3D",
";  c #430000",
":  c #4C0000",
">  c #420909",
",  c #530000",
"<  c #5D0000",
"1  c #5D0A0A",
"2  c #431111",
"3  c #481E1E",
"4  c #640000",
"5  c #6B0000",
"6  c #660C0C",
"7  c #740000",
"8  c #7C0000",
"9  c #700D0D",
"0  c #432222",
"q  c #403D3D",
"w  c #6D3030",
"e  c #6E3838",
"r  c #7B3737",
"t  c #7D3F3F",
"y  c #444444",
"u  c #4B4141",
"i  c #4C4C4C",
"p  c #535252",
"a  c #5A5757",
"s  c #5D5C5C",
"d  c #7F4242",
"f  c #605353",
"g  c #685757",
"h  c #625C5C",
"j  c #636363",
"k  c #6B6A6A",
"l  c #737373",
"z  c #7A7575",
"x  c #7A7A7A",
"c  c #840000",
"v  c #8B0000",
"b  c #940000",
"n  c #9A0000",
"m  c #9C0E0E",
"M  c #8F1010",
"N  c #861A1A",
"B  c #8D1919",
"V  c #931414",
"C  c #921B1B",
"Z  c #A40000",
"A  c #AC0101",
"S  c #A20909",
"D  c #B40000",
"F  c #BC0000",
"G  c #852626",
"H  c #813333",
"J  c #8B3535",
"K  c #993737",
"L  c #C40000",
"P  c #CB0000",
"I  c #D40000",
"U  c #DB0000",
"Y  c #E30000",
"T  c #EB0000",
"R  c #F40000",
"E  c #FF0000",
"W  c #804747",
"Q  c #884646",
"!  c #864A4A",
"~  c #8C4A4A",
"^  c #924848",
"/  c #856060",
"(  c #856B6B",
")  c #8A6868",
"_  c #8F7575",
"`  c #8D7A7A",
"'  c #838383",
"]  c #8A8989",
"[  c #918787",
"{  c #968D8D",
"}  c #9B8D8D",
"|  c #929292",
" . c #9C9292",
".. c #9D9D9D",
"X. c #A69C9C",
"o. c #A5A5A5",
"O. c #A8A6A6",
"+. c #ABAAAA",
"@. c #B2AEAE",
"#. c #B4B4B4",
"$. c #BBBBBB",
"%. c #C3C3C3",
"&. c #CCCCCC",
"*. c #D2D2D2",
"=. c #DCDCDC",
"-. c #E4E4E4",
";. c #EDEDED",
":. c #F4F4F4",
">. c #FEFEFE",
",. c None",
/* pixels */
",.,.,.,.,.,.l - ,.,.,.,.,.,.,.,.,.,.,.,.,.,.,.,.,.,.,.,.,.,.,.,.,.,.,.,.,.,.,.,.,.,.,.,.,.,.,.,.,.,.,.,.,.,.,.,.,.' k ,.,.,.,.,.",
",.,.,.,.k :.>.>.' ,.,.,.,.,.,.,.,.,.,.,.,.,.,.,.,.,.,.,.,.,.,.,.,.,.,.,.,.,.,.,.,.,.,.,.,.,.,.,.,.,.,.,.,.,.,.p ;.>.>.$.,.,.,.,.",
",.,.,.,.:.>.>.>.>.i ,.,.,.,.,.,.,.,.,.,.,.,.,.,.,.,.,.,.,.,.,.,.,.,.,.,.,.,.,.,.,.,.,.,.,.,.,.,.,.,.,.,.,.,.,.*.>.>.>.>.x ,.,.,.",
",.,.,.' >.>.>.>.>.] ,.,.,.,.,.,.,.,.,.,.,.,.,.,.,.,.,.,.,.,.,.,.,.,.,.,.,.,.,.,.,.,.,.,.,.,.,.,.,.,.,.,.,.,.,.>.>.>.>.>.#.k ,.,.",
",.l :.>.>.>.>.>.>.i ,.,.,.,.,.,.,.,.,.,.,.,.,.,.,.,.,.,.,.,.,.,.,.,.,.,.,.,.,.,.,.,.,.,.,.,.,.,.,.,.,.,.,.,.,.%.>.>.>.>.>.>.#.,.",
",.:.>.>.>.>.>.>.' ,.,.,.,.,.,.,.,.,.,.,.,.,.,.,.,.,.,.,.,.,.,.,.,.,.,.,.,.,.,.,.,.,.,.,.,.,.,.,.,.,.,.,.,.,.,.y -.>.>.>.>.>.>.' ",
"l >.>.>.>.>.>.>.#.,.,.,.,.,.,.,.,.,.,.,.,.,.,.,.,.,.,.,.,.,.,.,.,.,.7 v A F P P P L D b 8 4 ,.,.,.,.,.,.,.,.,.p :.>.>.>.>.>.>.| ",
",.:.>.>.>.>.>.>.>.#.,.,.,.,.,.,.,.,.,.,.,.,.,.,.,.,.,.,.,.,.$ c P E I n 7 5 ; ,.,.$ 4 7 v L T Z 4 ,.,.,.,.,.p :.>.>.>.>.>.>.>.x ",
",.x :.>.>.] l >.>.>.#.,.,.,.,.,.,.  ,.,.,.,.,.,.,.,.,.,.< A E Y v : ,.,.,.,.,.,.,.,.,.,.,.,.# c U L : ,.,.p :.>.>.*.p =.>.>.o.,.",
",.,.- ' y ,.,.x >.>.>.#.,.,.,.,.o ,.,.,.,.,.,.,.,.,., D E T 7 ,.,.,.,.,.,.,.,.,.,.,.,.,.,.,.,.,.,.8 Y v q ;.>.>.*.,.,.,.k i ,.,.",
",.,.,.,.,.,.,.,.l >.>.>.#.,.,.: ; ,.,.,.,.,.,.,.,.b E E n ,.,.,.,.,.,.,.,.,.,.,.,.,.,.,.,.,.,.,.,.,.@ F A @.>.*.,.,.,.,.,.,.,.,.",
",.,.,.,.,.,.,.,.,.x >.>.>.#.; v ,.,.,.,.,.,.,.: I E T 4 ,.,.,.,.,.,.,.,.,.,.,.,.,.,.,.,.,.,.,.,.,.,.p +.m D ] ,.,.,.,.,.,.,.,.,.",
",.,.,.,.,.,.,.,.,.,.x >.>._ I @ ,.,.,.,.,.,.5 R E T # # 7 v n F P I I I F A v 8 : ,.,.,.,.,.,.,.,.p :.>.&.V Z ,.,.,.,.,.,.,.,.,.",
",.,.,.,.,.,.,.,.,.,.,.l +.P B +.,.,.,.,.,.c E E E L I E E E U Z c 8 7 7 7 8 v A T U b : ,.,.,.,.p :.>.>.*.* n 8 ,.,.,.,.,.,.,.,.",
",.,.,.,.,.,.,.,.,.,.,.,.v T } >.#.,.,.,.b E E E E E E I 8 ; ,.,.,.,.,.,.,.,.,.,.,.5 Z R D , ,.p :.>.>.&.,.,.,.F ; ,.,.,.,.,.,.,.",
",.,.,.,.,.,.,.,.,.,.,., E v :.>.>.#.,.v E E E E E F 4 ,.,.,.,.,.,.,.,.,.,.,.,.,.,.,.,.# n R n ` >.>.*.,.,.,.,.# D ,.,.,.,.,.,.,.",
",.,.,.,.,.,.,.,.,.,.,.P E # l >.>.-.N E E E E I < ,.,.,.,.,.,.4 c n A F F A b 8 $ ,.,.,.,.3 L Y t #.,.,.,.,.,.,.7 7 ,.,.,.,.,.,.",
",.,.,.,.,.,.,.,.,.,.7 E L ,.,.l :.r R E E R v ,.,.,.,.,.4 n Y E E E E E E E E E E L 7 ,.p :.@.m R 7 ,.,.,.,.,.,.,.A ,.,.,.,.,.,.",
",.,.,.,.,.,.,.,.,.,.P E v ,.,.,.0 T E E Y : ,.,.,.,.7 I E E E E E E E E E E E E E E E I W -.>.o.7 E v ,.,.,.,.,.,., 8 ,.,.,.,.,.",
",.,.,.,.,.,.,.,.,.< E E c ,.,.,.L E E P ` #.,.,.4 I E E E E E E E E E E E E E E E E E E E B o.,.,.b E c ,.,.,.,.,.,.n ,.,.,.,.,.",
",.,.,.,.,.,.,.,.,.v E E 7 ,.,.v E E F X.>.>.g Z E E E E E E E E E E E E E E E E E E E E E E 7 ,.,.,.P R , ,.,.,.,.,.4 4 ,.,.,.,.",
",.,.,.,.,.,.,.,.,.P E E c ,.$ R E F ,.l ;.W Y E E E E E E E E E E E E E E E E E E E E E E E E : ,.,.4 E Y ,.,.,.,.,.,.7 ,.,.,.,.",
",.,.,.,.,.,.,.,.,.R E E n ,.A E P ,.,.,.6 R E E E E E E E E E E E E E E E E E E E E E E E E E F ,.,.,.U E v ,.,.,.,.,.5 ,.,.,.,.",
",.,.,.,.,.,.,.,.+ E E E R c E T $ ,.,.8 E E E E E E E E E E E E E E E E E E E E E E E E E E E E ; ,.,.n E R ,.,.,.,.,.: ; ,.,.,.",
",.,.,.,.,.,.,.,.: E E E E E E < ,.,.7 E E E E E E E E E E E E E E E E E E E E E E E E E E E E E 7 ,.,.c E E c ,.,.,.,.,.: ,.,.,.",
",.,.,.,.,.,.,.,.$ E E E E E n ,.,.< R E E E E E E E E E E E E E E E E E Y Z C K V I E E E E E E v ,.,.c E E D ,.,.,.,.,.X ,.,.,.",
",.,.,.,.,.,.,.,.,.E E E E T ,.,.,.Y E E E E E E E E E E E E E E E E D r o.;.>.&.,.,.v E E E E E c ,.,.v E E T ,.,.,.,.,.  ,.,.,.",
",.,.,.,.,.,.,.,.,.U E E E c ,.,.Z E E E E E E E E E E E E E E E Y 4 y :.>.>.&.,.,.,.,.A E E E E 7 ,.,.A E E E $ ,.,.,.,.  ,.,.,.",
",.,.,.,.,.,.,.,.,.A E E T ,.,., E E E E E E E E E E E E E E E I ; p :.>.>.&.,.,.,.,.,.5 E E E E < ,.,.I E E E 5 ,.,.,.,.,.,.,.,.",
",.,.,.,.,.,.,.,.,.8 E E n ,.,.A E E E U E E E E E E E E E E E R 7 [ :.>.&.,.,.,.,.,.,.$ E E E R ,.,.$ E E E E 7 ,.,.,.,.,.,.,.,.",
",.,.,.,.,.,.,.,.,.# E E 7 ,.,.R E E E > E E E E E E E E E E E E E T V ( & ,.,.,.,.,.,.@ E E E D ,.,.8 E E E E 7 ,.,.,.,.,.,.,.,.",
",.,.,.,.,.,.,.,.,.,.A E ,.,.7 E E E D h E E E E E E E E E E E E R Y I I v : ,.,.,.,.,.: E E E 8 ,.,.P E E E E 7 ,.,.,.,.,.,.,.,.",
",.,.,.,.,.,.,.,.,.,.4 Y ,.,.c E E E Q ~ E E E E E E E E T b ^ ` o.#...O ,.,.,.,.,.,.,.7 E E R ,.,.4 E E E E E 5 ,.,.,.,.,.,.,.,.",
",.,.,.,.,.,.,.,.,.,.,.n ,.,.Z E E D f P E E E E E E R c u :.>.>.>.>.>.$.,.,.,.,.,.,.,.v E E Z ,.,.L E E E E E : ,.,.,.,.,.,.,.,.",
",.,.,.,.,.,.,.,.,.,.,.; ,.,.Z E E n Y E E E E E E T , p :.>.>.&.l :.>.>.$.,.,.,.,.,.,.L E E : ,.5 E E E E E E ,.,.,.,.,.,.,.,.,.",
",.,.,.,.,.,.,.,.,.,.,.,.  ,.v E E E E E E E E E Y ; a :.>.>.&.,.,.k >.>.>.$.,.,.,.,.: E E Z ,.# T E E E E E U ,.,.,.,.,.,.,.,.,.",
",.,.,.,.,.,.,.,.,.,.,.,.,.,.7 E E E E E E E E Y ; a :.>.>.%.& ,.,.,.k >.>.>.$.,.,.,.A E R # ,.L E E E E E E L ,.,.,.,.,.,.,.,.,.",
",.,.,.,.,.,.,.,.,.,.,.,.,.,.v E E E E E E R n 2 s :.>.&.! # ,.,.,.,.,.k :.>.>.$.,.5 E E 7 ,.A E E E E E E E v ,.,.,.,.,.,.,.,.,.",
",.,.,.,.,.,.,.,.,.,.,.,.,.< E E E P n c 5 @ ,.s :.:.) D I ,.,.,.,.,.,.,.k >.>.:.e R E Z o A E E E E E E E E 7 ,.,.,.,.,.,.,.,.,.",
",.,.,.,.,.,.,.,.,.,.,.,.$ T E E T n , ,.,.,.s :.*.G R E 7 ,.,.,.,.,.,.,.,.k *.H R E A + F E E n E E E E E E # ,.,.,.,.,.,.,.,.,.",
",.,.,.,.,.,.,.,.,.,.,.,.P E R c ,.,.,.,.,.s :.%.m E E R ,.,.,.,.,.,.,.,.,.@ Z E E n 5 T E E I : E E E E E L ,.,.,.,.,.,.,.,.,.,.",
",.,.,.,.,.,.,.,.,.,.,.n E L $ ,.,.,.,.,.s :.&.S E E E Y ,.,.,.,.,.,.,.5 Z R E R F U E E E E 7 7 E E E E E c ,.,.,.,.,.,.,.,.,.,.",
",.,.,.,.,.,.,.,.,.,.7 E E 7 + ,.,.,.,.s :.-.B E E E E E D v c v n L R E E E E Y L v U E E P ,.8 E E E E R # ,.,.,.,.,.,.,.,.,.,.",
",.,.,.,.,.,.,.,.,., R E Y v # ,.,.,.j :.>.d E E E E E E R I n v 7 8 c 7 5 , ,.,.,.= U E E w ,.c E E E E Z ,.,.,.,.,.,.,.,.,.,.,.",
",.,.,.,.,.,.,.,.$ Y R v ,.,.,.,.,.j :.>.o.U E E E E P 7 ,.,.,.,.,.,.,.,.,.,.,.,.,.$ E E S =.$.b E E E E : ,.,.,.,.,.,.,.,.,.,.,.",
",.,.,.,.,.,.,.,.F E $ ,.,.,.,.,.s :.>.:.B E E E U 4 ,.,.,.,.,.,.,.,.,.,.,.,.,.,.,.c E U { >.&.L E E E Z ,.,.,.,.,.,.,.,.,.,.,.,.",
",.,.,.,.,.,.,.n E D 5 ,.,.,.,.j :.>.>. .T E E Z ,.,.,.,.,.,.,.,.,.,.,.,.,.,.,.,.# R R : j >.{ R E E R ; ,.,.,.,.,.,.,.,.,.,.,.,.",
",.,.,.,.,.,.5 L : ,.,.,.,.,.j :.>.>.%.9 E E n ,.,.,.,.,.,.,.,.,.,.,.,.,.,.,.,.,.D R 4 ,.,.j J E E E c ,.,.,.,.,.,.,.,.,.,.,.,.,.",
",.,.,.,.,.; I o ,.,.,.,.,.j :.>.>.%.% L E Z ,.,.,.,.,.,.,.,.,.,.,.,.,.,.,.,.,.v R 4 ,.,.,.,.F E E P z ,.,.,.,.,.,.,.,.,.,.,.,.,.",
",.,.,.,.,.U E c . ,.,.,.j :.>.>.%.,.,.E I ,.,.,.,.,.,.,.,.,.,.,.,.,.,.,.,.,.b Y , ,.,.,.,., E E R / >.$.,.,.,.,.,.,.,.,.,.,.,.,.",
",.,.,.,.F Y 5 ,.,.,.,.j :.>.>.%.,.,.7 E , ,.,.,.,.,.,.,.,.,.,.,.,.,.,.,.,.Z n ,.,.,.,.,.,.P E E 1 :.>.>.$.,.,.,.,.,.,.,.,.,.,.,.",
",.,.,.b n ,.,.,.,.,.j :.>.>.%.,.,.,.v Z ,.,.,.,.,.,.,.,.,.,.,.,.,.,.,.X < $ ,.,.,.,.,.,.v E E c ,.j :.>.>.%.,.,.,.,.,.,.,.,.,.,.",
",.,.$ , ,.,.,.,.,.j :.>.>.%.,.,.,.,.D : ,.,.,.,.,.,.,.,.,.,.,.,.,.,.,.,.,.,.,.,.,.,.,.5 E E v ,.,.,.j :.>.>.%.,.,.,.,.,.,.,.,.,.",
",.  ,.,.,.,.,.,.j :.>.>.%.,.,.,.,.,.v ,.,.,.,.,.,.,.,.,.,.,.,.,.,.,.,.,.,.,.,.,.,.,.5 R E v ,.,.,.,.,.j :.>.>.%.,.,.,.,.,.,.,.,.",
",.,.,.y ,.,.,.j :.>.>.%.,.,.,.,.,.,.< ,.,.,.,.,.,.,.,.,.,.,.,.,.,.,.,.,.,.,.,.,.,.b E R 5 ,.,.,.,.,.,.,.j :.>.>.%.,.,.,.p q ,.,.",
",.p -.>.;.l j :.>.>.%.,.,.,.,.,.,.,.,.,.,.,.,.,.,.,.,.,.,.,.,.,.,.,.,.,.,.,.,., P E L ; ,.,.,.,.,.,.,.,.,.k :.>.>.%.y *.>.>.+.,.",
",.-.>.>.>.>.:.>.>.%.,.,.,.,.,.,.,.,.,.,.,.,.,.,.,.,.,.,.,.,.,.,.,.,.,.,.,.5 D E Y 7 ,.,.,.,.,.,.,.,.,.,.,.,.k :.>.>.:.>.>.>.>.x ",
"p >.>.>.>.>.>.>.%.,.,.,.,.,.,.,.,.,.,.,.,.,.,.,.,.,.,.,.,.,.,.,.,.,.4 v U E P 7 ,.,.,.,.,.,.,.,.,.,.,.,.,.,.,.j :.>.>.>.>.>.>.+.",
",.>.>.>.>.>.>.>.l ,.,.,.,.,.,.,.,.,.,.,.,.,.,.,.,.,.,.,.    # 4 c F D n 8 $ ,.,.,.,.,.,.,.,.,.,.,.,.,.,.,.,.,.- =.>.>.>.>.>.>.] ",
",.' >.>.>.>.>.>.>.i ,.,.,.,.,.,.,.,.,.,.,.,.,.,.,.,.,.,.,.,.,.,.,.,.,.,.,.,.,.,.,.,.,.,.,.,.,.,.,.,.,.,.,.,.,.#.>.>.>.>.>.>.&.,.",
",.,.s | >.>.>.>.>.' ,.,.,.,.,.,.,.,.,.,.,.,.,.,.,.,.,.,.,.,.,.,.,.,.,.,.,.,.,.,.,.,.,.,.,.,.,.,.,.,.,.,.,.,.,.;.>.>.>.>.%.l ,.,.",
",.,.,.,.:.>.>.>.>.l ,.,.,.,.,.,.,.,.,.,.,.,.,.,.,.,.,.,.,.,.,.,.,.,.,.,.,.,.,.,.,.,.,.,.,.,.,.,.,.,.,.,.,.,.,.%.>.>.>.>.' ,.,.,.",
",.,.,.,.' >.>.>.+.,.,.,.,.,.,.,.,.,.,.,.,.,.,.,.,.,.,.,.,.,.,.,.,.,.,.,.,.,.,.,.,.,.,.,.,.,.,.,.,.,.,.,.,.,.,.p :.>.>.&.,.,.,.,.",
",.,.,.,.,.s ' l ,.,.,.,.,.,.,.,.,.,.,.,.,.,.,.,.,.,.,.,.,.,.,.,.,.,.,.,.,.,.,.,.,.,.,.,.,.,.,.,.,.,.,.,.,.,.,.,.,.x l ,.,.,.,.,."
};
