/* XPM */
static char *result[] = {
/* columns rows colors chars-per-pixel */
"64 64 79 1 ",
"  c #020202",
". c #0C0C0C",
"X c #0F0F10",
"o c #141414",
"O c #171718",
"+ c #1B1B1D",
"@ c #1E1E20",
"# c #222324",
"$ c #2A2A2B",
"% c #2E2F32",
"& c #2F3133",
"* c #333335",
"= c #353539",
"- c #3B3B3C",
"; c #3D3D41",
": c #424245",
"> c #45464A",
", c #47484E",
"< c #4B4B4E",
"1 c #4D4D52",
"2 c #4F5054",
"3 c #525253",
"4 c #535459",
"5 c #57585E",
"6 c #5A5A5E",
"7 c #5C5D63",
"8 c #636364",
"9 c #65656C",
"0 c #68686A",
"q c #6C6D74",
"w c #6F7077",
"e c #737373",
"r c #75757D",
"t c #7A7A7A",
"y c #7B7C84",
"u c #838383",
"i c #83848D",
"p c #8C8C8C",
"a c #868790",
"s c #8A8A94",
"d c #8E8E98",
"f c #8F9099",
"g c #929292",
"h c #94959F",
"j c gray60",
"k c #9697A1",
"l c #9798A2",
"z c #9A9AA5",
"x c #9E9EA9",
"c c #A3A3AE",
"v c #ADADAD",
"b c #A5A6B1",
"n c #A7A8B3",
"m c #AAABB6",
"M c #ADAEBA",
"N c #AFB0BB",
"B c #B3B3B3",
"V c #B1B2BE",
"C c #BCBCBC",
"Z c #B3B4C0",
"A c #BABAC7",
"S c #BDBECB",
"D c gray77",
"F c #C0C1CE",
"G c #CCCCCC",
"H c #C4C5D2",
"J c #C7C8D6",
"K c #C8C9D7",
"L c #CCCDDB",
"P c #CFD0DE",
"I c gray83",
"U c #D0D1DF",
"Y c #DBDBDB",
"T c #D1D2E0",
"R c #E2E2E2",
"E c #E9E9E9",
"W c #F3F3F3",
"Q c #FFFFFF",
"! c None",
/* pixels */
"!!!!!!!!!!!!!!!!!!!!!!!!!!!!!#:@X;*!!!!!!!!!!!!!!!!!!!!!!!!!!!!!",
"!!!!!!!!!!!!!!!!!!!!!!!!!!!!*LTFxTP9!!!!!!!!!!!!!!!!!!!!!!!!!!!!",
"!!!!!!!!!!!!!!!!!!!!!!!!!!!!rTTTTTTV !!!!!!!!!!!!!!!!!!!!!!!!!!!",
"!!!!!!!!!!!!!!!!!!!!!!!!!!!!1TTTTTTs!!!!!!!!!!!!!!!!!!!!!!!!!!!!",
"!!!!!!!!!!!!!!!!!!!!!!!!!!!!!4nLTSqo!!!!!!!!!!!!!!!!!!!!!!!!!!!!",
"!!!!!!!!!!!!!!!!!!!!!!!!!!!!!!6TTz!!!!!!!!!!!!!!!!!!!!!!!!!!!!!!",
"!!!!!!!!!!!!!!!!!!!!!!!!!!!!!!6TTz!!!!!!!!!!!!!!!!!!!!!!!!!!!!!!",
"!!!!!!!!!!!!!!!!!!!!!!!!!!!!!!7PTl!!!!!!!!!!!!!!!!!!!!!!!!!!!!!!",
"!!!!!!!!!!!!!!!!!!!!!!!!!!!!!!7TTl!!!!!!!!!!!!!!!!!!!!!!!!!!!!!!",
"!!!!!!!!!!!!!!!!!!!!!!!!!!!!!!5TTz!!!!!!!!!!!!!!!!!!!!!!!!!!!!!!",
"!!!!!!!!!!!!!!!!!!!!!!!!!!!!!!6TTl!!!!!!!!!!!!!!!!!!!!!!!!!!!!!!",
"!!!!!!!!!!!!!!!!!!!!!!!!!!!!!!6TTz!!!!!!!!!!!!!!!!!!!!!!!!!!!!!!",
"!!!!!!!!!!!!!!!!!!!!!!!!!!!!!!7UTz!!!!!!!!!!!!!!!!!!!!!!!!!!!!!!",
"!!!!!!!!!!!!!!!!!!!!!!!!!!!!!!5UUl!!!!!!!!!!!!!!!!!!!!!!!!!!!!!!",
"!!!!!!!!!!!!!!!!!!!!!!!!!!!!!!:iy7X!!!!!!!!!!!!!!!!!!!!!!!!!!!!!",
"!!!!!!!!!!!!!!!!!!!!!!!!!!!!$5ylzzy5#!!!!!!!!!!!!!!!!!!!!!!!!!!!",
"!!!!!!!!!!!!!!!!!!!!!!!!!!:nTTTTTTTTTk&!!!!!!!!!!!!!!!!!!!!!!!!!",
"!!!!!!!!!!!!!!!!!!!!!!!!odTTTTTTTTTTTTUqo!!!!!!!!!!!!!!!!!!!!!!!",
"!!!!!!!!!!!!!!!!!!!!!!!XcTTTTTTTTTTTTTTTy!!!!!!!!!!!!!!!!!!!!!!!",
"!!!!!!!!!!!!!!!!!!!!!!!iTTTTTTTTTTTTTTTTU4!!!!!!!!!!!!!!!!!!!!!!",
"!!!!!!!!!!!!!!!!!!!!!!*TTTTTTTTTTTTTTTTTUH+!!!!!!!!!!!!!!!!!!!!!",
"!!!!!!!!!!!!!!!!!!!!!!sTTTTTTTTTTTTTTTTTTT9!!!!!!!!!!!!!!!!!!!!!",
"!!!!!!! !!!!!!!!!!!!!oLTUTTTTTTTTTTTTTTTTTM !!!!!!!!!!!! !!!!!!!",
"!!!!!!!!  !!!!!!!!!!!*UxKTTTTTTTTTTTTTTTmVT#!!!!!!!!!!  !!!!!!!!",
"!!!!!!!!!#>.!!!!!!!!!>TzX7MTUTTTTTTTTJa=+LU=!!!!!!!! <*!!!!!!!!!",
"!!!!!!!!!!-B3.!!!!!!!<TTr  o>zUUSTJr%  #VTU-!!!!!!.;D0!!!!!!!!!!",
"!!!!!!!!!!!$IYe#!!!!!>TUTHxVUTUk*PTTLZVPTTU*!!!!o3DQ8!!!!!!!!!!!",
"!!!!!!!!!!!!ovQQC0*.!#LUTTTTTTL@ dTTTTTTUUUo!o:gEQW3!!!!!!!!!!!!",
"!!!!!!!!!!!!!.0WQQQRvt33:29ryi7  +sairq4:23tBWQQQY*!!!!!!!!!!!!!",
"!%q,!!!!!!!!!!!$CQQQQQQQQWYDCBBvvmvBBDIWQQQQQQQQjo!!!!!!!!!!,w*!",
"#KTT3!!!!!!!!!!! <IQQQQQQQQQQQQQQQQQQQQQQQQQQQG:!!!!!!!!!!!4TTJ#",
":TTTb444444444443416DQQQQQQQQQQQQQQQQQQQQQQQG6<444444444444cTTT:",
"@HTTTTTTTTTTTTTTTTTSq>uIQQQQQQQQQQQQQQQQQYg>9STTTTTTTTTTTTTTTTH@",
".xTTTTTTTTTTTTTTTTTTULn$-3tvCYWQQWWRDvu6-#zUTUTTTTTTTTTTTTTTTTx.",
";PTTSxxzzzzxzzzxxzzzzzzy#Rptpt#866$tu6jE*yzzzzzxzxzzxzzzzxzSTTT;",
"=UTTq.!!!!!!!!!!!!!!!!!!#-3IQQ6QQQ3QQCt;.!!!!!!!!!!!!!!!!!.wTTT*",
"!qAdO!!!!!!!!!!!!!!!!!!!oJ4eEQ3QQQ6QWt;z !!!!!!!!!!!!!!!!!!OdA0!",
"!! !!!!!!!!!!!!!!!!!!!!!!bUb14-CGD-8>jTy!!!!!!!!!!!!!!!!!!!!! !!",
"!!!!!!!!!!!!!!!!!!!!!!!!!aUUTJhyqrfFTTT3!!!!!!!!!!!!!!!!!!!!!!!!",
"!!!!!!!!!!!!!!!!!!!!!!!!!8TTTTPTUUTTTTT=!!!!!!!!!!!!!!!!!!!!!!!!",
"!!!!!!!!!!!!!!!!!!!!!!!!!,TTTTTTUUTTTTT+!!!!!!!!!!!!!!!!!!!!!!!!",
"!!!!!!!!!!!!!!!!!!!!!!!!!;TTTTTTUUTTTTF.!!!!!!!!!!!!!!!!!!!!!!!!",
"!!!!!!!!!!!!!!!!!!!!!!!!!*TTTTTTTTTTTTc!!!!!!!!!!!!!!!!!!!!!!!!!",
"!!!!!!!!!!!!!!!!!!!!!!!!!#TTTTTTTTTTTTz!!!!!!!!!!!!!!!!!!!!!!!!!",
"!!!!!!!!!!!!!!!!!!!!!!!!!$TTTTTTTTTTTTz!!!!!!!!!!!!!!!!!!!!!!!!!",
"!!!!!!!!!!!!!!!!!!!!!!!!!X++++@::*o+@+o!!!!!!!!!!!!!!!!!!!!!!!!!",
"!!!!!!!!!!!!!!!!!!!!!!!!!!!!!!7LTz!!!!!!!!!!!!!!!!!!!!!!!!!!!!!!",
"!!!!!!!!!!!!!!!!!!!!!!!!!!!!!!6TTz!!!!!!!!!!!!!!!!!!!!!!!!!!!!!!",
"!!!!!!!!!!!!!!!!!!!!!!!!!!!!!!6UTz!!!!!!!!!!!!!!!!!!!!!!!!!!!!!!",
"!!!!!!!!!!!!!!!!!!!!!!!!!!!!!!7PTz!!!!!!!!!!!!!!!!!!!!!!!!!!!!!!",
"!!!!!!!!!!!!!!!!!!!!!!!!!!!!!!7TTl!!!!!!!!!!!!!!!!!!!!!!!!!!!!!!",
"!!!!!!!!!!!!!!!!!!!!!!!!!!!!!!5TUz!!!!!!!!!!!!!!!!!!!!!!!!!!!!!!",
"!!!!!!!!!!!!!!!!!!!!!!!!!!!!!!7LTz!!!!!!!!!!!!!!!!!!!!!!!!!!!!!!",
"!!!!!!!!!!!!!!!!!!!!!!!!!!!!!!6TTl!!!!!!!!!!!!!!!!!!!!!!!!!!!!!!",
"!!!!!!!!!!!!!!!!!!!!!!!!!!!!!!6UTl!!!!!!!!!!!!!!!!!!!!!!!!!!!!!!",
"!!!!!!!!!!!!!!!!!!!!!!!!!!!!!!7PTz!!!!!!!!!!!!!!!!!!!!!!!!!!!!!!",
"!!!!!!!!!!!!!!!!!!!!!!!!!!!!!!7TTz!!!!!!!!!!!!!!!!!!!!!!!!!!!!!!",
"!!!!!!!!!!!!!!!!!!!!!!!!!!!!!!5TUl!!!!!!!!!!!!!!!!!!!!!!!!!!!!!!",
"!!!!!!!!!!!!!!!!!!!!!!!!!!!!!!7LTz!!!!!!!!!!!!!!!!!!!!!!!!!!!!!!",
"!!!!!!!!!!!!!!!!!!!!!!!!!!!!!4nTTSqo!!!!!!!!!!!!!!!!!!!!!!!!!!!!",
"!!!!!!!!!!!!!!!!!!!!!!!!!!!!1LTTTTTs!!!!!!!!!!!!!!!!!!!!!!!!!!!!",
"!!!!!!!!!!!!!!!!!!!!!!!!!!!!rPTTTTTV !!!!!!!!!!!!!!!!!!!!!!!!!!!",
"!!!!!!!!!!!!!!!!!!!!!!!!!!!!*LTHxTT9!!!!!!!!!!!!!!!!!!!!!!!!!!!!",
"!!!!!!!!!!!!!!!!!!!!!!!!!!!!!#:+.;*!!!!!!!!!!!!!!!!!!!!!!!!!!!!!"
};
