/* XPM */
static char *result[] = {
/* columns rows colors chars-per-pixel */
"64 64 164 2 ",
"   c #010101",
".  c #090909",
"X  c #1D1D1D",
"o  c #350015",
"O  c #18172D",
"+  c #231F38",
"@  c #202020",
"#  c #22203E",
"$  c #343434",
"%  c #46001B",
"&  c #4D001E",
"*  c #50001F",
"=  c #4D101E",
"-  c #550021",
";  c #5D0024",
":  c #620026",
">  c #670029",
",  c #6B002A",
"<  c #71002C",
"1  c #6E192C",
"2  c #7C0030",
"3  c #772D30",
"4  c #5E5928",
"5  c #625029",
"6  c #715E2F",
"7  c #7F4934",
"8  c #755430",
"9  c #6B642D",
"0  c #7E7A35",
"q  c #262445",
"w  c #292543",
"e  c #2A274B",
"r  c #2C294D",
"t  c #312D4C",
"y  c #302B46",
"u  c #2E2B52",
"i  c #312D54",
"p  c #332F5A",
"a  c #383351",
"s  c #35315C",
"d  c #3B355B",
"f  c #3C385B",
"g  c #363356",
"h  c #373561",
"j  c #3A3664",
"k  c #3C3866",
"l  c #3B3768",
"z  c #3D396B",
"x  c #3F3B70",
"c  c #433D5E",
"v  c #423D6C",
"b  c #423E73",
"n  c #433F78",
"m  c #4C4C4C",
"M  c gray33",
"N  c gray35",
"B  c #6A6643",
"V  c #7A754B",
"C  c #474064",
"Z  c #49446A",
"A  c #524A6F",
"S  c #464173",
"D  c #4A4474",
"F  c #46417A",
"G  c #48437D",
"H  c #4F4978",
"J  c #4E4877",
"K  c #534B73",
"L  c #534C7B",
"P  c #5C547C",
"I  c #60587F",
"U  c #676767",
"Y  c #69686D",
"T  c #786F7B",
"R  c #727272",
"E  c #7E7E7E",
"W  c #8D6B3B",
"Q  c #827F38",
"!  c #807873",
"~  c #8B873B",
"^  c #8F8A3C",
"/  c #928D3D",
"(  c #9A953F",
")  c #9A9542",
"_  c #9C9747",
"`  c #8A845B",
"'  c #9F9856",
"]  c #A49E45",
"[  c #AAA446",
"{  c #ACA649",
"}  c #AEA84A",
"|  c #B1AB4C",
" . c #B6B04D",
".. c #BDB750",
"X. c #BFB951",
"o. c #C3BC53",
"O. c #C7C155",
"+. c #CBC456",
"@. c #CFC758",
"#. c #CFC858",
"$. c #D3CC5A",
"%. c #D7D05B",
"&. c #4A4581",
"*. c #554E80",
"=. c #5B5383",
"-. c #645A85",
";. c #665D8C",
":. c #695F8A",
">. c #685F90",
",. c #6C628D",
"<. c #726A8B",
"1. c #6D6392",
"2. c #706692",
"3. c #726896",
"4. c #706699",
"5. c #746A9B",
"6. c #796E9D",
"7. c #766CA3",
"8. c #7A6EA2",
"9. c #7D72A4",
"0. c #7E73AB",
"q. c #8276AA",
"w. c #8579AE",
"e. c #837AA1",
"r. c #8679B0",
"t. c #8A7DB4",
"y. c #8D7FB8",
"u. c #89839E",
"i. c #939393",
"p. c #9D9D9D",
"a. c #888888",
"s. c #948CAE",
"d. c #8E81BA",
"f. c #9284BE",
"g. c #948BB0",
"h. c #9D97B1",
"j. c #A29DB3",
"k. c #A3A3A3",
"l. c #ABABAB",
"z. c #AEA9BA",
"x. c #B4B4B4",
"c. c #BCBCBC",
"v. c #8F81C0",
"b. c #9486C2",
"n. c #9788C4",
"m. c #988AC6",
"M. c #9C8DCB",
"N. c #9F90CF",
"B. c #9E8ED2",
"V. c #9F90D1",
"C. c #A292D3",
"Z. c #A696D8",
"A. c #A99ADC",
"S. c #BBB9C4",
"D. c #C4C4C4",
"F. c #CCCCCC",
"G. c #D3D3D3",
"H. c #DBDBDB",
"J. c #E4E4E4",
"K. c #ECECEC",
"L. c #E7E7E8",
"P. c #F4F4F4",
"I. c #FFFFFF",
"U. c None",
/* pixels */
"U.U.U.U.U.U.U.U.U.U.U.U.U.U.U.U.U.U.U.U.U.U.U.U.U.U.U.U.U.U.U.U.U.U.U.U.U.U.U.U.U.U.U.U.U.U.U.U.U.U.U.U.U.U.U.U.U.U.U.U.U.U.U.U.",
"U.U.U.U.U.U.U.U.U.U.U.U.U.U.U.U.U.U.U.U.U.U.U.U.U.U.U.U.U.U.U.U.U.U.U.U.U.U.U.U.U.U.U.U.U.U.U.U.U.U.U.U.U.U.U.U.U.U.U.U.U.U.U.U.",
"U.U.U.U.U.U.U.U.U.U.U.U.U.U.U.U.U.U.U.U.U.U.U.U.U.U.U.U.U.U.U.U.U.U.U.U.U.U.U.U.U.U.U.U.U.U.U.U.U.U.U.U.U.U.U.U.U.U.U.U.U.U.U.U.",
"U.U.U.U.U.U.U.U.U.U.U.U.U.U.U.U.U.U.U.U.U.U.U.U.U.U.U.U.U.U.U.U.U.U.U.U.U.U.U.U.U.U.U.U.U.U.U.U.U.U.U.U.U.U.U.U.U.U.U.U.U.U.U.U.",
"U.U.U.U.U.U.U.U.U.U.U.U.U.U.U.U.U.U.U.U.U.U.U.U.U.U.U.U.U.U.U.U.U.U.U.U.U.U.U.U.U.U.U.U.U.U.U.U.U.U.U.U.U.U.U.U.U.U.U.U.U.U.U.U.",
"U.U.U.U.U.U.U.U.U.U.U.U.U.U.U.U.U.U.U.U.U.U.U.U.U.U.U.U.U.U.U.U.U.U.U.U.U.U.U.U.U.U.U.U.U.U.U.U.U.U.U.U.U.U.U.U.U.U.U.U.U.U.U.U.",
"U.U.U.U.U.U.U.U.U.U.U.U.U.U.U.U.U.U.U.U.U.U.U.U.U.U.U.U.U.U.U.U.U.U.U.U.U.U.U.U.U.U.U.U.U.U.U.U.U.U.U.U.U.U.U.U.U.U.U.U.U.U.U.U.",
"U.U.U.U.U.U.U.U.U.U.U.U.U.U.U.U.U.U.U.U.U.U.U.U.U.U.U.U.U.U.U.U.U.U.U.U.U.U.U.U.U.U.U.U.U.U.U.U.U.U.U.U.U.U.U.U.U.U.U.U.U.U.U.U.",
"U.U.U.U.U.U.U.U.U.U.U.U.U.U.U.U.U.U.U.U.U.U.U.U.U.U.U.U.U.U.U.U.U.U.U.U.U.U.U.U.U.U.U.U.U.U.U.U.U.U.U.U.U.U.a.U.U.U.U.U.U.U.U.U.",
"U.U.U.U.U.U.U.U.i v U.U.k.U.U.U.U.U.U.U.U.U.U.U.U.U.U.U.U.U.U.U.U.U.U.U.U.U.U.U.U.U.U.U.U.U.U.U.U.U.U.U.U.k.U.U.U.s U.U.U.U.U.U.",
"U.U.U.U.U.U.U.U.&.&.p U.U.k.U.U.U.U.U.U.U.U.U.U.U.U.U.U.U.U.U.U.U.U.U.U.U.U.U.U.U.U.U.U.U.U.U.U.U.U.U.U.l.U.U.U.b &.z U.U.U.U.U.",
"U.U.U.U.U.U.U.b G G G U.U.U.c.U.U.U.U.U.U.U.U.U.U.U.U.U.U.U.U.U.U.U.U.U.U.U.U.U.U.U.U.U.U.U.U.U.U.U.U.l.U.U.U.s G G &.U.U.U.U.U.",
"U.U.U.U.U.U.U.&.G G G v U.U.U.c.U.U.U.U.U.U.U.U.U.U.U.U.U.U.U.U.U.U.U.U.U.U.U.U.U.U.U.U.U.U.U.U.U.U.l.U.U.U.u G G G G h U.U.U.U.",
"U.U.U.U.U.U.j G G G G F f U.U.U.x.U.U.U.U.U.U.U.U.U.U.U.U.U.U.U.U.U.U.U.U.U.U.U.U.U.U.U.U.U.U.U.U.x.U.U.U.U.F G G G G z U.U.U.U.",
"U.U.U.U.U.U.b G G G F ;.A.U.U.U.U.c.U.U.U.U.U.U.U.U.U.U.U.U.U.U.U.U.U.U.U.U.U.U.U.U.U.U.U.U.U.U.x.U.U.U.U.n.J G G G G F U.U.U.U.",
"U.U.U.U.U.U.b G G G S C.C.M.U.U.U.l.x.U.U.U.U.U.U.U.U.U.U.U.U.U.U.U.U.U.U.U.U.U.U.U.U.U.U.U.U.x.l.U.U.U.C.C.M.b G G G F U.U.U.U.",
"U.U.U.U.U.U.b G G G >.C.C.C.m.U.U.U.c.l.U.U.U.U.U.U.U.U.U.U.U.U.U.U.U.U.U.U.U.U.U.U.U.U.U.U.x.l.U.U.U.V.C.V.C.1.F G G z U.U.U.U.",
"U.U.U.z U.U.b G G n q.C.C.C.C.n.U.U.U.S.U.U.U.U.U.U.U.U.U.U.U.U.U.U.U.U.U.U.U.U.U.U.U.U.U.x.x.U.U.,.C.C.C.C.C.y.n G G s U.U.U.U.",
"U.U.h &.i U.h G G b n.C.C.C.C.C.n.U.U.U.D.U.U.U.U.U.U.U.U.U.U.U.U.U.U.U.U.U.U.U.U.U.U.U.x.x.U.U.2.Z.C.C.V.C.C.f.z G G U.U.i U.U.",
"U.U.v G &.U.U.G G n y.C.C.C.V.C.C.m.U.U.U.G.U.U.U.U.U.U.U.U.U.U.U.U.U.U.U.U.U.U.U.U.U.x.x.U.U.9.Z.C.C.C.C.C.C.f.n &.s U.i &.j U.",
"U.U.F G G F U.i &.F 4.C.C.C.C.C.C.C.m.U.U.U.G.U.U.U.U.U.U.U.U.U.U.U.U.U.U.U.U.U.U.U.x.c.U.U.r.C.C.C.C.C.C.C.C.2.G j U.i &.G l U.",
"U.U.&.G G G b U.i &.L C.C.N.C.C.C.C.C.M.U.U.U.G.U.U.U.U.U.U.U.U.U.U.U.U.U.U.U.U.U.l.c.U.U.n.Z.C.N.C.C.C.C.C.C.S j U.s &.G G l U.",
"U.U.G G G F 8.M.U.i S w.C.C.C.C.C.C.C.C.C.,.U.p.F.U.U.U.U.U.U.U.U.U.U.U.U.U.U.U.l.c.U.U.m.C.C.C.C.C.C.C.N.N.L s U.L &.G G G l U.",
"U.U.G G G S C.C.C.,.U.v n.C.C.C.C.C.C.C.C.Z.6.U.l.c.U.U.U.U.U.U.U.U.U.U.U.U.U.l.D.U.2.C.V.C.C.C.C.C.N.C.y.v w 9.C.f.b G G G h U.",
"U.U.G G &.*.Z.C.C.C.9.U.v n.C.C.C.C.C.V.C.C.Z.q.U.c.x.U.U.U.U.U.U.U.U.U.U.U.l.D.U.9.Z.C.C.C.C.C.C.C.C.;.r A m.C.C.Z.S G G G U.U.",
"U.U.v G &.P Z.C.C.V.C.m.Z t 9.C.C.C.C.C.N.C.C.C.f.U.F.l.U.x.D.H.H.D.x.U.U.l.D.U.b.C.C.C.C.C.C.C.C.q.d y t.Z.C.C.C.C.v G G n U.U.",
"U.U.i &.G J Z.C.C.C.C.C.Z.9.w Z 5.C.C.C.C.C.C.C.d.U.U.D.K.I.I.I.I.I.I.I.c.l.U.U.Z.C.C.C.N.C.M.4.v U.6.C.C.C.C.C.C.M.S G G u U.U.",
"z z U.j G b w.C.C.C.C.C.C.C.M.A u =.C.V.C.C.C.Z.1.U.F.I.I.I.I.I.I.I.I.I.I.J.U.U.n.C.C.C.C.C.f U.,.m.C.C.C.C.C.C.C.5.F G h U.s F ",
"z G n U.i F S m.C.C.C.C.C.C.C.Z.y.I Z.C.C.N.C.M.U.x.I.I.I.I.I.I.I.I.I.I.I.I.F.U.w.C.C.C.C.C.9.f.C.C.C.C.C.N.C.C.f.b G p U.z G G ",
"z G G &.h U.h F r.C.C.C.C.C.C.C.C.Z.N.C.C.C.C.t.U.L.I.L.l.D.I.I.I.I.H.k.x.P.I.U.,.Z.C.C.C.C.C.C.C.C.N.C.C.C.C.r.v j U.p G G G n ",
"j G G G S n.q.a i P n.Z.C.C.C.C.C.C.C.C.C.C.Z.2.U.I.x..     M I.I.l..     m I.U.U.Z.N.C.C.C.C.C.C.C.C.C.Z.d.K q U.6.V.;.G G G b ",
"i &.G G H C.C.C.t.v e L 8.f.M.C.C.C.V.C.C.N.Z.U.U.P.Y       . K.I.U       X I.U.U.n.C.C.C.C.C.C.C.m.w.;.f U.U.y.C.C.C.9.n G G h ",
"U.G G G *.C.C.C.C.Z.n.-.t w k =.N.C.C.N.C.C.n.U.U.F.K.N X $ l.I.I.K.R $ N F.K.U.U.y.C.C.C.C.C.y.Z s # c q.m.Z.C.C.C.C.7.F G &.U.",
"U.b G G b C.C.C.C.C.C.C.C.d.,.a q.C.C.C.V.C.t.U.U.U.K.I.I.I.I.E Y P.I.I.I.I.l.U.U.q.C.C.N.C.Z.I U.6.m.Z.C.C.C.C.C.C.Z.*.G G F U.",
"U.U.&.G n w.C.C.C.C.C.C.C.C.Z.Z.C.C.C.C.C.C.9.U.U.U.U.H.I.I.I.i.E I.I.I.K.l.U.U.U.2.Z.C.C.C.V.C.Z.C.C.C.V.C.C.V.C.C.n.v G G s U.",
"U.U.d &.G S M.C.C.C.C.C.C.C.C.C.C.C.C.C.C.Z.,.U.U.U.U.i.x.D.J.H.H.L.D.c.R U.U.U.U.:.Z.C.C.C.C.C.C.C.C.C.C.C.C.C.C.C.L F G n U.U.",
"r z U.i n &.D n.C.V.C.C.C.C.C.C.C.V.C.C.C.Z.U.U.U.U.p.H.L.H.H.F.F.K.c.I.F.U.U.U.U.U.Z.C.C.C.C.C.C.C.C.C.C.C.C.Z.f.J G &.n U.U.U.",
"U.&.G z U.U.s h P y.M.C.Z.C.C.C.C.C.C.C.C.Z.U.U.U.U.J.Y F.l.H.G.H.H.c.F.k.K.U.U.U.U.Z.C.C.C.C.C.Z.C.C.Z.C.n.0.=.b n z i U.U.j U.",
"U.G G G &.K t.-.U.+ w t D v H ;.N.C.N.C.C.Z.U.U.U.J.U.x.I.H.H.F.F.H.G.I.l.c.K.U.U.U.Z.C.C.N.C.B.C s a s a O q U.U.U.a z b G &.U.",
"U.z G G F L Z.Z.Z.N.n.y.6.,.K A m.C.C.C.C.Z.,.U.J.U.U.k.G.x.I.L.L.I.l.H.l.U.D.H.U.:.C.C.C.C.C.M.q.q.6.w.M.m.n.M.Z.A.*.G G G F U.",
"U.u &.G G b m.C.C.C.V.C.V.C.Z.Z.C.C.C.C.C.C.u.J.U.U.U.G.P.J.D.F.D.D.H.I.D.U.U.H.H.2.C.C.C.C.C.C.C.C.C.C.V.C.C.C.C.n.v G G G s U.",
"U.U.b G G F 4.Z.C.C.C.C.C.C.C.C.C.C.V.C.C.s.J.U.U.U.U.L.I.I.I.I.I.I.I.I.D.U.U.U.L.S.n.C.B.C.C.C.C.N.C.C.C.C.C.C.C.;.G G G F U.U.",
"U.U.U.&.G G b m.C.V.C.C.C.C.C.C.C.V.C.C.s.J.g.U.U.U.U.D.I.I.I.I.I.I.I.I.x.U.U.U.Y K.z.M.C.C.V.C.C.C.C.N.C.C.C.C.b.b G G G s U.U.",
"U.U.U.u G G G S y.Z.Z.C.C.Z.C.f.b.B.C.s.L.s.C.w.U.U.U.U.L.I.I.I.I.I.I.H.U.U.U.U.b.s.P.j.B.n.v.7.9.M.Z.C.C.C.Z.d.S G G G z U.U.U.",
"U.U.U.U.U.b &.&.n L 1.7.-.L f B ( ' ! L.s.C.C.Z.-.U.U.U.U.D.K.I.I.K.c.U.U.U.U.5.C.B.h.J.` | } V g j L 8.0.7.L n &.&.&.z U.U.U.U.",
"U.U.U.U.U.U.U.u u U.U.U.U.U./ $.+.O.+.` B.C.C.V.M.U.U.U.U.U.U.e.<.U.U.U.U.U.,.C.B.C.n._ +.+.+.@.[ U.U.U.U.r i u u U.U.U.U.U.U.U.",
"U.U.U.U.U.U.U.U.U.U.U.U.U.U.U.) @.+.+.O.T Z.C.C.C.M.,.U.U.U.6.Z.M.U.U.U.U.6.C.C.C.Z.R #.+.+.@.} U.U.U.U.U.U.U.U.U.U.U.U.U.U.U.U.",
"U.U.U.U.U.U.U.U.U.U.U.U.U.U.U.o 7 O.+.@.~ ,.M.C.C.C.Z.n.n.m.C.C.C.M.q.q.m.Z.C.C.B.U.] +.+.+.W U.U.U.U.U.U.U.U.U.U.U.U.U.U.U.U.U.",
"U.U.U.U.U.U.U.U.U.U.U.U.U.U.% , - 4 ..$.~ U.U.r.Z.C.C.C.C.C.C.P y.C.C.C.C.C.Z.y.U.U.^ $.o.9 : > U.U.U.U.U.U.U.U.U.U.U.U.U.U.U.U.",
"U.U.U.U.U.U.U.U.U.U.U.U.U.& > ; U.U.| _ U.U.U.U.U.y.N.Z.Z.n.U.U.U.d.Z.Z.Z.n.1.U.U.U.U.} ] ) U.> , U.U.U.U.U.U.U.U.U.U.U.U.U.U.U.",
"U.U.U.U.U.U.U.U.U.U.U.U.* > , U.U.U.%.U.U.U.U.U.U.U.U.U.U.U.U.U.U.U.U.U.U.U.U.U.U.U.U.U.$.) U.& < ; U.U.U.U.U.U.U.U.U.U.U.U.U.U.",
"U.U.U.U.U.U.U.U.U.U.U.& , , U.U.U./ +.U.U.U.U.U.U.U.U.U.U.U.U.U.U.U.U.U.U.U.U.U.U.U.U.U.+.] U.U.* 2 - U.U.U.U.U.U.U.U.U.U.U.U.U.",
"U.U.U.U.U.U.U.U.U.U.% < , U.U.U.U.O.] U.U.U.U.U.U.U.U.U.U.U.U.U.U.U.U.U.U.U.U.U.U.U.U.U.} o.U.U.U.- 2 - U.U.U.U.U.U.U.U.U.U.U.U.",
"U.U.U.U.U.U.U.U.U.) 1 : = U.U.Q o.o.U.U.U.U.U.U.U.U.U.U.U.U.U.U.U.U.U.U.U.U.U.U.U.U.U.U.U.o.} U.U.U.; < ; U.U.U.U.U.U.U.U.U.U.U.",
"U.U.U.U.U.U.U.U.U. .X.8 / ^ [ o.] U.U.U.U.U.U.U.U.U.U.U.U.U.U.U.U.U.U.U.U.U.U.U.U.U.U.U.U.U.[ ..| } 5 , 3 } U.U.U.U.U.U.U.U.U.U.",
"U.U.U.U.U.U.U.U.U.U.) 9 ~ U.U.U.U.U.U.U.U.U.U.U.U.U.U.U.U.U.U.U.U.U.U.U.U.U.U.U.U.U.U.U.U.U.U.U.U.U.) 6 $.} U.U.U.U.U.U.U.U.U.U.",
"U.U.U.U.U.U.U.U.U.U.U.U.U.U.U.U.U.U.U.U.U.U.U.U.U.U.U.U.U.U.U.U.U.U.U.U.U.U.U.U.U.U.U.U.U.U.U.U.U.U.U.U.~ U.U.U.U.U.U.U.U.U.U.U.",
"U.U.U.U.U.U.U.U.U.U.U.U.U.U.U.U.U.U.U.U.U.U.U.U.U.U.U.U.U.U.U.U.U.U.U.U.U.U.U.U.U.U.U.U.U.U.U.U.U.U.U.U.U.U.U.U.U.U.U.U.U.U.U.U.",
"U.U.U.U.U.U.U.U.U.U.U.U.U.U.U.U.U.U.U.U.U.U.U.U.U.U.U.U.U.U.U.U.U.U.U.U.U.U.U.U.U.U.U.U.U.U.U.U.U.U.U.U.U.U.U.U.U.U.U.U.U.U.U.U.",
"U.U.U.U.U.U.U.U.U.U.U.U.U.U.U.U.U.U.U.U.U.U.U.U.U.U.U.U.U.U.U.U.U.U.U.U.U.U.U.U.U.U.U.U.U.U.U.U.U.U.U.U.U.U.U.U.U.U.U.U.U.U.U.U.",
"U.U.U.U.U.U.U.U.U.U.U.U.U.U.U.U.U.U.U.U.U.U.U.U.U.U.U.U.U.U.U.U.U.U.U.U.U.U.U.U.U.U.U.U.U.U.U.U.U.U.U.U.U.U.U.U.U.U.U.U.U.U.U.U.",
"U.U.U.U.U.U.U.U.U.U.U.U.U.U.U.U.U.U.U.U.U.U.U.U.U.U.U.U.U.U.U.U.U.U.U.U.U.U.U.U.U.U.U.U.U.U.U.U.U.U.U.U.U.U.U.U.U.U.U.U.U.U.U.U.",
"U.U.U.U.U.U.U.U.U.U.U.U.U.U.U.U.U.U.U.U.U.U.U.U.U.U.U.U.U.U.U.U.U.U.U.U.U.U.U.U.U.U.U.U.U.U.U.U.U.U.U.U.U.U.U.U.U.U.U.U.U.U.U.U.",
"U.U.U.U.U.U.U.U.U.U.U.U.U.U.U.U.U.U.U.U.U.U.U.U.U.U.U.U.U.U.U.U.U.U.U.U.U.U.U.U.U.U.U.U.U.U.U.U.U.U.U.U.U.U.U.U.U.U.U.U.U.U.U.U."
};
