/* XPM */
static char *result[] = {
/* columns rows colors chars-per-pixel */
"64 64 234 2 ",
"   c black",
".  c #010101",
"X  c #020202",
"o  c gray1",
"O  c #040404",
"+  c gray2",
"@  c #060606",
"#  c #070707",
"$  c #0A060D",
"%  c gray3",
"&  c #090909",
"*  c gray4",
"=  c #0B0B0B",
"-  c #0C0C0C",
";  c gray5",
":  c #0E0E0E",
">  c gray6",
",  c #130B18",
"<  c #160D1C",
"1  c #101010",
"2  c #111111",
"3  c gray7",
"4  c #131313",
"5  c gray8",
"6  c #151515",
"7  c #161616",
"8  c gray9",
"9  c #181818",
"0  c #191919",
"q  c gray10",
"w  c #1B1B1B",
"e  c gray11",
"r  c #1D1D1D",
"t  c #1E1E1E",
"y  c gray12",
"u  c #291935",
"i  c #2C1A37",
"p  c #2D1A38",
"a  c #2E1B3A",
"s  c #2F1C3D",
"d  c #301C3B",
"f  c #301C3C",
"g  c #202020",
"h  c gray13",
"j  c #222222",
"k  c #232323",
"l  c gray14",
"z  c #252525",
"x  c gray15",
"c  c #272727",
"v  c #282828",
"b  c gray16",
"n  c #2A2A2A",
"m  c gray17",
"M  c #2C2C2C",
"N  c #2D2D2D",
"B  c gray18",
"V  c #2F2F2F",
"C  c gray19",
"Z  c #313131",
"A  c #323232",
"S  c gray20",
"D  c #343434",
"F  c #353535",
"G  c gray21",
"H  c #373737",
"J  c #383638",
"K  c gray22",
"L  c #393939",
"P  c #3A3A3A",
"I  c gray23",
"U  c #3C3C3C",
"Y  c gray24",
"T  c #3E3E3E",
"R  c #3F3F3F",
"E  c #372045",
"W  c #3B2249",
"Q  c #3B234B",
"!  c #3D234D",
"~  c #3E254F",
"^  c #402650",
"/  c #412652",
"(  c #422754",
")  c #422755",
"_  c #462959",
"`  c #47295A",
"'  c #492C5D",
"]  c #4E2F64",
"[  c #502F66",
"{  c #523068",
"}  c #543668",
"|  c #56336D",
" . c #583470",
".. c #593770",
"X. c #5A3673",
"o. c #5B3673",
"O. c #5D3775",
"+. c #5E3878",
"@. c #5F3878",
"#. c #60397A",
"$. c #60397B",
"%. c #613A7B",
"&. c #623A7C",
"*. c #643B7E",
"=. c gray25",
"-. c #414141",
";. c gray26",
":. c #434343",
">. c #444444",
",. c gray27",
"<. c gray28",
"1. c #484848",
"2. c #494949",
"3. c #4B4B4B",
"4. c gray30",
"5. c #4E4E4E",
"6. c #505050",
"7. c #515151",
"8. c #535353",
"9. c #555555",
"0. c #606060",
"q. c gray39",
"w. c #6C6C6C",
"e. c gray43",
"r. c #717171",
"t. c #747474",
"y. c #767676",
"u. c #797979",
"i. c #7C7C7C",
"p. c #673E84",
"a. c #693E86",
"s. c #6A3E86",
"d. c #6E418B",
"f. c #6F428B",
"g. c #70428E",
"h. c #764796",
"j. c #774797",
"k. c #784898",
"l. c #79489A",
"z. c #7B499B",
"x. c #7C4A9D",
"c. c #7D4A9E",
"v. c #814DA3",
"b. c #824DA5",
"n. c #854EA8",
"m. c #864FAA",
"M. c #8A51AF",
"N. c #8B53B0",
"B. c #8D53B2",
"V. c #8E54B3",
"C. c #9156B7",
"Z. c #9357B9",
"A. c #9357BA",
"S. c #9558BC",
"D. c #9659BE",
"F. c #9759BF",
"G. c #985AC0",
"H. c #995BC2",
"J. c #9A5CC4",
"K. c #9B5CC4",
"L. c #9C5CC5",
"P. c #9D5DC7",
"I. c #9F5EC9",
"U. c #A05FCB",
"Y. c #A160CB",
"T. c #A160CC",
"R. c #A260CD",
"E. c #A360CE",
"W. c #A261CE",
"Q. c #A361CE",
"!. c #818181",
"~. c #848484",
"^. c #868686",
"/. c gray54",
"(. c #8B8B8B",
"). c gray55",
"_. c #8E8E8E",
"`. c gray57",
"'. c #929292",
"]. c #939393",
"[. c gray59",
"{. c #9A9A9A",
"}. c #9B9B9B",
"|. c gray62",
" X c #9F9F9F",
".X c gray63",
"XX c gray64",
"oX c #A4A4A4",
"OX c #A5A5A5",
"+X c gray65",
"@X c #A9A9A9",
"#X c #AAAAAA",
"$X c #AFAFAF",
"%X c gray70",
"&X c gray",
"*X c #C3C3C3",
"=X c gray77",
"-X c #CECECE",
";X c gray81",
":X c #D0D0D0",
">X c gray82",
",X c LightGray",
"<X c gray83",
"1X c gray84",
"2X c gray85",
"3X c #DADADA",
"4X c gray86",
"5X c gainsboro",
"6X c gray87",
"7X c gray88",
"8X c #E1E1E1",
"9X c gray89",
"0X c #E6E6E6",
"qX c #E7E7E7",
"wX c gray91",
"eX c #E9E9E9",
"rX c #EAEAEA",
"tX c gray92",
"yX c #ECECEC",
"uX c #EEEEEE",
"iX c #F1F1F1",
"pX c gray95",
"aX c #F4F4F4",
"sX c gray96",
"dX c #F6F6F6",
"fX c gray97",
"gX c #F8F8F8",
"hX c gray98",
"jX c #FBFBFB",
"kX c gray99",
"lX c #FDFDFD",
"zX c #FEFEFE",
"xX c white",
"cX c None",
/* pixels */
"cXcXcXcXcXcXcXcXcXcXcXcXcXcXcXcXcXcXcXcXcXcXcXcXcXcXcXcXcXcXcXcXcXcXcXcXcXcXcXcXcXcXcXcXcXm ;.cXcXcXcXcXcXcXcXcXcXcXcXcXcXcXcXcX",
"cXcXcXcXcXcXcXcXcXcXcXcXcXcXcXcXcXcXcXcXcXcXcXcXcXcXcXcXcXcXcXcXcXcXcXcXcXcXcXcXcXcXcXcXj     2 V cXcXcXcXcXcXcXcXcXcXcXcXcXcXcX",
"cXcXcXcXcXcXcXcXcXcXcXcXcXcXcXcXcXcXcXcXcXcXcXcXcXcXcXcXcXcXcXcXcXcXcXcXcXcXcXcXcXcXcXcXX         @ n cXcXcXcXcXcXcXcXcXcXcXcXcX",
"cXcXcXcXcXcXcXcXcXcXcXcXcXcXcXcXcXcXcXcXcXcXcXcXcXcXcXcXcXcXcXcXcXcXcXcXcXcXcXcXcXcXcXk               & S cXcXcXcXcXcXcXcXcXcXcX",
"cXcXcXcXcXcXcXcXcXcXcXcXcXcXcXcXcXcXcXcXcXcXcXcXcXcXcXcXcXcXcXcXcXcXcXcXcXcXcXcXcXcXcXX                   w cXcXcXcXcXcXcXcXcXcX",
"cXcXcXcXcXcXcXcXcXcXcXcXcXcXcXcXcXcXcXcXcXcXcXcXcXcXcXcXcXcXcXcXcXcXcXcXcXcXcXcXcXcXz                       & <.cXcXcXcXcXcXcXcX",
"cXcXcXcXcXcXcXcXcXcXcXcXcXcXcXcXcXcXcXcXcXcXcXcXcXcXcXcXcXcXcXcXcXcXcXcXcXcXcXcXcXcXo                         G cXcXcXcXcXcXcXcX",
"cXcXcXcXcXcXcXcXcX! c.Y.Q.N.| cXcXcXcXcXcXcXcXcXcXcXcXcXcXcXcXcXcXcXcXcXcXcXcXcXcXc                         q cXcXcXcXcXcXcXcXcX",
"cXcXcXcXcXcXcXcX` Y.Q.Q.Q.Q.Q.v.cXcXcXcXcXcXcXcXcXcXcXcXcXcXcXcXcXcXcXcXcXcXcXcXcXO                         -.cXcXcXcXcXcXcXcXcX",
"cXcXcXcXcXcXcXcXF.Q.Q.Q.R.Q.Q.Q.V.cXcXcXcXcXcXcXcXcXcXcXcXcXcXcX7 + 5 n V cXcXcXb                         l cXcXcXcXcXcXcXcXcXcX",
"cXcXcXcXcXcXcX[ Q.Q.Q.d.$.%.P.Q.Q.n.cXcXcXcXcXcXcXcXcXcXcXcXcXcXcXB %     @ c 7.@                       o cXcXcXcXcXcXcXcXcXcXcX",
"cXcXcXcXcXcXcXp.Q.Q.b.cXcXcXa A.Q.Q.s.cXcXcXcXcXcXcXcXcXcXcXcXcXcXcXcXn O                               n cXcXcXcXcXcXcXcXcXcXcX",
"cXcXcXcXcXcXcX .Q.Q.g.cXcXcXcXd P.Q.Q.] cXcXcXcXcXcXcXcXcXcXcXn v b n cXcXx X                         * cXcXcXcXcXcXcXcXcXcXcXcX",
"cXcXcXcXcXcXcXcXU.Q.D.cXcXcXcXcX[ Q.Q.P.E cXcXcXcXn ;.cXcXR #         3 cXcXD                         S cXcXcXcXcXcXcXcXcXcXcXcX",
"cXcXcXcXcXcXcXcXf.Q.Q.*.cXcXcXcXcXa.Q.Q.M.cXcXy       0 R .             0 M                         4 cXcXcXcXcXcXcXcXcXcXcXcXcX",
"cXcXcXcXcXcXcXcXp J.Q.Q.o.cXcXcXcXcXm.Q.W...&                                                       K cXcXcXcXcXcXcXcXcXcXcXcXcX",
"cXcXcXcXcXcXcXcXcX/ I.Q.E.{ cXcXcXcXs K.B.$                                                         * K cXcXcXcXcXcXcXcXcXcXcXcX",
"cXcXcXcXcXcXcXcXcXcX( L.h.cXcXcXcXcXcX' f                                                               r cXcXcXcXcXcXcXcXcXcXcX",
"cXcXcXcXcXcXcXcXcXcXcXu cXcXcXcXcXcXcXcX                                                          . ;     # G cXcXcXcXcXcXcXcXcX",
"cXcXcXcXcXcXcXcXcXcXcXcXcXcXcXcXcXcXcXcX                                                          3 cXS y X   j cXcXcXcXcXcXcXcX",
"cXcXcXcXcXcXcXcXcXcXcXcXcXcXcXcXc @ X 9 o                                                         l cXcXcXcXD m cXcXcXcXcXcXcXcX",
"cXcXcXcXcXcXcXcXcXcXcXcXcXcXcX9                                 j =.2.<.H :                       q x T cXcXcXcXcXcXcXcXcXcXcXcX",
"cXcXcXcXcXcXcXcXcXcXcXcXcXcXv                           + 8.#XeXxXxXxXxXxXlX-X!.g                       Z cXcXcXcXcXcXcXcXcXcXcX",
"cXcXcXcXcXcXcXcXcXcXcXcXcXcXO                       O w.9XxXxXxXxXxXxXxXxXxXxXxXhX{.6                   X cXcXcXcXcXcXcXcXcXcXcX",
"cXcXcXcXcXcXcXcXcXcXcXcXcXcX                      b -XxXxXxXxXxXxXxXxXxXxXxXxXxXxXxX0XI                   A cXcXcXcXcXcXcXcXcXcX",
"cXcXcXcXcXcXcXcXcXcXcXcXcXcXX                   ;.iXxXxXxXxXxXxXxXxXxXxXxXxXxXxXxXxXxXsXR                 T cXcXcXcXcXcXcXcXcXcX",
"cXcXcXcXcXcXcXcXcXcXcXcXcXcXz                 F sXxXxXxXxXxXxXxXxXxXxXxXxXxXxXxXxXxXxXxXyXw             1 cXcXcXcXcXcXcXcXcXcXcX",
"cXcXcXcXcXcXcXcXcXcXcXcXU 8 .               * 6XxXxXxXxXxXxXxXxXxXxXxXxXxXxXxXxXxXxXxXxXxXOX            c cXcXcXcXcXcXcXcXcXcXcX",
"cXcXcXcXcXcXcXcXcXcXcXG                     u.xXxXxXxXzXfXhXxXxXxXxXxXxXxXxXxXhXfXzXxXxXxXkXj             : cXcXcXcXcXcXcXcXcXcX",
"cXcXcXcXcXcXcXcXcXcXcXO                   . 8XxXxXzXXXl . + >.>XxXxXxXxXxX:X:.+ . z oXzXxXxXr.              w cXcXcXcXcXcXcXcXcX",
"cXcXcXcXcXcXcXcXcXcXk                     c xXxXxX/.          - :XxXxXxX;X=           /.xXxX%X                cXcXcXcXcXcXcXcXcX",
"cXcXcXcXcXcXcXcXcXcXb                     5.xXxX0X+             =.zXxXzXY             # 0XxX-X                T cXcXcXcXcXcXcXcX",
"cXcXcXcXcXcXcXcXcXcXk                     9.xXxX X              . pXxXsXX               XXxX2X                cXcXcXcXcXcXcXcXcX",
"cXcXcXcXcXcXcXcXcXcXcX                    U xXxX].                wXxXuX                }.xX-X              q cXcXcXcXcXcXcXcXcX",
"cXcXcXcXcXcXcXcXcXcXcXm                   # aXxX;X              j zXxXxXy               -XxXXX            # cXcXcXcXcXcXcXcXcXcX",
"cXcXcXcXcXcXcXcXcXcXcXcXC %                 {.xXxX4.             XxXxXxX|.            6.xXzX3.              g cXcXcXcXcXcXcXcXcX",
"cXcXcXcXcXcXcXcXcXcXcXcXcXw                 q uXxXpX7.      & _.xXlX7XzXzX(.&       8.pXxX=X                  D cXcXcXcXcXcXcXcX",
"cXcXcXcXcXcXcXcXcXcXcXcXk                     >.gXxXzX,X.X@XtXxXxX0.  e.xXxXrX@X.X<XxXxXqXg                   t cXcXcXcXcXcXcXcX",
"cXcXcXcXcXcXcXcXcXcXcXcX.                       -.rXxXxXxXxXxXxXxXF   ,.xXxXxXxXxXxXxX5Xc                     3 cXcXcXcXcXcXcXcX",
"cXcXcXcXcXcXcXcXcXcXcX:.                          0 XXlXxXxXxXxXxX1X!.4XxXxXxXxXxXjX[.>                       z cXcXcXcXcXcXcXcX",
"cXcXcXcXcXcXcXcXcXcXcXcX                              n '.pXxXxXxXxXxXxXxXxXxXsX`.z                           T cXcXcXcXcXcXcXcX",
"cXcXcXcXcXcXcXcXcXcXcXcX;                               1.zXxXxXxXxXxXxXxXxXxXzX2.                        O G cXcXcXcXcXcXcXcXcX",
"cXcXcXcXcXcXcXcXcXcXcXcXY                               *XxXxXxXdXxXxXxXaXxXxXxX+X                      c cXcXcXcXcXcXcXcXcXcXcX",
"cXcXcXcXcXcXcXcXcXcXcXcXcXY -                           3XxXxXxX^.xXxXxX$X3XxXxX&X                      x cXcXcXcXcXcXcXcXcXcXcX",
"cXcXcXcXcXcXcXcXcXcXcXcXcXcXcX4.r                       i.xXjX).. 8XxXxXy.S wXxXt.                      3 cXcXcXcXcXcXcXcXcXcXcX",
"cXcXcXcXcXcXcXcXcXcXcXcXcXcXcX:.                          j 2     c ~.q.o   = g                         ; cXcXcXcXcXcXcXcXcXcXcX",
"cXcXcXcXcXcXcXcXcXcXcXcXcXcXcXm                                                                         l cXcXcXcXcXcXcXcXcXcXcX",
"cXcXcXcXcXcXcXcXcXcXcXcXcXcXcXn                                                                       X ;.cXcXcXcXcXcXcXcXcXcXcX",
"cXcXcXcXcXcXcXcXcXcXcXcXcXcXcXL                                                                     & =.cXcXcXcXcXcXcXcXcXcXcXcX",
"cXcXcXcXcXcXcXcXcXcXcXcXcXcXcXcXe                                                             6 n J cXcXcXcXcXcXcXcXcXcXcXcXcXcX",
"cXcXcXcXcXcXcXcXcXcXcXcXcXcXcXcXcXh .     + X                                                 < cXcXcXcXcXcXcXcXcXcXcXcXcXcXcXcX",
"cXcXcXcXcXcXcXcXcXcXcXcXcXcXcXcXcXcXcXK T cX5                                                 X.@.cXcXcXcXcXcXcXcXcXcXcXcXcXcXcX",
"cXcXcXcXcXcXcXcXcXcXcXcXcXcXcXcXcXcXcXcXcXcXN                                               , H.R.) cXcXcXcXcXcXcXcXcXcXcXcXcXcX",
"cXcXcXcXcXcXcXcXcXcXcXcXcXcXcXcXcXcXcXcXcXcXcXw           + N                 m w         2 } Q.Q.S.cXcXcXcXcXcXcXcXcXcXcXcXcXcX",
"cXcXcXcXcXcXcXcXcXcXcXcXcXcXcXcXcXcXcXcXcXcXcXcXV q 3 j M cXcXg             ; cXcXP b M B cXcXj.Q.Q.x.cXcXcXcXcXcXcXcXcXcXcXcXcX",
"cXcXcXcXcXcXcXcXcXcXcXcXcXcXcXcXcXcXcXcXcXcXcXcXcXcXcXcXcXcXcXcXg         4 cXcXcXcXcXcXcXcXcXcXC.Q.Q.&.cXcXcXcXcXcXcXcXcXcXcXcX",
"cXcXcXcXcXcXcXcXcXcXcXcXcXcXcXcXcXcXcXcXcXcXcXcXcXcXcXcXcXcXcXcXcXcXz v G cXcXcXcXcXcXcXcXcXcXcXW U.Q.R.^ cXcXcXcXcXcXcXcXcXcXcX",
"cXcXcXcXcXcXcXcXcXcXcXcXcXcXcXcXcXcXcXcXcXcXcXcXcXcXcXcXcXcXcXcXcXcXcXcXcXcXcXcXcXcXcXcXcXcXcXcXcXO.Q.Q.S.cXcXcXcXcXcXcXcXcXcXcX",
"cXcXcXcXcXcXcXcXcXcXcXcXcXcXcXcXcXcXcXcXcXcXcXcXcXcXcXcXcXcXcXcXcXcXcXcXcXcXcXcXcXcXcXcXcXcXcXcXcXcXk.Q.Q.z.cXcXcXcXcXcXcXcXcXcX",
"cXcXcXcXcXcXcXcXcXcXcXcXcXcXcXcXcXcXcXcXcXcXcXcXcXcXcXcXcXcXcXcXcXcXcXcXcXcXcXcXcXcXcXcXcXcXcXcXcXcXcXZ.Q.Q.#.cXcXcXcXcXcXcXcXcX",
"cXcXcXcXcXcXcXcXcXcXcXcXcXcXcXcXcXcXcXcXcXcXcXcXcXcXcXcXcXcXcXcXcXcXcXcXcXcXcXcXcXcXcXcXcXcXcXcXcXcXcXQ U.Q.T.~ cXcXcXcXcXcXcXcX",
"cXcXcXcXcXcXcXcXcXcXcXcXcXcXcXcXcXcXcXcXcXcXcXcXcXcXcXcXcXcXcXcXcXcXcXcXcXcXcXcXcXcXcXcXcXcXcXcXcXcXcXcX+.Q.Q.A.cXcXcXcXcXcXcXcX",
"cXcXcXcXcXcXcXcXcXcXcXcXcXcXcXcXcXcXcXcXcXcXcXcXcXcXcXcXcXcXcXcXcXcXcXcXcXcXcXcXcXcXcXcXcXcXcXcXcXcXcXcXcXl.G._ cXcXcXcXcXcXcXcX",
"cXcXcXcXcXcXcXcXcXcXcXcXcXcXcXcXcXcXcXcXcXcXcXcXcXcXcXcXcXcXcXcXcXcXcXcXcXcXcXcXcXcXcXcXcXcXcXcXcXcXcXcXcXcXi cXcXcXcXcXcXcXcXcX"
};
