/* XPM */
static char *result[] = {
/* columns rows colors chars-per-pixel */
"64 64 231 2 ",
"   c black",
".  c #010101",
"X  c #020202",
"o  c #080000",
"O  c #0E0000",
"+  c #0E0E0E",
"@  c #110000",
"#  c #101010",
"$  c gray9",
"%  c #181818",
"&  c gray10",
"*  c #300000",
"=  c #340000",
"-  c #202020",
";  c #232323",
":  c #252525",
">  c #272727",
",  c gray17",
"<  c #2C2C2C",
"1  c #2D2D2D",
"2  c gray18",
"3  c #2F2F2F",
"4  c #313131",
"5  c #353535",
"6  c #373737",
"7  c gray23",
"8  c gray24",
"9  c #444444",
"0  c gray27",
"q  c gray29",
"w  c #4C4C4C",
"e  c gray31",
"r  c #505050",
"t  c gray33",
"y  c #555555",
"u  c #565656",
"i  c #585858",
"p  c gray35",
"a  c #5B5B5B",
"s  c gray36",
"d  c #5D5D5D",
"f  c gray37",
"g  c #5F5F5F",
"h  c #606060",
"j  c gray38",
"k  c #626262",
"l  c gray39",
"z  c #646464",
"x  c #656565",
"c  c gray40",
"v  c #676767",
"b  c #686868",
"n  c DimGray",
"m  c #6A6A6A",
"M  c gray42",
"N  c #6D6D6D",
"B  c #6F6F6F",
"V  c gray44",
"C  c #717171",
"Z  c #727272",
"A  c gray45",
"S  c #747474",
"D  c #777777",
"F  c gray47",
"G  c #797979",
"H  c #7B7B7B",
"J  c #7C7C7C",
"K  c gray49",
"L  c #7E7E7E",
"P  c gray50",
"I  c #860000",
"U  c #880000",
"Y  c #970707",
"T  c #9C0202",
"R  c #8C1414",
"E  c #8D1515",
"W  c #941717",
"Q  c #961616",
"!  c #931B1B",
"~  c #941919",
"^  c #AE0000",
"/  c #A40B0B",
"(  c #A20C0C",
")  c #B00000",
"_  c #B50000",
"`  c #B70000",
"'  c #8F2424",
"]  c #C90000",
"[  c #CD0000",
"{  c #D30000",
"}  c #D70000",
"|  c #F20000",
" . c #F40000",
".. c #F70000",
"X. c #FE0000",
"o. c red",
"O. c #894747",
"+. c #8A4848",
"@. c #8C5353",
"#. c #8B5757",
"$. c #A04343",
"%. c #A04444",
"&. c #808080",
"*. c #838383",
"=. c #848484",
"-. c gray52",
";. c #868686",
":. c gray53",
">. c #888888",
",. c #898989",
"<. c gray54",
"1. c #8B8B8B",
"2. c gray55",
"3. c #8D8D8D",
"4. c #8E8E8E",
"5. c gray56",
"6. c #968282",
"7. c #968383",
"8. c #9B8585",
"9. c #9D8B8B",
"0. c #909090",
"q. c gray57",
"w. c #929292",
"e. c #939393",
"r. c gray58",
"t. c #959595",
"y. c gray59",
"u. c #979797",
"i. c #989898",
"p. c gray60",
"a. c #9A9A9A",
"s. c #9B9B9B",
"d. c gray61",
"f. c #9D9D9D",
"g. c gray62",
"h. c #9F9F9F",
"j. c #A39595",
"k. c #A49696",
"l. c #A59797",
"z. c #A79B9B",
"x. c #A0A0A0",
"c. c gray63",
"v. c #A2A2A2",
"b. c gray64",
"n. c #A4A4A4",
"m. c #A5A5A5",
"M. c gray65",
"N. c #A7A7A7",
"B. c gray66",
"V. c #A9A9A9",
"C. c #AAAAAA",
"Z. c gray67",
"A. c #ACACAC",
"S. c gray68",
"D. c #AEAEAE",
"F. c #AFAFAF",
"G. c gray69",
"H. c #B1B1B1",
"J. c #B2B2B2",
"K. c gray70",
"L. c gray71",
"P. c #B6B6B6",
"I. c #B9B9B9",
"U. c gray73",
"Y. c #BBBBBB",
"T. c #BCBCBC",
"R. c gray74",
"E. c gray75",
"W. c #C1C1C1",
"Q. c gray76",
"!. c #C3C3C3",
"~. c gray77",
"^. c #C5C5C5",
"/. c #C6C6C6",
"(. c gray78",
"). c #C8C8C8",
"_. c #CACACA",
"`. c #CBCBCB",
"'. c gray80",
"]. c #CDCDCD",
"[. c #CECECE",
"{. c #CECFCF",
"}. c gray81",
"|. c #D0D0D0",
" X c gray82",
".X c #D2D2D2",
"XX c gray83",
"oX c #D5D5D5",
"OX c gray84",
"+X c #D7D7D7",
"@X c #D8D8D8",
"#X c #DADADA",
"$X c gray86",
"%X c gainsboro",
"&X c #DDDDDD",
"*X c gray87",
"=X c #DFDFDF",
"-X c gray88",
";X c #E1E1E1",
":X c #E2E2E2",
">X c gray89",
",X c #E4E4E4",
"<X c gray90",
"1X c #E6E6E6",
"2X c #E6E7E7",
"3X c #E7E7E7",
"4X c gray91",
"5X c #E9E9E9",
"6X c #EAEAEA",
"7X c gray92",
"8X c #ECECEC",
"9X c gray93",
"0X c #EEEEEE",
"qX c #EFEFEF",
"wX c gray94",
"eX c #F1F1F1",
"rX c gray95",
"tX c #F3F3F3",
"yX c #F4F4F4",
"uX c gray96",
"iX c #F6F6F6",
"pX c gray97",
"aX c #F8F8F8",
"sX c #F9F9F9",
"dX c gray98",
"fX c #FBFBFB",
"gX c gray99",
"hX c #FDFDFD",
"jX c #FEFEFE",
"kX c white",
"lX c None",
/* pixels */
"lXlXlXlXlXlXlXlXlXe.n.n.r.lXlXlXlXlXlXlXlXlXlXlXlXlXlXlXlXlXlXlXlXlXlXlXlXlXlXlXlXlXlXlXlXlXlXlXlXlXlXr.n.n.e.lXlXlXlXlXlXlXlXlX",
"lXlXlXlXlXlXlXx ;XkXkXkXkX1Xx lXlXlXlXlXlXlXlXlXlXlXlXlXlXlXlXlXlXlXlXlXlXlXlXlXlXlXlXlXlXlXlXlXlXc <XkXkXkXkX>Xc lXlXlXlXlXlXlX",
"lXlXlXlXlXlXlX1XkXkXkXkXkXkX9XM lXlXlXlXlXlXlXlXlXlXlXlXlXlXlXlXlXlXlXlXlXlXlXlXlXlXlXlXlXlXlXlXl 6XkXkXkXkXkXkX3XlXlXlXlXlXlXlX",
"lXlXlXlXlXlXs.kXkXkXkXkXkXkXkXh.lXlXlXlXlXlXlXlXlXlXlXlXlXlXlXlXlXlXlXlXlXlXlXlXlXlXlXlXlXlXlXlXh.kXkXkXkXkXkXkXkXf.lXlXlXlXlXlX",
"lXlXlXlXlXlX}.kXkXkXkXkXkXkXkX,XlXlXlXlXlXlXlXlXlXlXlXlXlXlXlXlXlXlXlXlXlXlXlXlXlXlXlXlXlXlXlXlX=XkXkXkXkXkXkXkXkXOXlXlXlXlXlXlX",
"lXlXlXlXlXlX7XkXkXkXkXkXkXkXkXgXlXlXlXlXlXlXlXlXlXlXlXlXlXlXlXlXlXlXlXlXlXlXlXlXlXlXlXlXlXlXlXlXdXkXkXkXkXkXkXkXkXyXlXlXlXlXlXlX",
"lXlXlXd.oXuXaXkXkXkXkXkXkXkXkX'.lXlXlXlXlXlXlXlXlXlXlXlXlXlXlXlXlXlXlXlXlXlXlXlXlXlXlXlXlXlXlXlX^.kXkXkXkXkXkXkXkXsXyXOXf.lXlXlX",
"lXx 1XkXkXkXkXkXkXkXkXkXkXkXkX0.lXlXlXlXlXlXlXlXlXlXlXlXlXlXlXlXlXlXlXlXlXlXlXlXlXlXlXlXlXlXlXlX5.kXkXkXkXkXkXkXkXkXkXkXkX3Xc lX",
"lX-XkXkXkXkXkXkXkXkXkXkXkXkXW.lXlXlXlXlXlXlXlXlXlXlXlXlXlXlXlXlXlXlXlXlXlXlXlXlXlXlXlXlXlXlXlXlXlXR.kXkXkXkXkXkXkXkXkXkXkXkX>XlX",
"4.kXkXkXkXkXkXkXkXkXkXkXkXD.lXlXlXlXlXlXlXlXlXlXlX9 r.N.'.pXkXkXkXkXeX/.b.<.lXlXlXlXlXlXlXlXlXlXlXlXZ.kXkXkXkXkXkXkXkXkXkXkXkXr.",
"m.kXkXkXkXkXkXkXkXkXkXkXkXwXl lXlXlXlXlXlXlXlX-.R.fXkXkXkXkXkXkXkXkXkXkXkXkXsXS.V lXlXlXlXlXlXlXlXk 9XkXkXkXkXkXkXkXkXkXkXkXkXn.",
"m.kXkXkXkXkXkXkXkXkXkXkXkXkXqXc lXlXlXlXlXB |.kXkXkXkXtX0XkXkXkXkXkXkXwXtXkXkXkXkXI.x lXlXlXlXlXv 8XkXkXkXkXkXkXkXkXkXkXkXkXkXm.",
"0.kXkXkXkXkXkXkXkXkXkXkXkXkXkXwXk lXlXlXA.jXkXkXkXkXuXt.jXkXkXkXkXkXkXkXi.tXkXkXkXkXaXq.lXlXlXh 9XkXkXkXkXkXkXkXkXkXkXkXkXkXkXr.",
"lX:XkXkXkXkXkXkXkXC.7XkXkXkXkXkXqXv e  XkXkXkXkXkXkXb 1XkXkXkXkXkXkXkXkX5Xz kXkXkXkXkXkXU.lXn 8XkXkXkXkXkX0XA.kXkXkXkXkXkXkX<XlX",
"lXx 5XkXkXkXkXkXW.lXk 6XkXkXkXkXkX4.#XkXkXkXkXkXkX4.4.kXkXkXkXkXkXkXkXkXkXq.,.kXkXkXkXkXkXE.g.kXkXkXkXkX9Xk lXR.kXkXkXkXkX7Xc lX",
"lXlXlXx.*XfX(.5.lXlXlXn 7XkXkXkXv.XXkXkXkXkXkXkX].< jXkXkXkXkXkXkXkXkXkXkXjX2 '.kXkXkXkXkXkXI.W.kXkXkX9Xv lXlXlX5.^.dX=Xh.k lXlX",
"lXlXlXlXlXlXlXlXlXlXlXlXg 6XkX.XG.kXkXkXkXkXkXfX5 Z.kXkXkXkXkXkXkXkXkXkXkXkXF.4 dXkXkXkXkXkXkXu.8XkX9Xj lXlXlXlXlXlXlXlXlXlXlXlX",
"lXlXlXlXlXlXlXlXlXlXlXlXlXm 6X:.kXkXkXkXkXkXkXf., hXkXkXkXkXkXkXkXkXkXkXkXkXjX3 p.kXkXkXkXkXkXaX5.9Xb lXlXlXlXlXlXlXlXlXlXlXlXlX",
"lXlXlXlXlXlXlXlXlXlXlXlXlXlX6 $XkXkXkXkX,Xx.&.% *.jXkXkXkXkXkXkXkXkXkXkXkXkXjX:.$ &.h.,XkXkXkXkXJ.y lXlXlXlXlXlXlXlXlXlXlXlXlXlX",
"lXlXlXlXlXlXlXlXlXlXlXlXlXlXP kXkXkXwXz X         7 +XkXkXkXkXkXkXkXkXkXkX@X8         X j qXkXkXkXl lXlXlXlXlXlXlXlXlXlXlXlXlXlX",
"lXlXlXlXlXlXlXlXlXlXlXlXlXlXI.kXkXeX1               + [.kXkXkXkXkXkXkXkX.X#               1 qXkXkXa.lXlXlXlXlXlXlXlXlXlXlXlXlXlX",
"lXlXlXlXlXlXlXlXlXlXlXlXlXlXyXkXkXc                   : hXkXkXkXkXkXkXhX>                   k kXkXOXlXlXlXlXlXlXlXlXlXlXlXlXlXlX",
"lXlXlXlXlXlXlXlXlXlXlXlXlXA kXkX1X.                     v.kXkXkXkXkXkXM.                    . >XkXhXlXlXlXlXlXlXlXlXlXlXlXlXlXlX",
"lXlXlXlXlXlXlXlXlXlXlXlXlXd.kXhXd.                      t @XhXkXkXkX&Xi                       r.fXkXV lXlXlXlXlXlXlXlXlXlXlXlXlX",
"lXlXlXlXlXlXlXlXlXlXlXlXlXK.].P 8                       & N >.|.+X:.n &                       7 *.~.K lXlXlXlXlXlXlXlXlXlXlXlXlX",
"lXlXlXlXlXlXlXlXlXlXlXlXlXJ.kXkXB.                      u k.+.' ' O.j.p                       v.kXkXL lXlXlXlXlXlXlXlXlXlXlXlXlX",
"lXlXlXlXlXlXlXlXlXlXlXlXlXM.kXkX;X.                   o I | o.o.o.o. .U o                   . &XkXjXF lXlXlXlXlXlXlXlXlXlXlXlXlX",
"lXlXlXlXlXlXlXlXlXlXlXlXlXP kXkXkXi                 O ] o.o.o.o.o.o.o.o.[ @                 t kXkXkXlXlXlXlXlXlXlXlXlXlXlXlXlXlX",
"lXlXlXlXlXlXlXlXlXlXlXlXlXlXdXkXkX9X;               ^ o.o.o.o.o.o.o.o.o.o.)               - 7XkXkX*XlXlXlXlXlXlXlXlXlXlXlXlXlXlX",
"lXlXlXlXlXlXlXlXlXlXlXlXlXlX/.kXkXkX6Xw           * X.o.o.o.o.o.o.o.o.o.o.X.=           q 3XkXkXkXb.lXlXlXlXlXlXlXlXlXlXlXlXlXlX",
"lXlXlXlXlXlXlXlXlXlXlXlXlXlX;.kXkXkXkXkX2.1 m J U.! o.o.o.o.o.o.o.o.o.o.o.o.W T.J m 2 =.kXkXkXkXkXN lXlXlXlXlXlXlXlXlXlXlXlXlXlX",
"lXlXlXlXlXlXlXlXlXlXlXlXlXlXlX5XkXkXkXkXm.p kXkXdXY o.o.o.o.o.o.o.o.o.o.o.o.T sXkXkXs d.kXkXkXkX/.lXlXlXlXlXlXlXlXlXlXlXlXlXlXlX",
"lXlXlXlXlXlXlXlXlXlXlXlXlXlXlX2.kXkXkXkXR.p kXkXjX~ o.o.o.o.o.o.o.o.o.o.o.o.Q hXkXkXa I.kXkXkXjXD lXlXlXlXlXlXlXlXlXlXlXlXlXlXlX",
"lXlXlXlXlXlXlXlXlXlXlXlXlXlXlXlX^.kXkXkX|.p kXkXkX#.X.o.o.o.o.o.o.o.o.o.o.X.@.kXkXkXp `.kXkXkXc.lXlXlXlXlXlXlXlXlXlXlXlXlXlXlXlX",
"lXlXlXlXlXlXlXlXlXlXlXlXlXlXlXlXj <XkXkXeXd kXkXkX{._ o.o.o.o.o.o.o.o.o.o.` `.kXkXkXs wXkXkX}.lXlXlXlXlXlXlXlXlXlXlXlXlXlXlXlXlX",
"lXlXlXlXlXlXlXlXlXlXlXlXlXlXlXlXlXg wXkXkXG kXkXkXkX9.{ o.o.o.o.o.o.o.o.} 8.kXkXkXkXG kXkX=Xh lXlXlXlXlXlXlXlXlXlXlXlXlXlXlXlXlX",
"lXlXlXlXlXlXlXlXlXlXlXlXlXlXlXlXlXlXf :XkXV.kXkXkXkXkXz.( ..o.o.o.o.../ l.kXkXkXkXkXA.jX}.p lXlXlXlXlXlXlXlXlXlXlXlXlXlXlXlXlXlX",
"lXlXlXlXlXlXlXlXlXlXlXlXlXlXlXlXlXlXlXlXY.5XkXkXkXkXkXkX3X7.%.E R $.6.2XkXkXkXkXkXkX5XF.lXlXlXlXlXlXlXlXlXlXlXlXlXlXlXlXlXlXlXlX",
"lXlXlXlXlXlXlXlXlXlXlXlXlXlXlXlXlXlXlXlXlXS 5XkXkXkXkXkXkXkXkXkXkXkXkXkXkXkXkXkXkX*Xh lXlXlXlXlXlXlXlXlXlXlXlXlXlXlXlXlXlXlXlXlX",
"lXlXlXlXlXlXlXlXlXlXlXlXlXlXlXlXlXlXlXlXc 7Xd.y.=XkXkXkXkXkXkXkXkXkXkXkXkXkXkX'.3.D.qXz lXlXlXlXlXlXlXlXlXlXlXlXlXlXlXlXlXlXlXlX",
"lXlXlXlXlXlXlXlXlXlXlXlXlXlXlXlXlXlXlXl 8XkXkX5.H.w.r.].rXkXkXkXkXkXkX0X!.2.e.W.>.jXkXqXl lXlXlXlXlXlXlXlXlXlXlXlXlXlXlXlXlXlXlX",
"lXlXlXlXlXlXlXlXlXlXlXlXlXlXlXlXlXlXl 9XkXkX8Xh.kXkXdX3.g.1.u.1.3.r.2.n.u.hXkXkX_./.kXkXwXl lXlXlXlXlXlXlXlXlXlXlXlXlXlXlXlXlXlX",
"lXlXlXlXlXlXlXlXlXlXlXlXlXlXlXlXlXc 8XkXkXkX3.$XkXkXkX<.kXkXkX).].kXkXkX1.kXkXkX&XZ kXkXkXqXc lXlXlXlXlXlXlXlXlXlXlXlXlXlXlXlXlX",
"lXlXlXlXlXlXlXlXlXlXlXlXlXlXlXlXh 8XkXkXkXkXw.S.w.A.0Xh.kXkXkX).].kXkXkXg.6XB.0.P.b.5XkXkXkXwXk lXlXlXlXlXlXlXlXlXlXlXlXlXlXlXlX",
"lXlXlXlXlXlXlXlXlXlXlXlXlXlXlXn 8XkXkXkXkXJ..XkXkX,XF &.t.4.p.3.5.u.3.y.*.J 4XkXkXrXd.kXkXkXkXqXc lXlXlXlXlXlXlXlXlXlXlXlXlXlXlX",
"lXlXlXlXlXlXlXlXlXlXlXlXlXlXg 8XkXkXkXkXkX0.kXkXkXkXe.gXkXkXwXL.U.rXkXkXfXw.kXkXkXkX-.fXkXkXkXkXwXk lXlXlXlXlXlXlXlXlXlXlXlXlXlX",
"lXlXlXlXlXlXlXlXlXlXlXlXlXn 8XkXkXkXkXkX=XH y.wXkXkXg.kXkXkXkX).].kXkXkXkXh.kXkXqXr.e.L.kXkXkXkXkXqXc lXlXlXlXlXlXlXlXlXlXlXlXlX",
"lXlXlXlXlXlXlXlXlXlXlXlXg 8XkXkXkXkXkX9Xr fXtXx.5.U.a.kXkXkXkX).].kXkXkXkXi.Y.5.c.tXkXC 7XkXkXkXkXkXqXk lXlXlXlXlXlXlXlXlXlXlXlX",
"lXlXx g.>XhX[.q.lXlXlXv 8XkXkXkXkXkX0XM h.kXkXkXjXOX0.x.i.r.S.y.a.S.r.i.x.0.+XjXkXkXkXD.n 7XkXkXkXkXkXwXc lXlXlX0.'.gX,Xh.n lXlX",
"lXx 7XkXkXkXkXkX(.lXk 8XkXkXkXkXkX9Xg lXN.kXkXkXkXkXkXkXkXdX%XOXOX%XdXkXkXkXkXkXkXkXkXE.lXf 6XkXkXkXkXkXqXl lXQ.kXkXkXkXkX9Xx lX",
"lX>XkXkXkXkXkXkXkXS.9XkXkXkXkXkX9Xv lXlX0.kXkXkXkXkXkXkXkXkXkXkXkXkXkXkXkXkXkXkXkXkXkX;.lXlXm 6XkXkXkXkXkXwXD.kXkXkXkXkXkXkX1XlX",
"w.kXkXkXkXkXkXkXkXkXkXkXkXkXkX0Xj lXlXlXlX).kXkXkXkXkXkXkXkXkXkXkXkXkXkXkXkXkXkXkXkXV.lXlXlXlXg 7XkXkXkXkXkXkXkXkXkXkXkXkXkXkXt.",
"M.kXkXkXkXkXkXkXkXkXkXkXkXkX9Xv lXlXlXlXlXlXB.kXkXkXkXkXkXkXkXkXkXkXkXkXkXkXkXkXrX>.lXlXlXlXlXlXn 6XkXkXkXkXkXkXkXkXkXkXkXkXkXn.",
"M.kXkXkXkXkXkXkXkXkXkXkXkX0Xk lXlXlXlXlXlXlXlXm L.fXkXkXkXkXkXkXkXkXkXkXkXkXqXd.lXlXlXlXlXlXlXlXlXk 7XkXkXkXkXkXkXkXkXkXkXkXkXn.",
"<.kXkXkXkXkXkXkXkXkXkXkXkXD.lXlXlXlXlXlXlXlXlXlXlX0 r.V..XhXkXkXkXkXfX`.n.P lXlXlXlXlXlXlXlXlXlXlXlXC.kXkXkXkXkXkXkXkXkXkXkXkXw.",
"lX&XkXkXkXkXkXkXkXkXkXkXkXkX(.lXlXlXlXlXlXlXlXlXlXlXlXlXlXlXlXZ A lXlXlXlXlXlXlXlXlXlXlXlXlXlXlXlXQ.kXkXkXkXkXkXkXkXkXkXkXkX-XlX",
"lXl <XkXkXkXkXkXkXkXkXkXkXkXkXq.lXlXlXlXlXlXlXlXlXlXlXlXlXlXlXlXlXlXlXlXlXlXlXlXlXlXlXlXlXlXlXlX5.kXkXkXkXkXkXkXkXkXkXkXkX1Xx lX",
"lXlXlXa.}.8XiXkXkXkXkXkXkXkXkX[.lXlXlXlXlXlXlXlXlXlXlXlXlXlXlXlXlXlXlXlXlXlXlXlXlXlXlXlXlXlXlXlX(.kXkXkXkXkXkXkXkXaX7X}.a.lXlXlX",
"lXlXlXlXlXlX6XkXkXkXkXkXkXkXkXgXlXlXlXlXlXlXlXlXlXlXlXlXlXlXlXlXlXlXlXlXlXlXlXlXlXlXlXlXlXlXlXlXfXkXkXkXkXkXkXkXkXyXlXlXlXlXlXlX",
"lXlXlXlXlXlX[.kXkXkXkXkXkXkXkX>XlXlXlXlXlXlXlXlXlXlXlXlXlXlXlXlXlXlXlXlXlXlXlXlXlXlXlXlXlXlXlXlX*XkXkXkXkXkXkXkXkXXXlXlXlXlXlXlX",
"lXlXlXlXlXlXa.kXkXkXkXkXkXkXkXg.lXlXlXlXlXlXlXlXlXlXlXlXlXlXlXlXlXlXlXlXlXlXlXlXlXlXlXlXlXlXlXlXx.kXkXkXkXkXkXkXkXd.lXlXlXlXlXlX",
"lXlXlXlXlXlXlX<XkXkXkXkXkXkX7Xv lXlXlXlXlXlXlXlXlXlXlXlXlXlXlXlXlXlXlXlXlXlXlXlXlXlXlXlXlXlXlXlXf 5XkXkXkXkXkXkX1XlXlXlXlXlXlXlX",
"lXlXlXlXlXlXlXl *XkXkXkXkX,Xz lXlXlXlXlXlXlXlXlXlXlXlXlXlXlXlXlXlXlXlXlXlXlXlXlXlXlXlXlXlXlXlXlXlXx :XkXkXkXkX=Xz lXlXlXlXlXlXlX",
"lXlXlXlXlXlXlXlXlX2.m.m.w.lXlXlXlXlXlXlXlXlXlXlXlXlXlXlXlXlXlXlXlXlXlXlXlXlXlXlXlXlXlXlXlXlXlXlXlXlXlX0.m.m.4.lXlXlXlXlXlXlXlXlX"
};
