/* XPM */
static char *result[] = {
/* columns rows colors chars-per-pixel */
"64 64 193 2 ",
"   c #3F1D29",
".  c #3C222A",
"X  c #312D21",
"o  c #3B3B34",
"O  c #411F2A",
"+  c #46202F",
"@  c #462631",
"#  c #562939",
"$  c #5B2D3D",
"%  c #512635",
"&  c #423F37",
"*  c #602E3E",
"=  c #653E3E",
"-  c #55432F",
";  c #414037",
":  c #44443C",
">  c #47483E",
",  c #5A4A33",
"<  c #554A39",
"1  c #614C36",
"2  c #7B4D3E",
"3  c #655235",
"4  c #6B5436",
"5  c #64533C",
"6  c #6A5439",
"7  c #6E5839",
"8  c #735936",
"9  c #745B3A",
"0  c #7A5E3A",
"q  c #715736",
"w  c #7C613C",
"e  c #77603E",
"r  c #652F41",
"t  c #643142",
"y  c #6B3C4A",
"u  c #6C3447",
"i  c #713944",
"p  c #7C3C44",
"a  c #753648",
"s  c #763D50",
"d  c #4E4F42",
"f  c #514B42",
"g  c #525549",
"h  c #58584B",
"j  c #5D5E50",
"k  c #694043",
"l  c #784746",
"z  c #67594A",
"x  c #725145",
"c  c #735E41",
"v  c #7B5C4C",
"b  c #73584B",
"n  c #764052",
"m  c #615558",
"M  c #785F51",
"N  c #7E6542",
"B  c #76614C",
"V  c #7E604D",
"C  c #686557",
"Z  c #736351",
"A  c #7D6353",
"S  c #565B75",
"D  c #716A6C",
"F  c #776E71",
"G  c #83463A",
"H  c #A9473F",
"J  c #82653D",
"K  c #88693E",
"L  c #833E4A",
"P  c #8D3D4B",
"I  c #913E4E",
"U  c #813D54",
"Y  c #923F50",
"T  c #8B434E",
"R  c #834448",
"E  c #92414E",
"W  c #82584B",
"Q  c #8E4452",
"!  c #8A4457",
"~  c #964353",
"^  c #9C4555",
"/  c #9F4858",
"(  c #805F50",
")  c #B34D42",
"_  c #A55044",
"`  c #A14557",
"'  c #A14658",
"]  c #A44D5A",
"[  c #A94E5C",
"{  c #AD505F",
"}  c #B85C4D",
"|  c #826642",
" . c #856A42",
".. c #8C6D43",
"X. c #856D48",
"o. c #8C6E48",
"O. c #8C714B",
"+. c #8A7247",
"@. c #917245",
"#. c #826452",
"$. c #896254",
"%. c #816A54",
"&. c #8C6B56",
"*. c #8D6D5A",
"=. c #8B645D",
"-. c #95635F",
";. c #936E5B",
":. c #906D57",
">. c #94715C",
",. c #9A7A5F",
"<. c #98755F",
"1. c #A76652",
"2. c #BE6150",
"3. c #B5765C",
"4. c #B45463",
"5. c #B95667",
"6. c #BC5B69",
"7. c #B95A68",
"8. c #A95462",
"9. c #9B7660",
"0. c #957D64",
"q. c #9E7B62",
"w. c #857978",
"e. c #A57F64",
"r. c #BC7A60",
"t. c #BC6370",
"y. c #BC777C",
"u. c #B4787F",
"i. c #B9636C",
"p. c #C15246",
"a. c #C4594A",
"s. c #D25A4E",
"d. c #DD5D50",
"f. c #C16754",
"g. c #C35B6C",
"h. c #C4636E",
"j. c #C46471",
"k. c #CD6572",
"l. c #CC6976",
"z. c #C66976",
"x. c #D56C7A",
"c. c #D96A7A",
"v. c #D36976",
"b. c #DD707C",
"n. c #E5717F",
"m. c #9A8265",
"M. c #958779",
"N. c #9B957E",
"B. c #A68364",
"V. c #AA8466",
"C. c #AC8269",
"Z. c #AB886B",
"A. c #B28E6D",
"S. c #BE8C6B",
"D. c #B5916E",
"F. c #BA966E",
"G. c #B69472",
"H. c #BA9572",
"J. c #BD9974",
"K. c #BE9C79",
"L. c #B59977",
"P. c #C29D77",
"I. c #C39E7A",
"U. c #C5A27B",
"Y. c #CBA57C",
"T. c #CEA87E",
"R. c #D1AA7F",
"E. c #3E538C",
"W. c #EB7583",
"Q. c #F27A89",
"!. c #8C8684",
"~. c #918582",
"^. c #91918C",
"/. c #9B9896",
"(. c #A98A86",
"). c #BB9E82",
"_. c #A39D9B",
"`. c #BC9E9E",
"'. c #B79699",
"]. c #A7978D",
"[. c #BCA186",
"{. c #B2A498",
"}. c #B4AAA3",
"|. c #B8B4AE",
" X c #BEBFB9",
".X c #CEA980",
"XX c #CBA780",
"oX c #D2AA80",
"OX c #E0B88A",
"+X c #C2B9B4",
"@X c #DCD9D4",
"#X c #E3E2DD",
"$X c None",
/* pixels */
"$X$X$X$X$X$X$X$X$X$X$X$X$X$X$X$X$X$X$X$X$X$X$X$X$X$X$X$X$X$X$X$X$X$X$X$X$X$X$X$X$X$X$X$X$X$X$X$X$X$X$X$X$X$X$X$X$X$X$X$X$X$X$X$X",
"$X$X$X$X$X$X$X$X$X$X$X$X$X$X$X$X$X$X$X$X$X$X$X$X$X$X$X$X$X$X$X$X$X$X$X$X$X$X$X$X$X$X$X$X$X$X$X$X$X$X$X$X$X$X$X$X$X$X$X$X$X$X$X$X",
"$X$X$X$X$X$X$X$X$X$X$X$X$X$X$X$X$X$X$X$X$X$X$X$X$X$X$X$X$X$X$X$X$X$X$X$X$X$X$X$X$X$X$X$X$X$X$X$X$X$X$X$X$X$X$X$X$X$X$X$X$X$X$X$X",
"$X$X$X$X$X$X$X$X$X$X$X$X$X$X$X$X$X$X$X$X$X$X$X$X$X$X$X$X$X$X$X$X$X$X$X$X$X$X$X$X$X$X$X$X$X$X$X$X$X$X$X$X$X$X$X$X$X$X$X$X$X$X$X$X",
"$X$X$X$X$X$X$X$X$X$X$X$X$X$X$X$X$X$X$X$X$X$X$X$X$X$X$X$X$X$X$X$X$X$X$X$X$X$X$X$X$X$X$X$X$X$X$X$X$X$X$X$X$X$X$X$X$X$X$X$X$X$X$X$X",
"$X$X$X$X$X$X$X$X$X$X$X$X$X$X$X$X$X$X$X$X$X$X$X$X$X$X$X$X$X$X$X$X$X$X$X$X$X$X$X$X$X$X$X$X$X$X$X$X$X$X$X$X$X$X$X$X$X$X$X$X$X$X$X$X",
"$X$X$X$X$X$X$X$X$X$X$X$X$X$X$X$X$X$X$X$X$X$X$X$X$X$X$X$X$X$X$X$X$X$X$X$X$X$X$X$X$X$X$X$X$X$X$X$X$X$X$X$X$X$X$X$X$X$X$X$X$X$X$X$X",
"$X$X$X$X$X$X$X$X$X$X$X$X$X$X$X$X$X$X$X$X$X$X$X$X$X$X$X$X$X$X$X$X$X$X$X$X$X$X$X$X$X$X$X$X$X$X$X$X$X$X$X$X$X$X$X$X$X$X$X$X$X$X$X$X",
"$X$X$X$X$X$X$X$X$X$X$X$X$X$X$X$X$X$X$X$X$X$X$X$X$X$X$X$X$X$X$X$X$X$X$X$X$X$X$X$X$X$X$X$X$X$X$X$X$X$X$X$X$X$X$X$X$X$X$X$X$X$X$X$X",
"$X$X$X$X$X$X$X$X$X$X$X$X$X$X$X$X$X$X$X$X$X$X$X$X$X$X$X$X$X$X$X$X$X$X$X$X$X$X$X$X$X$X$X$X$X$X$X$X$X$X$X$X$X$X$X$X$X$X$X$X$X$X$X$X",
"$X$X$X$X$X$X$X$X$X$X$X$X$X$X$X$X$X$X$X$X$X$X$X$X$X$X$X$X$X$X$X$X$X$X$X$X$X$X$X$X$X$X$X$X$X$X$X$X$X$X$X$X$X$X$X$X$X$X$X$X$X$X$X$X",
"$X$X$X$X$X$X$X$X$X$X$X$X$X$X$X$X$X$X$X$X$X$X$X$X$X$X$X$X$X$X$X$X$X$X$X$X$X$X$X$X$X$X$X$X$X$X$X$X$X$X$X$X$X$X$X$X$X$X$X$X$X$X$X$X",
"$X$X$X$X$X$X$X$X$X$X$X$X$X$X$X$X$X$X$X$X$X$X$X$X$X$X$X$X$X$X$X$X$X$X$X$X$X$X$X$X$X$X$X$X$X$X$X$X$X$X$X$X$X$X$X$X$X$X$X$X$X$X$X$X",
"$X$X$X$X$X$X$X$X$X$X$X$X$X$X$X$X$X$X$X$X$X$X$X$X$X$X$X$X$X$X$X$X$X$X$X$X$X$X$X$X$X$X$X$X$X$X$X$X$X$X$X$X$X$X$X$X$X$X$X$X$X$X$X$X",
"$X$X$X$X$X$X$X$X$X$X$X$X$X$X$X$X$X$X$X$X$X$X$X$X$X$X$X$X$X$X$X$X$X$X$X$X$X$X$X$X$X$X$X$X$X$X$X$X$X$X$X$X$X$X$X$X$X$X$X$X$X$X$X$X",
"$X$X$X$X$X$X$X$X$X$X$X$X$X$X$X$X$X$X$X$X$X$X$X$X$X$X$X$X$X$X$X$X$X$X$X$X$X$X$X$X$X$X$X$X$X$X$X$X$X$X$X$X$X$X$X$X$X$X$X$X$X$X$X$X",
"$X$X$X$X$X$X$X$X$X$X$X$X$X$X$X$X$X$X$X$X$X$X$X$X$X$X$X$X$X$X$X$X$X$X$X$X$X$X$X$X$X$X$X$X$X$X$X$X$X$X$X$X$X$X$X$X$X$X$X$X$X$X$X$X",
"$X$X$X$X$X$X$X$X$X$X$X$X$X$X$X$X$X$X$X$X$X$X$X$X$X$X$X$X$X$X$X$X$X$X$X$X$X$X$X$X$X$X$X$X$X$X$X$X$X$X$X$X$X$X$X$X$X$X$X$X$X$X$X$X",
"$X$X$X$X$X$X$X$X$X$X$X$X$X$X$X$X$X$X$X$X$X$X$X$X$X$X$X$X$X$X$X$X$X$X$X$X$X$X$X$X$X$X$X$X$X$X$X$X$X$X$X$X$X$X$X$X$X$X$X$X$X$X$X$X",
"$X$X$X$X$X$X$X$X$X$X$X$X$X$X$X$X$X$X$X$X$X$X$X$X$X$X$X$X$X$X$X$X$X$X$X$X$X$X$X$X$X$X$X$X$X$X$X$X$X$X$X$X$X$X$X$X$X$X$X$X$X$X$X$X",
"$X$X$X$X$X$X$X$X$X$X$X$X$X$X$X$X$X$X$X$X$X$X$X$X$X$X$X$X$X$Xl.j.j.$X$X$X$X$X$X$X$X$X$X$X$X$X$X$X$X$X$X$X$X$X$X$X$X$X$X$X$X$X$X$X",
"$X$X$X$X$X$X$X$X$X$X$X$X$X$X$X$X$X$X$X$X$X$X$X$X$X$Xt.x.W.k.W.c.c.c.x.7.Q $X$X$X$X$X$X$X$X$X$X$X$X$X$X$X$X$X$X$X$X$X$X$X$X$X$X$X",
"$X$X$X$X$X$X$X$X$X$X$X$X$X$X$X$X$X$X$X$X$X$X$X$X$Xc.W.c.v.x.x.x.c.c.x.v.{ ~ $X$X$X$X$X$X$X$X$X$X$X$X$X$X$X$X$X$X$X$X$X$X$X$X$X$X",
"$X$X$X$X$X$X$X$X$X$X$X$X$X$X$X$X$X$X$X$X| q ..$Xc.W.x.c.c.c.v.W.c.c.c.k.4.^ L $X7 N w $X$Xc $X$X$X$X$X$X$X$X$X$X$X$X$X$X$X$X$X$X",
"$X$X$X$X$X$X$X$X$X$X$X$X$X$X$X$X$XB $X$XX.w @.1 Q.W.c.c.c.c.c.c.c.c.c.c.k.5.L $Xw w o.$XX.0 c $X$X$X$X$X$X$X$X$X$X$X$X$X$X$X$X$X",
"$X$X$X$X$X$X$X$X$X$X$X$X$X$X$X- N | $X$X$Xw @.6 c.c.c.c.c.c.c.c.c.c.c.c.c.5.~ $Xw w X.$X..9 @.9 $X$X$X$X$X$X$X$X$X$X$X$X$X$X$X$X",
"$X$X$X$X$X$X$X$X$X$X$X$X$X$X$X3 ..0 O.$X$X .J 6 j.c.c.c.c.l.`.v.c.y.'.v.c.7.Q $Xe w ..$XO.8  .8 6 $X$X$X$X$X$X$X$X$X$X$X$X$X$X$X",
"$X$X$X$X$X$X$X$X$X$X$X$X$X$X$X6 w 9 O.$X$XK w 1 x.c.c.c.c.`.#X+Xu.@X#Xy.c.5.Q $X9 0 ..| ..7 w 0 $X$X$X$X$X$X$X$X$X$X$X$X$X$X$X$X",
"$X$X$X$X$X$X$X$X$X$X$X$X$X$X$X$X7 ..9 | | K w $Xx.x.c.c.c.t._. X X X(.l.c.4.Q $X, K K K J J 3 9 $X$X$X$X$X$X$X$X$X$X$X$X$X$X$X$X",
"$X$X$X$X$X$X$X$X$X$X$X$X$X$X$X$Xq 9 ....@.w 5 $Xj.c.c.g.{ ' T M.^.w.^ ] 5.4.Q $X$X5  .@...J 0 , $X$X$X$X$X$X$X$X$X$X$X$X$X$X$X$X",
"$X$X$X$X$X$X$X$X$X$X$X$X$X$X$X$X$X5 7 q 3 8 $X$X$Xh.] { 6.6.h.j.k.h.6.4.] I L $X$X$XM.5 4 3 < $X$X$X$X$X$X$X$X$X$X$X$X$X$X$X$X$X",
"$X$X$X$X$X$X$X$X$X$X$X$X$X$X$X$X$X$X$X$X$XN 4 $Xt.k.l.4.[ ] / ^ ^ ^ / [ 4.h.~ ! $XN ^.$X$X$X$X$X$X$X$X$X$X$X$X$X$X$X$X$X$X$X$X$X",
"$X$X$X$X$X$X$X$X$X$X$X$X$X$X$X$X$X$X$X$X$X$XW b.g.^ ~ ' / ^ Q L T ~ ' ' ' E I I ~ 2 1 $X$X$X$X$X$X$X$X$X$X$X$X$X$X$X$X$X$X$X$X$X",
"$X$X$X$X$X$X$X$X$X$X$X$X$X$X$X$X$X$X$X$X$X$Xb.] ^ ` ^ E l x &.9.;.&.x l a I ' ^ P Y i $X$X$X$X$X$X$X$X$X$X$X$X$X$X$X$X$X$X$X$X$X",
"$X$X$X$X$X$X$X$X$X$X$X$X$X$X$X$X$X$X$X$X$Xl.' ' ` ` R v &.;.:.V.V.9.*.;.#.R I ' ' P Q $X$X$X$X$X$X$X$X$X$X$X$X$X$X$X$X$X$X$X$X$X",
"$X$X$X$X$X$X$X$X$X$X$X$X$X$X$X$X$X$X$X$X$X8.' ' ' E $.<.(.}.[.R..XY.{._.*.:.p I ' ^ p $X$X$X$X$X$X$X$X$X$X$X$X$X$X$X$X$X$X$X$X$X",
"$X$X$X$X$X$X$X$X$X$X$X$X$X$X$X$X$X$X$X$X$XL ' ' ' R q.K._.X }.U.P.[.!.; ].;.W Y I ' i $X$X$X$X$X$X$X$X$X$X$X$X$X$X$X$X$X$X$X$X$X",
"$X$X$X$X$X$X$X$X$X$X$X$X$X$X$X$X$X$X$X$X$X$X~ P ' E H.Y.|._.{.D S m |._.0.9.Q ' ^ Q $X$X$X$X$X$X$X$X$X$X$X$X$X$X$X$X$X$X$X$X$X$X",
"$X$X$X$X$X$X$X$X$X$X$X$X$X$X$X$X$X$X$X$X$X$X$XQ ~ ' r..XY.P.XXM.E.F Y.P.>.$.Q T $X$X$X$X$X$X$X$X$X$X$X$X$X$X$X$X$X$X$X$X$X$X$X$X",
"$X$X$X$X$X$X$X$X$X$X$X$X$X$X$X$X$X$X$X$X$X$X$X$X$X$X=..XR.oX.XR.B..XoXoXq.$X$X$X$X$X$X$X$X$X$X$X$X$X$X$X$X$X$X$X$X$X$X$X$X$X$X$X",
"$X$X$X$X$X$X$X$X$X$X$X$X$X$X$X$X$X$X$X$X$X$X$X$X$X$X$X$XP.J.1._ ) G e.P.z $X$X$X$X$X$X$X$X$X$X$X$X$X$X$X$X$X$X$X$X$X$X$X$X$X$X$X",
"$X$X$X$X$X$X$X$X$X$X$X$X$X$X$X$X$X$X$X$X$X$X$X$X$X$XL.J.A.G.1.p.a._ A.v $X$X$X$X$X$X$X$X$X$X$X$X$X$X$X$X$X$X$X$X$X$X$X$X$X$X$X$X",
"$X$X$X$X$X$X$X$X$X$X$X$X$X$X$X$X$X$X$X$X$X$X$X$X$XU.R.T.R.H.3.d.d.p.I.>.#.A $X$X$X$X$X$X$X$X$X$X$X$X$X$X$X$X$X$X$X$X$X$X$X$X$X$X",
"$X$X$X$X$X$X$X$X$X$X$X$X$X$X$X$X$X$X$X$X$X$X$X$XU.H.U.T.R.J.S.d.d.a.F.R.*.9.q.$X$X$X$X$X$X$X$X$X$X$X$X$X$X$X$X$X$X$X$X$X$X$X$X$X",
"$X$X$X$X$X$X$X$X$X$X$X$X$X$X$X$X$X$X$X$X$X$X$XI.>.$XU.V.R.Y.D.s.d.f.F.Y.#.m.oXY.%.$X$X$X$X$X$X$X$X$X$X$X$X$X$X$X$X$X$X$X$X$X$X$X",
"$X$X$X$X$X$X$X$X$X$X$X$X$X$X$X$X$X$X$X$X$X$XK.$X$X$XY.B.oXR.H.2.d.r.G.H.b $X$XXXH.A $X$X$X$X$X$X$X$X$X$X$X$X$X$X$X$X$X$X$X$X$X$X",
"$X$X$X$X$X$X$X$X$X$X$X$X$X$X$X$X$X$X$X$XL.P.M $X$X$XoX,.G.T.F.S.} P.F.q.#.#.$X$XU.Y.q.$X$X$X$X$X$X$X$X$X$X$X$X$X$X$X$X$X$X$X$X$X",
"$X$X$X$X$X$X$X$X$X$X$X$X$X$X$X$X$X$X$Xm.G.%.$X$X$X$XR.P.#.D.R.A..XD.oX,.:.#.$X$XL.K.U.M $X$X$X$X$X$X$X$X$X$X$X$X$X$X$X$X$X$X$X$X",
"$X$X$X$X$X$X$X$X$X$X$X$X$X$X$X$X$X$Xj Z C ; $X$X$X$XoXoXY.P.Y.Y.J.Y.Y..XB.*.$X$X$Xo z f $X$X$X$X$X$X$X$X$X$X$X$X$X$X$X$X$X$X$X$X",
"$X$X$X$X$X$X$X$X$X$X$X$X$X$X$X$X$X$X$X: g o $X$X$XJ.oXoXR.R.R.R.R.R.oXR.G.>.$X$X$X$Xg : $X$X$X$X$X$X$X$X$X$X$X$X$X$X$X$X$X$X$X$X",
"$X$X$X$X$X$X$X$X$X$X$X$X$X$X$X$X$X$X$X$X$X$X$X$X$X-.OXoXoXoXoXoXR.oXoXR.H.v . $X$X$X$X$X$X$X$X$X$X$X$X$X$X$X$X$X$X$X$X$X$X$X$X$X",
"$X$X$X$X$X$X$X$X$X$X$X$X$X$X$X$X$X$X$X$X$X$X$X$X$Xu -.H.oXoXoXoXoXoXR..XV + . $X$X$X$X$X$X$X$X$X$X$X$X$X$X$X$X$X$X$X$X$X$X$X$X$X",
"$X$X$X$X$X$X$X$X$X$X$X$X$X$X$X$X$X$X$X$X$X$X$X$X$Xn s U y ( 9.C.V.e.;.= +   . $X$X$X$X$X$X$X$X$X$X$X$X$X$X$X$X$X$X$X$X$X$X$X$X$X",
"$X$X$X$X$X$X$X$X$X$X$X$X$X$X$X$X$X$X$X$X$X$X$X$X$X$X! u r u t t r t r r #   $X$X$X$X$X$X$X$X$X$X$X$X$X$X$X$X$X$X$X$X$X$X$X$X$X$X",
"$X$X$X$X$X$X$X$X$X$X$X$X$X$X$X$X$X$X$X$X$X$X$X$X$X$XU u r t t t t t t t # @ $X$X$X$X$X$X$X$X$X$X$X$X$X$X$X$X$X$X$X$X$X$X$X$X$X$X",
"$X$X$X$X$X$X$X$X$X$X$X$X$X$X$X$X$X$X$X$X$X$X$X$X$Xn ! a t t r t t t t r   . $X$X$X$X$X$X$X$X$X$X$X$X$X$X$X$X$X$X$X$X$X$X$X$X$X$X",
"$X$X$X$X$X$X$X$X$X$X$X$X$X$X$X$X$X$X$X$X$X$X$X$X$Xs ! r * % $ $ $ $ $ $ + O $X$X$X$X$X$X$X$X$X$X$X$X$X$X$X$X$X$X$X$X$X$X$X$X$X$X",
"$X$X$X$X$X$X$X$X$X$X$X$X$X$X$X$X$X$X$X$X$X$X$X$X$X$Xy * # + $X$X$Xy s t # . $X$X$X$X$X$X$X$X$X$X$X$X$X$X$X$X$X$X$X$X$X$X$X$X$X$X",
"$X$X$X$X$X$X$X$X$X$X$X$X$X$X$X$X$X$X$X$X$X$X$X$X$X$X0.%.$X$X$X$X$X$Xy k ( $X$X$X$X$X$X$X$X$X$X$X$X$X$X$X$X$X$X$X$X$X$X$X$X$X$X$X",
"$X$X$X$X$X$X$X$X$X$X$X$X$X$X$X$X$X$X$X$X$X$X$X$X$X$XI.>.$X$X$X$X$X$X$X$X.XA $X$X$X$X$X$X$X$X$X$X$X$X$X$X$X$X$X$X$X$X$X$X$X$X$X$X",
"$X$X$X$X$X$X$X$X$X$X$X$X$X$X$X$X$X$X$X$X$X$X$X$X$XXX.XA.b $X$X$X$X$X$X$XoXA.A $X$X$X$X$X$X$X$X$X$X$X$X$X$X$X$X$X$X$X$X$X$X$X$X$X",
"$X$X$X$X$X$X$X$X$X$X$X$X$X$X$X$X$X$X$X$X$X$X$X$Xz m.m.A.v $X$X$X$X$X$X$XoXG.<.Z $X$X$X$X$X$X$X$X$X$X$X$X$X$X$X$X$X$X$X$X$X$X$X$X",
"$X$X$X$X$X$X$X$X$X$X$X$X$X$X$X$X$X$X$X$X$X$X$X$Xd j o h $X$X$X$X$X$X$X$X0.d C < j $X$X$X$X$X$X$X$X$X$X$X$X$X$X$X$X$X$X$X$X$X$X$X",
"$X$X$X$X$X$X$X$X$X$X$X$X$X$X$X$X$X$X$X$X$X$X$X$X$X$X$X$X$X$X$X$X$X$X$X$X$Xo d d $X$X$X$X$X$X$X$X$X$X$X$X$X$X$X$X$X$X$X$X$X$X$X$X"
};
