/* XPM */
static char *result[] = {
/* columns rows colors chars-per-pixel */
"64 64 73 1 ",
"  c #010101",
". c #060B0B",
"X c #0B0B0B",
"o c #0B1415",
"O c #0E1A1B",
"+ c #131313",
"@ c #141B1C",
"# c #1B1B1B",
"$ c #101F20",
"% c #142426",
"& c #162729",
"* c #16282A",
"= c #192A2C",
"- c #1D3235",
"; c #1F3639",
": c #1F383B",
"> c #252525",
", c #2B2B2B",
"< c #213B3E",
"1 c #343434",
"2 c #3C3C3C",
"3 c #223D40",
"4 c #254145",
"5 c #274548",
"6 c #28474B",
"7 c #2A4B4E",
"8 c #2C4F52",
"9 c #2E5256",
"0 c #2F5358",
"q c #30565A",
"w c #355E63",
"e c #39666B",
"r c #3E6D73",
"t c #3F7076",
"y c #444444",
"u c #4C4C4C",
"i c #545454",
"p c #5B5B5B",
"a c #41747A",
"s c #646464",
"d c #6B6B6B",
"f c #737373",
"g c #7B7B7B",
"h c #477E84",
"j c #4A848B",
"k c #4E8990",
"l c #508E95",
"z c #54949C",
"x c #599EA6",
"c c #5DA4AD",
"v c #62ADB6",
"b c #67B5BF",
"n c #68B7C1",
"m c #6ABCC5",
"M c #6CBEC8",
"N c #6EC2CC",
"B c #828282",
"V c gray55",
"C c #929292",
"Z c #9C9C9C",
"A c #A4A4A4",
"S c #ACACAC",
"D c #B4B4B4",
"F c #BCBCBC",
"G c #C3C3C3",
"H c #CBCBCB",
"J c #D3D3D3",
"K c #DCDCDC",
"L c #E3E3E3",
"P c #ECECEC",
"I c #F3F3F3",
"U c #FFFFFF",
"Y c None",
/* pixels */
"YYYYYYYYYYYYYYYYYYYYYYYYYYYYYYYYYYYYYYYYYYYYYYYYYYYYYYYYYYYYYYYY",
"YYYYYYYYYYYYYYYYYYYYYYYYYY  YYYYY YYYYYYYYYYYYYYYYYYYYYYYYYYYYYY",
"YYYYYYYYYYYYYYYYYYYYYYYYYYY&.YYYY.$YYY $YYYYYYYYYYYYYYYYYYYYYYYY",
"YYYYYYYYYYYYYYYYYYYYYYYYYYY4z.YYY.zYYYorYYYYYYYYYYYYYYYYYYYYYYYY",
"YYYYYYYYYYYYYYYYYYYYYYYYYYY<Na YY*N4YY-v.YYYYYYYYYYYYYYYYYYYYYYY",
"YYYYYYYYYYYYYYYYYYYYYYYYYYY5NN-YY8NxYYwN*YYYYYYYYYYYYYYYYYYYYYYY",
"YYYYYYYYYYYYYYYYYYYYYYYYYYYqNNc.YjNN<.zNqYYYYYYYYYYYYYYYYYYYYYYY",
"YYYYYYYYYYYYYYYYYYYYYYYYYY aNNN8ONNM9 54= YYYYYYYYYYYYYYYYYYYYYY",
"YYYYYYYYYYYYYYYYYYYYYYYYYY xNNNbhNj;hnj5;  YYYYYYYYYYYYYYYYYYYYY",
"YYYYYYYYYYYYYYYYYYYYYYYYYYoNNNNNN0eNb3rMM YYYYYYYYYYYYYYYYYYYYYY",
"YYYYYYYYYYYYYYYYYYYYYYYYYY9NNNNN7jNn;cNNNOYYYYYYYYYYYYYYYYYYYYYY",
"YYYYYYYYY#yyXYYYYYYYYYYYY xNNNNqjNN7cNNNN=YYYYYYYYYYXXYYYYYYYYYY",
"YYYYYYYYyPUUL1YYYYYYYYYYY;NNNNkwNNleNNNNN;YYYYYYYY.sDDu YYYYYYYY",
"YYYYYYYXLUUUUS.YYYYYYYYY zNNNn<NNN3MNNNNN4YYYYYYY.AUUUU,YYYYYYYY",
"YYYYYYYpUUUUUH+YYYYYYYYY3NNkw=O%=;*kMNNNN6YYYYYYY2UUUUUdYYYYYYYY",
"YYYYYYXCUUUUUG+YYYYYYYY.z9.,sVS,DVd1.8cNN5YYYYYYYdUUUUUfYYYYYYYY",
"YYYY pKUUUUUUAYYYYYYYY.o#gKUUUU1UUUUPV>9b4YYYYYYYiUUUUUV1XYYYYYY",
"YYYYpUUUUUUUUyYYYYYYYY.gIUUUUUU,fBDIUUUZ=@YYYYYYY+IUUUUUUUg YYYY",
"YYY+GUUUUUUUUiYYYYYYY>JUUUUUUUU,   .iFUUPyYYYYYYYXfUUUUUUUUyYYYY",
"YYYXGUUUUUUUUIiYYYYY1PUUUUUUUUU>      yLUUsYYYYYY>JUUUUUUUUgYYYY",
"YYYYsUUUUUSIUUUpXYY,IUUUUUUUUUU>       XDUUpYYYX,LUUUUUUUUUdYYYY",
"YYYY fGFg>XyIUUUpX+LUUUUUUUUUUU,         AUU1Y yIUUUULUUUUP#YYYY",
"YYYYYY. YYYYyIUUU,ZUUUUUUUUUUUU>         .GUKXiIUUUUi uCDC>YYYYY",
"YYYYYYYYYYYYY2IUG1UUUUUUUUUUUUU>          #IUgVUUUP2YYYY.YYYYYYY",
"YYYYYYYYYYYYYY2IuAUUUUUUUUUUUUU, 1+ >, Xy  gUP>UUK,YYYYYYYYYYYYY",
"YYYYYYYYYYYYYYY2+UUUUUUUUUUUUUU>iUJ PU,ZUg +IUsDJ>YYYYYYYYYYYYYY",
"YYYYYYYYYYYYYYYYiUUUUUUUUUUUUUU>,PZ GL#dIi  SUS2+YYYYYYYYYYYYYYY",
"YYYYYYYYYYYYYYY CUUUUUUUUUUUUUU,            sUP.YYYYYYYYYYYYYYYY",
"YYYYYYYYYYYYYYY.FUUUUUUUUUUUUUU>            1UU+YYYYYYYYYYYYYYYY",
"YYYYYYYYYYYYYYY HUUUUUUUUUUUUUU>            XUU1YYYYYYYYYYYYYYYY",
"YYYYYYYYYYYYYYY HUUPUUUUUUUUUUU,            .UU1YYYYYYYYYYYYYYYY",
"YYYYYYYYYYYYYYY GUUAdIUUUUUUUUU>            +UU,YYYYYYYYYYYYYYYY",
"YYYYYYYYYYYYYYYXAUULpyGUUUUUUUU>        +p  2UUXYYYYYYYYYYYYYYYY",
"YYYYYYYYYYYYYYY fUUUsPipKUUUUUU>       2Lu  dUK+YYYYYYYYYYYYYYYY",
"YYYYYYYYYYYYYYYY1UUUVGUD1iSIUUU>     >AUJ   FUZYYYYYYYYYYYYYYYYY",
"YYYYYYYYYYYYYYYY LUUPyIUUHfy2yuX .,sDUUUy  #UUuYYYYYYYYYYYYYYYYY",
"YYYYYYYYYYYYYYYY gUUUDiUUUUP2FU> 1PUUUUd   CULXYYYYYYYYYYYYYYYYY",
"YYYYYYYYYYYYYYYYYXPUUUAyAFgyHUU>  XgGDy   ,UUsYYYYYYYYYYYYYYYYYY",
"YYYYYYYYYYYYYYYYYYpUUUUPSZHUUUK#         XJUH YYYYYYYYYYYYYYYYYY",
"YYYYYYYYYYYYYYYYYY SUUUUUUUUUA.dB.      .FUI,YYYYYYYYYYYYYYYYYYY",
"YYYYYYYYYYYYYYYYYYY+HUUUUUUUA  BUD.    +GUUuYYYYYYYYYYYYYYYYYYYY",
"YYYYYYYYYYYYYYYYYYYY+GUUUUUPX  BUUg   uLUUuYYYYYYYYYYYYYYYYYYYYY",
"YYYYYYYYYYYYYYYYYYYYYXZUUUUJ.  gIGy.iGUUL1YYYYYYYYYYYYYYYYYYYYYY",
"YYYYYYYYYYYYYYYYYYYYYY.uKUUULCg#fBDIUUUCXYYYYYYYYYYYYYYYYYYYYYYY",
"YYYYYYYYYYYYYYYYYYYYYY ,.pGUUUU1UUUUPV>+.YYYYYYYYYYYYYYYYYYYYYYY",
"YYYYYYYYYYYYYYYYYYYYY#+PKf>#iBA>DVf1yCLD+#YYYYYYYYYYYYYYYYYYYYYY",
"YYYYYYYYYYYYYYYYYYYY,C1IUUBAFZV>CSJyLUUU#G>YYYYYYYYYYYYYYYYYYYYY",
"YYYYYYYYYYYYYYYYYYY,Pf1>DUpJUUU1UUUfFUJp DL,YYYYYYYYYYYYYYYYYYYY",
"YYYYYYYYYYYYYYYYYY1PU1LGy,#KUUU1UUUVuy>VZBUP1YYYYYYYYYYYYYYYYYYY",
"YYYYYYYYYYYYYYYYYyUUU+UUUJ#2#up+py>11HUUJdUUI1YYYYYYYYYYYYYYYYYY",
"YYYYYYYYYX>ff#YYpUUUK,PUUKyUULH,HIUP2UUUPyUUUIuYY.X+.YYYYYYYYYYY",
"YYYYYYYY.gUUUUgdUUUIy>+dHFfUUUU1UUUU>ULB>+GUUUIuuFUUH1YYYYYYYYYY",
"YYYYYYYYyUUUUUUUUUL1 sPV,.1CGKI1ILHZ#,>BK.XDUUUUUUUUUK+YYYYYYYYY",
"YYYYYYYYCUUUUUUUUJ>YYuUUUKZd2,X.X,2dCKUUPXY.AUUUUUUUUU,YYYYYYYYY",
"YYYYYYYYZUUUUUUUUsYYY1UUUUUUUUUUUUUUUUUUH.YY.AUUUUUUUU,YYYYYYYYY",
"YYYYYYYYyUUUUUUUUP+YY.UUUUUUUUUUUUUUUUUUZYYY KUUUUUUUHXYYYYYYYYY",
"YYYYYYYYXyBfHUUUUU1YY KUUUUUUUUUUUUUUUUUgYYY1UUUUUKLD,YYYYYYYYYY",
"YYYYYYYYYYYXSUUUUU1YYXSUUUUdPUUUUUIGUUUUyYYYuUUUUUuXYYYYYYYYYYYY",
"YYYYYYYYYYYYsUUUULXYYYfUUUg iUUUUUp+KUUUXYYY,UUUUUyYYYYYYYYYYYYY",
"YYYYYYYYYYYYXZUUP1YYYY,UUA Y.ZUUUC Y,IUHXYYYXAUUUKXYYYYYYYYYYYYY",
"YYYYYYYYYYYYY.X>XYYYYY LGXYYYXKUH.YY uUBYYYYY.dSZ>YYYYYYYYYYYYYY",
"YYYYYYYYYYYYYYYYYYYYYYXd+YYYYY1P#YYYY g,YYYYYYYYYYYYYYYYYYYYYYYY",
"YYYYYYYYYYYYYYYYYYYYYYY YYYYYY #.YYYYY  YYYYYYYYYYYYYYYYYYYYYYYY",
"YYYYYYYYYYYYYYYYYYYYYYYYYYYYYYY YYYYYYYYYYYYYYYYYYYYYYYYYYYYYYYY"
};
