/* XPM */
static char *result[] = {
/* columns rows colors chars-per-pixel */
"64 64 16 1 ",
"  c #000063",
". c #9C2118",
"X c #FF1818",
"o c #DE4A10",
"O c #D64239",
"+ c #EF6B21",
"@ c #F79463",
"# c #E7C652",
"$ c #FFD663",
"% c #4A18F7",
"& c #5AB5E7",
"* c #9CDEFF",
"= c #C6EFFF",
"- c #E7E7E7",
"; c white",
": c None",
/* pixels */
":::::::::::::::::::::::::       ::::::::::::::::::::::::::::::::",
"::::::::::::::::::::::::         :::::::::::::::::::::::::::::::",
"::::::::::::::::::::::::         :::::::::::::::::::::::::::::::",
":::::::::::::::::::::::::       ::::::::::::::::::::::::::::::::",
"::::::::::::::::::::::::::    ::::::::::::::::::::::::::::::::::",
"::::::::::::::::::::::   ::: ; :::::::::::::::::::::::::::::::::",
":::::::::::::::::::::      :: ; ::::::::::::::::::::::::::::::::",
"::::::::::::::::::::        :        :::::::::::::::::::::::::::",
"::::::::::::::::::::::         -   -   :::::::::::::::::::::::::",
":::::::::::::::::  :        *   -   - *  :::::::::::::::::::::::",
":::::::::::::::::          ****      **&&  :::::::::::::::::::::",
":::::::::::::::::     **     ***********  & ::::::::::::::::::::",
":::::::::::::  :      *&   $$  *******  $$  ::::::::::::::::::::",
":::::::::::::           *  $  # ***** $  $  ::::::::::::::::::::",
":::::::::::::          = - $$$$ ***** $$$$ - :::::::::::::::::::",
"::::::::::::::::      = - *   $$ *** $$   * - ::::::::::::::::::",
":::::::::  :::       = - * ;    *****  ;  **  ::::::::::::::::::",
"::::::::    :::     = - ** ;  ******** ;  ** - :::::::::::::::::",
"::::::::           = -- ***  **********  **** - ::::::::::::::::",
"::::::::          = -- *****  *********  **** - ::::::::::::::::",
":::::::::           -- **** ;; ******* ;; ***  -   :::::::::::::",
":::::::        OOOO   ***** ;;; ****** ;; ****& ... ::::::::::::",
":::::::        OOOOO OO*** ;;          ;;; **O OOOO. :::::::::::",
":::::::         OOOO **O**   **********    *O* OOOO  :::::::::::",
"::::::::     OOOOOOOO O** ********  ****** **O OOOOO. ::::::::::",
":::::::        OOOOOO *O*********     ******O OOOOO   ::::::::::",
":::::::     OOO.....O O*********      ******* O...... ::::::::::",
"::::::      ...     .  **********    *******O .      :::::::::::",
"::::::     .   @++o     ************ ********  +o o O ::::::::::",
":::::::     .. @++o ++   *******************  ++o +o O :::::::::",
":::::::     . @++++o ++   ********X**X*****   ++o +  O :::::::::",
"::::::::  . . @ +++o +++    ******XX*X*X**   ++++o  ; O ::::::::",
"::::::::: .  @   ++o +++++    **X********   +++++o ;  O ::::::::",
":::::::: O .   ;  ++o +++ ++    X*XXXXX*   ++++++o  ; OO :::::::",
":::::::: . .  ; ;  +o ++   ++     XXXX    +++++++o   ; O :::::::",
"::::::: O.   ; ; ;  o +  ;  +++     X    ++ ++++++o    O :::::::",
"::::::: . . ; ; ; ;     ; ;  ++++      +++   +++++o +   O ::::::",
"::::::: . .  ; ; ;  o  ; ; ;  +++++   +++  ;  ++++o +o  O ::::::",
":::::: O. .   ; ;  +o ; ; ; ;  +++   +++  ; ;  +++o ++ .  ::::::",
":::::: O. . @  ;  ++o  ; ; ;  ++    +++  ; ; ;  ++o ++o .  :::::",
":::::: O. . @+   +++o   ; ;  ++    +++  ; ; ; ;  +o ++o .  :::::",
":::::: O.  @+++ ++++o o  ;  oo   oooooo  ; ; ;  ooo ++o .. :::::",
"::::: OO.  oo+++++++o                              ++oo .. :::::",
"::::: O. .   ooooooo  %%%%%%%%% % %% % %%%%%%%%%%% oo   ... ::::",
"::::: .  ....                  %%    %               & .... ::::",
":::::  . .... =&&&&& +++++  ++ %% %  %% + ; ; ; ;  &&*& ... ::::",
"::::: O. .... =*****& ++++  + %%% %  %% +  ; ; ;   ***& ... ::::",
"::::: O. .... =*****& ++++       %      ++  ; ;  o ***& ... ::::",
"::::: O. .... =*****& +++++  ++ % + % +++++  ;  o ****& ... ::::",
"::::: O. .... =*****& ++++++  +   ++  ++++++   +o ****& ... ::::",
"::::: O. ..... &&&&& ooooooo  ooooooooooooooo ooo &&&& .... ::::",
"::::: O. ......                                       ..... ::::",
"::::: .. .............. & .................. & ............ ::::",
":::::   :   ......    . * .................. * .  ......... ::::",
"::::::::::::      :::: *o* ......    ....    ** ::          ::::",
"::::::::::::::::::::  $$$$       ::::    ::: $$$  ::::::::::::::",
"::::::::::::::::::::       :::::::::::::::::      ::::::::::::::",
"::::::::::::::::::::::::::::::::::::::::::::::::::::::::::::::::",
"::::::::::::::::::::::::::::::::::::::::::::::::::::::::::::::::",
"::::::::::::::::::::::::::::::::::::::::::::::::::::::::::::::::",
"::::::::::::::::::::::::::::::::::::::::::::::::::::::::::::::::",
"::::::::::::::::::::::::::::::::::::::::::::::::::::::::::::::::",
"::::::::::::::::::::::::::::::::::::::::::::::::::::::::::::::::",
"::::::::::::::::::::::::::::::::::::::::::::::::::::::::::::::::"
};
