/* XPM */
static char *result[] = {
/* columns rows colors chars-per-pixel */
"32 32 162 2 ",
"   c black",
".  c #343434",
"X  c #3C3C3C",
"o  c gray24",
"O  c #5B5B5B",
"+  c #797979",
"@  c #900A00",
"#  c #900B00",
"$  c #931000",
"%  c #981800",
"&  c #9A1E00",
"*  c #86240B",
"=  c #9E2602",
"-  c #9E2702",
";  c #9F2702",
":  c #9F2C04",
">  c #A32C00",
",  c #A63200",
"<  c #A83602",
"1  c #AD4100",
"2  c #AE4000",
"3  c #B14300",
"4  c #B24900",
"5  c #B44C00",
"6  c #B44C02",
"7  c #B35708",
"8  c #AC5113",
"9  c #B3671C",
"0  c #936C2B",
"q  c #C26401",
"w  c #CE7901",
"e  c #CC7907",
"r  c #D68701",
"t  c #C39303",
"y  c #D2900E",
"u  c #CE8D1D",
"i  c #CE901D",
"p  c #D6A702",
"a  c #E1A20D",
"s  c #E1A40D",
"d  c #E3A50F",
"f  c #E4A60E",
"g  c #E4A70E",
"h  c #E7AD0D",
"j  c #EFB90F",
"k  c #F1B808",
"l  c #F0BD08",
"z  c #E3A410",
"x  c #D99E23",
"c  c #CC9F35",
"v  c #D9A123",
"b  c #DBA632",
"n  c #D8A939",
"m  c #E7B421",
"M  c #E7B721",
"N  c #E0AF3B",
"B  c #EFC10F",
"V  c #F2C107",
"C  c #F3C107",
"Z  c #F4C106",
"A  c #F4C306",
"S  c #F5C605",
"D  c #F6C705",
"F  c #F4C406",
"G  c #F7CE02",
"H  c #F6CA04",
"J  c #FACD00",
"K  c #F9CD03",
"L  c #FFCD00",
"P  c #FFCE00",
"I  c #FACC07",
"U  c #FACF07",
"Y  c #F1C308",
"T  c #FAD002",
"R  c #FFD000",
"E  c #FFD200",
"W  c #FFD300",
"Q  c #FDD401",
"!  c #FFD500",
"~  c #FED401",
"^  c #FFD600",
"/  c gold",
"(  c #FED601",
")  c #FFD800",
"_  c #FCD50A",
"`  c #FFD90B",
"'  c #F2C113",
"]  c #F2C513",
"[  c #F7CE1E",
"{  c #FAD213",
"}  c #F6CD24",
"|  c #F4CC28",
" . c #F3C92D",
".. c #FCD722",
"X. c #FFDE29",
"o. c #FFDD2F",
"O. c #EFC53D",
"+. c #EFC53F",
"@. c #F1C834",
"#. c #F0C638",
"$. c #F0C738",
"%. c #EDC343",
"&. c #EEC342",
"*. c #ECC149",
"=. c #FEE144",
"-. c #FFE349",
";. c #FFE456",
":. c #FFE559",
">. c #FFE65D",
",. c #8D8D8D",
"<. c gray58",
"1. c #9A9A9A",
"2. c #A2A2A2",
"3. c gray65",
"4. c #A9A9A9",
"5. c gray67",
"6. c #ACACAC",
"7. c #B2B2B2",
"8. c gray71",
"9. c #B9B9B9",
"0. c #BCBCBC",
"q. c gray75",
"w. c #FFEB80",
"e. c #DCC9B2",
"r. c #C1C1C1",
"t. c gray76",
"y. c #C6C6C6",
"u. c #C8C8C8",
"i. c #CACACA",
"p. c gray80",
"a. c #CECECE",
"s. c #D0D0D0",
"d. c gray82",
"f. c #D2D2D2",
"g. c LightGray",
"h. c gray83",
"j. c #D5D5D5",
"k. c #D8D8D8",
"l. c gray85",
"z. c gainsboro",
"x. c gray87",
"c. c #DFDFDF",
"v. c gray88",
"b. c #E1E1E1",
"n. c #E2E2E2",
"m. c gray89",
"M. c #E4E4E4",
"N. c #E6E6E6",
"B. c gray91",
"V. c #E9E9E9",
"C. c #EAEAEA",
"Z. c gray93",
"A. c #EFEFEF",
"S. c gray94",
"D. c #F3F3F3",
"F. c #F4F4F4",
"G. c gray96",
"H. c #F6F6F6",
"J. c #FDFDFD",
"K. c #FEFEFE",
"L. c white",
"P. c None",
/* pixels */
"P.P.P.P.P.P.P.P.P.P.P.P.P.P.P.P.P.P.P.P.P.P.P.P.P.P.P.P.P.P.P.P.",
"P.P.P.P.P.P.P.P.P.P.P.P.P.P.P.P.P.P.P.P.P.P.P.P.P.P.P.P.P.P.P.P.",
"P.P.P.P.P.S.c.P.P.P.P.P.P.P.P.P.P.P.P.P.P.P.P.P.P.P.c.S.P.P.P.P.",
"P.P.P.P.z.L.B.P.P.P.P.P.P.P.P.P.P.P.P.P.P.P.P.P.P.P.B.L.z.P.P.P.",
"P.P.P.A.K.K.G.P.P.P.P.P.P.P.P.P.P.P.P.P.P.P.P.P.P.P.G.K.K.A.P.P.",
"P.P.P.x.B.G.K.b.P.P.P.P.P.P.c n N n c P.P.P.P.P.P.b.K.G.B.x.P.P.",
"P.P.P.P.P.P.b.K.b.P.P.P.b M ] U ~ I ' m b P.P.P.b.K.b.P.P.P.P.P.",
"P.P.P.P.P.P.P.v.J.v.0 v B w.^ ! W J R P j x 0 v.J.v.P.P.P.P.P.P.",
"P.P.P.P.P.P.P.P.v.e.i Y w.^ o.W E R p L t k u e.v.P.P.P.P.P.P.P.",
"P.P.P.P.P.P.P.P.P.8 = < 6 q w r w q 6 < ; - e 9 P.P.P.P.P.P.P.P.",
"P.P.P.P.P.P.P.P.* : @ & , 2 4 5 1 > % $ # @ 3 7 P.P.P.P.P.P.P.P.",
"P.P.P.P.P.P.P.z y s g g d d d d d d d d d f g a y z P.P.P.P.P.P.",
"P.P.P.P.P.h l S K ..=.;.>.:.-.X.` ` ` ` ` ( ( T K S l h P.P.P.P.",
"P.P.P.P.V Q / ) G [ } @.$.$.&.*.%.+.O.#. .| { _ ) ) / Q C P.P.P.",
"P.P.P.P.P.A D F P.y.g.,.. . . ,.g.,.. . . ,.g.y.P.F H Z P.P.P.P.",
"P.P.P.P.P.P.P.P.P.h.G.o       o G.o       o G.h.P.P.P.P.P.P.P.P.",
"P.P.P.P.P.P.P.P.P.3.F.X       X F.X       X F.3.P.P.P.P.P.P.P.P.",
"P.P.P.P.P.P.P.P.P.P.j.2.X X X 2.D.2.X X X 2.j.P.P.P.P.P.P.P.P.P.",
"P.P.P.P.P.P.P.P.P.P.P.q.6.<.<.u.8.u.<.<.6.q.P.P.P.P.P.P.P.P.P.P.",
"P.P.P.P.P.P.P.P.P.P.P.+ f.S.S.S.O S.S.S.f.+ P.P.P.P.P.P.P.P.P.P.",
"P.P.P.P.P.P.P.P.P.P.f.P.P.,.s.m.A.m.s.,.P.P.f.P.P.P.P.P.P.P.P.P.",
"P.P.P.P.P.P.P.P.P.d.H.d.P.1.r.7.4.7.r.1.P.d.H.d.P.P.P.P.P.P.P.P.",
"P.P.P.P.P.P.P.P.d.H.d.P.P.5.S.k.S.t.S.5.P.P.d.H.d.P.P.P.P.P.P.P.",
"P.P.P.P.P.P.P.s.G.s.P.P.P.s.p.9.3.7.i.s.P.P.P.s.G.s.P.P.P.P.P.P.",
"P.P.P.P.P.P.s.G.s.P.P.P.P.n.N.C.M.M.M.n.P.P.P.P.s.G.s.P.P.P.P.P.",
"P.P.P.a.k.V.F.s.P.P.P.P.P.7.D.H.S.S.S.7.P.P.P.P.P.s.F.V.k.a.P.P.",
"P.P.P.n.F.F.V.P.P.P.P.P.P.P.0.b.Z.l.4.P.P.P.P.P.P.P.V.F.F.n.P.P.",
"P.P.P.P.u.F.k.P.P.P.P.P.P.P.P.P.P.P.P.P.P.P.P.P.P.P.k.F.u.P.P.P.",
"P.P.P.P.P.v.p.P.P.P.P.P.P.P.P.P.P.P.P.P.P.P.P.P.P.P.p.v.P.P.P.P.",
"P.P.P.P.P.P.P.P.P.P.P.P.P.P.P.P.P.P.P.P.P.P.P.P.P.P.P.P.P.P.P.P.",
"P.P.P.P.P.P.P.P.P.P.P.P.P.P.P.P.P.P.P.P.P.P.P.P.P.P.P.P.P.P.P.P.",
"P.P.P.P.P.P.P.P.P.P.P.P.P.P.P.P.P.P.P.P.P.P.P.P.P.P.P.P.P.P.P.P."
};
