/* XPM */
static char *result[] = {
/* columns rows colors chars-per-pixel */
"64 64 184 2 ",
"   c #010101",
".  c #030609",
"X  c #0B0B0B",
"o  c #060808",
"O  c #1A0400",
"+  c #1C0A00",
"@  c #120404",
"#  c #1B1205",
"$  c #050C12",
"%  c #0A0F14",
"&  c #09131C",
"*  c #081016",
"=  c #121313",
"-  c #1C1C1C",
";  c #250200",
":  c #370400",
">  c #271800",
",  c #281800",
"<  c #221D11",
"1  c #1B211E",
"2  c #3C2502",
"3  c #3D2809",
"4  c #352916",
"5  c #2E2108",
"6  c #0B1621",
"7  c #0F1F29",
"8  c #0D1B25",
"9  c #151E24",
"0  c #0E1E31",
"q  c #0F202F",
"w  c #12222E",
"e  c #192226",
"r  c #112233",
"t  c #122639",
"y  c #13283D",
"u  c #142937",
"i  c #0F2133",
"p  c #222223",
"a  c #2C2C2C",
"s  c #24282C",
"d  c #3B3225",
"f  c #3C352C",
"g  c #333333",
"h  c #3D3D3D",
"j  c #2A2B29",
"k  c #470700",
"l  c #530600",
"z  c #5C0700",
"x  c #530800",
"c  c #4B1300",
"v  c #4F1D00",
"b  c #610700",
"n  c #6F0800",
"m  c #6B0700",
"M  c #740800",
"N  c #7D0900",
"B  c #452B02",
"V  c #4B2D00",
"C  c #542400",
"Z  c #4F3100",
"A  c #553500",
"S  c #5C3700",
"D  c #613B00",
"F  c #663B00",
"G  c #6A4100",
"H  c #774800",
"J  c #7B4B00",
"K  c #704500",
"L  c #152C44",
"P  c #193243",
"I  c #1A364C",
"U  c #1F3E53",
"Y  c #1D3C5D",
"T  c #193550",
"R  c #3E3F40",
"E  c #1D3E63",
"W  c #22455C",
"Q  c #214257",
"!  c #1F4165",
"~  c #214464",
"^  c #244962",
"/  c #21456C",
"(  c #254B6B",
")  c #234972",
"_  c #2A5574",
"`  c #2D5A7A",
"'  c #295376",
"]  c #434343",
"[  c #4C4C4C",
"{  c #545454",
"}  c #5C5C5C",
"|  c #636363",
" . c #6B6B6B",
".. c #737373",
"X. c #7C7C7C",
"o. c #810900",
"O. c #920A00",
"+. c #9B0B00",
"@. c #AB0C00",
"#. c #A30C00",
"$. c #814F00",
"%. c #865100",
"&. c #8C5500",
"*. c #945A00",
"=. c #9A5E00",
"-. c #9E6100",
";. c #A76500",
":. c #AA6600",
">. c #AD6800",
",. c #B26C00",
"<. c #B86F00",
"1. c #BB7100",
"2. c #C47600",
"3. c #CC7B00",
"4. c #C77800",
"5. c #D17E00",
"6. c #D58100",
"7. c #DB8400",
"8. c #E38900",
"9. c #EC8E00",
"0. c #EE9000",
"q. c #F39200",
"w. c #FD9700",
"e. c #FF9800",
"r. c #2D5C82",
"t. c #295687",
"y. c #2B5C91",
"u. c #316385",
"i. c #32658B",
"p. c #356A8D",
"a. c #2E6195",
"s. c #346A9B",
"d. c #336893",
"f. c #3A749A",
"g. c #397195",
"h. c #346DAA",
"j. c #3D7AA6",
"k. c #3771AA",
"l. c #3973A3",
"z. c #346FB2",
"x. c #3671B3",
"c. c #3A79B6",
"v. c #3877B8",
"b. c #3B7BBC",
"n. c #3875B0",
"m. c #3D80BF",
"M. c #4284B1",
"N. c #448ABA",
"B. c #4991BE",
"V. c #4182AC",
"C. c #3F82C2",
"Z. c #4185C4",
"A. c #4288C6",
"S. c #448AC9",
"D. c #4A94CA",
"F. c #4E9BCD",
"G. c #4A94C5",
"H. c #4E9DD9",
"J. c #4D9BD4",
"K. c #51A2DD",
"L. c #52A3D6",
"P. c #53A6E0",
"I. c #57ACE5",
"U. c #59AFE8",
"Y. c #57AFE8",
"T. c #59B1EA",
"R. c #58B0E6",
"E. c #838383",
"W. c #8C8C8C",
"Q. c #919191",
"!. c #9A9A9A",
"~. c #A2A2A2",
"^. c #ACACAC",
"/. c #B4B4B4",
"(. c #BCBCBC",
"). c #C4C4C4",
"_. c #CACACA",
"`. c #D5D5D5",
"'. c #DBDBDB",
"]. c #E3E3E3",
"[. c #ECECEC",
"{. c #F3F3F3",
"}. c #FEFEFE",
"|. c None",
/* pixels */
"|.|.|.|.|.. p g X |.|.|.|.|.|.|.|.|.|.|.|.|.|.|.|.|.|.|.|.|.|.|.|.|.|.|.|.|.|.|.|.|.|.|.|.|.|.|.|.|.|.|.|.|.|.X g p . |.|.|.|.|.",
"|.|.|.|.o ~.}.}.`.- |.|.|.|.|.|.|.|.|.|.|.|.|.|.|.|.|.|.|.|.|.|.|.|.|.|.|.|.|.|.|.|.|.|.|.|.|.|.|.|.|.|.|.|.p '.}.}.!.o |.|.|.|.",
"|.|.|.|...}.}.}.}.Q.|.|.|.|.|.|.|.|.|.|.|.|.|.|.|.|.|.|.|.|.|.|.|.|.|.|.|.|.|.|.|.|.|.|.|.|.|.|.|.|.|.|.|.|.!.}.}.}.}. .|.|.|.|.",
"|.|.|.  ).}.}.}.}.^.|.|.|.|.|.|.|.|.|.|.|.|.|.|.|.|.|.|..     o X       . |.|.|.|.|.|.|.|.|.|.|.|.|.|.|.|.  /.}.}.}.}./.  |.|.|.",
"|.o  ./.{.}.}.}.}. .|.|.|.|.|.|.|.|.|.|.|.|.|.|.. 8 ^ g.N.L.R.R.T.T.L.G.f.( w o o |.|.|.|.|.|.|.|.|.|.|.|.|...}.}.}.}.{.(...X |.",
". !.}.}.}.}.}.}.(.o |.|.|.|.|.|.|.|.|.|.|.  7 u.F.T.T.T.T.T.T.T.T.T.T.T.T.T.T.L.g.u   |.|.|.|.|.|.|.|.|.|.|.o _.}.}.}.}.}.}.~.o ",
"p }.}.}.}.}.}.}.{.h |.|.|.|.|.|.|.|.|.  P V.T.T.T.T.T.T.T.T.T.T.T.T.T.T.T.T.T.T.T.T.G.Q . |.|.|.|.|.|.|.|.|.] {.}.}.}.}.}.}.}.p ",
"g }.}.}.}.}.}.}.}.{.h |.|.|.|.|.|.  w M.T.T.T.T.T.T.T.T.T.T.T.T.T.T.T.T.T.T.T.T.T.T.T.T.G.P   |.|.|.|.|.|.] {.}.}.}.}.}.}.}.}.g ",
"X '.}.}.}.).{.}.}.}.{.h |.|.|.|.. _ I.R.R.T.T.T.Y.R.T.R.T.R.T.T.T.T.T.T.R.Y.Y.Y.T.Y.T.Y.T.T.g.X |.|.|.|.] {.}.}.}.{.(.}.}.}.`.X ",
"|.p !./...o ] {.}.}.}.{.h |.|.& M.U.R.U.U.U.U.R.T.Y.T.F.f.` ^ U Q W _ g.B.Y.T.U.U.U.U.U.T.R.T.F.r |.|.] {.}.}.}.{.h o  .^.Q.1 |.",
"|.|.|.. |.|.|.] {.}.}.}.{.h & F.U.Y.U.U.U.U.U.T.G._ e B J >.2.6.6.3.<.&.A < Q j.I.U.U.U.R.R.T.T.L.w ] {.}.}.}.{.h |.|.|.|.|.|.|.",
"|.|.|.|.|.|.|.|.] {.}.}.}.{.h p.U.I.I.U.U.I.N.P B :.0.e.e.e.e.e.e.e.e.w.e.w.3.G - p.P.Y.R.R.R.T.u.] {.}.}.}.{.h |.|.|.|.|.|.|.|.",
"|.|.|.|.|.|.|.|.|.] {.}.}.}.{.h p.P.U.U.K.W B 4.e.w.e.e.e.e.e.e.e.e.e.e.e.e.e.e.0.H e M.R.Y.R.` ] {.}.}.}.{.h |.|.|.|.|.|.|.|.|.",
"|.|.|.|.|.|.|.|.|.|.] {.}.}.}.{.h p.P.N.1 -.e.e.e.e.e.e.e.e.e.e.e.e.e.e.e.e.e.e.e.e.7.2 _ P.` [ {.}.}.}.{.h |.|.|.|.|.|.|.|.|.|.",
"|.|.|.|.|.|.|.|.|.|.  ] {.}.}.}.{.h ^ 5 7.e.e.e.e.e.e.e.e.e.e.e.e.e.e.e.e.e.e.e.e.e.e.w.H r Q {.}.}.}.{.R . |.|.|.|.|.|.|.|.|.|.",
"|.|.|.|.|.|.|.|.|.|.U u.] {.}.}.}.~.2 9.w.e.e.e.e.e.e.e.e.e.e.e.e.e.e.e.e.e.e.e.e.e.e.e.e.*.[ {.}.}.{.h p.u.  |.|.|.|.|.|.|.|.|.",
"|.|.|.|.|.|.|.|.|.% J.P.u.] {.}.(.3 q.w.e.e.e.e.e.e.e.e.e.e.e.e.e.e.e.e.e.e.e.w.e.e.e.e.e.e.&.| }.{.h i.P.P.t |.|.|.|.|.|.|.|.|.",
"|.|.|.|.|.|.|.|.. r.K.K.K.u.] '.4 8.w.e.e.e.e.w.e.e.e.e.e.e.e.e.e.e.e.e.e.e.w.w.e.e.e.e.e.e.e.D W.R u.K.K.P.M.  |.|.|.|.|.|.|.|.",
"|.|.|.|.|.|.|.|.& H.K.K.K.K.u.o <.w.w.e.e.e.e.e.e.e.e.e.e.e.e.e.e.e.e.e.e.e.w.w.e.e.e.e.e.e.e.q.> ` P.P.P.P.P.P |.|.|.|.|.|.|.|.",
"|.|.|.|.|.|.|.|.` K.K.K.K.K.f.D w.w.e.e.e.e.e.e.q.7.3.2.1.>.>.:.:.:.>.<.1.3.7.8.w.e.e.w.w.e.w.w.1.I K.K.H.P.H.j.  |.|.|.|.|.|.|.",
"|.|.|.|.|.|.|.. D.K.H.K.K.H.9 8.e.9.1.&.F C v k l x b n M N N N N N N M M m z l k c C S J :.7.q.w.B c.K.L.H.H.H.6 |.|.|.|.|.|.|.",
"|.|.|.|.|.|.|.P H.H.H.H.H.s.A H v x M O.#.@.@.@.@.@.@.@.@.@.@.@.@.@.@.@.@.@.@.@.#.@.@.@.+.o.b c D J U H.H.H.H.H.' |.|.|.|.|.|.|.",
"|.|.|.|.|.|.  i.H.H.H.H.H.y k O.O.o.M z x k : : ; ; O + O + + + + + + O O O O ; : : k l b n N O.#.n @ D.H.H.H.J.N.  |.|.|.|.|.|.",
"|.|.|.|.|.|.  S.J.D.j.r.Q . O # 2 A G %.-.>.2.6.8.9.q.q.w.w.w.e.w.w.e.w.w.q.9.8.5.2.,.=.%.K A 2 # O @ P ` j.D.H.H.& |.|.|.|.|.|.",
"|.|.|.|.|.|.% ^ 7 # Z J >.5.q.e.e.w.w.w.w.w.w.w.9.7.5.4.1.<.,.,.>.,.<.1.2.3.6.0.q.e.e.w.w.w.e.e.w.q.6.,.$.A # 7 ~ w |.|.|.|.|.|.",
"|.|.|.|.|.  V *.6.w.e.e.w.w.w.e.5.;.$.D B 3 d h [ { |  ...X.X.E.E.E.X.....| } [ h f 4 B A H =.2.q.w.w.w.w.e.e.7.*.V   |.|.|.|.|.",
"|.|.|.  S 7.e.w.e.e.e.e.w.>.A j { E.^.`.[.}.}.}.}.}.}.}.}.}.}.}.}.}.}.}.}.}.}.}.}.}.}.}.'.(.W.| g B &.9.w.e.e.e.e.e.8.G   |.|.|.",
"|.|.|.G w.w.e.e.e.e.e.e.D ..`.}.}.}.}.}.}.}.}.}.}.}.}.}.}.}.}.}.}.}.}.}.}.}.}.}.{.}.}.}.}.}.}.}.}.[.!.4 q.e.e.e.e.e.e.w.J |.|.|.",
"|.|.|.> 7.e.w.e.e.e.e.e.4 }.}.}.}.}.}.}.(.| a - g ..`.}.}.}.}.}.}.}.}.}.}.[.V.f - j { ~.}.}.}.}.}.}.}.| 3.e.e.e.e.e.e.7.5 |.|.|.",
"|.|.|.|.  D 2.w.e.e.e.w.d }.}.}.}.}.{.}             . E.}.}.}.}.}.}.}.}.^.X @ O         h ].}.}.}.}.}...2.e.e.w.w.4.G @ |.|.|.|.",
"|.|.|.|.|.o * # A *.3.q.d }.}.}.}.}.]                   X.}.}.}.}.}.}.^.                  p [.}.}.}.}. .1.6.-.A # 8   |.|.|.|.|.",
"|.|.|.|.|.|.' Z.d.~ y = = }.}.}.}.Q.                      ).}.}.}.}.[.=                     } }.}.}.}.| % t ! i.m.l.  |.|.|.|.|.",
"|.|.|.|.|.|.( S.S.S.S.S.q {.}.}.}.-                       { }.}.}.}.E.                      . ].}.}.}.] b.S.S.S.S.d.. |.|.|.|.|.",
"|.|.|.|.|.|.T S.S.S.S.A.I _.}.}._.                        X }.}.}.}.h                         !.}.}.}.s A.A.S.S.S.' |.|.|.|.|.|.",
"|.|.|.|.|.|.7 A.A.A.A.A.' W.}.}./.                          [.}.}.}.1                         E.}.}.].t A.A.A.A.A.Y |.|.|.|.|.|.",
"|.|.|.|.|.|.$ Z.Z.A.A.A.k.[ }.}.(.                          {.}.}.}.j                         W.}.}.!.( A.Z.A.Z.A.0 |.|.|.|.|.|.",
"|.|.|.|.|.|.  s.Z.Z.Z.Z.A.0 [.}.].                        p }.}.}.}.{                         (.}.}.] k.A.Z.Z.Z.m.. |.|.|.|.|.|.",
"|.|.|.|.|.|.|.Y C.C.C.C.Z.( Q.}.}.]                       X.}.}.}.}.^.                      = {.}.'.r Z.Z.Z.Z.C.y.  |.|.|.|.|.|.",
"|.|.|.|.|.|.|.6 m.C.m.C.C.n.s }.}._..                   - [.}.}.}.}.}.]                     ~.}.}. .t.C.b.Z.m.Z.P |.|.|.|.|.|.|.",
"|.|.|.|.|.|.|.  y.m.m.m.C.b.Y Q.}.}.~.                = _.}.}.}.}.}.}.].p                 ..}.}.'.w b.m.m.m.b.n.. |.|.|.|.|.|.|.",
"|.|.|.|.|.|.|.|.L b.b.m.m.b.v.9 ].}.}.(.a           [ '.}.}._.{ } `.}.}.[.| .         - ~.}.}.}.[ a.m.m.m.m.m./ |.|.|.|.|.|.|.|.",
"|.|.|.|.|.|.|.|.  s.b.m.b.b.b.y.] }.}.}.}.).Q.E.!.`.}.}.}.'.X     = [.}.}.}.].~.E.W.(.{.}.}.}.W.T b.b.b.b.b.v.* |.|.|.|.|.|.|.|.",
"|.|.|.|.|.|.|.|.|.L b.b.b.b.b.b.Y ..}.}.}.}.}.}.}.}.}.}.}.~.        /.}.}.}.}.}.}.}.}.}.}.}.(.r v.b.b.b.b.b.~   |.|.|.|.|.|.|.|.",
"|.|.|.|.|.|.|.|.|.  t.v.b.b.v.b.~ = W.}.}.}.}.}.}.}.}.}.}._..     . '.}.}.}.}.}.}.}.}.}.}.).= ! b.v.v.v.v.h.. |.|.|.|.|.|.|.|.|.",
"|.|.|.|.|.|.|.|.|.|.& h.v.v.v./ ] [.} ..}.}.}.}.}.}.}.}.}.}.Q.- - ~.}.}.}.}.}.}.}.}.}.}./.g `.h ) v.v.v.v.r |.|.|.|.|.|.|.|.|.|.",
"|.|.|.|.|.|.|.|.|.|.|.L v.v./ ] {.}.}.X.[ ].}.}.}.}.}.}.}.}.}.}.}.}.}.}.}.}.}.}.}.}.{.E.] [.}.{.h ) v.v.!   |.|.|.|.|.|.|.|.|.|.",
"|.|.|.|.|.|.|.|.|.|.|.  E ~ ] {.}.}.}.{.a 9 !.}.}.}.}.}.}.}.}.}.}.}.}.}.}.}.}.}.}.).g - {.}.}.}.{.h ) t.  |.|.|.|.|.|.|.|.|.|.|.",
"|.|.|.|.|.|.|.|.|.|.|.|.  ] {.}.}.}.{.h ) h.i a !.{.}.}.}.}.}.}.}.}.}.}.}.}.}.(.[ 6 a./ ] {.}.}.}.{.h . |.|.|.|.|.|.|.|.|.|.|.|.",
"|.|.|.|.|.|.|.|.|.|.|.|.] {.}.}.}.{.h / x.x.0 Q.E.g } !.`.{.}.}.}.}.}.]./...g | ^.$ x.x./ ] {.}.}.}.{.h |.|.|.|.|.|.|.|.|.|.|.|.",
"|.|.|.|.|.|.|.|.|.|.|.] {.}.}.}.{.R / z.x.z.=  .}.}._.9 { a a g g a a ] - /.{.}.W.- y.x.z./ ] {.}.}.}.{.h |.|.|.|.|.|.|.|.|.|.|.",
"|.|.|.|.|.|.|.|.|.|.] {.}.}.}.{.h E x.x.z.y.p Q.W.}._. .}.}.}.W.!.{.}.}.} `.}./. .{ / z.z.x.E ] {.}.}.}.{.h |.|.|.|.|.|.|.|.|.|.",
"|.|.|.|.|.|.|.|.|.] {.}.}.}.{.h . $ ) x.z.t.  ].~.} } (.}.}.}.W.!.}.}.}.^. ...E.{.p Y z.z.y.6 . ] {.}.}.}.{.h |.|.|.|.|.|.|.|.|.",
"|.|.|.|.|.|.|.|.] {.}.}.}.{.h |.|.|.  0 t.' = X.}.[.1 { ..!.(...X.(.~.X.{ p ].}.^.X E y.L   |.|.|.] {.}.}.}.{.h |.|.|.|.|.|.|.|.",
"|.|.|.. |.|.|.] {.}.}.}.{.h |.|.|.|.|.|.. & h ] )._.| }.[._.^.{ } ^.).].}.[ '.].g | & . |.|.|.|.|.|.] {.}.}.}.{.h |.|.|.|.|.|.|.",
"|.p !./...o ] {.}.}.}.{.h |.|.|.|.|.|.|.|.|.= ].h [ /.}.}.}.}.W.!.}.}.}.}.~. .h _.h |.|.|.|.|.|.|.|.|.] {.}.}.}.{.h o  .^.Q.- |.",
"o '.}.}.}.).{.}.}.}.{.h |.|.|.|.|.|.|.|.|.|.  /.[.{ } '.}.}.}.W.!.}.}.}.[...g `.].. |.|.|.|.|.|.|.|.|.|.] {.}.}.}.{.(.}.}.}.'.X ",
"g }.}.}.}.}.}.}.}.{.h |.|.|.|.|.|.|.|.|.|.|.|.] }.}.(.[ ] E./. .X./.W.{ h ~.}.}...|.|.|.|.|.|.|.|.|.|.|.|.] {.}.}.}.}.}.}.}.}.g ",
"- }.}.}.}.}.}.}.{.h |.|.|.|.|.|.|.|.|.|.|.|.|.. ^.}.}.}.[.^.E.....X.~.'.}.}.}.`.X |.|.|.|.|.|.|.|.|.|.|.|.|.] {.}.}.}.}.}.}.}.p ",
". !.}.}.}.}.}.}.(.o |.|.|.|.|.|.|.|.|.|.|.|.|.|.= '.}.}.}.}.}.}.}.}.}.}.}.}.[.a |.|.|.|.|.|.|.|.|.|.|.|.|.|.. ).}.}.}.}.}.}.!.. ",
"|.o | /.}.}.}.}.}. .|.|.|.|.|.|.|.|.|.|.|.|.|.|.|.- _.}.}.}.}.}.}.}.}.}.}.].g |.|.|.|.|.|.|.|.|.|.|.|.|.|.|...}.}.}.}.}.(...X |.",
"|.|.|.  (.}.}.}.}.^.|.|.|.|.|.|.|.|.|.|.|.|.|.|.|.|.o X.[.}.}.}.}.}.}.}.!.= |.|.|.|.|.|.|.|.|.|.|.|.|.|.|.. /.}.}.}.}./.  |.|.|.",
"|.|.|.|...}.}.}.}.Q.|.|.|.|.|.|.|.|.|.|.|.|.|.|.|.|.|.. = } !./.(.!. .-   |.|.|.|.|.|.|.|.|.|.|.|.|.|.|.|.|.!.}.}.}.}. .|.|.|.|.",
"|.|.|.|.o ~.}.}.`.- |.|.|.|.|.|.|.|.|.|.|.|.|.|.|.|.|.|.|.|.  X o . |.|.|.|.|.|.|.|.|.|.|.|.|.|.|.|.|.|.|.|.p '.}.}.!.X |.|.|.|.",
"|.|.|.|.|.. p g X |.|.|.|.|.|.|.|.|.|.|.|.|.|.|.|.|.|.|.|.|.|.|.|.|.|.|.|.|.|.|.|.|.|.|.|.|.|.|.|.|.|.|.|.|.|.X g - . |.|.|.|.|."
};
