/* XPM */
static char *result[] = {
/* columns rows colors chars-per-pixel */
"64 64 202 2 ",
"   c #1D1C18",
".  c #0A0809",
"X  c #2B1D1B",
"o  c #20211F",
"O  c #352719",
"+  c #272A27",
"@  c #2C2E2C",
"#  c #272A27",
"$  c #3B2520",
"%  c #2E322E",
"&  c #36342E",
"*  c #2F3330",
"=  c #333533",
"-  c #363A36",
";  c #373C39",
":  c #3A3D3A",
">  c #393937",
",  c #5B201F",
"<  c #452E19",
"1  c #7A211C",
"2  c #492D29",
"3  c #572323",
"4  c #47362B",
"5  c #4E3D37",
"6  c #642727",
"7  c #732523",
"8  c #7D2A2A",
"9  c #7A2425",
"0  c #7D3337",
"q  c #3D413E",
"w  c #6B511D",
"e  c #504328",
"r  c #40433F",
"t  c #524432",
"y  c #514339",
"u  c #7B5B25",
"i  c #655E3F",
"p  c #7F4A39",
"a  c #6D6437",
"s  c #756F30",
"d  c #3F4441",
"f  c #414542",
"g  c #4B4C4B",
"h  c #595242",
"j  c #754141",
"k  c #7A5949",
"l  c #7A6049",
"z  c #7C6B58",
"x  c #6D6347",
"c  c #7A6E6C",
"v  c #797A78",
"b  c #96221F",
"n  c #96281E",
"m  c #852223",
"M  c #8D2523",
"N  c #8C2A29",
"B  c #9D2524",
"V  c #97252A",
"C  c #9D2B2A",
"Z  c #952725",
"A  c #9F3E2C",
"S  c #823D3F",
"D  c #973538",
"F  c #A42725",
"G  c #AA2527",
"H  c #AA2629",
"J  c #AC2929",
"K  c #A22927",
"L  c #B42727",
"P  c #B32827",
"I  c #B3272A",
"U  c #B2282A",
"Y  c #B8292B",
"T  c #A1352A",
"R  c #AB342A",
"E  c #AD2F30",
"W  c #BE2D30",
"Q  c #AF3D35",
"!  c #BF3131",
"~  c #C02F30",
"^  c #C33434",
"/  c #C43A39",
"(  c #8F402A",
")  c #A6483F",
"_  c #997526",
"`  c #825D50",
"'  c #845647",
"]  c #BE4343",
"[  c #BF5151",
"{  c #896E5C",
"}  c #8B6B53",
"|  c #9E6851",
" . c #9D795D",
".. c #937558",
"X. c #86734F",
"o. c #B96151",
"O. c #A67758",
"+. c #B87459",
"@. c #897B6D",
"#. c #867869",
"$. c #967666",
"%. c #867D7D",
"&. c #9F7F70",
"*. c #A67D6E",
"=. c #BD7462",
"-. c #C84E52",
";. c #C24848",
":. c #CB745A",
">. c #C07459",
",. c #C36956",
"<. c #B28830",
"1. c #BA933C",
"2. c #C19432",
"3. c #948141",
"4. c #918051",
"5. c #A78A45",
"6. c #8E836A",
"7. c #9D8C6C",
"8. c #9A8563",
"9. c #9B926E",
"0. c #81817F",
"q. c #9C9371",
"w. c #9D907C",
"e. c #A48364",
"r. c #AA856B",
"t. c #A88A68",
"y. c #B58162",
"u. c #B68765",
"i. c #B3916F",
"p. c #BA946E",
"a. c #AA8D79",
"s. c #B1857C",
"d. c #AA9277",
"f. c #B99976",
"g. c #D2A24E",
"h. c #CFB258",
"j. c #C1A846",
"k. c #C88864",
"l. c #C5976E",
"z. c #CB9F7A",
"x. c #C69A74",
"c. c #D79373",
"v. c #E09C77",
"b. c #CCA57C",
"n. c #C8A279",
"m. c #D9A87C",
"M. c #E6A67E",
"N. c #868384",
"B. c #8A8886",
"V. c #908E8D",
"C. c #9F9183",
"Z. c #9A9897",
"A. c #A5958E",
"S. c #AD9A81",
"D. c #B7A693",
"F. c #AEACA8",
"G. c #B4B3AC",
"H. c #BDBBBA",
"J. c #B7B5B4",
"K. c #C4A68B",
"L. c #C8A988",
"P. c #D3AC83",
"I. c #DBAC83",
"U. c #D8AA86",
"Y. c #CAB08E",
"T. c #D4B28A",
"R. c #D9B28C",
"E. c #DCB081",
"W. c #C8AD97",
"Q. c #C7B49A",
"!. c #D3B292",
"~. c #DAB595",
"^. c #D7B99A",
"/. c #EDAE87",
"(. c #E2B386",
"). c #EAB485",
"_. c #EEB887",
"`. c #E4B78A",
"'. c #E9B78D",
"]. c #E4BA8C",
"[. c #EDBB8A",
"{. c #F2BD8B",
"}. c #F3B887",
"|. c #E6BC99",
" X c #EDC089",
".X c #F4C28D",
"XX c #FBC38C",
"oX c #EBC39B",
"OX c #E0C09B",
"+X c #F6C492",
"@X c #FAC392",
"#X c #F3C69A",
"$X c #DBC0A1",
"%X c #E6C4A5",
"&X c #F5CBA2",
"*X c #CCCACB",
"=X c #D0CCCB",
"-X c #DCD9DA",
";X c #D5D3D3",
":X c #E4E3E3",
">X c #E8E6E5",
",X c None",
/* pixels */
",X,X,X,X,X,X,X,X,X,X,X,X,X,X,X,X,X,X,X,X,X,X,X,X,X,X,X,X,X,X,Xh.j.,X,X,X,X,X,X,X,X,X,X,X,X,X,X,X,X,X,X,X,X,X,X,X,X,X,X,X,X,X,X,X",
",X,X,X,X,X,X,X,X,X,X,X,X,X,X,X,X,X,X,X,X,X,X,X,X,X,X,X,X,Xa 5.1.1.5.,X,X,X,X,X,X,X,X,X,X,X,X,X,X,X,X,X,X,X,X,X,X,X,X,X,X,X,X,X,X",
",X,X,X,X,X,X,X,X,X,X,X,X,X,X,X,X,X,X,X,X,X,X,X,X,X,X,X,Xt   O t.& O 5.3.,X,X,X,X,X,X,X,X,X,X,X,X,X,X,X,X,X,X,X,X,X,X,X,X,X,X,X,X",
",X,X,X,X,X,X,X,X,X,X,X,X,X,X,X,X,X,X,X,X,X,X,X,X,X,X,X4.e . } }...4 X 2.b.~.W.,X,X,X,X,X,X,X,X,X,X,X,X,X,X,X,X,X,X,X,X,X,X,X,X,X",
",X,X,X,X,X,X,X,X,X,X,X,X,X,X,X,X,X,X,X,X,X,X,X,X,X,X,X5.O 4 n._.l.p.t u g.{.@X+XT.Q.,X,X,X,X,X,X,X,X,X,X,X,X,X,X,X,X,X,X,X,X,X,X",
",X,X,X,X,X,X,X,X,X,X,X,X,X,X,X,X,X,X,X,X,X,X,X,X,X,X,X1.< ` x. X).l.k w <.,Xn._.XXXXoXW.,X,X,X,X,X,X,X,X,X,X,X,X,X,X,X,X,X,X,X,X",
",X,X,X,X,X,X,X,X,X,X,X,X,X,X,X,X,X,X,X,X,X,X,X,X,X,X,X5.u e._.R.n.f.{ _ ,X,X,X,Xn.P.'.XXOX,X,X,X,X,X,X,X,X,X,X,X,X,X,X,X,X,X,X,X",
",X,X,X,X,X,X,X,X,X,X,X,X,X,X,X,X,X,X,X,X,X,X,X,X,X,X,X,XX...C.G.G.C.$.,X,X,X,X,XK.+XXX[.,X,X,X,X,X,X,X,X,X,X,X,X,X,X,X,X,X,X,X,X",
",X,X,X,X,X,X,X,X,X,X,X,X,X,X,X,X,X,X,X,X,X,X,X,X,X,X,X,X,X,X@.A.A.,X,X,X,X,X,X'.XXXXb.,X,X,X,X,X,X,X,X,X,X,X,X,X,X,X,X,X,X,X,X,X",
",X,X,X,X,X,X,X,X,X,X,X,X,X,X,X,X,X,X,X,X,X,X,X,X,X,X,X,X,X,X7.y.y.' ,XO.Q.R.XX@X'.,X,X,X,X,X,X,X,X,X,X,X,X,X,X,X,X,X,X,X,X,X,X,X",
",X,X,X,X,X,X,X,X,X,X,X,X,X,X,X,X,X,X,X,X,X,X,X,X,X,X,X,Xs.D =. X[.=.m o.{.XX{.x.,X,X,X,X,X,X,X,X,X,X,X,X,X,X,X,X,X,X,X,X,X,X,X,X",
",X,X,X,X,X,X,X,X,X,X,X,X,X,X,X,X,X,X,X,X,X,X,X,X,X,XD.@Xc.b o.XX.X+.m ] I.u.,X,X,X,X,X,X,X,X,X,X,X,X,X,X,X,X,X,X,X,X,X,X,X,X,X,X",
",X,X,X,X,X,X,X,X,X,X,X,X,X,X,X,X,X,X,X,X,X,X,X,X,XD.&X{.:.H C {.}.R K C +.,X,X,X,X,X,X,X,X,X,X,X,X,X,X,X,X,X,X,X,X,X,X,X,X,X,X,X",
",X,X,X,X,X,X,X,X,X,X,X,X,X,X,X,X,X,X,X,X,X,X,X,X$X@X}.u.Q U U >.:.L P B | ,X,X,X,X,X,X,X,X,X,X,X,X,X,X,X,X,X,X,X,X,X,X,X,X,X,X,X",
",X,X,X,X,X,X,X,X,X,X,X,X,X,X,X,X,X,X,X,X,X,XD.oXXXM.O.' K U U N ) L I C p ,X,X,X,X,X,X,X,X,X,X,X,X,X,X,X,X,X,X,X,X,X,X,X,X,X,X,X",
",X,X,X,X,X,X,X,X,X,X,X,X,X,X,X,X,X,X,X,X,XY.+X{.k.,X,X,XB P U Z U I I J 3 ,X,X,X,X,X,X,X,X,X,X,X,X,X,X,X,X,X,X,X,X,X,X,X,X,X,X,X",
",X,X,X,X,X,X,X,X,X,X,X,X,X,X,X,X,X,X,X,X~.XX).O.,X,X,X,XG I J N T I I U 6 ,X,X,X,X,X,X,X,X,X,X,X,X,X,X,X,X,X,X,X,X,X,X,X,X,X,X,X",
",X,X,X,X,X,X,X,X,X,X,X,X,X,X,X,X,X,X,X,XXX_.,X,X,X,X,X,X~ I J C R I U U 0 ,X,X,X,X,X,X,X,X,X,X,X,X,X,X,X,X,X,X,X,X,X,X,X,X,X,X,X",
",X,X,X,X,X,X,X,X,X,X,X,X,X,X,X,X,X,X,XK.XX'.,X,X,X,X,X,X^ Y G H U U U I 0 ,X,X,X,X,X,X,X,X,X,X,X,X,X,X,X,X,X,X,X,X,X,X,X,X,X,X,X",
",X,X,X,X,X,X,X,X,X,X,X,X,X,X,X,X,X,X,X~..XE.,X,X,X,X,X,X^ I Y F I U Y U 7 ,X,X,X,X,X,X,X,X,X,X,X,X,X,X,X,X,X,X,X,X,X,X,X,X,X,X,X",
",X,X,X,X,X,X,X,X,X,X,X,X,X,X,X,X,X,X,X|.XXI.,X,X,X,X,X,X^ U I F K I U L 8 ,X,X,X,X,X,X,X,X,X,X,X,X,X,X,X,X,X,X,X,X,X,X,X,X,X,X,X",
",X,X,X,X,X,X,X,X,X,X,X,X,X,X,X,X,X,X,XoXXX`.,X,X,X,X,X,X^ U P m A J L P S ,X,X,X,X,X,X,X,X,X,X,X,X,X,X,X,X,X,X,X,X,X,X,X,X,X,X,X",
",X,X,X,X,X,X,X,X,X,X,X,X,X,X,X,X,X,X,XoXXXK.,X,X,X,X,X,X^ I U F G I P P 8 ,X,X,X,X,X,X,X,X,X,X,X,X,X,X,X,X,X,X,X,X,X,X,X,X,X,X,X",
",X,X,X,X,X,X,X,X,X,X,X,X,X,X,X,X,X,X,XoXXX,X,X,X,X,X,X,X/ I I G I I P P N ,X,X,X,X,X,X,X,X,X,X,X,X,X,X,X,X,X,X,X,X,X,X,X,X,X,X,X",
",X,X,X,X,X,X,X,X,X,X,X,X,X,X,X,X,X,X,X%X@X,X,X,X,X,X,X,X^ P I B I I U Y N ,X,X,X,X,X,X,X,X,X,X,X,X,X,X,X,X,X,X,X,X,X,X,X,X,X,X,X",
",X,X,X,X,X,X,X,X,X,X,X,X,X,X,X,X,X,X,X^.{.,X,X,X,X,X,X-.Y I I M G I U U V ,X,X,X,X,X,X,X,X,X,X,X,X,X,X,X,X,X,X,X,X,X,X,X,X,X,X,X",
",X,X,X,X,X,X,X,X,X,X,X,X,X,X,X,X,X,X,X!..X,X,X,X,X,X,X;.I I Y n ( L P U K ,X,X,X,X,X,X,X,X,X,X,X,X,X,X,X,X,X,X,X,X,X,X,X,X,X,X,X",
",X,X,X,X,X,X,X,X,X,X,X,X,X,X,X,X,X,X,Xb.+X{.,X,X,X,X,X] I Y I M M U J U J 6 ,X,X,X,X,X,X,X,X,X,X,X,X,X,X,X,X,X,X,X,X,X,X,X,X,X,X",
",X,X,X,X,X,X,X,X,X,X,X,X,X,X,X,X,X,X,Xb. X[.(.,X,X,X,X/ U U G 1 B J U U P 8 ,X,X,X,X,X,X,X,X,X,X,X,X,X,X,X,X,X,X,X,X,X,X,X,X,X,X",
",X,X,X,X,X,X,X,X,X,X,X,X,X,X,X,X,X,X,XL.U.z.,X,X,X,X,X! L U G 9 m J I U L 8 ,X,X,X,X,X,X,X,X,X,X,X,X,X,X,X,X,X,X,X,X,X,X,X,X,X,X",
",X,X,X,X,X,X,X,X,X,X,X,X,X,X,X,X,X,X,X,Xf.d.,X,X,X,X-.P P P I , 6 U U U J V ,X,X,X,X,X,X,X,X,X,X,X,X,X,X,X,X,X,X,X,X,X,X,X,X,X,X",
",X,X,X,X,X,X,X,X,X,X,X,X,X,X,X,X,X,X,X,X,X,X,X,X,X,Xj 7 M B V $ 2 V m 7 3 2 ,X,X,X,X,X,X,X,X,X,X,X,X,X,X,X,X,X,X,X,X,X,X,X,X,X,X",
",X,X,X,X,X,X,X,X,X,X,X,X,X,X,X,X,X,X,X,X,X,X,X,X,X,X= ; q ; & % % % : f > % ,X,X,X,X,X,X,X,X,X,X,X,X,X,X,X,X,X,X,X,X,X,X,X,X,X,X",
",X,X,X,X,X,X,X,X,X,X,X,X,X,X,X,X,X,X,X,X,X,X,X,X,X,Xq r q q q # o ; f f d d ,X,X,X,X,X,X,X,X,X,X,X,X,X,X,X,X,X,X,X,X,X,X,X,X,X,X",
",X,X,X,X,X,X,X,X,X,X,X,X,X,X,X,X,X,X,X,X,X,X,X,X,Xq = q d q = % o = d d d @ d ,X,X,X,X,X,X,X,X,X,X,X,X,X,X,X,X,X,X,X,X,X,X,X,X,X",
",X,X,X,X,X,X,X,X,X,X,X,X,X,X,X,X,X,X,X,X,X,X,X,X,Xs & q d q q % ,X= q d f + a a ,X,X,X,X,X,X,X,X,X,X,X,X,X,X,X,X,X,X,X,X,X,X,X,X",
",X,X,X,X,X,X,X,X,X,X,X,X,X,X,X,X,X,X,X,X,X,X,X,X,X: ; d f f : - ,X@ f f f ; - q ,X,X,X,X,X,X,X,X,X,X,X,X,X,X,X,X,X,X,X,X,X,X,X,X",
",X,X,X,X,X,X,X,X,X,X,X,X,X,X,X,X,X,X,X,X,X,X,X,Xf : : f f f d @ ,X+ f f f q q q ,X,X,X,X,X,X,X,X,X,X,X,X,X,X,X,X,X,X,X,X,X,X,X,X",
",X,X,X,X,X,X,X,X,X,X,X,X,X,X,X,X,X,X,X,X,X,X,X,Xd ; : f f f : ,X,X% q d q ; % % - ,X,X,X,X,X,X,X,X,X,X,X,X,X,X,X,X,X,X,X,X,X,X,X",
",X,X,X,X,X,X,X,X,X,X,X,X,X,X,X,X,X,X,X,X,X,X,X,X,Xf d f f d = ,X,X,Xq f f q ; % ,X,X,X,X,X,X,X,X,X,X,X,X,X,X,X,X,X,X,X,X,X,X,X,X",
",X,X,X,X,X,X,X,X,X,X,X,X,X,X,X,X,X,X,X,X,X,X,X,Xf f f f f f % ,X,X,X= d f f f f ,X,X,X,X,X,X,X,X,X,X,X,X,X,X,X,X,X,X,X,X,X,X,X,X",
",X,X,X,X,X,X,X,X,X,X,X,X,X,X,X,X,X,X,X,X,X,X,X,Xf f f f f f @ ,X,X,X% f f f f f g ,X,X,X,X,X,X,X,X,X,X,X,X,X,X,X,X,X,X,X,X,X,X,X",
",X,X,X,X,X,X,X,X,X,X,X,X,X,X,X,X,X,X,X,X,X,X,X,X= : f : d : ,X,X,X,X% q @ : g g - ,X,X,X,X,X,X,X,X,X,X,X,X,X,X,X,X,X,X,X,X,X,X,X",
",X,X,X,X,X,X,X,X,X,X,X,X,X,X,X,X,X,X,X,X,X,X,Xv Z.Z.F.c : # ,X,X,X,X# r B.-X=X-X;XZ.,X,X,X,X,X,X,X,X,X,X,X,X,X,X,X,X,X,X,X,X,X,X",
",X,X,X,X,X,X,X,X,X,X,X,X,X,X,X,X,X,X,X,X,X,X*X:X-X:X:X:X-XN.,X,X,X,XV.;X:X>X:X>X>XJ.,X,X,X,X,X,X,X,X,X,X,X,X,X,X,X,X,X,X,X,X,X,X",
",X,X,X,X,X,X,X,X,X,X,X,X,X,X,X,X,X,X,X,X,X,XJ.F.c *.*.A.J.H.,X,X,X,XG.=XZ.C.*.$.N.N.,X,X,X,X,X,X,X,X,X,X,X,X,X,X,X,X,X,X,X,X,X,X",
",X,X,X,X,X,X,X,X,X,X,X,X,X,X,X,X,X,X,X,X,X,X,X,Xd.v.k.$.Z.B.,X,X,X,X,X%.%.+.k.v.,X,X,X,X,X,X,X,X,X,X,X,X,X,X,X,X,X,X,X,X,X,X,X,X",
",X,X,X,X,X,X,X,X,X,X,X,X,X,X,X,X,X,X,X,X,X,X,X,X!.XX@X,X,X,X,X,X,X,X,X,X,Xc.XX@X,X,X,X,X,X,X,X,X,X,X,X,X,X,X,X,X,X,X,X,X,X,X,X,X",
",X,X,X,X,X,X,X,X,X,X,X,X,X,X,X,X,X,X,X,X,X,X,X,XoXXXI.,X,X,X,X,X,X,X,X,X,XE.XXXXOX,X,X,X,X,X,X,X,X,X,X,X,X,X,X,X,X,X,X,X,X,X,X,X",
",X,X,X,X,X,X,X,X,X,X,X,X,X,X,X,X,X,X,X,X,X,X,X,X#XXXz.,X,X,X,X,X,X,X,X,X,X,XXXXX~.,X,X,X,X,X,X,X,X,X,X,X,X,X,X,X,X,X,X,X,X,X,X,X",
",X,X,X,X,X,X,X,X,X,X,X,X,X,X,X,X,X,X,X,X,X,X,X,X@XXX,X,X,X,X,X,X,X,X,X,X,X,X(.XX#X,X,X,X,X,X,X,X,X,X,X,X,X,X,X,X,X,X,X,X,X,X,X,X",
",X,X,X,X,X,X,X,X,X,X,X,X,X,X,X,X,X,X,X,X,X,X,XQ.XX.X,X,X,X,X,X,X,X,X,X,X,X,XT.XX+X,X,X,X,X,X,X,X,X,X,X,X,X,X,X,X,X,X,X,X,X,X,X,X",
",X,X,X,X,X,X,X,X,X,X,X,X,X,X,X,X,X,X,X,X,X,X,XY.XXm.,X,X,X,X,X,X,X,X,X,X,X,X,X.XXX%X,X,X,X,X,X,X,X,X,X,X,X,X,X,X,X,X,X,X,X,X,X,X",
",X,X,X,X,X,X,X,X,X,X,X,X,X,X,X,X,X,X,X,X,X,X,XR.XXR.,X,X,X,X,X,X,X,X,X,X,X,X,X`.XX^.,X,X,X,X,X,X,X,X,X,X,X,X,X,X,X,X,X,X,X,X,X,X",
",X,X,X,X,X,X,X,X,X,X,X,X,X,X,X,X,X,X,X,X,X,X,XoXXX,X,X,X,X,X,X,X,X,X,X,X,X,X,XP.XX#X,X,X,X,X,X,X,X,X,X,X,X,X,X,X,X,X,X,X,X,X,X,X",
",X,X,X,X,X,X,X,X,X,X,X,X,X,X,X,X,X,X,X,X,X,X,X+X@X,X,X,X,X,X,X,X,X,X,X,X,X,X,X,XXX@X,X,X,X,X,X,X,X,X,X,X,X,X,X,X,X,X,X,X,X,X,X,X",
",X,X,X,X,X,X,X,X,X,X,X,X,X,X,X,X,X,X,X,X,X,XT.XX).,X,X,X,X,X,X,X,X,X,X,X,X,X,X,X[.@XT.,X,X,X,X,X,X,X,X,X,X,X,X,X,X,X,X,X,X,X,X,X",
",X,X,X,X,X,X,X,X,X,X,X,X,X,X,X,X,X,X,X,X,X,X`.XXI.,X,X,X,X,X,X,X,X,X,X,X,X,X,X,XP.XX.X,X,X,X,X,X,X,X,X,X,X,X,X,X,X,X,X,X,X,X,X,X",
",X,X,X,X,X,X,X,X,X,X,X,X,X,X,X,X,X,X,X,X,X^.XXXXI.,X,X,X,X,X,X,X,X,X,X,X,X,X,X,Xb.XXXX$X,X,X,X,X,X,X,X,X,X,X,X,X,X,X,X,X,X,X,X,X",
",X,X,X,X,X,X,X,X,X,X,X,X,X,X,X,X,X,X,X,X#.t.i..Xm.,X,X,X,X,X,X,X,X,X,X,X,X,X,X,X,X].r.i.$.,X,X,X,X,X,X,X,X,X,X,X,X,X,X,X,X,X,X,X",
",X,X,X,X,X,X,X,X,X,X,X,X,X,X,X,X,X,X,X5 e.P.p...P.,X,X,X,X,X,X,X,X,X,X,X,X,X,X,X,X{ r.f.i.#.,X,X,X,X,X,X,X,X,X,X,X,X,X,X,X,X,X,X",
",X,X,X,X,X,X,X,X,X,X,X,X,X,X,X,X,X,Xd.L.n.z m.} k ,X,X,X,X,X,X,X,X,X,X,X,X,X,X,X,X` m.K.f.i.S.w.,X,X,X,X,X,X,X,X,X,X,X,X,X,X,X,X",
",X,X,X,X,X,X,X,X,X,X,X,X,X,X,X,Xz 7.e. .$.t.O.X.y ,X,X,X,X,X,X,X,X,X,X,X,X,X,X,Xh k t.f.r.8.8.7.6.,X,X,X,X,X,X,X,X,X,X,X,X,X,X,X",
",X,X,X,X,X,X,X,X,X,X,X,X,X,X,X,X9.9.q.9.9.8.7.#.x ,X,X,X,X,X,X,X,X,X,X,X,X,X,X,X,X,X,X,X,X,X,X,X,X,X,X,X,X,X,X,X,X,X,X,X,X,X,X,X"
};
