/* XPM */
static char *result[] = {
/* columns rows colors chars-per-pixel */
"64 64 108 2 ",
"   c #568EAE",
".  c #588FAE",
"X  c #5A90AF",
"o  c #558FB1",
"O  c #588FB0",
"+  c #5691B2",
"@  c #5A93B4",
"#  c #5696BB",
"$  c #5D97B8",
"%  c #5E99BC",
"&  c #6196B5",
"*  c #6499B6",
"=  c #699AB7",
"-  c #619CBD",
";  c #6A9EBC",
":  c #6DA1BE",
">  c #72A1BD",
",  c #79A6BF",
"<  c #5D9CC0",
"1  c #629EC1",
"2  c #63A1C5",
"3  c #6BA4C4",
"4  c #66A5CA",
"5  c #6BA7C9",
"6  c #67A8CD",
"7  c #68A9CF",
"8  c #73A6C3",
"9  c #79A7C2",
"0  c #74A8C6",
"q  c #7BAAC6",
"w  c #74ABCB",
"e  c #7BADC9",
"r  c #7FB1CE",
"t  c #67ABD0",
"y  c #6AACD0",
"u  c #6DB0D7",
"i  c #6EB4DC",
"p  c #74B3D7",
"a  c #70B5DD",
"s  c #7DBADD",
"d  c #74BDE7",
"f  c #7ABCE3",
"g  c #75BEE8",
"h  c #78BFE8",
"j  c #7CC1E9",
"k  c #83AEC6",
"l  c #83AFC8",
"z  c #8AB0C6",
"x  c #84B1CB",
"c  c #8BB3CB",
"v  c #92B7CC",
"b  c #92B8CE",
"n  c #98BACE",
"m  c #84B5D1",
"M  c #89B7D1",
"N  c #8DBAD4",
"B  c #95BBD2",
"V  c #9ABED3",
"C  c #9FC1D5",
"Z  c #A4C4D5",
"A  c #ABC7D7",
"S  c #A6C7DA",
"D  c #A8C7D8",
"F  c #A4C9DE",
"G  c #ACCBDC",
"H  c #B2CDDD",
"J  c #B7D0DF",
"K  c #B8D0DF",
"L  c #85C3E7",
"P  c #81C3EA",
"I  c #8DC9EC",
"U  c #AFCFE2",
"Y  c #B2CFE0",
"T  c #B5D1E2",
"R  c #BCD6E4",
"E  c #BED8E7",
"W  c #BFDAEA",
"Q  c #A6D5F0",
"!  c #A9D6F1",
"~  c #ADD8F1",
"^  c #B5DBF1",
"/  c #BCDFF3",
"(  c #C1D6E3",
")  c #C5DAE7",
"_  c #CADCE7",
"`  c #C6DBE8",
"'  c #CCDEE9",
"]  c #CEE1EB",
"[  c #D3E3EC",
"{  c #DAE6EE",
"}  c #DCE8EF",
"|  c #C1E2F4",
" . c #CEE8F7",
".. c #DAE7F0",
"X. c #D1E9F7",
"o. c #DDEAF2",
"O. c #D5EBF8",
"+. c #DBEEF9",
"@. c #DFF0F9",
"#. c #E4EDF3",
"$. c #E7F0F5",
"%. c #EBF2F6",
"&. c #E3F2FA",
"*. c #EEF6FB",
"=. c #F2F6F9",
"-. c #F4F9FB",
";. c #FDFDFE",
":. c None",
/* pixels */
":.:.:.:.:.:.:.:.:.:.:.:.:.:.:.:.:.:.:.:.:.:.:.:.:.:.:.:.:.:.:.:.:.:.:.:.:.:.:.:.:.:.:.:.:.:.:.:.:.:.:.:.:.:.:.:.:.:.:.:.:.:.:.:.",
":.:.:.:.:.:.:.:.:.:.:.:.:.:.:.:.:.:.:.:.:.:.:.:.:.:.:.:.:.:.:.:.:.:.:.:.:.:.:.:.:.:.:.:.:.:.:.:.:.:.:.:.:.:.:.:.:.:.:.:.:.:.:.:.",
":.:.:.:.:.:.:.:.:.:.:.:.:.:.:.:.:.:.:.:.:.:.:.:.:.:.:.:.:.:.:.:.:.:.:.:.:.:.:.:.:.:.:.:.:.:.:.:.:.:.:.:.:.:.:.:.:.:.:.:.:.:.:.:.",
":.:.:.:.:.y y y y y y y y y y y y y y y y y y y y y y y 7 y y y y y y y y y y y y y y y y y y y y y y y 7 y y y y y y :.:.:.:.:.",
":.:.:.:.y y t t y 7 y y y y y y y y y y y y y y y y y y y y 7 y t y 7 y y 7 y y y y y y y y y y y y y y y 7 y y t y y y y :.:.:.",
":.:.:.:.j g d j g g g g g g g g g g d g d g d g g h g g g g g g g g g g h g d j g g d g g g d g g h g g g g g g g g g g j :.:.:.",
":.:.:.g d d d d g g g g g g g g g g g g g g g g g g g g g g g g g g g g g g g g h g g g g d g g g g g g g g g g g g g g d :.:.:.",
":.:.:.g j d d d g g g g g g g g g g g g g g g g g g g g g g g g g g g g g g g g d g g g g g g g g g g g g g g g g g g g d :.:.:.",
":.:.:.j g g g g g g g g g g g g d h d g g g g g g g g g g g g g g g g g g d g g g g g g g g g g g g g g g g g g g g g g d :.:.:.",
":.:.:.g g g g g g g g g g g g g g g g g g g g g g g g g g g g g g g g g g g g g g g g g g g g d g g g g g g g g g g g g d :.:.:.",
":.:.:.g j d g g g g g g g g g g g g g g g g g g g g g g g g g g g g g g g g g g g g g g d g g g g g g g g g g g g g g g d :.:.:.",
":.:.:.j d d g g g g g g g g g g g g d g g g g g g g g g g g g g g g g g g g g g g g g g g g g g g g d g g g g g g g g g d :.:.:.",
":.:.:.g g g g g g g g g g g g g g d g g g g g g g g g g g g g g g g g g g g g g g g g g d g g d g g g g g g g g d d d j d :.:.:.",
":.:.:.g g g g d g g g g g g g g g g g g g g g d g g g g g g g g g g g g g g g g g g g g g g g g g g g g g g g g g d d d d :.:.:.",
":.:.:.j g g g g g g g g g g g g g g g g d g g g g g g g g g g g g g g g g g g g g g g g g d g g g g g g g g g g g g d d d :.:.:.",
":.:.:.g g g g g g g g g g g g g g d g g g g g g g g g g g g g g g g g g g g g g g g g g g g g g g g g g g g g g g g d d j :.:.:.",
":.:.:.g j d g g g g g g g g g g g g g g g g g g g g g g g g g g g g g g g g g g g d g j d d j d g g g g g g g d g g g g d :.:.:.",
":.:.:.g d d g g g g g g g g g g g h P P j j g g g g g g g g g g g g g g g g d d d d j j j j j j d d g g g g g g g g g g d :.:.:.",
":.:.:.j j g g g g g g g g d h Q O.*.;.;.;.=.+.~ j g d d g g g g g g g g g g d j Q O.*.;.;.;.=.O.~ j g d g g g g g g g g d :.:.:.",
":.:.:.g d g g g g g g g g ! *.;.;.;.;.;.;.;.;.;.=.^ j j g g g g g g g g g g ~ -.;.;.;.;.;.;.;.;.;.-.^ g g g g g g g g g d :.:.:.",
":.:.:.j d d d d g g g j O.;.;.;.%.[ K A H _ $.;.;.;.$.P g g g g g g g g P O.;.;.;.%.[ J G J [ %.;.;.;.o.P g g g g g g g d :.:.:.",
":.:.:.g j d d d g g j &.;.;.[ k &     . . . @ , R ;.;.%.L g g g g g g j &.;.;.' l * + $ $ $ @ - l ' ;.;.*.L g g g g g d d :.:.:.",
":.:.:.g j d j d g j o.;.%.z . . . . . . X . . O . > { ;.#.s j d g g j @.;.#.k @ $ $ $ $ $ $ $ $ % % l #.;.#.f g g g d d d :.:.:.",
":.:.:.j g d d d g / ;.} = . . . . . . . @ . @ O X X @ R ;._ i h g d | ;.[ = @ $ $ $ $ $ $ $ % $ % % - 1 ' ;.' i g g d j d :.:.:.",
":.:.:.g j d g d P ;.o.& . . . . . . . . X @ . @ X @ @ O K ;.c a j I ;.[ $ @ $ $ $ $ $ $ $ % % % % % % 1 - ] ;.N a d g g d :.:.:.",
":.:.:.g g g g d  .*.= X . . . . . . . * . . @ . @ X @ @ @ [ } @ i X.#.= $ $ @ $ $ $ $ $ : - $ % % % % % - 2 #...1 a g g d :.:.:.",
":.:.:.j g g j P ;.v X . . . . . . v } %.' > X @ O @ @ O @ > =.k 3 =.l $ @ $ $ $ $ $ : ) $.$.S - - % % - - 1 x ;.m 1 d g d :.:.:.",
":.:.:.g j d d ! { . . . . O . O > n k { ;.%.= @ @ @ @ @ @ . H K Z _ @ $ $ $ $ $ $ $ { ;.} x x e % % - % - - % ) T < - i d :.:.:.",
":.:.:.g j d d  .z . . . . . . X . . @ & %.;.n X o o + + + + ; [ ] 9 @ @ @ @ @ # @ r ;.-.8 - - % % % 1 % 1 - 1 r ..1 - 2 i :.:.:.",
":.:.:.g d d j @.. . . . . . . @ . . @ . ) ;.%._ _ _ _ ] ' _ _ =.=.] ] ] ' ' ' ' ' #.;.#.1 % % % 1 - - 1 < 1 - 1 o.2 1 1 2 :.:.:.",
":.:.:.j j d j ` . . . . O . @ O X X @ X } ;.( b v v v v v v b T ] v b B B B b B B G ;.=.3 - % % 1 % % 1 1 % 1 1 G 3 2 2 2 :.:.:.",
":.:.:.g d d j C & @ . @ @ . . . = > * A ;.=.= @ @ @ @ @ $ @ $ 9 c @ $ $ $ $ $ $ - - $.;.' 8 0 e % 1 % 1 - 1 1 1 N 2 < 2 2 :.:.:.",
":.:.:.d j d j M $ @ @ + @ . . @ @ Z #.;.#.l o @ @ @ @ # @ $ @ ; 8 $ $ $ $ % % % * - 0 o.;.=.R 1 - - 1 1 1 1 1 1 e 1 1 4 1 :.:.:.",
":.:.:.j d d d f 2 $ $ @ . . @ X @ O * > - @ @ @ $ @ @ $ $ @ $ - - $ $ $ $ % % % - - - 1 8 3 - - - 1 1 1 1 1 1 1 5 1 1 1 4 :.:.:.",
":.:.:.g g g g d u q > * @ @ X = = > @ @ O @ ; @ @ $ @ = * ; = $ $ $ $ - : : : $ 1 1 % 1 - 3 1 3 1 1 1 3 8 4 3 1 4 1 4 4 2 :.:.:.",
":.:.:.d j g g g h W -.A @ @ X _ %.z O @ @ @ [ = - @ $ c o.( H o.v $ $ r [ o.C % G %.G % 1 T %.H 1 M #.[ F T %.4 1 1 4 1 2 :.:.:.",
":.:.:.j j d d g g f _ #.@ @ : [ { o + @ @ q ;.n @ $ @ o ` B + B $.% % # N ] # $ # ) -.e < # ` % 1 1 Y R < < T 0 2 2 2 2 2 :.:.:.",
":.:.:.d g g g g g P A #., @ V n { O @ @ O Z Z [ @ @ $ # ' V % M $.: % % C ] % % $ U G o.1 % E 1 1 1 T W 1 N 4 2 2 2 4 2 4 :.:.:.",
":.:.:.g d g d j j P D J H @ G x { + @ @ - H ; %.; $ - O ' Z 8 ' C # % % C ] % % % Y 3 ..G % E 1 1 1 Y [ B o.4 1 2 2 2 4 4 :.:.:.",
":.:.:.j j d d d d j A l #.> b c { + @ @ z H v #.V $ $ @ ' ( #.G $ $ % $ C ] % < % Y 3 e =.w E 1 1 1 T ' r X.4 3 4 2 2 4 2 :.:.:.",
":.:.:.g g d d g g P G - #.R = c { + @ @ G l q D { @ $ @ ' B 9 =.e % % % C ] # - % U 3 < U [ R 2 1 2 T W 2 m 4 w 2 4 2 4 4 :.:.:.",
":.:.:.j j d g g g P H @ T ( + z { O $ * H @ $ ; %.> $ # ' B % A { % : % C ] # < % R 3 2 1 o.[ 2 2 2 U E < 2 r R 2 2 4 4 2 :.:.:.",
":.:.:.g g g g g P  .#.V k k 9 _ #.V - ' { e $ B $.[ 3 l #.' 8 - } ] 5 e ] $.B % C %.R 3 1 e [ 2 1 m o.o.U C ..U 2 4 4 4 4 :.:.:.",
":.:.:.g j g g g h p 1 = @ $ - = - = & ; ; = $ - - ; - ; 1 8 1 - : 3 2 : 5 3 3 < 3 8 5 2 1 1 5 1 1 5 w w w y w 6 4 4 2 4 4 :.:.:.",
":.:.:.j d d g g g g y - @ $ $ $ @ $ $ $ $ $ $ $ $ % % - % - % % % % % % 1 1 < : 2 % 1 1 2 1 2 2 2 4 2 2 2 4 4 2 4 4 4 4 4 :.:.:.",
":.:.:.g j d g g g g g y $ $ $ $ $ $ @ $ $ $ $ $ $ $ % % % % - % < % 2 % % - 1 1 < 2 2 - 2 2 2 2 2 2 2 4 2 4 3 4 4 4 4 4 4 :.:.:.",
":.:.:.g g g g g g g g g y - $ $ $ $ $ $ $ $ $ $ % % % - % - % 1 : % 1 % 2 % 2 % 2 2 2 2 1 1 2 2 2 2 2 4 4 2 4 4 4 4 4 4 6 :.:.:.",
":.:.:.j g g g g g g g g g y $ $ $ $ $ $ $ $ % * $ % % % % % % - % < < 2 1 1 1 2 2 - 2 1 2 2 2 2 2 2 4 2 4 2 4 4 4 4 6 4 4 :.:.:.",
":.:.:.g g g g g g g g g g g u < $ % % $ $ % % % % % % % % - % % 1 1 1 1 1 1 1 1 1 2 2 1 2 2 2 4 4 2 4 4 4 4 4 4 4 4 4 7 4 :.:.:.",
":.:.:.g g g g g g g g g g g d u 1 $ % % % $ % % % - % - - - 1 1 % 1 1 1 1 1 4 1 2 1 2 2 2 2 2 1 2 4 4 2 4 4 4 4 4 7 4 4 6 :.:.:.",
":.:.:.j j g d g g g g g g g d d y 1 $ % % % $ % % - % - - < 1 % 1 1 1 1 1 1 1 1 1 4 2 2 4 2 2 4 2 4 4 4 4 4 4 4 4 7 4 7 t :.:.:.",
":.:.:.g d d j g g g g g g g g g g u < % % 1 % % - < % - % 1 % 1 1 1 1 1 1 1 1 4 1 1 2 2 2 2 2 4 4 2 4 4 4 4 4 7 7 4 7 7 4 :.:.:.",
":.:.:.g j d d g g g g g g g g g g g y 1 $ - 1 $ % - % 1 % 1 - 1 < 1 1 1 1 2 1 1 4 1 4 1 4 2 4 4 4 4 4 4 4 4 4 4 4 t 4 y t :.:.:.",
":.:.:.g d d d d g g g g g g g g g g g u 1 % - 1 - % 1 % % 1 1 1 1 1 1 1 2 1 4 1 2 4 1 4 1 4 4 2 4 4 4 4 4 4 7 4 7 4 y 4 t :.:.:.",
":.:.:.j j d d d g g g g g g g g g g g g u 1 < 1 1 % 1 1 1 1 1 1 1 4 1 1 1 2 1 2 4 1 4 4 4 4 4 4 4 4 4 4 4 7 4 7 6 y 6 y 6 :.:.:.",
":.:.:.g d d j d g g d g g g g g g g g g d u 1 - 1 1 % 1 1 1 < 1 1 1 1 1 2 1 4 4 1 4 1 4 4 4 4 4 4 4 4 4 y 4 y 4 y 4 6 y t :.:.:.",
":.:.:.g g g g g g g g g g g g g g g g g g g u 2 - < 1 - 1 1 < 2 1 1 1 1 4 4 1 4 1 4 4 4 4 4 4 4 4 4 4 4 4 7 4 7 7 7 7 y 6 :.:.:.",
":.:.:.j g g g g g g g g g g g g g g g g g g g y 2 1 1 2 1 1 1 1 1 4 1 4 4 1 4 1 2 4 4 2 2 4 4 4 7 4 7 6 y 4 y 6 7 7 7 y t :.:.:.",
":.:.:.g g g g g g g g g g g g g g g g g g g g g u 2 < 2 2 1 1 2 1 1 4 1 1 4 1 4 4 4 4 4 4 4 4 4 4 7 4 7 6 7 4 y 7 7 7 y y :.:.:.",
":.:.:.:.g g g g g g g g g g g g g g g g g g g g g u 2 1 2 2 1 2 1 4 1 4 4 1 4 4 2 4 4 4 4 4 4 4 7 4 7 4 6 7 y 6 7 y y y y :.:.:.",
":.:.:.:.:.d g g d g d g d d d g g d g g d g d g g g u 2 1 2 2 2 2 2 2 2 1 4 4 4 4 2 4 4 4 4 4 6 4 6 6 6 t t t y t y t y :.:.:.:.",
":.:.:.:.:.:.:.:.:.:.:.:.:.:.:.:.:.:.:.:.:.:.:.:.:.:.:.:.:.:.:.:.:.:.:.:.:.:.:.:.:.:.:.:.:.:.:.:.:.:.:.:.:.:.:.:.:.:.:.:.:.:.:.:.",
":.:.:.:.:.:.:.:.:.:.:.:.:.:.:.:.:.:.:.:.:.:.:.:.:.:.:.:.:.:.:.:.:.:.:.:.:.:.:.:.:.:.:.:.:.:.:.:.:.:.:.:.:.:.:.:.:.:.:.:.:.:.:.:.",
":.:.:.:.:.:.:.:.:.:.:.:.:.:.:.:.:.:.:.:.:.:.:.:.:.:.:.:.:.:.:.:.:.:.:.:.:.:.:.:.:.:.:.:.:.:.:.:.:.:.:.:.:.:.:.:.:.:.:.:.:.:.:.:."
};
