/* XPM */
static char *result[] = {
/* columns rows colors chars-per-pixel */
"64 64 14 1 ",
"  c #000063",
". c #8C3900",
"X c #DE6B00",
"o c #FF6B6B",
"O c #18B56B",
"+ c #FF8C18",
"@ c #FFA552",
"# c #C6A56B",
"$ c #5284AD",
"% c #FFD68C",
"& c #FFE7BD",
"* c #FFF7E7",
"= c white",
"- c None",
/* pixels */
"----------------------------------------------------------------",
"----------------------------------------------------------------",
"----------------------------------------------------------------",
"----------------------------------------------------------------",
"----------------------------------------------------------------",
"----------------------------------------------------------------",
"----------------------------------------------------------------",
"----------------------------------------------------------------",
"-------------------------             --------------------------",
"---------------------    @@@@@@@@@@@@@   -----------------------",
"-------------------  @@@@+++++++++++++XXX  ---------------------",
"------------------ @@++++++++++++++++++++XX --------------------",
"----------------- @++++++++ +++++++++++++++X -------------------",
"---------------- @@+ +++++++ +++++++++++++++X ------------------",
"--------------- @@@ @+++ ++++  ++++++++++++++X -----------------",
"-------------  @@@ @++++   ++++   ++++++++@@@+X ----------------",
"-----------  @@@@ @@@ @+ @+      +++++++@@@@@@X ----------------",
"---------   @@ @+ @+ @+ @+X ++++++++@@@@@ @@@@+X ---------------",
"------------  @+ @++ @X +X % @+ @++++++@@X @+++X ---------------",
"------------- @+ @+ @X  +X % @+ @+++++++++ +++++X --------------",
"------------- + @++ + % +X % @+X @++ +@+++X ++++X --------------",
"------------ @+ @+X + % +X %& +X  @+ + X++X ++++X --------------",
"------------ @+ @X  + % +X %&& X % @ + X+++X ++++X -------------",
"------------ @+ X %% %& +X %&&&  %& @ + X++X ++++X -------------",
"------------ @++     %&& + %&&&&     @  X++X ++++X -------------",
"------------ @++ %&&& &&&  %&&  &&&&&  % + X ++++X -------------",
"------------- @+X &&&&&&&&%%&&&&&&&&&&&& + +X +++X -------------",
"------------- @  %&&&&&&&&&&&& &    &&&& +  X ++X --------------",
"------------- @ %&&&&&&&&&&&& &    =  && +  +X +X --------------",
"------------ @+ %& & &&&&&&&&&  = . == & + +    X --------------",
"----------- @+ @ *&   &&&&&&&&    . ==&& +  %% +X --------------",
"-----------   @X * &&& &&&&&&&   .. =&&& + &&&% +X -------------",
"------------- @X *&&&&&&&&&&&&& ..   &&& + &&&% +X -------------",
"------------- @X *&&&&&&&&&&&&&&   &&&&& + & &% +X -------------",
"------------ @+X *&&&&          &&&&&&&& +  = % +X -------------",
"------------ @+  *&&&& ======== &&&&&&    && %  +XX ------------",
"------------ @ +X *&&&      ooo &&&&& *&% %   + ++X ------------",
"------------ @ +X *&&&    ooooo &&&&& &&%  +X+++ ++X -----------",
"------------- - +X **&&  ===== &&&&&  %%% XX+++++  ++ ----------",
"--------------- +XX  ***      &&&&&  #   XXX++X++++  -----------",
"-------------- ++ XX    %%%%%%%%%  & # + XXX++X++++X -----------",
"-------------- ++ XXX &&         &&   X + XXX+X++++X -----------",
"-------------- +XX XXX && %%%% &&  OO X + XX++X +++X -----------",
"-------------- +XX XXXX  O &  O  XX  X + XXX++X ++XXX ----------",
"--------------- XX XXX X OO OOOO XXXXX + XXX+X - X X -----------",
"--------------- X XXXX XX  &    XXXXXX + XX+XX - X  ------------",
"-------------  XX XXX XXX &&&&&& XXXXXX   XXX -   --------------",
"---------------     X  XX & &&&& XXXXXXX - X -------------------",
"-------------------- --  &&&&&&&& XXX X ---  -------------------",
"------------------------             - -------------------------",
"------------------------ $$$$$$$$ ------------------------------",
"------------------------ $$    $$ ------------------------------",
"------------------------- $ --- $ ------------------------------",
"------------------------- &  -- & ------------------------------",
"------------------------   - --   ------------------------------",
"----------------------------------------------------------------",
"----------------------------------------------------------------",
"----------------------------------------------------------------",
"----------------------------------------------------------------",
"----------------------------------------------------------------",
"----------------------------------------------------------------",
"----------------------------------------------------------------",
"----------------------------------------------------------------",
"--------------------    ----------------------    --------------"
};
