/* XPM */
static char *result[] = {
/* columns rows colors chars-per-pixel */
"64 64 155 2 ",
"   c #010101",
".  c #090600",
"X  c #0C0902",
"o  c #00060B",
"O  c #00080F",
"+  c #0B0B0B",
"@  c #130D02",
"#  c #161304",
"$  c #1D1303",
"%  c #000A13",
"&  c #131313",
"*  c #1C1C1C",
"=  c #211604",
"-  c #251904",
";  c #2C1D05",
":  c #28161D",
">  c #202008",
",  c #282609",
"<  c #2C2B0B",
"1  c #332206",
"2  c #392607",
"3  c #3F2A07",
"4  c #37360E",
"5  c #382910",
"6  c #001424",
"7  c #001729",
"8  c #00192D",
"9  c #001D34",
"0  c #2C1921",
"q  c #321B25",
"w  c #391F2A",
"e  c #00223C",
"r  c #242424",
"t  c #2C2C2C",
"y  c #353534",
"u  c #3D3D3D",
"i  c #432D08",
"p  c #482F08",
"a  c #412B07",
"s  c #473008",
"d  c #4C3309",
"f  c #52370A",
"g  c #583A0B",
"h  c #4C2938",
"j  c #422431",
"k  c #512C3C",
"l  c #413C35",
"z  c #40400E",
"x  c #424010",
"c  c #4C4A12",
"v  c #62420C",
"b  c #6A470D",
"n  c #6F4A0D",
"m  c #744D0E",
"M  c #784F0E",
"N  c #7B520F",
"B  c #6E6C1B",
"V  c #676319",
"C  c #7C7A1F",
"Z  c #002A4C",
"A  c #002644",
"S  c #012E52",
"D  c #013156",
"F  c #01345C",
"G  c #013762",
"H  c #013965",
"J  c #013B6A",
"K  c #5B3143",
"L  c #65374A",
"P  c #67384C",
"I  c #68384C",
"U  c #6F3C52",
"Y  c #014377",
"T  c #424242",
"R  c #4C4C4C",
"E  c #545454",
"W  c #5C5C5C",
"Q  c #774057",
"!  c #774058",
"~  c #794159",
"^  c #656565",
"/  c #6D6D6D",
"(  c #747474",
")  c #7A7A7A",
"_  c #83560F",
"`  c #845710",
"'  c #865910",
"]  c #8E5E11",
"[  c #946212",
"{  c #9B6712",
"}  c #9D6813",
"|  c #A46D13",
" . c #A96F14",
".. c #AE7315",
"X. c #B17615",
"o. c #B57815",
"O. c #BD7D16",
"+. c #8A4B66",
"@. c #914E6B",
"#. c #9F5675",
"$. c #AD5E7F",
"%. c #838020",
"&. c #8B8822",
"*. c #9A9725",
"=. c #939124",
"-. c #BBB62E",
";. c #C18017",
":. c #C88518",
">. c #D58D19",
",. c #DA911A",
"<. c #E7991C",
"1. c #EC9C1C",
"2. c #E2951B",
"3. c #F19F1D",
"4. c #F3A11D",
"5. c #FBA71E",
"6. c #FFA91F",
"7. c #C7C331",
"8. c #CDC832",
"9. c #D6D234",
"0. c #E8E239",
"q. c #F1EB3B",
"w. c #FFF93F",
"e. c #FCF63E",
"r. c #014D8A",
"t. c #014A84",
"y. c #015496",
"u. c #01579C",
"i. c #0161AE",
"p. c #026BBE",
"a. c #B26184",
"s. c #BF688D",
"d. c #BD678B",
"f. c #C66C92",
"g. c #D976A0",
"h. c #E57CA8",
"j. c #848484",
"k. c #8A8A8A",
"l. c #959595",
"z. c #9C9C9C",
"x. c #A6A6A6",
"c. c #ACACAC",
"v. c #B3B3B3",
"b. c #BEBEBE",
"n. c #ED81AE",
"m. c #F485B4",
"M. c #C2C2C2",
"N. c #CCCCCC",
"B. c #D4D4D4",
"V. c #DBDBDB",
"C. c #E3E3E3",
"Z. c #ECECEC",
"A. c #F3F3F3",
"S. c #FFFFFF",
"D. c None",
/* pixels */
"D.D.D.D.D.D.D.D.D.D.D.D.D.D.D.D.D.D.D.D.D.D.D.D.D.D.D.D.D.D.D.D.D.D.D.D.D.D.D.D.D.D.D.D.D.D.D.D.D.D.D.D.D.D.D.D.D.D.D.D.D.D.D.D.",
"D.D.D.D.D.D.D.D.D.D.D.D.D.D.D.D.D.D.D.D.D.D.D.D.D.D.D.D.D.D.D.D.D.D.D.D.D.D.D.D.D.D.D.D.D.D.D.D.D.D.D.D.D.D.D.D.D.D.D.D.D.D.D.D.",
"D.D.D.D.D.D.D.D.D.D.D.D.D.D.D.D.D.D.D.D.D.D.D.D.D.D.D.D.D.D.D.D.D.D.D.D.D.D.D.D.D.D.D.D.D.D.D.D.D.D.D.D.D.D.D.D.D.D.D.D.D.D.D.D.",
"D.D.D.D.D.D.D.D.D.D.D.D.D.D.D.D.D.D.D.D.D.D.D.D.D.D.D.D.D.D.D.D.D.D.D.D.D.D.D.D.D.D.D.D.D.D.D.D.D.D.D.D.D.D.D.D.D.D.D.D.D.D.D.D.",
"D.D.D.D.D.D.D.D.D.D.D.D.D.D.D.D.D.D.D.D.D.D.D.D.D.D.D.D.D.D.D.D.D.D.D.D.D.D.D.D.D.D.D.D.D.D.D.D.D.D.D.D.D.D.D.D.D.D.D.D.D.D.D.D.",
"D.D.D.D.D.D.D.D.D.D.D.D.D.D.D.D.D.D.D.D.D.D.D.D.D.D.D.D.D.D.D.D.D.D.D.D.D.D.D.D.D.D.D.D.D.D.D.D.D.D.D.D.D.D.D.D.D.D.D.D.D.D.D.D.",
"D.D.D.D.D.D.D.D.D.D.D.D.D.D.D.D.D.D.D.D.D.D.D.D.D.D.D.D.D.D.D.D.D.D.D.D.D.D.D.D.D.D.D.D.D.D.D.D.D.D.D.D.D.D.D.D.D.D.D.D.D.D.D.D.",
"D.D.D.D.D.D.D.D.D.D.D.D.D.D.D.D.D.D.D.D.D.  o % % o o D.D.D.D.D.D.D.D.D.D.D.D.D.D.D.D.D.D.D.D.D.D.D.D.D.D.D.D.D.D.D.D.D.D.D.D.D.",
"D.D.D.D.D.D.D.D.D.D.D.D.D.D.D.D.D.D.  % A J r.y.u.y.t.G 9     D.D.D.D.D.D.D.D.D.D.D.D.D.D.D.D.D.D.D.D.D.D.D.D.D.D.D.D.D.D.D.D.D.",
"D.D.D.D.D.D.D.D.D.D.D.D.D.D.D.D.  e r.p.p.p.p.p.p.p.p.p.p.i.F o   D.D.D.D.D.D.D.D.D.D.D.D.D.D.D.D.D.D.D.D.D.D.D.D.D.D.D.D.D.D.D.",
"D.D.D.D.D.D.D.D.D.D.D.D.D.D.  6 y.p.p.p.p.p.p.p.p.p.p.p.p.p.p.i.A   D.D.D.D.D.D.D.D.D.D.D.D.+ + r + + D.D.D.D.D.D.D.D.D.D.D.D.D.",
"D.D.D.D.D.D.D.D.D.D.D.D.D.  o G J J H H J G H G H G G G G G G G G %   D.D.D.D.D.D.D.D.D.. ^ B.S.S.S.V./ o D.D.D.D.D.D.D.D.D.D.D.",
"D.D.D.D.D.D.D.D.D.D.D.D.. ( k.k.k.k.k.k.k.k.k.k.k.k.k.k.k.j.k.k.j.k.j.& D.D.D.D.D.D.D.& N.S.S.S.S.S.S.S.. D.D.D.D.D.D.D.D.D.D.D.",
"D.D.D.D.D.D.D.D.D.D.D.  j.S.S.S.S.S.S.S.S.S.S.S.S.S.S.S.S.S.S.S.S.S.S.M.  D.D.D.D.D.+ B.S.S.S.C.l.j.l.^ * c.l.t o D.D.D.D.D.D.D.",
"D.D.D.D.D.D.D.D.D.D.D.T S.S.S.S.S.S.S.S.S.S.S.S.S.S.S.S.S.S.S.S.S.S.S.S.)   D.D.D.. l.S.S.S.l.+         R S.S.S.^ . D.D.D.D.D.D.",
"D.D.D.D.D.D.D.D.D.D.  E ) ) ) ) ) ) ( ) ) ) ) ) ) ) ) ) ) ) ) ) ) ) ) ) (   D.D.D.& A.S.S.M.              V.S.S.A.t D.D.D.D.D.D.",
"D.D.D.D.D.D.D.D.D.  9 H G G G G G G G G G F G G G G F F F F F D D D S S Z Z   D.D.u S.S.S./               R S.S.S.k.D.D.D.D.D.D.",
"D.D.D.D.D.D.D.D.D.o i.p.p.p.p.p.p.p.p.p.p.p.p.p.p.p.p.p.p.p.p.p.p.p.p.p.p.p.e D.D.T S.S.S./                 B.S.S.b.  D.D.D.D.D.",
"D.D.D.D.D.D.D.D.D.Z p.p.p.p.p.p.p.p.p.p.p.p.p.p.p.p.p.p.p.p.p.p.p.p.p.p.p.p.Y   D.t S.S.S.l.                k.S.S.v.D.D.D.D.D.D.",
"D.D.D.D.D.D.D.D.  % 6 6 6 6 6 6 6 7 7 7 7 7 7 7 7 8 7 8 8 8 9 8 8 8 8 9 8 8 6   D.+ Z.S.S.C..               x.S.S.) D.D.D.D.D.D.",
"D.D.D.D.D.D.D.D.. M.b.b.M.b.b.b.M.b.b.b.b.b.b.b.b.b.b.b.b.b.b.b.b.b.b.b.b.b.b.t D.D.l.S.S.S.j.            R S.S.S.t D.D.D.D.D.D.",
"D.D.D.D.D.D.D.D.y S.S.S.S.S.S.S.S.S.S.S.S.S.S.S.S.S.S.S.S.S.S.S.S.S.S.S.S.S.S.W D.D.t S.S.S.S.z.r   + E c.S.S.S.M.+ D.D.D.D.D.D.",
"D.D.D.D.D.D.D.D.R S.S.S.S.S.S.S.S.S.S.S.S.S.S.S.S.S.S.S.S.S.S.S.S.S.S.S.S.S.S.) D.D.D.) S.S.S.S.S.S.S.S.S.S.S.S.A.z.r D.D.D.D.D.",
"D.D.D.D.D.D.D.D.+ y y y y u u u u u u u u u T u T u T T u T T T T T T T T T T * D.D.D.. l.S.S.S.S.S.S.S.S.S.S.S.S.S.S.k.+ D.D.D.",
"D.D.D.D.D.D.D.D.R Z.Z.C.C.V.c.&         j.V.V.V.B.B.B.N.N.N.M.M.M.M.b.M.b.b.b.E D.D.D.& T b.S.S.S.S.S.S.S.S.S.M.c.S.S.S.N.* D.D.",
"D.D.D.D.D.D.D.D.T S.S.S.S.A.*             x.S.S.S.S.S.S.S.S.S.S.S.S.S.S.S.S.S.W . t l.A.S.S.S.S.S.S.S.S.S.S.S.Z.R ^ A.S.S.V.r D.",
"D.D.D.D.D.D.D.D.r S.S.S.S.(               & A.S.S.S.S.S.S.S.Z.N.A.S.S.S.S.S.S.u ^ A.S.S.S.S.S.S.S.S.S.S.S.S.S.S.S.z.u C.S.S.b.. ",
"D.D.D.D.D.D.D.D.  A.S.S.S.t                 M.S.S.S.S.S.V.T R ^ y ) A.S.S.S.S.+ Z.S.S.S.S.S.Z.Z.S.S.S.S.S.S.y B.S.S.N.r N.S.S.& ",
"D.D.D.D.D.D.D.D.+ c.S.S.S.o                 x.S.S.S.S.B.y N.S.S.S.k.R S.S.S.N.t S.S.S.B.^ r + + * W N.S.S.S.v.* B.S.S.M.& N.A.+ ",
"D.D.D.D.D.D.D.D.D.W S.S.S.y                 N.S.S.S.S.N.C.S.S.S.S.S.V.S.S.S.( j.S.S.) + D.D.D.D.D.D.  ^ A.S.S.v.* B.S.S.k.& y D.",
"D.D.D.D.D.D.D.D.D.+ Z.S.S.z.              t S.S.S.S.S.S.S.S.S.S.S.S.S.S.S.A.& C.A.R + D.D.D.D.D.D.D.D.D.u Z.S.S.x.r Z.S.S.+ D.D.",
"D.D.D.D.D.D.D.D.D.. ) S.S.S.E           & N.S.S.S.S.S.S.S.S.S.S.S.S.S.S.S.k.^ A.T + D.D.D.D.D.D.D.D.D.D.D.R A.S.S.j.u S.A.* D.D.",
"D.D.D.D.D.D.D.D.D.  . B.S.S.S.k.*   + E V.S.S.S.S.S.S.S.S.S.S.S.S.S.S.S.C.& k.E   D.D.D.D.D.D.D.D.D.D.D.D.D.^ S.S.S.& ^ y D.D.D.",
"D.D.D.D.D..   ; 2 .   t A.S.S.S.S.Z.S.S.S.S.S.b.v.S.S.S.S.S.S.S.S.S.S.A.y g v .       D.D.D.D.D.D.D.D.D.D.D.+ k.S.c.+ D.D.D.D.D.",
"D.D.D.. ; | 4.6.6.5.[ @ u A.S.S.S.S.S.S.S.S.A.    Z.S.S.S.S.S.S.S.S.A.R | [ @ m ;.>.| d   D.D.D.D.D.D.D.D.D.D.& .   D.D.D.D.D.D.",
"D.D.. N 5.6.6.6.6.6.6.,.@ t B.S.S.S.S.S.S.S.S.^ ^ S.S.S.S.S.S.S.S.V.l o.[ 2 <.6.6.6.6.6.:.- D.D.D.D.D.D.D.D.D.D.D.D.D.D.D.D.D.D.",
"D.. ] 6.6.6.6.6.6.6.6.6.o.  + ) Z.S.S.S.S.S.S.S.S.S.S.S.S.S.S.A.j.5 >.,.; 4.6.6.6.6.6.6.6.<.; D.D.D.D.D.D.D.D.D.D.D.D.D.D.D.D.D.",
"D.p 6.6.6.6.6.:.| ;.6.6.6.$     * ^ v.Z.S.S.S.S.S.S.S.S.A.v.W * 1 4.6.b | 6.6.6.6.6.6.6.6.6.O.D.D.D.D.D.D.D.D.D.D.D.D.D.D.D.D.D.",
"X ;.6.6.6.5.f a N ; ..6.6.i   & A.b.^ r r u E ^ ^ E u r y / b.A.& ,.6.= 4.6.6.M # . f 1.6.6.6.3 D.D.D.D.D.D.D.D.D.D.D.D.D.D.D.D.",
"X 6.6.6.6.' b 6.6.6.6.6.6.a   ( S.S.S.( q a.a.K k a.a.w / S.S.S.k.n 6.  5.6.5.o.6.6.] a 6.6.6.N D.D.D.D.D.D.D.D.D.D.D.D.D.D.D.D.",
"2 6.6.6.6.$ 1.6.6.6.6.6.6.-   B.S.S.b.: h.m.m.+.! m.m.n.q v.S.S.Z.$ 6.  3.6.6.6.6.6.6.3 >.6.6.} D.D.D.D.D.D.D.D.D.D.D.D.D.D.D.D.",
"3 6.6.6.4.# 6.6.6.6.6.6.>.  * S.S.S.T d.m.m.m.+.~ m.m.m.d.T S.S.S.T 2.1 X.6.6.6.6.6.6.M ..6.6.| D.D.D.D.D.D.D.< D.D.D.D.D.D.D.D.",
"; 6.6.6.5.@ 1.6.6.6.6.6.i d E S.S.A.0 m.m.m.m.+.! m.m.m.m.: A.S.S.) O.N i 6.6.6.6.6.6.b o.6.6._ D.D.D.D.D.D.c &.D.D.D.D.D.D.D.D.",
"@ 1.6.6.6.` p <.6.6.,.p M ] ) S.S.N.L m.m.m.m.+.~ m.m.m.m.k N.S.S.l.{ 4.$ M 6.6.6.6.,.= 1.6.6.d D.D.D.D.D.D.-.q.4 D.D.D.D.D.D.D.",
"D.[ 6.6.6.6.` @ 1 - d ;.6.` j.S.S.b.U m.m.m.m.+.~ m.m.m.m.U M.S.S.c.' 6.>.- 1 ' ..m = o.6.6.,.. D.D.D.D.D.%.w.w.7.< D.D.D.D.D.D.",
"D.= <.6.6.6.6.5.1.6.6.6.6.` j.S.S.M.U m.m.m.m.+.! m.m.m.m.K N.S.S.z._ 6.6.6. .N N { 1.6.6.5.3 D.D.D.D.< *.w.w.w.w.8.x D.D.D.D.D.",
"D.D.3 1.6.6.6.6.6.6.6.6.6.| ) S.S.V.j m.m.m.m.+.~ m.m.m.m.q A.S.S.j.' 6.6.6.6.6.6.6.6.6.4.g D.D.D.D.  B q.w.w.w.w.w.=.# D.D.D.D.",
"D.D.D.- | 6.6.6.6.6.6.4.] @ R S.S.S.r h.m.m.m.+.~ m.m.m.g.u S.S.S.R @ [ 4.6.6.6.6.6.6.X.- X D.D.D.D.D.D.4 0.w.w.e.V D.D.D.D.D.D.",
"D.D.D.D.. $ v ' [ _ d X D.D.& A.S.S.j.L m.m.m.+.~ m.m.m.I x.S.S.A.+ D.  . s ` [ [ n -   D.D.D.D.D.D.D.D.D.c w.w.C D.D.D.D.D.D.D.",
"D.D.D.D.D.D.D.D.D.D.D.D.D.D.+ v.S.S.A.r @.m.m.+.~ m.n.$.u S.S.S.z.. D.D.D.D.  . . D.D.D.D.D.D.D.D.D.D.D.D.D.*.9.D.D.D.D.D.D.D.D.",
"D.D.D.D.D.D.D.D.D.D.D.D.D.D.D.y S.S.S.V.r h a.~ ! f.L u Z.S.S.A.r D.D.D.D.D.D.D.D.D.D.D.D.D.D.D.D.D.D.D.D.D.x B D.D.D.D.D.D.D.D.",
"D.D.D.D.D.D.D.D.D.D.D.D.D.D.D.. l.S.S.S.A.l.T t t E x.A.S.S.S.( D.D.D.D.D.D.D.D.D.D.D.D.D.D.D.D.D.D.D.D.D.D.D.> D.D.D.D.D.D.D.D.",
"D.D.D.D.D.D.D.D.D.D.D.D.D.D.D.D.+ b.S.S.S.S.S.S.S.S.S.S.S.S.z.. D.D.D.D.D.D.D.D.D.D.D.D.D.D.D.D.D.D.D.D.D.D.D.D.D.D.D.D.D.D.D.D.",
"D.D.D.D.D.D.D.D.D.D.D.D.D.D.D.D.D.& x.S.S.S.S.S.S.S.S.S.S.j.  D.D.D.D.D.D.D.D.D.D.D.D.D.D.D.D.D.D.D.D.D.D.D.D.D.D.D.D.D.D.D.D.D.",
"D.D.D.D.D.D.D.D.D.D.D.D.D.D.D.D.D.D.  E B.S.S.S.S.S.S.M.u   D.D.D.D.D.D.D.D.D.D.D.D.D.D.D.D.D.D.D.D.D.D.D.D.D.D.D.D.D.D.D.D.D.D.",
"D.D.D.D.D.D.D.D.D.D.D.D.D.D.D.D.D.D.D.D.. t ^ j.j.^ r   D.D.D.D.D.D.D.D.D.D.D.D.D.D.D.D.D.D.D.D.D.D.D.D.D.D.D.D.D.D.D.D.D.D.D.D.",
"D.D.D.D.D.D.D.D.D.D.D.D.D.D.D.D.D.D.D.D.D.D.D.D.D.D.D.D.D.D.D.D.D.D.D.D.D.D.D.D.D.D.D.D.D.D.D.D.D.D.D.D.D.D.D.D.D.D.D.D.D.D.D.D.",
"D.D.D.D.D.D.D.D.D.D.D.D.D.D.D.D.D.D.D.D.D.D.D.D.D.D.D.D.D.D.D.D.D.D.D.D.D.D.D.D.D.D.D.D.D.D.D.D.D.D.D.D.D.D.D.D.D.D.D.D.D.D.D.D.",
"D.D.D.D.D.D.D.D.D.D.D.D.D.D.D.D.D.D.D.D.D.D.D.D.D.D.D.D.D.D.D.D.D.D.D.D.D.D.D.D.D.D.D.D.D.D.D.D.D.D.D.D.D.D.D.D.D.D.D.D.D.D.D.D.",
"D.D.D.D.D.D.D.D.D.D.D.D.D.D.D.D.D.D.D.D.D.D.D.D.D.D.D.D.D.D.D.D.D.D.D.D.D.D.D.D.D.D.D.D.D.D.D.D.D.D.D.D.D.D.D.D.D.D.D.D.D.D.D.D.",
"D.D.D.D.D.D.D.D.D.D.D.D.D.D.D.D.D.D.D.D.D.D.D.D.D.D.D.D.D.D.D.D.D.D.D.D.D.D.D.D.D.D.D.D.D.D.D.D.D.D.D.D.D.D.D.D.D.D.D.D.D.D.D.D.",
"D.D.D.D.D.D.D.D.D.D.D.D.D.D.D.D.D.D.D.D.D.D.D.D.D.D.D.D.D.D.D.D.D.D.D.D.D.D.D.D.D.D.D.D.D.D.D.D.D.D.D.D.D.D.D.D.D.D.D.D.D.D.D.D.",
"D.D.D.D.D.D.D.D.D.D.D.D.D.D.D.D.D.D.D.D.D.D.D.D.D.D.D.D.D.D.D.D.D.D.D.D.D.D.D.D.D.D.D.D.D.D.D.D.D.D.D.D.D.D.D.D.D.D.D.D.D.D.D.D.",
"D.D.D.D.D.D.D.D.D.D.D.D.D.D.D.D.D.D.D.D.D.D.D.D.D.D.D.D.D.D.D.D.D.D.D.D.D.D.D.D.D.D.D.D.D.D.D.D.D.D.D.D.D.D.D.D.D.D.D.D.D.D.D.D."
};
