/* XPM */
static char *result[] = {
/* columns rows colors chars-per-pixel */
"64 64 16 1 ",
"  c #000042",
". c #000063",
"X c #DE5A39",
"o c #EF845A",
"O c #EF947B",
"+ c #0000A5",
"@ c #314A8C",
"# c #219484",
"$ c #7384B5",
"% c #EFCEBD",
"& c #FFD6BD",
"* c #FFE7BD",
"= c #FFEFDE",
"- c #FFF7EF",
"; c white",
": c None",
/* pixels */
"::::::::::::::::::::::::::::::::::::::::::::::::::::::::::::::::",
"::::::::::::::::::::::::::::::::::::::::::::::::::::::::::::::::",
"::::::::::::::::::::::::::::::::::::::::::::::::::::::::::::::::",
"::::::::::::::::::::::::::::::::::::::::::::::::::::::::::::::::",
":::::::::::::::::::::::::..........:::::::::::::::::::::::::::::",
"::::::::::::::::::::::....++++++++....::::::::::::::::::::::::::",
"::::::::::::::::::::..++++........    ..::::::::::::::::::::::::",
"::::::::::::::::::..+.......................::::::::::::::::::::",
":::::::::::::::::.++...;;;;;;;;;;;....;;;;;;..::::::::::::::::::",
"::::::::::::::::.+....;XXXXXXXX==X;;;;XXXX==;;.:::::::::::::::::",
":::::::::::::::.+.....;XXXXXXXX==X;..;XXXX==X;.:::::::::::::::::",
"::::::::::::::.+......;XXXXXXXXXX;....;XXXXXX;.:::::::::::::::::",
":::::::::::::.+......;;XXXXXXXX;;......;;XXXX;.:::::::::::::::::",
":::::::::::::.......;..;;XXXX;;..........;;XX;.:::::::::::::::::",
"::::::::::::.+......;....;;;;..=..=.=.=.&..;;.::::::::::::::::::",
"::::::::::::.+......;..==....=============&....:::::::::::::::::",
"::::::::::::.+.....;...====================&...:::::::::::::::::",
":::::::::::.+......;..=====================&.. .::::::::::::::::",
":::::::::::.+......;...====================&.. .::::::::::::::::",
":::::::::::.+.....;.=.======================&. .::::::::::::::::",
"::::::::::.+......;.=.==...================.&. .::::::::::::::::",
"::::::::::.+......;.=.=====...===========..=&. .::::::::::::::::",
"::::::::::.+.....;.=.=======.=...======..==.&. .::::::::::::::::",
"::::::::::.+.....;.=.=====......=========..=.. .::::::::::::::::",
"::::::::::.+.....;.=.===..##..;.========..;.&. .::::::::::::::::",
"::::::::::.+.......=.=..;;.#...=.======.;..#.. .::::::::::::::::",
"::::::::::.+...==..==.=;;;.##..=========;.#... .::::::::::::::::",
"::::::::::.+..-===.==.==......==========....&. :::::::::::::::::",
"::::::::::..+.-===.=.=======================&. :::::::::::::::::",
":::::::::::.+.-===.=.=======================&. .::::::::::::::::",
":::::::::::.+.-=====.=======================&. .::::::::::::::::",
":::::::::::.+..---==.======================& . .::::::::::::::::",
"::::::::::::.+....-==.==========.======.===&.. .::::::::::::::::",
"::::::::::::.+.....--.===========......===&... ..:::::::::::::::",
":::::::::::::.+......-==================&&... ...:::::::::::::::",
"::::::::::::::.+......----=============&..... ....::::::::::::::",
"::::::::::::::.+..........&&&&&&&&&&&&...... .....::::::::::::::",
"::::::::::::::.+............................ .....::::::::::::::",
"::::::::::::::.+..........$@.@@.&&&.@...... ......::::::::::::::",
"::::::::::::::.+..........$@@@.=====.@...  ......:::::::::::::::",
"::::::::::::::.+..........$$.@@..==.@@...........:::::::::::::::",
"::::::::::::::.+.............@@@@.=.@............:::::::::::::::",
":::::::::::::.+..+....+...=.............+.......::::::::::::::::",
":::::::::::::...+..+.+....=...======...+.+......::::::::::::::::",
"::::::::::::.+++.::.+.:..==&..........+.:...:...::::::::::::::::",
":::::::::::::....:::..::.==&.%OOOOOOo..:::.:::::::::::::::::::::",
"::::::::::::::::::::::::.&&&..%OOOOOo.::::::::::::::::::::::::::",
":::::::::::::::::::::::::....&.%OOOOo.::::::::::::::::::::::::::",
"::::::::::::::::::::::::::::.*..ooooo.::::::::::::::::::::::::::",
":::::::::::::::::::::::::::..*.:......::::::::::::::::::::::::::",
":::::::::::::::::::::::::::.:...:::..:::::::::::::::::::::::::::",
"::::::::::::::::::::::::::::::::::::::::::::::::::::::::::::::::",
"::::::::::::::::::::::::::::::::::::::::::::::::::::::::::::::::",
"::::::::::::::::::::::::::::::::::::::::::::::::::::::::::::::::",
"::::::::::::::::::::::::::::::::::::::::::::::::::::::::::::::::",
"::::::::::::::::::::::::::::::::::::::::::::::::::::::::::::::::",
"::::::::::::::::::::::::::::::::::::::::::::::::::::::::::::::::",
"::::::::::::::::::::::::::::::::::::::::::::::::::::::::::::::::",
"::::::::::::::::::::::::::::::::::::::::::::::::::::::::::::::::",
"::::::::::::::::::::::::::::::::::::::::::::::::::::::::::::::::",
"::::::::::::::::::::::::::::::::::::::::::::::::::::::::::::::::",
"::::::::::::::::::::::::::::::::::::::::::::::::::::::::::::::::",
"::::::::::::::::::::::::::::::::::::::::::::::::::::::::::::::::",
"::::::::::::::::::::::::::::::::::::::::::::::::::::::::::::::::"
};
