/* XPM */
static char *result[] = {
/* columns rows colors chars-per-pixel */
"64 64 101 2 ",
"   c #BD0101",
".  c #BD0A0A",
"X  c #C30101",
"o  c #CD0000",
"O  c #C50C0C",
"+  c #CA0C0C",
"@  c #D30000",
"#  c #D90101",
"$  c #C41313",
"%  c #CA1414",
"&  c #C61D1D",
"*  c #CD1D1D",
"=  c #D21212",
"-  c #E60000",
";  c #EF0000",
":  c #E50808",
">  c #F20000",
",  c #F30A0A",
"<  c #E81717",
"1  c #F21313",
"2  c #F31A1A",
"3  c #C52020",
"4  c #CD2222",
"5  c #C62D2D",
"6  c #CB2B2B",
"7  c #D42424",
"8  c #C53232",
"9  c #CA3131",
"0  c #CB3A3A",
"q  c #D43434",
"w  c #D13939",
"e  c #E62F2F",
"r  c #EF2B2B",
"t  c #F32323",
"y  c #F42C2C",
"u  c #F53131",
"i  c #F53D3D",
"p  c #CF4A4A",
"a  c #D44545",
"s  c #D34B4B",
"d  c #DC4E4E",
"f  c #DF5656",
"g  c #D55B5B",
"h  c #DD5D5D",
"j  c #F44444",
"k  c #F54A4A",
"l  c #F65151",
"z  c #F65B5B",
"x  c #DA6464",
"c  c #DD6C6C",
"v  c #DE7272",
"b  c #DE7D7D",
"n  c #E06464",
"m  c #E26C6C",
"M  c #F56363",
"N  c #F66A6A",
"B  c #E37474",
"V  c #E37C7C",
"C  c #F37B7B",
"Z  c #F87D7D",
"A  c #DF8383",
"S  c #E48585",
"D  c #E88484",
"F  c #E48B8B",
"G  c #EA8C8C",
"H  c #F78181",
"J  c #F88080",
"K  c #F98B8B",
"L  c #E59494",
"P  c #E89797",
"I  c #E69B9B",
"U  c #E99C9C",
"Y  c #F09393",
"T  c #F99696",
"R  c #F69D9D",
"E  c #FA9D9D",
"W  c #E6A2A2",
"Q  c #EBA4A4",
"!  c #EBACAC",
"~  c #F9A4A4",
"^  c #FBACAC",
"/  c #EDB4B4",
"(  c #EEBEBE",
")  c #F0B4B4",
"_  c #FBB3B3",
"`  c #F1BEBE",
"'  c #EEC0C0",
"]  c #F2C3C3",
"[  c #FCC1C1",
"{  c #F3CCCC",
"}  c #FDCDCD",
"|  c #F5D4D4",
" . c #FCD5D5",
".. c #F6DBDB",
"X. c #FBDDDD",
"o. c #F7E0E0",
"O. c #FAE3E3",
"+. c #FBEAEA",
"@. c #FDF4F4",
"#. c #FFFEFE",
"$. c None",
/* pixels */
"$.$.$.$.$.$.$.$.$.$.$.$.$.$.$.$.$.$.$.$.$.$.$.$.$.$.$.$.$.$.$.$.$.$.$.$.$.$.$.$.$.$.$.$.$.$.$.$.$.$.$.$.$.$.$.$.$.$.$.$.$.$.$.$.",
"$.$.$.$.$.$.$.$.$.$.$.$.$.$.$.$.$.$.$.$.$.$.$.$.$.$.$.$.$.$.$.$.$.$.$.$.$.$.$.$.$.$.$.$.$.$.$.$.$.$.$.$.$.$.$.$.$.$.$.$.$.$.$.$.",
"$.$.$.$.$.$.$.$.$.$.$.$.$.$.$.$.$.$.$.$.$.$.$.$.$.$.$.$.$.$.$.$.$.$.$.$.$.$.$.$.$.$.$.$.$.$.$.$.$.$.$.$.$.$.$.$.$.$.$.$.$.$.$.$.",
"$.$.$.$.$.# # # # # # # # # # # # # # # # # # # # # # # # # # # # # # # # # # # # # # # # # # # # # # # # # # # # # # $.$.$.$.$.",
"$.$.$.$.# # # # # # # # # # # # # # # # # # # # # # # # # # # # # # # # # # # # # # # # # # # # # # # # # # # # # # # # : $.$.$.",
"$.$.$.$.> > > > > > > > , > > > > > > > > > > > > , > > > > > > > > > > , > > > > > > > > > > > > , > > > > > > > > > > > $.$.$.",
"$.$.$., > > > > > > > > > > > > > > > > > > > > > > > > > > > > > > > > > > > > > > > > > > > > > > > > > > > > > > > > > $.$.$.",
"$.$.$., > > > > > > > > > > > > > > > > > > > > > > > > > > > > > > > > > > > > > > > > > > > > > > > > > > > > > > > > > $.$.$.",
"$.$.$., > > > > > > > > > > > > > > > > > > > > > > > > > , - r y 2 , > > > > > > > > > > > > > > > > > > > > > > > > > > $.$.$.",
"$.$.$., > > > > > > > > > > > > > > > > > > > > > > u K [ +.e o.#.@.X.^ N 1 > > > > > > > > > > > > > > > > > > > > > > > $.$.$.",
"$.$.$., > > > > > > > > > > > > > > > > > > > > i ^ @.#.#.#.8 ..#.#.#.#.#.+.H 1 > > > > > > > > > > > > > > > > > > > > > $.$.$.",
"$.$.$., > > > > > > > > > > > > > > > > > > , K @.#.#.#.#.#.8 ..#.#.#.#.#.#.#.X.k > > > > > > > > > > > > > > > > > > > > $.$.$.",
"$.$.$., > > > > > > > > > > > > > > > > > 2 } #.#.#.#.#.#.#.5 { #.#.#.#.#.#.#.#.#.C , > > > > > > > > > > > > > > > > > > $.$.$.",
"$.$.$., > > > > > > > > > > > > > > > > y X.#.#.#.#.#.#.#.#.8 { #.#.#.#.#.#.#.#.#.#.P ; > > > > > > > > > > > > > > > > > $.$.$.",
"$.$.$., > > > > > > > > > > > > > > > t X.#.#.#.#.#.#.#.#.#.8 { #.#.#.#.#.#.#.#.#.#.#.G > > > > > > > > > > > > > > > > > $.$.$.",
"$.$.$., > > > > > > > > > > > > > > , [ #.#.#.#.#.#.#.#.#.| 5 W @.#.#.#.#.#.#.#.#.#.#.@.n ; > > > > > > > > > > > > > > > $.$.$.",
"$.$.$., > > > > > > > > > > > > > > T #.#.#.#.#.#.#.#.#.A .     g @.#.#.#.#.#.#.#.#.#.#.+.4 ; > > > > > > > > > > > > > > $.$.$.",
"$.$.$., > > > > > > > > > > > > > j @.#.#.#.#.#.#.#.#.| .         A #.#.#.#.#.#.#.#.#.#.#.( o ; > > > > > > > > > > > > > $.$.$.",
"$.$.$., > > > > > > > > > > > > ,  .#.#.#.#.#.#.#.#.#./ .         8 #.#.#.#.#.#.#.#.#.#.#.#.s o ; > > > > > > > > > > > > $.$.$.",
"$.$.$., > > > > > > > > > > > > z #.#.#.#.#.#.#.#.#.#.' .         0 #.#.#.#.#.#.#.#.#.#.#.#.{ O o ; > > > > > > > > > > > $.$.$.",
"$.$.$., > > > > > > > > > > > ,  .#.#.#.#.#.#.#.#.#.#.@.p         g @.#.#.#.#.#.#.#.#.#.#.#.#.a X o ; > > > > > > > > > > $.$.$.",
"$.$.$., , > > > > > > > > > > j #.#.#.#.#.#.#.#.#.#.@.A 5           p @.#.#.#.#.#.#.#.#.#.#.#.Q X X o ; > > > > > > > > > $.$.$.",
"$.$.$., > > > > > > > > > > > E #.#.#.#.#.#.#.#.#.#.b                 A #.#.#.#.#.#.#.#.#.#.#.@.4 X o o ; > > > > > > > > $.$.$.",
"$.$.$., > > > > > > > > > > 1 +.#.#.#.#.#.#.#.#.#.! .       X   X   X $ | #.#.#.#.#.#.#.#.#.#.#.m X X o o > > > > > > > > $.$.$.",
"$.$.$., > > > > > > > > > > l #.#.#.#.#.#.#.#.#.#.0   . $       X   . X b #.#.#.#.#.#.#.#.#.#.#.P X o X o o ; > > > > > > $.$.$.",
"$.$.$., > > > > > > > > > > Z #.#.#.#.#.#.#.#.#.(     F 8   X     X x X 6 @.#.#.#.#.#.#.#.#.#.#.| + X o X o o ; > > > > > $.$.$.",
"$.$.$., > > > > > > > > > > ^ #.#.#.#.#.#.#.#.#.g   5 o.&     X X . W & O ' #.#.#.#.#.#.#.#.#.#.@.* o X o o X @ ; > > > > $.$.$.",
"$.$.$., > > > > > > > > > ,  .#.#.#.#.#.#.#.#.@.8 . A o.$ X       X F x X V #.#.#.#.#.#.#.#.#.#.#.a X o o X o o @ ; > > > $.$.$.",
"$.$.$., > > > > > > > > > 1 @.#.#.#.#.#.#.#.#.+.$ O | ...     X   X v ! X a #.#.#.#.#.#.#.#.#.#.#.n o X o o X o o @ ; > > $.$.$.",
"$.$.$., > > > > > > > > > y #.#.#.#.#.#.#.#.#.' . 8 #.{   X X X X X g X.$ 9 @.#.#.#.#.#.#.#.#.#.#.B o o o o o o o o @ > > $.$.$.",
"$.$.$., > > > > > > > > > i #.#.#.#.#.#.#.#.#.!   c #./     X   X X a #.6 $ o.#.#.#.#.#.#.#.#.#.#.F X o X o o o o o o @ ; $.$.$.",
"$.$.$., > > > > > > > > > k #.#.#.#.#.#.#.#.#.I   S #.W   X X X X X 8 #.d X ] #.#.#.#.#.#.#.#.#.#.U o o o o o o o o o @ @ $.$.$.",
"$.$.$., > > > > > > > > > k #.#.#.#.#.#.#.#.#.L   L #.A X X X X X X 6 @.c X ! #.#.#.#.#.#.#.#.#.#.G o o o o o o @ o o o @ $.$.$.",
"$.$.$., > > > > > > > > > i #.#.#.#.#.#.#.#.#.I   I #.x   X X X X X & +.S X P #.#.#.#.#.#.#.#.#.#.V o o o o o o o o @ o o $.$.$.",
"$.$.$., > > > > > > > > > u #.#.#.#.#.#.#.#.#.!   L @.0 X X X X X X % O.U X S #.#.#.#.#.#.#.#.#.#.m X o o o o o @ o @ @ @ $.$.$.",
"$.$.$., > > > > > > > > > 1 @.#.#.#.#.#.#.#.#.]   F @.4 + $ / 0 X X + | ` X F #.#.#.#.#.#.#.#.#.#.d o o o o @ o o @ @ o o $.$.$.",
"$.$.$., > > > > > > > > > , O.#.#.#.#.#.#.#.#.o.$ L ..O X v #.( + X o | @.S ..#.#.#.#.#.#.#.#.#.@.4 o o o o o @ @ o o @ @ $.$.$.",
"$.$.$., > > > > > > > > > > _ #.#.#.#.#.#.#.#.#.L +.'   X / #.@.9 X X | #.#.#.#.#.#.#.#.#.#.#.#.O.+ o @ o @ o o @ @ @ @ @ $.$.$.",
"$.$.$., > > > > > > > > > > J #.#.#.#.#.#.#.#.#.#.#.Q X O ..#.#.S o X ] #.#.#.#.#.#.#.#.#.#.#.#.Q o @ o o @ o @ o @ o @ @ $.$.$.",
"$.$.$., > > > > > > > > > > z #.#.#.#.#.#.#.#.#.#.#.L X 4 @.#.#.Q + X / #.#.#.#.#.#.#.#.#.#.#.#.B @ o o @ o @ @ o @ @ @ @ $.$.$.",
"$.$.$., > > > > > > > > > > 1 @.#.#.#.#.#.#.#.#.#.#.S X g #.#.#.| O X / #.#.#.#.#.#.#.#.#.#.#.@.q o o @ @ o o @ @ @ @ @ @ $.$.$.",
"$.$.$., > > > > > > > > > > > ~ #.#.#.#.#.#.#.#.#.#.v X F #.#.#.@.4 o W #.#.#.#.#.#.#.#.#.#.#.] @ @ o o @ @ @ o @ @ @ @ @ $.$.$.",
"$.$.$., > > > > > > > > > > > k #.#.#.#.#.#.#.#.#.#.v X / #.#.#.#.w o I #.#.#.#.#.#.#.#.#.#.#.n o o o @ o @ @ @ @ @ @ @ # $.$.$.",
"$.$.$., > > > > > > > > > > > ,  .#.#.#.#.#.#.#.#.#.c + { #.#.#.#.x o F #.#.#.#.#.#.#.#.#.#.O.= o @ @ @ o @ @ @ @ @ @ # @ $.$.$.",
"$.$.$., > > > > > > > > > > > > M #.#.#.#.#.#.#.#.#.c $ ..#.#.#.#.S o V #.#.#.#.#.#.#.#.#.#.B o @ @ @ o o @ @ @ @ @ @ @ @ $.$.$.",
"$.$.$., , > > > > > > > > > > > ,  .#.#.#.#.#.#.#.#.B % O.#.#.#.#.W X B #.#.#.#.#.#.#.#.#.X.= o @ o @ @ @ @ @ @ @ @ # # # $.$.$.",
"$.$.$., > > > > > > > > > > > > > k @.#.#.#.#.#.#.#.V % O.#.#.#.#.` o m #.#.#.#.#.#.#.#.#.f @ @ @ o o @ @ @ @ @ @ # @ @ # $.$.$.",
"$.$.$., > > > > > > > > > > > > > ; R #.#.#.#.#.#.#.F O ..#.#.#.#.{ o h #.#.#.#.#.#.#.#.U o @ o @ @ @ @ @ @ @ # @ @ # @ # $.$.$.",
"$.$.$., > > > > > > > > > > > > > > 1 ` #.#.#.#.#.#.P + { #.#.#.#.+.* h #.#.#.#.#.#.#.` = o o @ @ o @ @ @ @ @ @ # @ @ # # $.$.$.",
"$.$.$., > > > > > > > > > > > > > > > t  .#.#.#.#.#.` X ] #.#.#.#.#.) ] #.#.#.#.#.#.| 7 @ @ @ o @ @ @ @ @ # # @ @ # # @ @ $.$.$.",
"$.$.$., > > > > > > > > > > > > > > > > r ..#.#.#.#.#.) @.#.#.#.#.#.#.#.#.#.#.#.#.{ 7 @ o @ @ @ @ @ @ # @ @ @ # # # @ # # $.$.$.",
"$.$.$., > > > > > > > > > > > > > > > > > < ` #.#.#.#.#.#.#.#.#.#.#.#.#.#.#.#.#.) = @ @ o @ @ @ @ @ @ @ # @ @ @ @ # # # # $.$.$.",
"$.$.$., > > > > > > > > > > > > > > > > > > : V +.#.#.#.#.#.#.#.#.#.#.#.#.#.+.m @ o @ @ o @ @ @ @ @ # @ @ # @ # # # # # # $.$.$.",
"$.$.$., > > > > > > > > > > > > > > > > > > > - * F +.#.#.#.#.#.#.#.#.#.O.D = @ @ @ @ o @ @ @ @ @ # @ @ # @ # @ @ # # # # $.$.$.",
"$.$.$., > > > > > > > > > > > > > > > > > > > > - o % d S ) | ..| ) V d = o @ o o @ @ @ @ @ @ @ @ @ @ # @ @ # # # # # # # $.$.$.",
"$.$.$., > > > > > > > > > > > > > > > > > > > > > - o o o o o + o o o @ o o @ @ @ @ o @ @ @ @ # @ # # @ # # # # # # # # # $.$.$.",
"$.$.$., > > > > > > > > > > > > > > > > > > > > > > - o o o o o @ o o o @ o @ @ o @ @ @ @ # @ @ @ # @ # # # # # # # # # # $.$.$.",
"$.$.$., > > > > > > > > > > > > > > > > > > > > > > > - o o o o o o @ o @ @ @ o @ @ @ @ @ @ # @ # @ # @ # # # # # # # # # $.$.$.",
"$.$.$., > > > > > > > > > > > > > > > > > > > > > > > > - @ o @ @ o @ @ o @ @ @ @ @ @ @ # @ # @ @ # # # # # # # # # # # # $.$.$.",
"$.$.$.$.> > > > > > > > > > > > > > > > > > > > > > > > > - o o o @ @ o @ @ o @ @ @ @ # @ @ @ # @ # @ # # # # # # # # # # $.$.$.",
"$.$.$.$.$.> > > > , > > > > > > > > > > > > > > > > > > > > : @ o @ o @ @ @ @ @ @ @ # @ @ # # # # # # # # # # # # # # - $.$.$.$.",
"$.$.$.$.$.$.$.$.$.$.$.$.$.$.$.$.$.$.$.$.$.$.$.$.$.$.$.$.$.$.$.$.$.$.$.$.$.$.$.$.$.$.$.$.$.$.$.$.$.$.$.$.$.$.$.$.$.$.$.$.$.$.$.$.",
"$.$.$.$.$.$.$.$.$.$.$.$.$.$.$.$.$.$.$.$.$.$.$.$.$.$.$.$.$.$.$.$.$.$.$.$.$.$.$.$.$.$.$.$.$.$.$.$.$.$.$.$.$.$.$.$.$.$.$.$.$.$.$.$.",
"$.$.$.$.$.$.$.$.$.$.$.$.$.$.$.$.$.$.$.$.$.$.$.$.$.$.$.$.$.$.$.$.$.$.$.$.$.$.$.$.$.$.$.$.$.$.$.$.$.$.$.$.$.$.$.$.$.$.$.$.$.$.$.$."
};
