/* XPM */
static char *result[] = {
/* columns rows colors chars-per-pixel */
"32 32 191 2 ",
"   c #3E190D",
".  c #3F1F11",
"X  c #3D2412",
"o  c #4C1E0F",
"O  c #74130E",
"+  c #721714",
"@  c #422513",
"#  c #4C2314",
"$  c #472E1A",
"%  c #5C2310",
"&  c #522E1A",
"*  c #592C17",
"=  c #4C331E",
"-  c #503319",
";  c #5B341D",
":  c #692711",
">  c #6B2A13",
",  c #672F17",
"<  c #7D2F14",
"1  c #683319",
"2  c #663B1E",
"3  c #673219",
"4  c #733117",
"5  c #763519",
"6  c #76391D",
"7  c #7C3A1D",
"8  c #543923",
"9  c #5C3D22",
"0  c #643C22",
"q  c #673428",
"w  c #6E342F",
"e  c #5D432D",
"r  c #5F4C35",
"t  c #654329",
"y  c #75412B",
"u  c #74532D",
"i  c #6C4B37",
"p  c #714D31",
"a  c #795236",
"s  c #6D5A49",
"d  c #705E5D",
"f  c #6F6658",
"g  c #7C735F",
"h  c #7C7966",
"j  c #90211E",
"k  c #863618",
"l  c #993A17",
"z  c #A23F1B",
"x  c #A22522",
"c  c #83401F",
"v  c #A7421D",
"b  c #AD431D",
"n  c #BA441D",
"m  c #B6471D",
"M  c #844825",
"N  c #974928",
"B  c #88563A",
"V  c #995832",
"C  c #AB4B22",
"Z  c #BE4E23",
"A  c #A8542C",
"S  c #BB5626",
"D  c #A95235",
"F  c #B5583C",
"G  c #866335",
"H  c #99733C",
"J  c #B86738",
"K  c #BE723B",
"L  c #A56333",
"P  c #C54B1F",
"I  c #C44E21",
"U  c #D35927",
"Y  c #CB572A",
"T  c #C9602C",
"R  c #D2642E",
"E  c #D16A31",
"W  c #D76434",
"Q  c #CA743B",
"!  c #D8783A",
"~  c #E17A3A",
"^  c #8A5E42",
"/  c #896449",
"(  c #85735C",
")  c #9D7953",
"_  c #876C53",
"`  c #BD6042",
"'  c #A67747",
"]  c #A2615D",
"[  c #B47D5C",
"{  c #A16949",
"}  c #817761",
"|  c #BC786A",
" . c #C76B45",
".. c #D97348",
"X. c #D27B47",
"o. c #D87D55",
"O. c #E37941",
"+. c #91815F",
"@. c #AC8144",
"#. c #B8884A",
"$. c #B7845D",
"%. c #BF9059",
"&. c #86826A",
"*. c #BC8D66",
"=. c #DC8748",
"-. c #DA8150",
";. c #CE9E54",
":. c #C29850",
">. c #D19F59",
",. c #C3895B",
"<. c #E9804C",
"1. c #E38746",
"2. c #EB964B",
"3. c #EC8956",
"4. c #E78D5F",
"5. c #E89759",
"6. c #D3A04F",
"7. c #CDAA57",
"8. c #DBA556",
"9. c #DCBD5D",
"0. c #EBAC5A",
"q. c #E5BB5F",
"w. c #E7B05E",
"e. c #F1B65E",
"r. c #C6976B",
"t. c #D19B66",
"y. c #E78D60",
"u. c #F29867",
"i. c #F09260",
"p. c #E79761",
"a. c #D9BB65",
"s. c #CFA27D",
"d. c #DEAF78",
"f. c #D4A778",
"g. c #DBBD78",
"h. c #F2AA6A",
"j. c #F3A36A",
"k. c #E3BC64",
"l. c #E8B967",
"z. c #F3B863",
"x. c #F3B668",
"c. c #F4B969",
"v. c #F2B375",
"b. c #EEA667",
"n. c #DEC25D",
"m. c #DEC867",
"M. c #E5C76B",
"N. c #E9CD7A",
"B. c #F0C27E",
"V. c #FED271",
"C. c #F1CB70",
"Z. c #927F80",
"A. c #9A8F90",
"S. c #C9A680",
"D. c #DAB789",
"F. c #E3B586",
"G. c #D3B2AF",
"H. c #D8B8B3",
"J. c #D4C09A",
"K. c #E9C086",
"L. c #E7CA8F",
"P. c #F7C88B",
"I. c #EBDB8C",
"U. c #E2D080",
"Y. c #FFDD88",
"T. c #E6C495",
"R. c #F3CD97",
"E. c #ECDA94",
"W. c #FAD495",
"Q. c #ECE099",
"!. c #FFE197",
"~. c #F5E299",
"^. c #DCCEA4",
"/. c #E4CEA4",
"(. c #E1D6AE",
"). c #EDD5A7",
"_. c #F7DBA6",
"`. c #E0DAB5",
"'. c #FEE3A7",
"]. c #FEE4AC",
"[. c #FFEAAB",
"{. c #FFEAB7",
"}. c #FBE9BC",
"|. c #FFEEC6",
" X c #FFF6CE",
".X c #FFF3C6",
"XX c #FFF2D4",
"oX c #FFF5DE",
"OX c #FFF7E5",
"+X c #FFF8E2",
"@X c None",
/* pixels */
"@X@X@X@X@X@X@X@X@X@X@X@X@X@X@X@X@X@X@X@X@X@X@X@X@X@X@X@X@X@X@X@X",
"@X@X@X@X@X@X@X@X@X@X@X@XO D F ` `  .o.y.@X@X@X@X@X@X@X@X@X@X@X@X",
"@X@X@X@X@X@X@X@X@X@X@X@X] ' { ' $.8.l.y.@X@X@X@X@X@X@X@X@X@X@X@X",
"@X@X@X@X@X@X@X@X@X@X@X@XO G.H.| F  .o.y.@X@X@X@X@X@X@X@X@X@X@X@X",
"@X@X@X@X@X@X@X@X@X@X@X@X@XD @.N + d X @X@X@X@X@X@X@X@X@X@X@X@X@X",
"@X@X@X@X@X@X@X@X@X@X@X@X@X3.V...j A.; @X@X@X@X@X@X@X@X@X@X@X@X@X",
"@X@X@X@X@X@X@X@X@X@X@X@X@X3.V...x A.* @X@X@X@X@X@X@X@X@X@X@X@X@X",
"@X@X@X@X@X@X@X@X@X@X@X@X@X|..X{.[.!.v.@X@X@X@X@X@X@X@X@X@X@X@X@X",
"@X@X@X@X@X@X@X@X@X@X@X@X@XL.Q.L.U.M.8.@X@X@X@X@X@X@X@X@X@X@X@X@X",
"@X@X@X@X@X@X@X@X@X@X@X@X@X..M.Q j w & @X@X@X@X@X@X@X@X@X@X@X@X@X",
"@X@X@X@X@X@X@X@X@X@X@X@X@X3.V...x w 9 @X@X@X@X@X@X@X@X@X@X@X@X@X",
"@X@X@X@X@X@X@X@Xu.u.3.<.~ <.C...x w V i.u.u.u.u.@X@X@X@X@X@X@X@X",
"@X@X@X@X@X@X@Xj.P.W.W.P.P.L.F.d.t.,.o.*.s.J.^.L.j.@X@X@X@X@X@X@X",
"@X@X@X@X@X@Xh.P.].P.v.5.=.=.X.S C z z v S ! g.`.L.h.@X@X@X@X@X@X",
"@X@X@X@X@X@Xx.'._.P.b.5.=.T n m n z b b I E 1.F.(.x.@X@X@X@X@X@X",
"@X@X@X@X@X@Xc.]._.v.5.O.U P I n n z Z n I R 1.0.`.c.@X@X@X@X@X@X",
"@X@X@X@X@X@Xc.].).h.3. XOXOXoXoX|.{.'.W.Y.R ~ 2.).z.@X@X@X@X@X@X",
"@X@X@X@X@X@Xz._./.p.W  XQ.I.N.M.M.9.e.M.Y.C ! 2.^.e.@X@X@X@X@X@X",
"@X@X@X@X@X@X0._.J.-.Y  XQ.m.N.7.7.M.6.a.Y.v E =.T.w.@X@X@X@X@X@X",
"@X@X@X@X@X@X0._.D...Z XXQ.E.U.m.n.a.k.q.N.v T ! L.6.@X@X@X@X@X@X",
"@X@X@X@X@X@X;.F.s.F b  X~.E.a.M.7.7.6.l.Y.k S Q D.6.@X@X@X@X@X@X",
"@X@X@X@X@X@X:.F.r.A l  XE.I.N.m.n.n.q.k.Y.k C K f.:.@X@X@X@X@X@X",
"@X@X@X@X@X@X' s.[ N k  X+X+XoXXX|.{.'.!.Y.7 A J r.#.@X@X@X@X@X@X",
"@X@X@X@X@X@XH r.{ k < k : : : : : : : 4 5 7 N L %.@.@X@X@X@X@X@X",
"@X@X@X@X@X@XG $.B 4 > > > > > > > 5 7 c c 7 c V @.H @X@X@X@X@X@X",
"@X@X@X@X@X@Xu ) w % % % % % % 1 5 5 5 5 6 6 6 M { G @X@X@X@X@X@X",
"@X@X@X@X@X@Xt / * o o o o * 2 1 1 1 , , , 1 0 a +.u @X@X@X@X@X@X",
"@X@X@X@X@X@X- i @ o @ - 3 ; ; 0 0 0 t i s s f g +.- @X@X@X@X@X@X",
"@X@X@X@X@X@X@ 8 e p a B / / _ ( ( ( h h h h &.&.r @ @X@X@X@X@X@X",
"@X@X@X@X@X@X@X= 9 9 t 2 2 2 2 0 8 8 = = = $ $ X X @X@X@X@X@X@X@X",
"@X@X@X@X@X@X@X@X@X@X@X@X@X@X@X@X@X@X@X@X@X@X@X@X@X@X@X@X@X@X@X@X",
"@X@X@X@X@X@X@X@X@X@X@X@X@X@X@X@X@X@X@X@X@X@X@X@X@X@X@X@X@X@X@X@X"
};
