/* XPM */
static char *result[] = {
/* columns rows colors chars-per-pixel */
"64 64 12 1 ",
"  c #000063",
". c #9C6B10",
"X c #B5AD00",
"o c #C69C00",
"O c #D6C610",
"+ c #F7B55A",
"@ c #FFF752",
"# c #FFDEA5",
"$ c #FFFFBD",
"% c #FFEFD6",
"& c white",
"* c None",
/* pixels */
"****************************************************************",
"****************************************************************",
"****************************************************************",
"****************************************************************",
"**********************   ***************************************",
"********************* $$ ***************************************",
"******************** $@ *              *************************",
"******************** $@  $$$$$$$$$$$$$$   **********************",
"******************  @@@@@@@@@@  @@@@@@@OOO  ********************",
"****************  $$@@@@@  @@ $$@@@@@@@@@@OO *******************",
"*************** $$@@@@@@ @@@ $@@@@@@ O@@@@@@O ******************",
"************** $@@@@@@@ @@@ $@ @@@@@ O@@@$$@@O *****************",
"************* $@@@@@ @ @@@ $@ @@@@@@ O@O  $$@@O ****************",
"************* $@@@@ $@ @@ $$ @@@@@@@ O@O # $$@O ****************",
"************ $@@@@ $$ $@@ $@ @@@@@@ O@@O ## $@@O ***************",
"************ $@@@ @$$ $$ $$ @@@@@@@ O@@O ### $@O ***************",
"*********** $@@@@ @@ @$$ $$ @@@@@@@ O@@O ### $@@O **************",
"*********** $@@@ @@@ @@@ $ @@@@@@@ O@@O   ### $@O **************",
"*********** $@@@ @@ @@@@ @ @@@@@@@ O@@O ## ## $ @O *************",
"*********** $@@@ @@ @@@ $@ @@@@@@ O@@O # # ### $ O *************",
"********** $@@@@@$@ @@@ $@ @@@@@@@@@@O #  ##   $ O *************",
"********** $@@@@ $@@@@@ $@ @@@@@@@@@O  ##   ## $ @X ************",
"********** $@@@@ $@@@@@ $@ @@@@@ @@@O #  ###### $ O ************",
"********** $@@@@ @ @@@@ $@ @@@@@ @@O ##      ## $ O ************",
"********** $@@@ @@ @@@@ @@@@@@OO @@O ##&&      #  O ************",
"*********** $@@ @ O@@@@ $$@@@O  @@O ###&&    &&#  O ************",
"*********** $@@  @O@@@OO $@@O # @O #### &&  &&##  O ************",
"*********** $@@OO@O@@@OO $@O ## O ###### &&&& ##+ O ************",
"********** $@@@ O@ O@OOO $$ ###  ########    ###+  *************",
"********* $$ @@ OO OOOOO @ #####################+  *************",
"**********   @ #  # O  O O ### ## # # #########+ ** ************",
"************ @ %%%## ## # #####################+ ***************",
"************ OO   %##################### #####+ ****************",
"************ O  OO %########            ######+ ****************",
"***********   ** OO %########################+ *****************",
"**************** OOO %########### #########++ ******************",
"*************** O  OO  %%%##### # # ####+++  *******************",
"***************  * OOOO   + + + + + + ++   *********************",
"****************** O O OOO              ************************",
"*****************   * * O     oo + oo    ***********************",
"************************       o # o      **********************",
"***********************         ...       **********************",
"***********************       @ o.o @      *********************",
"***********************          .         *********************",
"************************      @     @     **********************",
"*************************                ***********************",
"**************************    @     @   ************************",
"**************************              ************************",
"**************************      *       ************************",
"**************************      **      ************************",
"**************************     ****     ************************",
"**************************    ******    ************************",
"****************************************************************",
"****************************************************************",
"****************************************************************",
"****************************************************************",
"****************************************************************",
"****************************************************************",
"****************************************************************",
"****************************************************************",
"****************************************************************",
"****************************************************************",
"****************************************************************",
"****************************************************************"
};
