/* XPM */
static char *result[] = {
/* columns rows colors chars-per-pixel */
"64 64 98 2 ",
"   c #010101",
".  c #060608",
"X  c #070909",
"o  c #0A0A0B",
"O  c #0D0E10",
"+  c #131314",
"@  c #151619",
"#  c #17191B",
"$  c #1B1C1C",
"%  c #1C1E22",
"&  c #1E2024",
"*  c #232324",
"=  c #24262B",
"-  c #27292E",
";  c #2B2B2B",
":  c #2A2D32",
">  c #2D3035",
",  c #2F3238",
"<  c #333333",
"1  c #32353C",
"2  c #35383F",
"3  c #3A3A3A",
"4  c #363A41",
"5  c #3A3D44",
"6  c #3C4047",
"7  c #3D4149",
"8  c #454545",
"9  c #42464E",
"0  c #4C4C4C",
"q  c #434750",
"w  c #464A53",
"e  c #494E57",
"r  c #4A4F58",
"t  c #4D525B",
"y  c gray33",
"u  c #50555F",
"i  c #5B5B5B",
"p  c #525761",
"a  c #555A65",
"s  c #575D68",
"d  c #595F6A",
"f  c #5C616D",
"g  c #5E6470",
"h  c #636363",
"j  c #6C6C6C",
"k  c #616773",
"l  c #636976",
"z  c #666C79",
"x  c #686E7B",
"c  c #737373",
"v  c #7C7C7C",
"b  c #6C7381",
"n  c #707785",
"m  c #717987",
"M  c #767D8C",
"N  c #78808F",
"B  c #7C8493",
"V  c #838383",
"C  c #8C8C8C",
"Z  c #838B9C",
"A  c #939393",
"S  c #9A9A9A",
"D  c #868FA0",
"F  c #8B94A5",
"G  c #8F97A9",
"H  c #8F98AA",
"J  c #919AAC",
"K  c #959EB1",
"L  c #97A0B3",
"P  c #98A2B5",
"I  c #9DA6BA",
"U  c #9FAABD",
"Y  c #A3A3A3",
"T  c #ACACAC",
"R  c #A1ABBF",
"E  c #B2B2B2",
"W  c #BCBCBC",
"Q  c #A3ADC2",
"!  c #A6B1C5",
"~  c #A8B2C7",
"^  c #ABB6CB",
"/  c #AEB8CE",
"(  c #AFBAD0",
")  c #B2BDD4",
"_  c #B5C0D7",
"`  c #B7C2D9",
"'  c #B9C5DC",
"]  c #BECAE2",
"[  c #C3C3C3",
"{  c #CBCBCB",
"}  c #D4D4D4",
"|  c #DCDCDC",
" . c #C0CCE4",
".. c #E4E4E4",
"X. c #EBEBEB",
"o. c #F4F4F4",
"O. c #FFFFFF",
"+. c None",
/* pixels */
"+.+.+.+.+.+.+.+.+.+.+.+.+.+.+.+.+.+.+.+.+.+.+.+.+.+.+.+..         . +.+.+.+.+.+.+.+.+.+.+.+.+.+.+.+.+.+.+.+.+.+.+.+.+.+.+.+.+.+.",
"+.+.+.+.+.+.+.+.+.+.+.+.+.+.+.+.+.+.+.+.. . +.+.+.+.+.  q G ^ / K a o +.+.+.+.+.o . +.+.+.+.+.+.+.+.+.+.+.+.+.+.+.+.+.+.+.+.+.+.",
"+.+.+.+.+.+.+.+.+.+.+.+.+.+.+.+.+.  - f g f 7 o   +.  Z  . . . . . .! $ +.. 4 l m l 4   +.+.+.+.+.+.+.+.+.+.o . +.+.+.+.+.+.+.+.",
"+.+.+.+.+.+.+.+.+.+.+.+.+.+.+.+.o F ]  . . . ._ z o t  . . . . . . . .H $ I  . . . . .Z . +.+.+.+.+.+.+.X f ` G . +.+.+.+.+.+.+.",
"+.+.+.+.+.+.+.+.+.+.+.+.+.+.+.  Z  . . . . . . . ./ Q ]  . . . . . . . .U  . . . . . . .7 +.+.+.+.+.+.$ K  .] M . +.+.+.+.+.+.+.",
"    +.+.+.+.+.+.+.+.+.+.+.+.+.#  . . . . . . . . .]  . . . . . . . . . .]  . . . . . . .z +.+.+.+.  4 )  . .F o +.+.+.+.+.+.+.+.",
"  9   +.+.+.+.+.+.+.+.+.+.+.+.:  . . . . . . . . . . . . . . . . . . . . . . . . . . . .z +.+.+.  s ]  . .b . +.+.  : -   +.+.+.",
"  U B o o +.+.+.+.+.+.+.+.+.+.@  . . . . . . . . . . . . . . . . . . . . . . . . . . . .1 +.+.. M  . .' w   +.+.o N  .] & +.+.+.",
"  K  .R %   +.+.+.+.+.+.+.+.+.  Z  . . . . . . . . . . . . . . . . . . . . . . . . . .m   +.. Z  . .! =   +.+.O H  .] ) + +.+.+.",
"  M  . ._ 5   +.+.+.+.+.+.+.+.+.+ I  . . . . .]  . . . . . . . . . . . . . .P ) ) H q   +.  B  . .L o   +.+.& Q  . .! * +.+.+.+.",
". s  . . .] f   +.+.+.+.+.+.+.+.+.. e B F b )  . . . . . . . . . . . . . .^   .     +.+.  9  . .R o . +.o 2 _  . .F o +.+.    +.",
"+.>  . . . .] B . +.+.+.+.+.+.+.+.+.  .     ! ]  . . . . . . . . . . . . .K   +.+.+.+.+.  D  . .q . +.. f ]  . .x . +.+.@ B D   ",
"+.. _  . . . . .L O . +.+.+.+.+.+.+.+.+.+.  ~  . . . . . . . . . . . . . .G   +.+.+.+.+.  I  . .m   : J  . .' q   +.. : /  .)   ",
"+.  B  . . . . .] ! *   +.+.+.+.+.+.+.+.+.  ^  . . . . . .'  . . . . . . .F   +.+.+.+.+.  P  . .] ]  .]  .` ,   +.  2 ' ]  .e . ",
"+.+.5  . . . . .]  .` 4   +.+.+.+.+.+.+.+.  /  .' J x u 3 ; * * - , p M ^ Z   +.+.+.+.+.  M  . . . . . .' - o +.  7 '  . .m   +.",
"+.+.  Q  . . . . . .] ] p   +.+.+.+.+.+.+.  l < . ; j A ( } } } { E M 8 o %   +.+.+.+.+.  5  . . . . . .s . +.  p ]  .] Z . +.+.",
"+.+.. 9 ]  . . . . . . . .m   +.+.+.+.+.+.  $ V | O.O.O.O.O.O.O.O.O.O.O.o.Y <   +.+.+.+.+.O '  . . . . .5 o @ Z ]  . .Z o +.+.+.",
"+.+.+.  J  . . . . . . . . .G o o +.+.  + S o.O.O.O.O.O.O.O.O.O.O.O.O.O.O.O.O.E = +.+.  # U  . . . . . .` P '  . . .M . +.+.+.+.",
"+.+.+.+.$ _  . . . . . . . . .Q %     y X.O.O.O.O.O.O.O.O.O.O.O.O.O.O.O.O.O.O.O.o.j   * /  . . ._  . . . . . . .' t   +.+.+.+.+.",
"+.+.+.+.  6 ]  . . . . . . . . .J   C O.Y 3 < h ..O.O.O.O.O.O.O.O.O.O.O.O.O.O.O.O.O.Y o Z  .` 6 & Q  . . . . .Z % +.+.+.+.+.+.+.",
"+.+.+.+.+.  t  . . . . . . . .) # S O.j c ..o.S * X.O.O.O.O.O.O.O.O.O.O.O.O.O.O.O.O.O.E o M =   +.. e m M f %   +.+.+.+.+.+.+.+.",
"+.+.+.+.+.+.  t ' ]  . . . . .6 c O.{ 0 O.X.[ O.h C O.O.O.O.O.O.O.O.O.O.O.O.O.O.O.O.O.O.Y     +.+.+.+..     +.+.+.+.+.+.+.+.+.+.",
"+.+.+.+.+.+.+.  2 ) ]  . . .B 3 O.O.V V O.y Y O.Y c O.O.O.O.O.O.O.O.O.O.O.O.O.O.O.O.O.O.O.j   +.+.+.+.+.+.+.+.+.+.+.+.+.+.+.+.+.",
"+.+.+.+.+.+.+.+.  @ G  . .' @ } O.O.v v O.0 W ..y Y O.O.O.O.O.O.O.O.O.O.O.O.O.O.O.O.O.O.O.o.* +.+.+.+.+.+.+.+.+.+.+.+.+.+.+.+.+.",
"+.+.+.+.+.+.+.+.+.+.  q ^ x i O.O.O.} $ o...h 8 A O.O.O.O.O.O.O.O.O.O.O.O.O.O.O.O.O.O.O.O.O.T . +.+.+.+.+.+.+.+.+.+.+.+.+.+.+.+.",
"+.+.+.+.+.+.+.+.+.+.+.  o o { O.O.O.O.A y o.O.O.O.O.O.O.O.O.O.O.O.O.O.O.O.O.O.O.O.O.O.O.O.O.O.; +.+.+.+.+.+.+.+.+.+.+.+.+.+.+.+.",
"+.+.+.+.+.+.+.+.+.+.+.+.  * O.O.O.O.O.O.C 8 X.O.O.O.O.O.O.O.O.O.O.O.O.O.O.O.O.O.O.O.O.O.O.O.O.S o +.+.+.+.+.+.+.+.+.+.+.+.+.+.+.",
"+.+.+.+.+.+.+.+.+.+.+.+.. j O.O.O.O.O.O.O.W < S O.O.O.O.O.O.O.O.O.O.O.O.O.O.O.O.O.O.O.O.O.O.O.X.  +.+.+.+.+.+.+.+.+.+.+.+.+.+.+.",
"+.+.+.+.+.+.+.+.+.+.+.+.  Y O.O.O.O.O.O.O.O.o.v 3 T O.O.O.O.O.O.O.O.O.O.O.O.O.O.O.O.O.O.O.O.O.O.; +.+.+.+.+.+.+.+.+.+.+.+.+.+.+.",
"+.+.+.+.+.+.+.+.+.+.+.+.  { O.O.O.O.O.O.O.O.O.O...c 3 S o.O.O.O.O.O.O.O.O.O.O.O.O.O.O.O.O.O.O.O.0 +.+.+.+.+.+.+.+.+.+.+.+.+.+.+.",
"+.+.+.+.+.+.+.+.+.+.+.+.  | O.O.O.O.O.O.O.O.O.X.o.O.o.S i X.O.O.O.O.O.O.O.X.X.O.O.O.O.O.O.O.O.O.h +.+.+.+.+.+.+.+.+.+.+.+.+.+.+.",
"+.+.+.+.+.+.+.+.+.+.+.+.  X.O.O.O.O.O.O.} y o     < S O.O.O.O.O.O.O.o.v $     $ c X.O.O.O.O.O.O.i +.+.+.+.+.+.+.+.+.+.+.+.+.+.+.",
"+.+.+.+.+.+.+.+.+.+.+.+.  ..O.O.O.O.O.T o             y O.O.O.O.O...;             $ | O.O.O.O.O.8 +.+.+.+.+.+.+.+.+.+.+.+.+.+.+.",
"+.+.+.+.+.+.+.+.+.+.+.+.  { O.O.O.O.} o                 V O.O.O.O.3                 ; O.O.O.O.O.* +.+.+.+.+.+.+.+.+.+.+.+.+.+.+.",
"+.+.+.+.+.+.+.+.+.+.+.+.. S O.O.O.O.i                   o o.O.O.E                     T O.O.O.X.  +.+.+.+.+.+.+.+.+.+.+.+.+.+.+.",
"+.+.+.+.+.+.+.+.+.+.+.+.+.h O.O.O.O.+                   . { O.O.c                     v O.O.O.E . +.+.+.+.+.+.+.+.+.+.+.+.+.+.+.",
"+.+.+.+.+.+.+.+.+.+.+.+.+.+ o.O.O.O.                      [ O.O.i                     j O.O.O.i +.+.+.+.+.+.+.+.+.+.+.+.+.+.+.+.",
"+.+.+.+.+.+.+.+.+.+.+.+.+.. Y O.O.O.$                     | O.O.v                     V O.O.X.X +.+.+.+.+.+.+.+.+.+.+.+.+.+.+.+.",
"+.+.+.+.+.+.+.+.+.+.+.+.+.+.; o.O.O.c                   3 O.O.O.{                     | O.O.v . +.+.+.+.+.+.+.+.+.+.+.+.+.+.+.+.",
"+.+.+.+.+.+.+.+.+.+.+.+.+.+.  C O.O.X.$                 [ O.O.O.O.i                 j O.O.| o +.+.+.+.+.+.+.+.+.+.+.+.+.+.+.+.+.",
"+.+.+.+.+.+.+.+.+.+.+.+.+.+.+.o } O.O.} *           . Y O.O.O.O.O.o.i             y o.O.o.3 +.+.+.+.+.+.+.+.+.+.+.+.+.+.+.+.+.+.",
"+.+.+.+.+.+.+.+.+.+.+.+.+.+.+.  * ..O.O.o.A 8 * < j | O.O.o.C S O.O.O.W i ; * y E O.O.O.h . +.+.+.+.+.+.+.+.+.+.+.+.+.+.+.+.+.+.",
"+.+.+.+.+.+.+.+.+.+.+.+.+.+.  m t ; ..O.O.O.O.O.O.O.O.O.O.A     { O.O.O.O.O.O.O.O.O.O.c = k . +.+.+.+.+.+.+.+.+.+.+.+.+.+.+.+.+.",
"+.+.+.+.+.+.+.+.+.+.+.+.+.. Z ]  .a * { O.O.O.O.O.O.O.O.O.W   $ o.O.O.O.O.O.O.O.O.o.i - )  .B o +.+.+.+.+.+.+.+.+.+.+.+.+.+.+.+.",
"+.+.+.+.+.+.+.+.+.+.+.+.+ J  . .] G o o C o.O.O.O.O.O.O.O.O...o.O.O.O.O.O.O.O.O.{ * o !  . . .J @ +.+.+.+.+.+.+.+.+.+.+.+.+.+.+.",
"+.+.+.+.+.+.+.+.+.+.. % Q  . . .B . +.+.  * Y O.O.O.O.O.O.O.O.O.O.O.O.O.O.O.| i . +.+.$ U  . . .R % +.+.+.+.+.+.+.+.+.+.+.+.+.+.",
"+.+.+.+.+.+.+.+.+.. 2 _  . . .z   +.+.+.+.+.  $ v [ o.O.O.O.O.O.O.O.O.o.Y 0 .   +.+.+.+.o Z ]  . .) > +.+.+.+.+.+.+.+.+.+.+.+.+.",
"+.+.+.+.+.+.+.+.  p ]  . .' r . +.+.+.+.+.+.$ Y i + o 3 i v V V v y ;   ; V ..* +.+.+.+.+.. l ]  . .' 9 . +.+.+.+.+.+.+.+.+.+.+.",
"+.+.+.+.+.+.+.. M  . . .` 4 . +.+.+.+.+.+.  C O.O.Y 8 E V c < 3 c V W ; [ O.O.c . +.+.+.+.+.. q ' ]  . .f   +.+.+.+.+.+.+.+.+.+.",
"+.+.+.+.+.+.@ K  . .] ! & +.+.+.+.+.+.+.+.  Y O.O.v V O.O.O.j V O.O.O.y A O.{ <   +.+.+.+.+.+.+.- ^  . . .M . +.+.+.+.+.+.+.+.+.",
"+.+.+.+.  > (  . . .K + +.+.+.+.+.+.+.+.+.# $ = C 3 E O.O.O.j V O.O.O.v 0 8 + V   +.+.+.+.+.+.+.+.@ K  . . .G + +.+.+.+.+.+.+.+.",
"+.+.+.  p ] ]  . .B o +.+.+.+.+.+.+.+.+.  c O.E i   * y V A 8 0 C v 8 o + S o.O.o +.+.+.+.+.+.+.+.+.o N  . .] R % +.+.+.+.+.+.+.",
"+.+.o B  . .] ] f   +.+.+.+.+.+.+.+.+.+.X S O.O.X.X { Y v j ; < j V W E ; O.O.o.$ +.+.+.+.+.+.+.+.+.+.  p ]  . .) : +.+.+.+.+.+.",
"+.+.+ Q  . .` 7   +.+.+.+.+.+.+.+.+.+.+.  & A o.[ ; O.O.O.O.j V O.O.O.... O.[ < . +.+.+.+.+.+.+.+.+.+.+.+.1 ) ] ] J   +.+.+.+.+.",
"+.+.+.$ / ^ & O +.+.+.+.+.+.+.+.+.+.+.+.  C 8 o ; < X.O.O.O.j V O.O.O.... < + v c +.+.+.+.+.+.+.+.+.+.+.+.+.% Q ` & +.+.+.+.+.+.",
"+.+.+.+.& + +.+.+.+.+.+.+.+.+.+.+.+.+.+.X W O...C 8 o & 8 h < 3 j 8 * o 8 A o.O.0 +.+.+.+.+.+.+.+.+.+.+.+.+.+.O 1 +.+.+.+.+.+.+.",
"+.+.+.+.+.+.+.+.+.+.+.+.+.+.+.+.+.+.+.+.  v O.O.O.O.O.} E A v v V T { o.O.O.O.o.o +.+.+.+.+.+.+.+.+.+.+.+.+.+.+.+.+.+.+.+.+.+.+.",
"+.+.+.+.+.+.+.+.+.+.+.+.+.+.+.+.+.+.+.+.+.= O.O.O.O.O.O.O.O.O.O.O.O.O.O.O.O.O.T o +.+.+.+.+.+.+.+.+.+.+.+.+.+.+.+.+.+.+.+.+.+.+.",
"+.+.+.+.+.+.+.+.+.+.+.+.+.+.+.+.+.+.+.+.+.  T O.O.O.O.O.O.O.O.O.O.O.O.O.O.O.O.; +.+.+.+.+.+.+.+.+.+.+.+.+.+.+.+.+.+.+.+.+.+.+.+.",
"+.+.+.+.+.+.+.+.+.+.+.+.+.+.+.+.+.+.+.+.+.+.+ ..O.O.O.O.O.O.O.O.O.O.O.O.O.O.C o +.+.+.+.+.+.+.+.+.+.+.+.+.+.+.+.+.+.+.+.+.+.+.+.",
"+.+.+.+.+.+.+.+.+.+.+.+.+.+.+.+.+.+.+.+.+.+.+.; ..O.O.O.O.O.O.O.O.O.O.O.O.T o +.+.+.+.+.+.+.+.+.+.+.+.+.+.+.+.+.+.+.+.+.+.+.+.+.",
"+.+.+.+.+.+.+.+.+.+.+.+.+.+.+.+.+.+.+.+.+.+.+.+.+ Y o.O.O.O.O.O.O.O.O.o.V o +.+.+.+.+.+.+.+.+.+.+.+.+.+.+.+.+.+.+.+.+.+.+.+.+.+.",
"+.+.+.+.+.+.+.+.+.+.+.+.+.+.+.+.+.+.+.+.+.+.+.+.+.X * v W X.O.O.o.| C ; +.+.+.+.+.+.+.+.+.+.+.+.+.+.+.+.+.+.+.+.+.+.+.+.+.+.+.+.",
"+.+.+.+.+.+.+.+.+.+.+.+.+.+.+.+.+.+.+.+.+.+.+.+.+.+.+.+.. O + $ +   +.+.+.+.+.+.+.+.+.+.+.+.+.+.+.+.+.+.+.+.+.+.+.+.+.+.+.+.+.+."
};
