/* XPM */
static char *result[] = {
/* columns rows colors chars-per-pixel */
"64 64 155 2 ",
"   c #010101",
".  c #0C0304",
"X  c #07090A",
"o  c #0B0B0B",
"O  c #120406",
"+  c #1D0709",
"@  c #1B0809",
"#  c #141414",
"$  c #12161B",
"%  c #161A1F",
"&  c #1B1B1B",
"*  c #1D1314",
"=  c #250A0B",
"-  c #320D0F",
";  c #340E10",
":  c #2F1113",
">  c #3C1013",
",  c #321E1F",
"<  c #171A20",
"1  c #1F1F20",
"2  c #1A2027",
"3  c #1D222A",
"4  c #242323",
"5  c #22252A",
"6  c #2C2C2C",
"7  c #372728",
"8  c #272F39",
"9  c #282E39",
"0  c #2E3236",
"q  c #333333",
"w  c #31353C",
"e  c #3C3C3C",
"r  c #441215",
"t  c #491317",
"y  c #4D1418",
"u  c #54171A",
"i  c #5F191D",
"p  c #621A1F",
"a  c #6F1D23",
"s  c #711E23",
"d  c #472426",
"f  c #483C3D",
"g  c #7C2127",
"h  c #7E2228",
"j  c #663437",
"k  c #313741",
"l  c #323943",
"z  c #383B40",
"x  c #353E4B",
"c  c #37404E",
"v  c #3C434E",
"b  c #394353",
"n  c #3D4858",
"m  c #434343",
"M  c #464749",
"N  c #47494B",
"B  c #4C4C4C",
"V  c #584547",
"C  c #5F484A",
"Z  c #574849",
"A  c #535353",
"S  c #5C5C5C",
"D  c #665657",
"F  c #73595A",
"G  c #475467",
"H  c #4A586C",
"J  c #4E5D72",
"K  c #54647B",
"L  c #58677F",
"P  c #646464",
"I  c #686767",
"U  c #6C6C6C",
"Y  c #737373",
"T  c #7B7B7B",
"R  c #95494E",
"E  c #93474C",
"W  c #974D52",
"Q  c #984F54",
"!  c #9B5559",
"~  c #9E595D",
"^  c #965156",
"/  c #9F5B60",
"(  c #A05D61",
")  c #837878",
"_  c #9A7376",
"`  c #A36165",
"'  c #A7696D",
"]  c #A86B6F",
"[  c #AD7377",
"{  c #B0777B",
"}  c #B1797D",
"|  c #5C6C85",
" . c #5E6F88",
".. c #5F708A",
"X. c #60718B",
"o. c #667894",
"O. c #B27C80",
"+. c #6E819F",
"@. c #6E82A0",
"#. c #7286A5",
"$. c #778CAC",
"%. c #7B91B2",
"&. c #848484",
"*. c #8B8B8B",
"=. c #929292",
"-. c #9C9C9C",
";. c #B58285",
":. c #B78588",
">. c #B88689",
",. c #BA8A8D",
"<. c #BC8D90",
"1. c #BF9295",
"2. c #8299BC",
"3. c #A4A4A4",
"4. c #ABABAB",
"5. c #B3B3B3",
"6. c #BBBBBB",
"7. c #C3989B",
"8. c #C69FA1",
"9. c #C7A0A2",
"0. c #C9A2A5",
"q. c #CBA7A9",
"w. c #CEABAD",
"e. c #D0AFB1",
"r. c #D2B2B5",
"t. c #D6BABC",
"y. c #D8BDBF",
"u. c #859DC1",
"i. c #88A0C5",
"p. c #8CA5CB",
"a. c #8FA8CF",
"s. c #8FA9D0",
"d. c #91ABD2",
"f. c #D9BEC0",
"g. c #C4C4C4",
"h. c #CCCCCC",
"j. c #DCC3C5",
"k. c #DEC6C8",
"l. c #DFC9CA",
"z. c #D4D4D4",
"x. c #DDDDDD",
"c. c #E0CACB",
"v. c #E3CFD0",
"b. c #E5D3D4",
"n. c #EADCDD",
"m. c #E3E3E3",
"M. c #EEE2E3",
"N. c #EBEBEB",
"B. c #F0E6E6",
"V. c #F3EBEC",
"C. c #F5EFF0",
"Z. c #F4F4F4",
"A. c #F9F6F6",
"S. c #FFFFFF",
"D. c None",
/* pixels */
"D.D.D.D.D.D.D.D.D.D.D.D.D.D.D.D.D.D.D.D.D.D.D.D.D.D.D.D.D.D.D.D.D.D.D.D.D.D.D.D.D.D.D.D.D.D.D.D.D.D.D.D.D.D.D.D.D.D.D.D.D.D.D.D.",
"D.  D.D.D.D.D.D.D.D.D.D.D.D.D.D.D.D.D.D.D.D.D.D.D.D.D.D.D.D.D.D.D.D.D.D.D.D.D.D.D.D.D.D.D.D.D.D.D.D.D.D.D.D.D.D.D.D.D.D.D.D.  D.",
"D.B X D.D.D.D.D.D.D.D.D.D.D.D.D.D.D.D.D.D.D.D.D.D.D.D.D.D.D.D.D.D.D.D.D.D.D.D.D.D.D.D.D.D.D.D.D.D.D.D.D.D.D.D.D.D.D.D.D.D.X B D.",
"D.4.B D.D.D.D.D.D.D.D.D.D.D.D.D.D.D.D.D.D.D.D.D.D.D.D.D.D.D.D.D.D.D.D.D.D.D.D.D.D.D.D.D.D.D.D.D.D.D.D.D.D.D.D.D.D.D.D.D.D.B 4.D.",
"D.g.z.o D.D.D.D.D.D.D.D.D.D.D.D.D.D.D.D.D.D.D.D.D.D.D.D.D.D.D.D.D.D.D.D.D.D.D.D.D.D.D.D.D.D.D.D.D.D.D.D.D.D.D.D.D.D.D.D.# z.g.D.",
"X m.S.Y D.D.D.D.D.D.D.D.D.D.D.D.D.D.D.D.D.D.D.D.D.D.D.D.D.D.D.D.D.D.D.D.D.D.D.D.D.D.D.D.D.D.D.D.D.D.D.D.D.D.D.D.D.D.D.D.Y S.n.X ",
"o Z.S.Z.4 D.D.D.D.D.D.D.D.D.D.D.D.D.D.D.D.D.D.D.D.D.D.D.D.D.D.D.D.D.D.D.D.D.D.D.D.D.D.D.D.D.D.D.D.D.D.D.D.D.D.D.D.D.D.4 Z.S.Z.o ",
"# S.S.S.5.# D.D.D.D.D.D.D.D.D.D.D.D.D.D.D.D.D.D.D.D.D.D.D.D.D.D.D.D.D.D.D.D.D.D.D.D.D.D.D.D.D.D.D.D.D.D.D.D.D.D.D.D.  5.S.S.S.$ ",
"# S.S.S.S.S D.D.D.D.D.D.D.D.D.D.D.D.D.D.D.D.D.D.D.D.D.# v D Z C C D Z f q o D.D.D.D.D.D.D.D.D.D.D.D.D.D.D.D.D.D.D.D.S S.S.S.S.# ",
"# A.S.S.S.V.4 D.D.D.D.D.D.D.D.D.D.D.D.D.D.D.D.D.# S 5.Z.S.S.f.7.0.9.e.0.S.m.-.m D.D.D.D.D.D.D.D.D.D.D.D.D.D.D.D.D.5 N.S.S.S.Z.# ",
"X N.S.S.S.S.N o D.D.D.D.D.D.D.D.D.D.D.D.D.D.X P m.S.S.S.S.S.B.] k.;.k.;.S.S.S.S.6.e D.D.D.D.D.D.D.D.D.D.D.D.D.D.X B S.S.S.S.N.o ",
"X z.S.S.S.S.N H D.D.D.D.D.D.D.D.D.D.D.D.D.& 5.S.S.S.S.S.S.S.A.E V.` V.~ S.S.S.S.S.A.I D.D.D.D.D.D.D.D.D.D.D.D.D.H B S.S.S.S.z.X ",
"D.6.S.S.S.S.N d.8 D.D.D.D.D.D.D.D.D.D.D.& h.S.S.S.S.S.S.S.S.S.! A.W S.Q S.S.S.S.S.S.S.Y D.D.D.D.D.D.D.D.D.D.D.9 d.N S.S.S.S.6.D.",
"D.4.S.S.S.S.M d.u.< D.D.D.D.D.D.D.D.D.o 6.S.S.S.S.S.S.S.S.S.S.O.v.~ V.! A.S.S.S.S.S.S.S.B D.D.D.D.D.D.D.D.D.< u.d.m S.S.S.S.4.D.",
"D.*.S.S.S.S.S i.d.#.X D.D.D.D.D.D.D.D.T S.S.S.S.S.S.S.S.S.S.S.0.8.,.k.} c.S.S.S.S.S.S.S.N.& D.D.D.D.D.D.D.X #.d.i.P S.S.S.S.*.D.",
"D.S S.S.S.S.&.#.d.d...o D.D.D.D.D.D.4 Z.S.S.S.S.S.S.S.S.S.S.S.n.{ e.7.q.q.S.S.S.S.S.S.S.S.&.D.D.D.D.D.D.o  .d.d.#.&.S.S.S.S.S D.",
"D.6 S.S.S.S.5.L d.d.d.G D.D.D.D.D.D.*.S.S.S.S.S.S.S.S.S.S.S.S.A.W n.' v.{ S.S.S.S.S.S.S.S.N.& D.D.D.D.D.G d.d.d.L 6.S.S.S.S.6 D.",
"D.X h.S.S.S.A.l d.d.d.a.x D.D.D.D.# N.S.S.S.S.S.S.S.S.S.S.S.S.S.! Z.Q A.Q S.S.S.S.S.S.S.S.S.S D.D.D.D.x s.d.d.d.w Z.S.S.S.h.X D.",
"D.D.A S.S.S.S.*.X.a.d.d.p.8 D.D.D.A S.S.S.S.S.S.S.S.S.S.S.S.S.S.>.k.~ V.! A.S.S.S.S.S.S.S.S.3.D.D.D.8 p.d.d.d. .*.S.S.S.S.A D.D.",
"D.D.X 5.S.S.S.A.v 2.d.d.d.i.5 D.D.=.S.S.S.S.S.S.S.S.S.S.S.S.S.S.r.,.1.y.} c.S.S.S.S.S.S.S.S.m.X D.3 p.d.d.s.2.v S.S.S.S.5.X D.D.",
"D.D.D.4 m.S.S.S.x.l p.d.d.d.u.3   z.S.S.S.S.S.S.S.S.S.S.S.S.S.S.C.` j.;.e.8.S.S.S.S.S.S.S.S.S.& 3 u.d.d.d.p.k n.S.S.S.m.4 D.D.D.",
"D.D.D.D.e Z.S.S.S.6.x a.d.s.s.u.% A.S.S.S.S.S.S.S.S.S.S.S.S.S.S.S.R Z.Q n.' S.S.S.S.S.S.S.S.S.e 2.d.d.d.p.x 6.S.S.S.Z.e D.D.D.D.",
"D.D.D.D.D.A A.S.S.S.5.c s.d.d.d.v S.S.S.S.S.S.S.S.S.S.S.S.S.S.S.S.{ v.! Z.E S.S.S.S.S.S.S.S.S.B a.d.d.s.b 5.S.S.S.A.A D.D.D.D.D.",
"D.D.D.D.D.D.S S.S.S.S.4.c s.d.d.M S.S.S.S.S.S.S.S.S.S.S.S.S.S.S.S.e.7.>.f.' M.S.S.S.S.S.S.S.S.U u.d.s.x 4.S.S.S.S.S D.D.D.D.D.D.",
"D.D.D.D.D.D.D.S A.S.S.S.5.x p.d.B S.S.S.S.S.S.S.S.S.S.S.S.S.S.S.S.V.( j.:.7.q.S.S.S.S.S.S.S.S.T 2.p.x 5.S.S.S.A.S D.D.D.D.D.D.D.",
"D.D.D.D.D.D.D.D.A Z.S.S.S.6.w %.P S.S.S.S.S.S.S.S.S.S.S.S.S.S.S.S.S.R V.W n.[ S.S.S.S.S.S.S.S.T $.k 6.S.S.S.Z.A D.D.D.D.D.D.D.D.",
"D.D.D.D.D.D.D.D.D.e N.S.S.S.z.0 I S.S.4.S.S.S.S.g.A 6 e T A.S.S.S.S.;.) 7 B d n.S.S.S.N.h.S.S.Y 0 z.S.S.S.N.e D.D.D.D.D.D.D.D.D.",
"D.D.D.D.D.D.D.D.D.D.6 z.S.S.S.m.P S.S.m S.S.A.Y           B S.S.S.S.A           =.S.S.h.*.S.S.P n.S.S.S.z.6 D.D.D.D.D.D.D.D.D.D.",
"D.D.D.D.D.D.D.D.D.D.D.& 5.S.S.A.A S.S.m S.S.I               5.S.S.4.              T S.h.&.S.S.M S.S.S.5.# D.D.D.D.D.D.D.D.D.D.D.",
"D.D.D.D.D.D.D.D.D.D.D.D.o &.S.S.B S.S.m S.-.                U S.S.S                 5.h.&.S.S.A S.S.&.o D.D.D.D.D.D.D.D.D.D.D.D.",
"D.D.D.D.D.D.D.D.D.D.D.D.D.D.A N.A S.S.m Z.#                 m S.S.q                 & h.*.S.S.S N.A D.D.D.D.D.D.D.D.D.D.D.D.D.D.",
"D.D.D.D.D.D.D.D.D.D.D.D.D.D.D.6 e S.S.m 3.                  e S.S.6                   &.*.S.Z.e 6 D.D.D.D.D.D.D.D.D.D.D.D.D.D.D.",
"D.D.D.D.D.D.D.D.D.D.D.D.D.D.D.D.X Z.S.m T                   U S.S.B                   P T S.g.  D.D.D.D.D.D.D.D.D.D.D.D.D.D.D.D.",
"D.D.D.D.D.D.D.D.D.D.D.D.D.D.D.D.  z.m.P &.                  6.S.S.-.                  =.m S.=.D.D.D.D.D.D.D.D.D.D.D.D.D.D.D.D.D.",
"D.D.D.D.D.D.D.D.D.D.D.D.D.D.D.D.D.3.A x.4.                q S.S.S.Z.&                 6.3.&.I D.D.D.D.D.D.D.D.D.D.D.D.D.D.D.D.D.",
"D.D.D.D.D.D.D.D.D.D.D.D.D.D.D.D.D.4 =.S.Z.&             o z.S.S.S.S.5.              & A.S.S 2 D.D.D.D.D.D.D.D.D.D.D.D.D.D.D.D.D.",
"D.D.D.D.D.D.D.D.D.D.D.D.D.D.D.D.D.q S.S.S.h.&         & g.S.S.S.S.S.S.-.X         o g.S.S.N.& D.D.D.D.D.D.D.D.D.D.D.D.D.D.D.D.D.",
"D.D.D.D.D.D.D.D.D.D.D.D.D.D.D.D.D.&.S.S.S.S.A.6.&.&.5.A.S.S.S.S.S.S.S.S.m.T 7 Z F ^ B.S.S.S.M D.D.D.D.D.D.D.D.D.D.D.D.D.D.D.D.D.",
"D.D.D.D.D.D.D.D.D.D.D.D.D.D.D.D.D.*.S.S.S.S.S.S.S.S.S.S.S.S.Z.4.z.S.S.S.S.S.R V.W q.8.S.S.S.A D.D.D.D.D.D.D.D.D.D.D.D.D.D.D.D.D.",
"D.D.D.D.D.D.D.D.D.D.D.D.D.D.D.D.D.I S.S.S.S.S.S.S.S.S.S.S.Z.q   X 6.S.S.S.S.,.r.' j.~ S.S.S.q D.D.D.D.D.D.D.D.D.D.D.D.D.D.D.D.D.",
"D.D.D.D.D.D.D.D.D.D.D.D.D.D.D.D.D.# 4.S.S.S.S.S.S.S.S.S.S.&.  B X & A.S.S.S.n.' t.:.~ B.Z.Y D.D.D.D.D.D.D.D.D.D.D.D.D.D.D.D.D.D.",
"D.D.D.D.D.D.D.D.D.D.D.D.D.D.D.D.D.D.D.q 6.S.S.S.S.S.S.S.S.m   x.A   6.S.S.S.S.Q V.R 0.F 4 D.D.D.D.D.D.D.D.D.D.D.D.D.D.D.D.D.D.D.",
"D.D.D.D.D.D.D.D.D.D.D.D.D.D.D.D.D.D.D.D.  A N.S.S.S.S.S.S.&.&.S.h.A x.S.S.S.S.9.0._ 4 X D.D.D.D.D.D.D.D.D.D.D.D.D.D.D.D.D.D.D.D.",
"D.D.D.D.D.D.D.D.D.D.D.D.D.D.D.D.D.D.D.D.% T m h.S.S.S.S.S.S.S.S.S.S.S.S.S.S.S.V.j A Y 1 D.D.D.D.D.D.D.D.D.D.D.D.D.D.D.D.D.D.D.D.",
"D.D.D.D.D.D.D.D.D.D.D.D.D.D.D.D.D.D.$ | #.&.V.v m.S.S.S.S.S.S.S.S.S.S.S.S.S.S.6.m S.S i.| $ D.D.D.D.D.D.D.D.D.D.D.D.D.D.D.D.D.D.",
"D.D.D.D.D.D.D.D.& B 4 D.D.D.D.D.  b i.d.%.Y S.q &.S.S.S.S.S.S.S.S.S.S.S.S.S.S.m w S.B p.d.u.c X D.D.D.D.D.4 B & D.D.D.D.D.D.D.D.",
"D.D.D.D.D.D.D.D.5.S.Z.U X D.D.3 @.d.s.o.q U A.  & I *.3.4.5.5.5.5.5.5.4.3.*.P X * S.B z o.d.d.@.3 D.D.X Y Z.S.5.D.D.D.D.D.D.D.D.",
"D.D.D.D.D.D.D.D.4 6 6.S.3.X J d.d.2.c T N.I x.  m m.6.&.U 4.3.B -.3.4.B 4.6.-.    S.S Z.T c 2.d.a.J X 3.S.5.6 4 D.D.D.D.D.D.D.D.",
"D.D.D.D.D.D.D.D.D.D.X &.S.4.n a.K M z.S.Z.S h.  m S.S.6.3.S.S.T N.S.S.Y Z.S.5.    Z.S A.S.z.M K a.n 4.A.&.X D.D.D.D.D.D.D.D.D.D.",
"D.D.D.D.D.D.D.D.D.D.D.. *.S.*.5 3.S.S.g.m A 6.  q m.S.6.3.S.S.Y C.S.S.Y Z.A.3.    Z.q e g.S.S.3.5 *.S.*.. D.D.D.D.D.D.D.D.D.D.D.",
"D.D.D.D.D.D.D.D.D.D.+ s ; 5.S.B m.x.S X D.B 6.      o # 4 m m 4 m m e # #         N.e D.X S m.x.B S.5.; s + D.D.D.D.D.D.D.D.D.D.",
"D.D.D.D.D.D.D.D.. r = a g , N.x.6 # D.D.D.B 5.                                    N.q D.D.D.# q x.N., h a = r   D.D.D.D.D.D.D.D.",
"D.D.D.D.D.D.D.O - g a = g u A S.U D.D.D.D.B 4.                                    m.6 D.D.D.D.U S.A u g = a g ; O D.D.D.D.D.D.D.",
"D.D.D.D.D.. - g > u h t = .   4.x.o D.D.D.m 4.                                    N.& D.D.D.o x.4.  . = t g u ; g ;   D.D.D.D.D.",
"D.D.D.D.. r - h h = t O D.D.D.0 S.m D.D.D.m 5.                                    N.& D.D.D.m S.q D.D.D.O t = g h - r . D.D.D.D.",
"D.X U T > g r t p @ D.D.D.D.D.  h.*.D.D.D.e 5.                                    N.# D.D.D.*.h.X D.D.D.D.D.@ a t r h : *.A X D.",
"D.B m z.I i s . . D.D.D.D.D.X q N.*.D.D.D.e 6.  6 &.U e 4 6 & o & 4 q & A Y I     Z.o D.D.D.=.m.q X D.D.D.D.D.. . s u *.6.B B D.",
"q S.N.m N.* . D.D.D.D.D.D.D.D.6 m # D.D.D.q g.  e S.S.6.3.S.S.T N.S.S.Y Z.S.6.    Z.# D.D.D.# m 6 D.D.D.D.D.D.D.D.. 6 x.B A.S.q ",
"e S.S.4.Y o D.D.D.D.D.D.D.D.D.D.D.D.D.D.D.& z.  m S.A.6.3.S.S.Y N.S.S.Y Z.S.5.  , x.X D.D.D.D.D.D.D.D.D.D.D.D.D.D.D.4 I g.S.S.e ",
"D.T 5.e   D.D.D.D.D.D.D.D.D.D.D.D.D.D.D.D.X z.  # T -.&.&.h.z.U z.z.g.A 3.*.B   m 6.D.D.D.D.D.D.D.D.D.D.D.D.D.D.D.D.D.  e 5.T D.",
"D.D.D.D.D.D.D.D.D.D.D.D.D.D.D.D.D.D.D.D.D.D.=.m q -.T S m e q 6 q q m B U &.&.  T &.D.D.D.D.D.D.D.D.D.D.D.D.D.D.D.D.D.D.D.D.D.D.",
"D.D.D.D.D.D.D.D.D.D.D.D.D.D.D.D.D.D.D.D.D.D.6 m.Z.S.S.S.S.S.S.S.S.S.S.S.S.S.S.5.N.4 D.D.D.D.D.D.D.D.D.D.D.D.D.D.D.D.D.D.D.D.D.D.",
"D.D.D.D.D.D.D.D.D.D.D.D.D.D.D.D.D.D.D.D.D.D.D.B N.S.S.S.S.S.S.S.S.S.S.S.S.S.S.Z.A D.D.D.D.D.D.D.D.D.D.D.D.D.D.D.D.D.D.D.D.D.D.D.",
"D.D.D.D.D.D.D.D.D.D.D.D.D.D.D.D.D.D.D.D.D.D.D.D.# A S S S S S S S S S S S S A & D.D.D.D.D.D.D.D.D.D.D.D.D.D.D.D.D.D.D.D.D.D.D.D."
};
