/* XPM */
static char *result[] = {
/* columns rows colors chars-per-pixel */
"64 64 115 2 ",
"   c #CAB33F",
".  c #CDB644",
"X  c #CFB845",
"o  c #CBB64B",
"O  c #D2BB45",
"+  c #D4BD49",
"@  c #CEBA59",
"#  c #D1BB53",
"$  c #D2BD58",
"%  c #D7C046",
"&  c #DBC347",
"*  c #D7C048",
"=  c #DCC449",
"-  c #D6C154",
";  c #DCC554",
":  c #D7C35E",
">  c #DAC55A",
",  c #DEC95D",
"<  c #E0C74A",
"1  c #E4CB4C",
"2  c #E8CF4D",
"3  c #ECD24E",
"4  c #F0D64F",
"5  c #E1CA55",
"6  c #E1CB5D",
"7  c #F2D751",
"8  c #F3D952",
"9  c #F9DE53",
"0  c #FFE24F",
"q  c #FFE355",
"w  c #FFE45D",
"e  c #D5C365",
"r  c #DAC663",
"t  c #DECA64",
"y  c #D6C36B",
"u  c #DDCA6D",
"i  c #DAC974",
"p  c #DDCD7C",
"a  c #E3CE63",
"s  c #E3CF6C",
"d  c #E6D26F",
"f  c #E5D273",
"g  c #E4D37D",
"h  c #F4DF74",
"j  c #FEE463",
"k  c #FFE66B",
"l  c #FFE872",
"z  c #FFE97B",
"x  c #DCCD84",
"c  c #DCCE89",
"v  c #DFD185",
"b  c #DFD18C",
"n  c #E4D484",
"m  c #EAD986",
"M  c #E3D48C",
"N  c #E7D98C",
"B  c #E9DA8D",
"V  c #E3D693",
"C  c #E6D994",
"Z  c #EBDC93",
"A  c #E3D79A",
"S  c #E6D99B",
"D  c #E9DD9C",
"F  c #FFEA83",
"G  c #EEE09E",
"H  c #F3E395",
"J  c #FEEC94",
"K  c #F6E89A",
"L  c #FFEF9D",
"P  c #E6DBA3",
"I  c #E9DDA4",
"U  c #E6DCA9",
"Y  c #E9DFAB",
"T  c #E8DFB1",
"R  c #EDE1A3",
"E  c #EDE2AB",
"W  c #FCEEA7",
"Q  c #F0E5AD",
"!  c #FAECAA",
"~  c #FEF0A3",
"^  c #FFF1AC",
"/  c #ECE3B3",
"(  c #EEE5BB",
")  c #F0E6B3",
"_  c #F2E9B7",
"`  c #FBEFB3",
"'  c #F0E7BB",
"]  c #F2E9BC",
"[  c #F8EEBB",
"{  c #FFF2B3",
"}  c #FFF3BA",
"|  c #EEE6C2",
" . c #EFE8C4",
".. c #EFE9C8",
"X. c #F2EAC4",
"o. c #F3ECCC",
"O. c #FFF5C1",
"+. c #F6F0CE",
"@. c #FEF5CB",
"#. c #F4EED2",
"$. c #F4EFD8",
"%. c #F6F1D4",
"&. c #FAF4D3",
"*. c #FFF8D6",
"=. c #F6F2DB",
"-. c #F9F4DC",
";. c #FFF9DB",
":. c #F7F3E0",
">. c #F9F5E3",
",. c #FEFAE5",
"<. c #F9F7EA",
"1. c #FBF9EC",
"2. c #FCFBF4",
"3. c #FFFFFE",
"4. c None",
/* pixels */
"4.4.4.4.4.4.4.4.4.4.4.4.4.4.4.4.4.4.4.4.4.4.4.4.4.4.4.4.4.4.4.4.4.4.4.4.4.4.4.4.4.4.4.4.4.4.4.4.4.4.4.4.4.4.4.4.4.4.4.4.4.4.4.4.",
"4.4.4.4.4.4.4.4.4.4.4.4.4.4.4.4.4.4.4.4.4.4.4.4.4.4.4.4.4.4.4.4.4.4.4.4.4.4.4.4.4.4.4.4.4.4.4.4.4.4.4.4.4.4.4.4.4.4.4.4.4.4.4.4.",
"4.4.4.4.4.4.4.4.4.4.4.4.4.4.4.4.4.4.4.4.4.4.4.4.4.4.4.4.4.4.4.4.4.4.4.4.4.4.4.4.4.4.4.4.4.4.4.4.4.4.4.4.4.4.4.4.4.4.4.4.4.4.4.4.",
"4.4.4.4.4.1 2 2 2 1 2 1 2 2 1 2 2 1 2 1 2 1 2 1 2 2 1 2 2 1 2 1 2 1 2 1 2 2 1 2 1 1 2 2 2 1 2 1 2 2 1 2 2 1 2 1 2 1 2 4.4.4.4.4.",
"4.4.4.4.2 2 1 1 1 1 1 1 1 1 1 1 1 1 1 1 1 1 1 2 1 1 1 1 2 1 1 2 1 2 1 = 1 1 1 2 2 1 1 1 1 1 1 1 1 1 2 1 1 1 2 1 1 1 1 1 3 4.4.4.",
"4.4.4.4.q q q q q q q q q q q q q q q q q q q q q q q q q q q q q q q q q q q q q q q q q q q q q q q q q q q q q q q q q 4.4.4.",
"4.4.4.q q q q q q q q q q q q q q q q q q q q q q q q q q q q q q q q q j q q q q q q q q q q q q q q q q q q q q q q q q 4.4.4.",
"4.4.4.q q q q q q q q q q q q q q q q q q q q q q q q q q q q q q q q W H l q q q q q q q q q q q q q q q q q q q q q q q 4.4.4.",
"4.4.4.q q q q q q q q q q q q q q q q q q q q q q q q q q q q q q q ^ S #.i 3 q q q q q q q q q q q q q q q q q q q q q q 4.4.4.",
"4.4.4.q q q q q q q q q q q q q q q q q q q q q q q q q q q q q q { =.A 3.p . 2 q q q q q q q q q q q q q q q q q q q q 0 4.4.4.",
"4.4.4.q q q q q q q q q q q q q q q q q q q q q q q q q q q q q ^ 3.x <.3.b . . 2 q q q q q q q q q q q q q q q q q q q q 4.4.4.",
"4.4.4.q q q q q q q q q q q q q q q q q q q q q q q q q q q q L 3. ./ 3.3.U   . o 2 q q q q q q q q q q q q q q q q q q q 4.4.4.",
"4.4.4.q q q q q q q q q q q q q q q q q q q q q q q q q q q z 2.3.p 2.3.3.|   . X X 3 q q q q q q q q q q q q q q q q q q 4.4.4.",
"4.4.4.q q q q q q q q q q q q q q q q q q q q q q q q q q w ,.3...U 3.3.3.$.o . . X o 3 q q q q q q q q q q q q q q q q q 4.4.4.",
"4.4.4.w q q q q q q q q q q q q q j q q q q q q q q q q q } 3.3.b 2.3.3.3.2.@ . X X X X 3 q q q q q q q q q q q q q q q q 4.4.4.",
"4.4.4.q q q q q q q q q q q q q k &.4 q q q q q q q q q l 3.3.$.A 3.3.3.3.3.b . X . . X O 4 q q q q q q q q q q q q q q q 4.4.4.",
"4.4.4.q q q q q q q q q q q q q J 3.i 3 w q q q q q q q *.3.3.P $.3.3.3.3.3.X.. X X X X O O 3 q q q q q q q q q q q q q q 4.4.4.",
"4.4.4.w q q q q q q q q q q q l ^ 3.... 4 q q q q q q F 3.3.3.b 3.3.3.3.3.3.<.# X X X X O O + 4 q q q q q q q k W q q q q 4.4.4.",
"4.4.4.q q q q q q q q q q q q { E 3.3.x . 7 q q q q q @.3.3.=.P 3.3.3.3.3.3.3.e X X X O O O O O 3 q q q q q z {  .1 q q q 4.4.4.",
"4.4.4.q q q q q q q q q q q q &./ 3.3.1.@ o 7 q q q k 2.3.3.(  .3.3.3.3.3.3.3.V . X O O X O O O + 3 q q q } _ @.o.+ 1 q q 4.4.4.",
"4.4.4.q q q q q q q q q q q k =./ 3.3.3.$.o . 4 q q L 3.3.3.P $.3.3.3.3.3.3.3.(   O O O O O O O O % 3 F ,.3.M 2.X.+ & 2 9 4.4.4.",
"4.4.4.w q q q q q q q q q q z :.T 3.3.3.3. .o o 7 q @.2.$. .i ( $.>.3.3.3.3.3.#.O O O O O + + + O t ' 3.3.%.R 3.] & + + 2 4.4.4.",
"4.4.4.w q q q q q q q q q q z 1.P 3.3.3.3.3. .o X 7 K c P | o.( / A M U =.3.3.$.O O O O O O + : E 2.3.3.3.n 2.3.R % = & % 4.4.4.",
"4.4.4.q q q q q q q q q q q z 2.c 3.3.3.3.3.3...o M ;.3.3.3.3.3.3.3.3.=.P V 1.=.+ X X + - n X.3.3.3.3.3.C %.3.3.n & % = % 4.4.4.",
"4.4.4.q q q q q q q q q q q l 3.U | 3.3.3.3.| x :.3.3.3.3.3.3.3.3.3.3.3.3.>.n / r I ( %.2.3.3.3.3.3.2.D X.3.3.2.; + & = & 4.4.4.",
"4.4.4.w q q q q q q q q q q j 3.2.x >.3.3.P U 3.3.3.3.3.3.3.3.3.3.3.3.3.3.3.2.M S 3.3.3.3.3.3.3.3.1.M o.3.3.3.o.+ < + = + 4.4.4.",
"4.4.4.q q q q q q q q q q q w 1.3.1.c ..c @ y x A ..2.3.3.3.3.3.<.T U ( 2.3.3.2.M <.3.3.3.3.3.3._ M <.3.3.3.3.M & = = = < 4.4.4.",
"4.4.4.w q q q q q q q q q q q ;.3.3.T o . . e 2.1.T c <.3.3.3.=.M o.o.X.M 2.3.3.=.C 3.3.3.2.X.n ' 3.3.3.3.3.=.; & & = = & 4.4.4.",
"4.4.4.q q q q q q q q q q q q } 3.U U :.e V 1.3.3.3.<.x <.3.3.M o.O   : ..I 3.3.3.S >.>.R n ( 3.3.3.3.3.3.3.g & = = = = & 4.4.4.",
"4.4.4.q q q q q q q q q q q q F $.A 3.1.c 3.3.3.3.3.3.>.v 3.>.Y v O O O / V 3.3.3.%.u I #.3.3.3.3.3.3.3.3._ & & & = = = < 4.4.4.",
"4.4.4.w q q q q q q q q q q q w n 1.3.#.| 3.3.3.3.3.3.3./ #.2.P C X O O X.M 3.3.3.3.M 3.3.3.3.3.3.3.3.3.o.= = = = = = = = 4.4.4.",
"4.4.4.q q q q q q q q q q q q q J 3.3.Y $.3.3.3.3.3.3.3.Y S 3.S o.p : S / X.3.3.3.3.D 1.3.3.3.3.3.3.3.o.; = = = = = = < = 4.4.4.",
"4.4.4.w q q q q q q q q q q q q ` 3.3.U =.3.3.3.3.3.#.n / V 3.2.M E X.P E 3.3.3.3.3.( >.3.3.3.3.3.3._ = = & = = = = 1 = = 4.4.4.",
"4.4.4.q q q q q q q q q q q q q z Z #.|  .3.3.=./ c T 2.2.M 3.3.3.-.#.<.3.3.3.3.3.3.' %.3.3.3.3.<.n & = = = = = < = = = < 4.4.4.",
"4.4.4.q q q q q q q q q q q q q W 1./ M p b V U o.2.3.3.>.A 3.3.3.3.3.3.3.3.3.3.3.3.X.+.3.3.<.R > = = = = = = = 5 ) 1 = = 4.4.4.",
"4.4.4.q q q q z k 0 q q 0 q l O.J 2.3.3.3.3.3.3.3.3.3.3. . .3.3.3.3.3.3.3.3.3.3.3.3.X.o.o.N ; % = = = = & = a Q 1.Z = 1 < 4.4.4.",
"4.4.4.q q q q J 2.@.^ ^ O.,.2.3.U E 3.3.3.3.3.3.3.3.3.2.n 2.3.3.3.3.3.3.3.3.3.3.3.3.' t n ] G n f u s n G &.2.3.G 5 = 1 < 4.4.4.",
"4.4.4.q q q q q [ 3.3.3.3.3.3.3.o.e o.3.3.3.3.3.3.3.3.V #.3.3.3.3.3.3.3.3.3.3.3.3.3.G <.3.3.3.3.3.3.3.3.3.3.2.B _ ; 1 = < 4.4.4.",
"4.4.4.q q q q w ! Q 3.3.3.3.3.3.1.A S Y 2.3.3.3.3.=.n o.3.3.3.3.3.3.3.3.3.3.3.3.3.3.N 3.3.3.3.3.3.3.3.3.3.-.m -.G < 1 < 1 4.4.4.",
"4.4.4.w q q q q @.] M 2.3.3.3.3.3.M 3.o.V V S V M U 1.3.3.3.3.3.3.3.3.3.3.3.3.3.3.o.E 3.3.3.3.3.3.3.3.2.D G 2.-.1 < = 1 < 4.4.4.",
"4.4.4.w q q q q J 3.-.n / 2.3.3.3.U ( 3.3.1.>.<.3.3.3.3.3.3.3.3.3.3.3.3.3.3.3.3.3.B =.3.3.3.3.3.3.1.Q N %.3.3.f = 1 1 1 1 4.4.4.",
"4.4.4.q q q q q w 1.3.3.| b A A M U M 2.3.3.3.3.3.3.3.3.3.3.3.3.3.3.3.3.3.3.3.3.%.B Z E X.o.X._ Z Z %.3.3.3.Z < = 1 = 1 = 4.4.4.",
"4.4.4.q q q q q q J 3.3.3.3.2.1.3.3.%.A 3.3.3.3.3.3.3.3.3.3.3.3.3.3.3.3.3.3.3.2.n 2.3.-.X.] X.-.2.3.3.3.3.D < < 1 1 = 1 1 4.4.4.",
"4.4.4.q q q q q q q &.3.3.3.3.3.3.3.3./ Y 3.3.3.3.3.3.3.3.3.3.3.3.3.3.3.3.3.3.n -.3.3.3.3.3.3.3.3.3.3.1.m < 1 = 1 < 1 1 1 4.4.4.",
"4.4.4.w q q q q q q w =.3.3.3.3.3.3.3.3./ U 3.3.3.3.3.3.3.3.3.3.3.3.3.3.3.1.m =.3.3.3.3.3.3.3.3.3.3.X.a < 1 < 1 < 1 1 1 < 4.4.4.",
"4.4.4.q q q q q q q q w ( 3.3.3.3.3.3.>.M i B %.3.3.3.3.3.3.3.3.3.3.3.3.o.a _ 2.3.3.3.3.3.3.3.1.] f = 1 < < 1 < 1 1 1 1 1 4.4.4.",
"4.4.4.q q q q q q q q q 9 : D | | E i * / 3.2.C M o.2.3.3.3.3.3.3.2.X.N / %., 6 N Q ] X.] R f 5 = = 1 1 < 5 < 1 1 1 1 1 1 4.4.4.",
"4.4.4.q q q q q q q q q q 9 O O X X O : 3.3.3.=.R ( M g D E Y Z n Z X.2.3.3.Q % & & = = = < 1 = 1 1 < < < 1 1 1 < 1 1 1 1 4.4.4.",
"4.4.4.q q q q q q q q q q q q % O O O C 3.3.3./ %.3.3.g o.<.<.<.n 2.3.3.3.3.2.6 = = = = 1 = < < = = 1 1 < 1 1 < 1 1 1 1 1 4.4.4.",
"4.4.4.w q q q q q q q q q q q q + O + =.3.3.2.n 3.3.3.I _ 3.3.3.-.N 3.3.3.3.3.o.= ; 1 < = < < = 1 1 1 = 1 1 1 1 1 1 1 2 1 4.4.4.",
"4.4.4.q q q q q q q q q q q q q 9 O n 3.3.3.E X.3.3.3.Z n 3.3.3.3.] E 3.3.3.3.3.Q < 1 = < < < 1 1 = 1 1 1 1 1 1 2 2 2 1 2 4.4.4.",
"4.4.4.w q q q q q q q q q q q q q j <.3.3.X.S 3.3.3.o.* ; <.3.3.3.3.Q E 3.3.3.3.3.Q = < = 1 < < 1 1 < 1 1 5 1 2 1 5 1 2 2 4.4.4.",
"4.4.4.q q q q q q q q q q q q q w ;.3.3.E D 3.3.3.<., & + m 3.3.3.3.3.] Z 2.3.3.3.3.o.a 1 < < 1 = 1 1 < 5 1 1 1 1 1 2 2 1 4.4.4.",
"4.4.4.q q q q q q q q q q q q j ;.3.#.n o.3.3.3.1.t + = & + ) 3.3.3.3.3.-.N Q 2.3.3.3.2.B < 1 < 1 1 1 1 1 2 1 2 1 2 2 1 2 4.4.4.",
"4.4.4.w q q q q q q q q q q l -./ M E 2.3.3.3.%., & & + = & = X.3.3.3.3.3.3.#.G Z H G B 6 1 1 < 1 1 1 1 1 2 1 1 2 2 2 2 2 4.4.4.",
"4.4.4.q q q q q q q q q q q j a X.2.3.3.3.:.D ; & + & & & = = = R 3.3.3.3.3.3.3.3.&.m 1 < < 1 1 1 1 1 1 1 1 1 2 2 2 2 2 2 4.4.4.",
"4.4.4.q q q q q q q q q q q q q < t n g t & + & + & & & = = = = & a ) -.,.:.o.Q f < < 1 < 1 1 1 1 1 1 2 2 1 2 2 2 2 2 2 2 4.4.4.",
"4.4.4.q q q q q q q q q q q q q 9 = + + & + & + = & & & = = = = = = = 1 = 1 = 1 < < 1 < 1 1 1 1 1 1 1 1 1 2 1 2 2 1 2 2 2 4.4.4.",
"4.4.4.q q q q q q q q q q q q q q q < + + & + & & = = = = = = = = = < = = 1 1 1 < 1 < 1 < 1 1 1 2 1 2 1 2 2 2 2 2 2 2 3 2 4.4.4.",
"4.4.4.4.q q q q q q q q q q q q q q 9 1 & & & & + = = = = = = < 1 = < < 1 = 1 = 1 < 1 1 1 1 1 5 2 1 2 2 5 1 2 2 5 3 3 2 3 4.4.4.",
"4.4.4.4.4.q q q q q q q q q q q q q q 9 = & & & & & & & = = = = = = 1 = = < < 1 1 < 1 1 1 1 1 1 1 2 1 2 2 2 1 2 2 2 3 2 4.4.4.4.",
"4.4.4.4.4.4.4.4.4.4.4.4.4.4.4.4.4.4.4.4.4.4.4.4.4.4.4.4.4.4.4.4.4.4.4.4.4.4.4.4.4.4.4.4.4.4.4.4.4.4.4.4.4.4.4.4.4.4.4.4.4.4.4.4.",
"4.4.4.4.4.4.4.4.4.4.4.4.4.4.4.4.4.4.4.4.4.4.4.4.4.4.4.4.4.4.4.4.4.4.4.4.4.4.4.4.4.4.4.4.4.4.4.4.4.4.4.4.4.4.4.4.4.4.4.4.4.4.4.4.",
"4.4.4.4.4.4.4.4.4.4.4.4.4.4.4.4.4.4.4.4.4.4.4.4.4.4.4.4.4.4.4.4.4.4.4.4.4.4.4.4.4.4.4.4.4.4.4.4.4.4.4.4.4.4.4.4.4.4.4.4.4.4.4.4."
};
