/* XPM */
static char *aa822cc1d2014ae781fd419c07c6fb7dp3izHIQR66e3cSOV[] = {
/* columns rows colors chars-per-pixel */
"64 64 68 1 ",
"  c #D1D6DB",
". c #D4D9DE",
"X c #D0D6DA",
"o c #D0D6DB",
"O c #D1D8DA",
"+ c #DDDDDD",
"@ c None",
"# c #D6D6DE",
"$ c #D0D7DA",
"% c #D1D7DC",
"& c #D2D8DB",
"* c #D0D7DA",
"= c #D1D7DB",
"- c #D0D7DB",
"; c #D2D7DB",
": c black",
"> c #AFB3B5",
", c #A7ABAE",
"< c #BEBFC0",
"1 c gray63",
"2 c #BCBCBC",
"3 c #F0F2F3",
"4 c #F9FAFA",
"5 c #515151",
"6 c gray53",
"7 c #6C6C6C",
"8 c #EAEDEF",
"9 c gray99",
"0 c #EDF0F1",
"q c #D6DCDF",
"w c #E4E4E4",
"e c #D7D7D7",
"r c #AFAFAF",
"t c #F0F1F2",
"y c #D9DEE1",
"u c #E5E8EA",
"i c #DDDFE1",
"p c #797979",
"a c #E2E4E5",
"s c #F5F6F6",
"d c #BBC0C3",
"f c #F6F7F8",
"g c #D3D9DD",
"h c #444444",
"j c #373737",
"k c #D3D6D8",
"l c #B6BBBF",
"z c #E6E8E9",
"x c gray98",
"c c #E2E6E8",
"v c #F1F1F1",
"b c #CACDD0",
"n c #C0C4C7",
"m c #CED2D4",
"M c #DFE3E6",
"N c gray58",
"B c gray79",
"V c #E8EBED",
"C c #5F5F5F",
"Z c #DCE1E4",
"A c #F3F5F6",
"S c #EBEDEE",
"D c #D8DBDD",
"F c #C5C9CC",
"G c #2A2A2A",
"H c #B2B7BB",
"J c #D1D7DB",
"K c white",
/* pixels */
":::::::::::::::::::::::::::::::::::#O===O;+:::::+&=====&;;;:::::",
":$------------JJJJJJJJJJJJJJJJJJJJJJJJJJJJJ@----JJJJJJJJJJJJJJ$:",
":JJJJJJJJJJJJJJJJJJJJJJJJJJJJJJJJJJJMVVVMyJJJJJJJJyMVVVMZZqJJJJ:",
":JJAAAAAAAAAAAKKKKKKKKKKKKKKKKKcJMKKKKKKKKKfAAAA4KKKKKKKKKKKKJJ:",
"#JgKKKKKKKKKKKKKKKKKKKKKKKKKKKKVJZKKKKKKKKKKKKKKKKKKKKKKKKKKKJJ:",
"&JZKKKKKKKKKKKKKKKKKKKKKKKKKKKKVJMKKKKKKKKKKKKKKKKKKKKKKKKKKKJJ:",
"OJuKKKKKKKKKKKKKKKKKKKKKKKKKKKKuJVKKKKKKKKKKKKKKKKKKKKKKKKKKKJJ:",
";JZKKKKKKKKKKKKKKKKKKKKKKKKKKKKMJVKKKKKKKKKKKKKKKKKKKKKKKKKKKJJ:",
";JZKKKKKKKKKKKKKKKKKKKKKKKKKKKKVJVKKKKKKKKKKKKKKKKKKKKKKKKKKKJJ:",
"+JJKKKKKKKKKKKKKKKKKKKKKKKKKKKKVJVKKKKKKKKKKKKKKKKKKKKKKKKKKKJJ:",
":JJ9KKKKKKKKKKKKKKKvKKKKKKKKKKK0JZKKKKKKKKKKKKKKKKKKKKKKKKKKKJJ:",
":XJAKKKKKKKphpNNNCGGGGGGGGGGGGGGGGGGGGGjCCCpNNpCCCCCpKKKKKKKKJJ:",
":-JAKKKKKKKGGGGGGGGGGGGGGGGGGGGGGGGGGGGGGGGGGGGGGGGGGKKKKKKKKJJ:",
":*JfKKKKKKKGG7CC6rwKKKKKKKKKKKKKKKKKKKKvBrNNNNNBBBBjGvKKKKKKKJJ:",
":JJKKKKKKKKGGKKKKKKKKKKKKKKKKKKKKKKKKKKKKKKKKKKKKKK5GeKKKKKKKJJ:",
".JqKKKKKKKKGhKKKKKKKKKKKKKKKKKKKSSSSsKKKKtzSSSsKKKKGGKKKKKKKKJJ:",
"%JZKKKKKKKeGCKKKmHHHHHHHHmbFFFFFlHHHHHHHHHHHHHHmKKKGGKKKKKKKKJJ:",
"=JVKKKKKKKNG6KKKHHHHHHHHHHHHHHHHHFFFHHHHHHnFFFHHKKKGGKKKKKKKAJ*:",
"=JVKKKKKKKpG2KKKHHKKKKKDHdFkKKKHHKKKKKSHFKKKKKHHSKKGGKKKKKKK3J-:",
"=JVKKKKKKKNGNKKKHHKKKKKDHDKKKKKHHKKKKKSHFKKKKKnHSKKGGKKKKKKKVJ=:",
"%JMKKKKKKKNG7KKKHHKKKKKDHDKKKKKHHKKKKKDHmKKKKKFHSKKGGKKKKKKKMJ%:",
"#JgKKKKKKKBGhKKKHHKKKKKDHDKKKKKHHKKKKKmHiKKKKKnHtKKjGeKKKKKKZJ;:",
":JJKKKKKKKvGGKKSHFKKKKKDHDKKKKKHHKKKKKFHSKKKKKHHKKKhGvKKKKKKZJ;:",
"#JJKKKKKKKKjGeKiHFKKKKKDHDKKKKxHlKKKKKlHsKKKKtHnKKKGGKKKKKKKZJ;:",
"OJcKKKKKKKKCGBKkHkKKKKKDHDKKKKSHFKKKKKHHKKKKKaHbKKKGGKKKKKKKcJ%:",
"-JVKKKKKKKKCGBKFHDKKKKKDHDKKKKSHFKKKKKdHKKKKKDHDKKKGGKKKKKKKVJ=:",
"=JcKKKKKKKKCGBKFHaKKKKKDHDKKKKSHdKKKKKFHsKKKKDHDKKKGGKKKKKKKVJ=:",
"&Jg9KKKKKKK5GBKFHSKKKKKDHDKKKKtHHKKKKKFHSKKKKFHDKKKGGKKKKKKK8Jo:",
":@J8KKKKKKwGGvKFHSKKKKKmHDKKKKKHHKKKKKDHDKKKKDHDKKKGGKKKKKKKAJ*:",
":$JcKKKKKKBGGKKmHiKKKKKnHSKKKKKHHKKKKKDHDKKKKDHkKKKGGKKKKKKK9gJ.",
":$JMK9AAAABGhKKiHbKKKKKHHSKKKKKHHKKKKKSHFKKKKzHFKKeGCKKKKKKKKZJ;",
":*JJJJJJJJ>GCKKsHHKKKKKHHKKKKKKHHKKKKKSHFKKKKSHFKKwGGJJJJJJJJJJ;",
":JJJJJgJJJ,GCKKKHHKKKKKHHKKKKKSHnKKKKKSHFKKKKSHFKKKGGJJJJJJJJJJ%",
":XJKKKKKK4<GCKKKHHKKKKKHHKKKKKaHbKKKKKSHFKKKKSHFKKKGGKKKKKKKKcJ=",
"&JgKKKKKKKvGjKKKHHKKKKKHHxKKKKDHDKKKKKSHFKKKKKHHKKKGGKKKKKKKKVJ=",
"-JVKKKKKKKKGGKKKHHKKKKKnHSKKKKbHzKKKKKKHHKKKKKHHKKKGGKKKKKKK9yJ;",
"-JAKKKKKKKKGGKKxHlKKKKKmHmKKKKFHSKKKKKKHHKKKKKHHKKKGGKKKKKKK8J-:",
"-JAKKKKKKKKGGKKSHFKKKKKzHdKKKKFHSKKKKKKHHKKKKKHHKKKGGKKKKKKKMJ=:",
"oJ8KKKKKKKKGGKKSHFKKKKKKHHKKKKFHiKKKKKKHHKKKKKHHKKKGGKKKKKKKMJ=:",
"=JcKKKKKKKKGGKKSHFKKKKKKHHKKKKkHDKKKKKKHHKKKKtHlKKKGGKKKKKKKVJo:",
"&JyKKKKKKKKGGKKKHHKKKKKSHnKKKKiHFKKKKKKHHKKKKSHFKKKGGKKKKKKKAJ*:",
"+JJKKKKKKKKGGKKKHHKKKKKzHbKKKKSHFKKKKKKHHKKKKaHmKKKGGKKKKKKKKJJ:",
":@JfKKKKKKKGGKKKHHKKKKKDHDKKKKxHlKKKKKxHnKKKKaHmKKKGGKKKKKKKKJJ:",
":-JAKKKKKKKGGKKKHHKKKKKDHDKKKKKHHKKKKKsHHKKKKSHFKKKGGKKKKKKKKJJ:",
":-JAKKKKKKKGGKKKHHKKKKKkHDKKKKKHHKKKKKKHHKKKKSHFKKKGGKKKKKKKfJ*:",
":-JAKKKKKKKGGKKKHHSSSSSFHzKKKxKHHKKKKKxHHzDDDkHdKKKGGKKKKKKK8J$:",
":-JAKKKKKKKGGKKKHHHHHHHHHHHHHHHHHFFFFbbHHHHHHHHHKKKGGKKKKKKKVJ=:",
":-JAKKKKKKKGGKKKFlFFFFnHHHHHHHHHHHHHHHHHnFDDDmdFKKKGGKKKKKKKVJ$:",
":-JAKKKKKKKGGKKKKKKKKKKKKKKKKKKKKKKKDFbaKKKKKKKKKKKGGKKKKKKKfJ@:",
":-J3KKKKKKKGGKKKKKKKKKKKKKKKKKKKKKKKKKKKKKKKKKKKKKKGGKKKKKKKKgJ.",
": JuKKKKKKKGGKKKKKKKKKKKKKKKKKKKKKKKKKKKKKKKKKKKKKKGGKKKKKKKKZJ;",
":;JZKKKKKKKGGC7N1BBBBBBBBBBrCjGGGGGG5CCCCCChGGGGGGGGGKKKKKKKKZJ;",
":;JZKKKKKKKhGGGGGGGGGGGGGGGGGGGGGGGGGGGGGGGGGGGGGGGGjKKKKKKKKyJ;",
":=JcKKKKKKKKBBrN7CCCCCCCCCCC6rwJJKKvBBBBBBBwKKKKKKKKKKKKKKKKKJJ:",
": JVKKKKKKKKKKKKKKKKKKKKKKKKKKKJJKKKKKKKKKKKKKKKKKKKKKKKKKKKKJJ:",
":oJVKKKKKKKKKKKKKKKKKKKKKKKKKKAJyKKKKKKKKKKKKKKKKKKKKKKKKKKKAJX:",
":=JVKKKKKKKKKKKKKKKKKKKKKKKKKKAJZKKKKKKKKKKKKKKKKKKKKKKKKKKKAJ-:",
":=JVKKKKKKKKKKKKKKKKKKKKKKKKKK0JuKKKKKKKKKKKKKKKKKKKKKKKKKKK0J :",
":%JMKKKKKKKKKKKKKKKKKKKKKKKKKK0JZKKKKKKKKKKKKKKKKKKKKKKKKKKK0J-:",
":;JZKKKKKKKKKKKKKKKKKKKKKKKKKKAJqKKKKKKKKKKKKKKKKKKKKKKKKKKKAJ*:",
":=JuKKKKKKKKKKKKKKKKKKKKKKKKKKfJJKKKKKKKKKKKKKKKKKKKKKAAAAAAfJJ:",
":*JqZuVVVVVMZZZZZZZZZZZZZZZZJJJJJJJJJJJJJJJJJJqZZZZZJJJJJJJJJJJ:",
":XJJJJJJJJJJJJJJJJJJJJJJJJJJJJJJJJJJJJJJJJJJJJJJJJJJJJ*-----JJ@:",
"::;;&======&;;;;;;;;;;;;;;;;::::::::::::::::::#;;;;;;+::::::::::"
};
