/* XPM */
static char *result[] = {
/* columns rows colors chars-per-pixel */
"64 64 106 2 ",
"   c #479675",
".  c #4A9676",
"X  c #469976",
"o  c #4A9877",
"O  c #4D9B7A",
"+  c #519C7D",
"@  c #4FA07E",
"#  c #50A17F",
"$  c #569E80",
"%  c #5A9F82",
"&  c #4FA380",
"*  c #52A582",
"=  c #5AA485",
"-  c #55AA86",
";  c #59A887",
":  c #5EA788",
">  c #56AE89",
",  c #5AAD89",
"<  c #57B08A",
"1  c #59B18C",
"2  c #5CB690",
"3  c #5EBD95",
"4  c #61A387",
"5  c #63A68A",
"6  c #64AB8D",
"7  c #69AA8E",
"8  c #67AF90",
"9  c #6BAC91",
"0  c #72AE95",
"q  c #6CB294",
"w  c #62BD97",
"e  c #67BF9A",
"r  c #72B297",
"t  c #74B499",
"y  c #7CB59D",
"u  c #76B99D",
"i  c #7BB99F",
"p  c #7CBCA1",
"a  c #5EC197",
"s  c #5FC198",
"d  c #60C097",
"f  c #60C198",
"g  c #6BC49E",
"h  c #6FC6A1",
"j  c #74C5A3",
"k  c #76C9A6",
"l  c #78CAA7",
"z  c #7FCDAC",
"x  c #80B69F",
"c  c #82B6A0",
"v  c #83BCA4",
"b  c #8ABCA7",
"n  c #8CBEA9",
"m  c #87C1A9",
"M  c #8DC3AC",
"N  c #82CEAE",
"B  c #94C3AF",
"V  c #95C6B1",
"C  c #9AC5B3",
"Z  c #96CAB4",
"A  c #9BCAB6",
"S  c #9ECCB9",
"D  c #85D0B1",
"F  c #89D1B2",
"G  c #95D6BA",
"H  c #9AD6BD",
"J  c #A2CCBB",
"K  c #A9CCBD",
"L  c #A4D0BE",
"P  c #A8D0BE",
"I  c #9ED9C0",
"U  c #A7D2C0",
"Y  c #ACD3C2",
"T  c #A4DBC3",
"R  c #AADCC7",
"E  c #ACDEC9",
"W  c #B2D5C6",
"Q  c #B7D6C9",
"!  c #B6D8CA",
"~  c #BBDACD",
"^  c #BEDED1",
"/  c #B2E0CC",
"(  c #BBE4D3",
")  c #C2DDD2",
"_  c #C8DFD5",
"`  c #C4E2D5",
"'  c #C9E1D7",
"]  c #CDE3DA",
"[  c #C6E9DA",
"{  c #CCEBDE",
"}  c #D2E6DE",
"|  c #CFECE0",
" . c #D6E7E0",
".. c #D5EAE2",
"X. c #DDECE5",
"o. c #DEF2E9",
"O. c #E2EEE9",
"+. c #E6F2ED",
"@. c #E9F3EE",
"#. c #ECF5F1",
"$. c #EEF9F4",
"%. c #F1F7F4",
"&. c #F3F9F6",
"*. c #F6FAF9",
"=. c #FDFEFE",
"-. c None",
/* pixels */
"-.-.-.-.-.-.-.-.-.-.-.-.-.-.-.-.-.-.-.-.-.-.-.-.-.-.-.-.-.-.-.-.-.-.-.-.-.-.-.-.-.-.-.-.-.-.-.-.-.-.-.-.-.-.-.-.-.-.-.-.-.-.-.-.",
"-.-.-.-.-.-.-.-.-.-.-.-.-.-.-.-.-.-.-.-.-.-.-.-.-.-.-.-.-.-.-.-.-.-.-.-.-.-.-.-.-.-.-.-.-.-.-.-.-.-.-.-.-.-.-.-.-.-.-.-.-.-.-.-.",
"-.-.-.-.-.-.-.-.-.-.-.-.-.-.-.-.-.-.-.-.-.-.-.-.-.-.-.-.-.-.-.-.-.-.-.-.-.-.-.-.-.-.-.-.-.-.-.-.-.-.-.-.-.-.-.-.-.-.-.-.-.-.-.-.",
"-.-.-.-.> > > > > > > > 1 > > > > > > > > > 1 > > > > > 1 > > 1 > > > 1 1 > > > > > > > 1 > > > > > > > > > > 1 1 > -.-.-.-.-.-.",
"-.-.1 > > > > > > > > > > > > > > > > > > > > 1 > 1 > > > > > > 1 1 > 1 > > > 1 > > > > > > > > 1 > > > > 1 1 > > 1 > -.-.-.-.-.",
"-.-.s f f f f f f f s f s s f s f f f f f s s f s s s f f f f f 3 f 3 s s s s 3 f f s f f f f f s s s f f 3 s f s f f -.-.-.-.-.",
"-.-.s f f s f f f f f f s f f f s f f f f s f f f f f f f f f f s s f f f f f f f f f f s f f s f f f f f f f f s f f g -.-.-.-.",
"-.-.s f f f f f s f f f f f f f f f f f f f f f s f f f f s f f f s f f f s f f f s f f f f f f s f f f s f f f f f f f -.-.-.-.",
"-.-.s s f f f f f f f f s f f f f s f f f f f f s a a a a g g e h s s s 3 w f f f f f f f f w f f f s f f f s f f f f f -.-.-.-.",
"-.-.s f s f f f f f f f f f f f f f f f s f f f k T ( ..+.#.*.&.@.o.| ( G j f f f f f f s f s s f f f f f f f f f s s s -.-.-.-.",
"-.-.s f f f f s f s f f f f s f f f f f f f g o.=.=.=.=.&.&.=.*.%.*.*.=.=.*.( 3 f f s f f f f s f f f f f f f f f f f g -.-.-.-.",
"-.-.s f f f f f f f f f f f f f f f s f f f f ..O.Y c 5 % = *.} o = 9 n ~ @.S & 3 f f f f f f f s f f f f s f f f f f f -.-.-.-.",
"-.-.s f f s f f s f f f s f f f f f f f f f a g . . . . . 4 =.}   . . O . + $ O * s f f f f f f f f f f f f f f f f f g -.-.-.-.",
"-.-.s f f f f f f f f f f f f s s f f f f s s s 3 . . . O 4 *.} . O . o + . . O O * 3 f f s s f f f a f f f f s f f f f -.-.-.-.",
"-.-.s f f f s f f f s f s s 3 N k f f f f f 3 a w j C ~ } @.=.=.@. .Q n = + . O O O * 3 s I k f d f f f f f f f f f f f -.-.-.-.",
"-.-.s f f f f f f f s s s s F &.X.w s f f 3 g T o.=.=.=.=.%.%.%.&.*.=.=.*._ c O O O O * F =.+.g f f f f f f f f f f f f -.-.-.-.",
"-.-.s f f f s f f f f s s D %.=.V . 2 a a H #.=.=.@.Q c 7 % + + % 7 b ) %.=.=.} t O O O ; ` =.+.g d d d f f f f f f f f -.-.-.-.",
"-.-.s f f f f f f f f s l $.=.V . . . q { =.=...c + . . . O . O O + O . = C @.=.*.K + O O * ^ =.] 3 f f f f f s f f f f -.-.-.-.",
"-.-.s f f f f f f f s f +.=.K . . . 4 O.=.%.b o . . . O O . . . . O + O O O = W =.=.) $ @ O - } =.W 2 f s f f f f s f f -.-.-.-.",
"-.-.s f f s f f s s s ( =.' o . . 4 @.=.} = . % 0 5 . . . + O O O O . + 7 9 = O c %.=.] * # & 6 #.=.p 3 f f f f f f d f -.-.-.-.",
"-.-.s f f f s f s 3 N =.&.% . . + O.=._ O 4 ) &.=.=.] = O . O . . O r O.=.=.#.J * 0 #.=.~ O + O M =.+.= 2 s s f f f g f -.-.-.-.",
"-.-.s f f f f f s w ..=.=.O.c . ) =.} O 7 %.=.=.=.=.=.] O O . O + 4 @.=.=.=.=.=.] * 9 #.=.A @ V @.=.=.J & 2 s s f f f f -.-.-.-.",
"-.-.s f f f f f 3 D =.@._ =.=.X.*.%.4 + O.=.=.=.=.=.=.=.9 O O O . J =.=.=.=.=.=.=.Q O p =.*.X.=.*.) *.$.; * 2 s f f f f -.-.-.-.",
"-.-.s f f s f f w _ =.n . 0 X.=.=.b . n =.=.=.=.=.=.=.=.b . . O o ~ =.=.=.=.=.=.=.&.7 + W =.=.] r @ ~ =.A @ * 3 f f f g -.-.-.-.",
"-.-.s f f f f f g *.#.+ . . n =. .. . _ =.=.=.=.=.=.=.=.0 + O O O J =.=.=.=.=.=.=.=.S @ = $.=.t # # t =.o.# # # 3 s f f -.-.-.-.",
"-.-.s f f f f a H =.W . . . @.=.x . + O.=.=.=.=.=.=.=.O.+ O O O O 7 *.=.=.=.=.=.=.=.) O O Y =.) @ # # +.*.q # - # 3 f f -.-.-.-.",
"-.-.s f f f f f ] =.y . . 0 =.@.+ . + @.=.=.=.=.=.=.*.t O o O o O O J =.=.=.=.=.=.=.` O * 9 *.$.; # # Y =.Z # # # - 3 f -.-.-.-.",
"-.-.s f f f f f #.*.+ . . K =.Y . . . ] =.=.=.=.=.O.y O o b ..) = + O A *.=.=.=.=.=.P O @ @ +.=.u * * x =.W # - - # * 2 -.-.-.-.",
"-.-.s f f f f f Z J . . . _ =.x . . . 0  .#.#. .C = O O = %.=.=.W O @ O 7 W X.#.@.~ = # @ @ ! =.J @ # , J q # # - # - - -.-.-.-.",
"-.-.s f f f s f s * . . . O.*.5 + . O . . $ $ o . O O O % #.=.=.W X O @ # O # ; * @ * # # * B =.~ @ * * # # # - # - # # -.-.-.-.",
"-.-.s f s f f d s f - o + %.%.+ . . O . . O O O O O O O o c ..) : @ @ O @ @ @ # @ & @ @ * * i =.' # # * # - # # - - - - -.-.-.-.",
"-.-.s f f f f f s f 3 - + *.#.. . . . . o . .   . o o X o o X X O X O X O O O O X @ O @ @ O q *.} * * * - # - - - # * < -.-.-.-.",
"-.-.s f f f f f f f f f , *.*.] ] ] ] ] ] ] ] ] ] ] ] ] ] ] ] ] ] ] ] ] ] ] ] ] ] ] ] } ] ] ..=.} * * * * * * * - * * - -.-.-.-.",
"-.-.s f f f f f f f f f g *.=.=.=.=.=.=.=.=.=.=.=.=.=.=.=.=.=.=.=.=.=.=.=.=.=.=.=.=.=.=.=.=.=.=.] * * * * - - * * - - - -.-.-.-.",
"-.-.s f f f f f f f f f f @.*.y 7 5 6  .&.t 7 7 6 B =.) 6 7 7 8 7 q @.#.q 9 9 q Y =.Y 8 q q J =.^ & * * * * - * - - * - -.-.-.-.",
"-.-.f f f f f f f h f f f | =.c . + + } *.5 + # O y =.! O + O @ # = @.@.= # * @ J =.V & * * ! =.L & & - - * * - - * - - -.-.-.-.",
"-.-.s f f f s f +.#.2 s s E =.W O . + } &.: O O O i =.Q O @ @ @ + * +.@.= # * # S =.V * & @ o.=.u * * r +.H & - - - - - -.-.-.-.",
"-.-.s f f f f f ..=.8 2 s z =.#.+ + + } &.5 + O O y =.Q O @ O @ # = +.+.- * + * J =.V & * t =.$.; - - Z =.Y * - - - - - -.-.-.-.",
"-.-.s f d f s a / =.B O 2 f +.=.v + O } *.5 + O + x =.! O @ O # # = +.@.= * * & S =.Z & & ! =.~ * * & ] =.p - * - - - ; -.-.-.-.",
"-.-.s f f f f s N =...o O 1 T =.X.+ + } &.5 @ @ O i =.Q O @ # # * * +.+.= # # * J =.V * 8 &.*.r * - , *.#.; - - - - - ; -.-.-.-.",
"-.-.s f f f s f f +.=.9 O O H =.=.B O } *.5 @ O + i =.! O * # # + * @.@.= & * * S =.A @ ` =.#.v * - Z =.~ - - - - - - ; -.-.-.-.",
"-.-.s f f f f f s T =.! t X.=.=.=.*.7 } *.5 O @ + y =.! O + # # * = +.@.= * * # S =.Z M =.=.=.*.` q +.=.u * - - - - - < -.-.-.-.",
"-.-.s f f f f f s g $.=.*.=.} 0 ~ =.O.O.&.6 # + # i =.! @ @ @ # & = +.@.; * * * A =.~ *.=.A m +.=.*.=.{ - - - - - - - - -.-.-.-.",
"-.-.s f f s f f s a E =.*.b + O + X.=.=.*.5 + @ + p =.! @ @ @ & * = @.+.= * * * Z =.=.=.! * * - Y =.=.u - - - - - - - > -.-.-.-.",
"-.-.s f f f s f f f f +.=.M + O O : +.=.*.y @ @ @ i =.! O # + * O = @.@.; * * * U =.=.` * - * - ( =.^ - - - - - - - - < -.-.-.-.",
"-.-.s f f f d f f f f D *.&.7 + O O 5 X.=.&.J * * p =.! @ # * # & = @.+.; & 8 ! =.=.~ - * * - Z =.@.6 - - - - - - < ; < -.-.-.-.",
"-.-.s f f s f f f f d a R =.+.= # O O * ~ =.=.+.V b =.~ @ * * * * ; @.+.t Y &.=.&.H * - - - u *.*.p - - - - - - < - < ; -.-.-.-.",
"-.-.s f f f f f f s f d d ` =.X.= # + # O v X.=.=.*.=.] t 8 , 6 q v $.=.*.=.=.{ r * * = * p $.=.Z - - - - < - - < - - 1 -.-.-.-.",
"-.-.s f f f f f f f d f f f ' =.O.* + @ @ O * n } *.=.=.=.*.*.*.*.=.=.=.&.` p * & - * - p *.=.L - - - - < - - - < > > > -.-.-.-.",
"-.-.s f f f a f f f f f f f f ^ A # O # # # # @ @ 6 M ~ ] +.=.*.X.` Y m ; - & - - * - = , ] H - - - - - - - < - > - > > -.-.-.-.",
"-.-.s f f f f f f f f s f f f w * O @ # # # # # @ * @ @ * q =.] @ & & * * * - & * - - - - ; - - > - - > < - - 1 - > > < -.-.-.-.",
"-.-.s f s f f f f f f f f f s s 3 * # # # # * @ * # * * * 8 *...@ - & - = - & - - - * - - - - - - - - - ; - > - 1 < ; 1 -.-.-.-.",
"-.-.s f f f f f f f f f f s f f f s * @ # @ @ C b 6 @ * * 8 *...& * * * q S q - * * - - - - - - - - > - < - - > > > > 1 -.-.-.-.",
"-.-.s f f f s f f f f f f f f f f f 3 * # * ; $.=.*.O.` Y Y =.+.A R ] #.*.=.! * - - - - - - ; - - > - > - < > < > > , 1 -.-.-.-.",
"-.-.s f s f f d s f f s f f f f f f f 3 * * * v ^ +.=.=.=.=.=.=.=.=.=.=.X.R t & - - - - - - - - - - > - > > > - 1 > > 1 -.-.-.-.",
"-.-.s f f f f f f f f f f f s f f f f s 3 * * @ & * 6 u M Z Y P A M u > - & - - - - - - - - > < < > - > > > > 1 ; 1 > 1 -.-.-.-.",
"-.-.s f f f f f f f d f f f f s f f f f d a * * * * * @ * @ * @ * - - * - * - - - - - - - < - - > - - < > > > > 1 < 1 1 -.-.-.-.",
"-.-.s f f f f s f f f s f f f f f f s f f f 3 - * * * - * * - * - * * - - - - - - - - - > - - > > > < - > > 1 < < < > 1 -.-.-.-.",
"-.-.s f s f f f s f f f a f f f f f f f f f f a - @ * * - & * - * * - * - - - - - - - - - - > > - > < < > 1 < > > < 1 1 -.-.-.-.",
"-.-.s f f f f f f f f f f f f f s f d s f f f d 3 - @ - * - * - - - - - - - - - - - < - - < > - > < < ; > > < > 1 1 1 -.-.-.-.-.",
"-.-.-.d s a a a a a a a a a a a s s s s s a a a a a - & * * * - - * - - - - - - - - - < - > - > - > > > > > > < 1 > -.-.-.-.-.-.",
"-.-.-.-.-.-.-.-.-.-.-.-.-.-.-.-.-.-.-.-.-.-.-.-.-.-.-.-.-.-.-.-.-.-.-.-.-.-.-.-.-.-.-.-.-.-.-.-.-.-.-.-.-.-.-.-.-.-.-.-.-.-.-.-.",
"-.-.-.-.-.-.-.-.-.-.-.-.-.-.-.-.-.-.-.-.-.-.-.-.-.-.-.-.-.-.-.-.-.-.-.-.-.-.-.-.-.-.-.-.-.-.-.-.-.-.-.-.-.-.-.-.-.-.-.-.-.-.-.-.",
"-.-.-.-.-.-.-.-.-.-.-.-.-.-.-.-.-.-.-.-.-.-.-.-.-.-.-.-.-.-.-.-.-.-.-.-.-.-.-.-.-.-.-.-.-.-.-.-.-.-.-.-.-.-.-.-.-.-.-.-.-.-.-.-."
};
