/* XPM */
static char *result[] = {
/* columns rows colors chars-per-pixel */
"64 64 16 1 ",
"  c #000063",
". c #C60000",
"X c #A56308",
"o c #9C7B31",
"O c #FF5A00",
"+ c #FF8C29",
"@ c #F7B55A",
"# c #004A9C",
"$ c #FFAD8C",
"% c #D6D69C",
"& c #FFE784",
"* c #FFDEA5",
"= c gray87",
"- c #F7F7DE",
"; c white",
": c None",
/* pixels */
"::::::::::::::::::::::::::::::::::::::::::::::::::::::::::::::::",
"::::::::::::::::::::::::::::::::::::::::::::::::::::::::::::::::",
"::::::::::::::::::::::::::::::::::::::::::::::::::::::::::::::::",
"::::::::::::::::::::::::::::::::::::::::::::::::::::::::::::::::",
"::::::::::::::::::::::::::::::::::::::::::::::::::::::::::::::::",
"::::::::::::::::::::::::                 :::::::::::::::::::::::",
"::::::::::::::::::::::  ;;;;;;;;;;;;;;;;;  :::::::::::::::::::::",
"::::::::::::::::::::: ;;-----------------%% ::::::::::::::::::::",
":::::::::::::::::::: ;---------------------% :::::::::::::::::::",
":::::::::::::::::::: ;---------------------% :::::::::::::::::::",
"::::::::::::::::::: ;-----------------------% ::::::::::::::::::",
"::::::::::::::::::: ;------%----------------% ::::::::::::::::::",
"::::::::::::::::::: ;------%-----------------% :::::::::::::::::",
":::::::::::::::::: ;------%%--------%--------% :::::::::::::::::",
":::::::::::::::::: ;------%---------%%--------% ::::::::::::::::",
"::::::::::::::::: ;------%%----------%--------% ::::::::::::::::",
"::::::::::::::::: ;-----%%-----------%%--------% :::::::::::::::",
":::::::::::::::: ------%%------------%%--------% :::::::::::::::",
"::::::::::::::: ------%%%-------%%---%%%--------% ::::::::::::::",
":::::::::::::  ------%%%--------%%%-;--%%--------% :::::::::::::",
":::::::::::: ;------%%%----------%%;-   %%--------% ::::::::::::",
"::::::::::  ;------%%%-     ------;- *** %%%-------% :::::::::::",
":::::::   ;;-----%%%%  @ @@@  ----;- ***      %-----%  :::::::::",
"::::   ;;;------%%%  @@ @@@@@@      **** @@@ @ %-----%%  :::::::",
"::: ;;;--;;---%%%   @@@@@    @@@@@@ ***     @@  %%-----%% ::::::",
":::  ;;;;  ;;;%  &&& @** ;;;; **@@ **** ;;;; @ & %%%%%%%%% :::::",
":::::    ::     +++&& * ;;;;;; *** *** ;;;;;;  &+         ::::::",
"::::::::::::    ++++& * ;;  ;; ** **** ;;  ;;  &+   ::::::::::::",
"::::::::::::   ;;+++& * ;;  ;; ** ***  ;;  ;;  &+    :::::::::::",
"::::::::::     ;;+++& * ;;;;;; * ****  ;;;;;;  &+    :::::::::::",
":::::::::       ++++& ** ;;;; ** *** ** ;;;; * &+   : ::::::::::",
":::::::::       ++++& ***    ******* ***    ** &+      :::::::::",
"::::::::::      +++&& ****$$$***********$$$*** &       :::::::::",
":::::::::        &&& *****$$$$$$$$$$$$$$$$$**@ &      ::::::::::",
":::::::::           ******$  $$$$$$$$$$$  $**@         :::::::::",
":::::::::          -******$$$           $$$**@          ::::::::",
":::::::::           -******$$$$$$$$$$$$$$$**@           ::::::::",
"::::::::::          -*******$$$$$$$$$$$$****@          :::::::::",
":::::::::::          --*********** *******@@          ::::::::::",
"::::::::::             **********   *****@            ::::::::::",
"::::::::::            *  @@@@@@@     @@@  *            :::::::::",
":::::::::: :         ** +               + **           :::::::::",
"::::::::::::        ** + +++++;;     +++ + *#      :   :::::::::",
":::::::::::         **  +.$...+++++.$...+  #;       ::::::::::::",
":::::::::::  :  :  **     ....     ....     #;   :  ::::::::::::",
"::::::::::::::::   **         *****         ;#   :::::::::::::::",
":::::::::::::::::  *        O       O        *  ::::::::::::::::",
":::::::::::::::: --*@   : ;;;;;;;;;; %  :   -**@ :::::::::::::::",
":::::::::::::::: -**@ ::: &&&&&XXX&&& % ::: -**@ :::::::::::::::",
":::::::::::::::: -@@@ ::: &&&O&XXX&O&& %  : @@@@ :::::::::::::::",
":::::::::::::::::    :::: &&&&&   &&&&*  % :    ::::::::::::::::",
"::::::::::::::::::::::::: ;;;= ::: ;;;= %+ :::::::::::::::::::::",
":::::::::::::::::::::::::  == ::::: ==  ++ :::::::::::::::::::::",
"::::::::::::::::::::::::::   :::::::   :  ::::::::::::::::::::::",
":::::::::::::::::::::::::: o ::::::: o :::::::::::::::::::::::::",
":::::::::::::::::::::::::    :::::::    ::::::::::::::::::::::::",
"::::::::::::::::::::::::::::::::::::::::::::::::::::::::::::::::",
"::::::::::::::::::::::::::::::::::::::::::::::::::::::::::::::::",
"::::::::::::::::::::::::::::::::::::::::::::::::::::::::::::::::",
"::::::::::::::::::::::::::::::::::::::::::::::::::::::::::::::::",
"::::::::::::::::::::::::::::::::::::::::::::::::::::::::::::::::",
"::::::::::::::::::::::::::::::::::::::::::::::::::::::::::::::::",
"::::::::::::::::::::::::::::::::::::::::::::::::::::::::::::::::",
"::::::::::::::::::::::::::::::::::::::::::::::::::::::::::::::::"
};
