/* XPM */
static char *result[] = {
/* columns rows colors chars-per-pixel */
"64 64 134 2 ",
"   c #020201",
".  c #090704",
"X  c #060900",
"o  c #0B0B01",
"O  c #0C0B0B",
"+  c #110E00",
"@  c #120E0D",
"#  c #0D1200",
"$  c #141501",
"%  c #181500",
"&  c #131A00",
"*  c #1D1A01",
"=  c #131313",
"-  c #1B1412",
";  c #1B1B1B",
":  c #221D00",
">  c #221E08",
",  c #201715",
"<  c #221817",
"1  c #241B19",
"2  c #291D1B",
"3  c #172000",
"4  c #1A2400",
"5  c #1E2A00",
"6  c #272100",
"7  c #2C2500",
"8  c #212E00",
"9  c #2F2800",
"0  c #262709",
"q  c #342B00",
"w  c #382F00",
"e  c #243200",
"r  c #283600",
"t  c #2C3D00",
"y  c #3C3200",
"u  c #303E00",
"i  c #272710",
"p  c #292616",
"a  c #25241E",
"s  c #252524",
"d  c #2C2C2C",
"f  c #342724",
"g  c #372825",
"h  c #392A27",
"j  c #3D2C29",
"k  c #373527",
"l  c #343434",
"z  c #3C3C3C",
"x  c #413600",
"c  c #453A00",
"v  c #493D00",
"b  c #43312D",
"n  c #473430",
"m  c #4A3632",
"M  c #4E3935",
"N  c #503B36",
"B  c #553E3A",
"V  c #2F4100",
"C  c #324500",
"Z  c #354A00",
"A  c #394C00",
"S  c #3C5400",
"D  c #4E4100",
"F  c #41410F",
"G  c #524500",
"H  c #574900",
"J  c #5D4E00",
"K  c #425B00",
"L  c #5A5000",
"P  c #444410",
"I  c #645300",
"U  c #685700",
"Y  c #6D5C00",
"T  c #715E01",
"R  c #466100",
"E  c #496501",
"W  c #4D6B00",
"Q  c #506E01",
"!  c #537300",
"~  c #577900",
"^  c #756201",
"/  c #7A6601",
"(  c #6A6B17",
")  c #686818",
"_  c #444232",
"`  c #57403B",
"'  c #59413C",
"]  c #434343",
"[  c #4D4D4C",
"{  c #545454",
"}  c #585753",
"|  c #5B5B5B",
" . c #614741",
".. c #664A45",
"X. c #694C47",
"o. c #6C4F49",
"O. c #74544E",
"+. c #775751",
"@. c #7C5A53",
"#. c #646464",
"$. c #6B6B6B",
"%. c #747474",
"&. c #7C7C7C",
"*. c #815E57",
"=. c #85615A",
"-. c #8A655E",
";. c #8E6760",
":. c #936B63",
">. c #8F9020",
",. c #929320",
"<. c #9EA023",
"1. c #A8A925",
"2. c #BBBD2A",
"3. c #CFD12D",
"4. c #DADB2F",
"5. c #F3F535",
"6. c #F9FB36",
"7. c #838383",
"8. c gray55",
"9. c #939393",
"0. c #9B9B9B",
"q. c #A3A3A3",
"w. c #ABABAB",
"e. c #B3B3B3",
"r. c #BCBCBC",
"t. c #C3C3C3",
"y. c #CBCBCB",
"u. c #D3D3D3",
"i. c #DCDCDC",
"p. c #E3E3E3",
"a. c #ECECEC",
"s. c #F3F3F3",
"d. c #FFFFFF",
"f. c None",
/* pixels */
"f.f.f.f.f.f.f.f.f.f.f.f.f.f.f.f.f.f.f.f.f.f.f.f.f.f.f.f.f.f.f.f.f.f.f.f.f.f.f.f.f.f.f.f.f.f.f.f.f.f.f.f.f.f.f.f.f.f.f.f.f.f.f.f.",
"f.f.f.f.f.f.f.f.f.f.f.f.f.f.f.f.f.f.f.f.f.f.f.f.f.f.f.f.f.f.f.f.f.f.f.f.f.f.f.f.f.f.f.f.f.f.f.f.f.f.f.f.f.f.f.f.f.f.f.f.f.f.f.f.",
"f.f.f.f.f.f.f.f.f.f.f.f.f.f.f.f.f.f.f.f.f.f.f.f.f.f.f.f.f.f.f.f.f.f.f.f.f.f.f.f.f.f.f.f.f.f.f.f.f.f.f.f.f.f.f.f.f.f.f.f.f.f.f.f.",
"f.f.f.f.f.f.f.f.f.f.f.f.f.f.f.f.f.f.f.f.f.f.f.f.f.f.f.f.f.f.f.f.f.f.f.f.f.f.f.f.f.f.f.f.f.f.f.f.f.f.f.f.f.f.f.f.f.f.f.f.f.f.f.f.",
"f.f.f.f.f.f.f.f.f.f.f.f.f.f.f.f.f.f.f.f.f.f.f.f.f.f.f.f.f.f.f.f.f.f.f.f.f.f.f.f.f.f.f.f.f.f.f.f.f.f.f.f.f.f.f.f.f.f.f.f.f.f.f.f.",
"f.f.f.f.f.f.f.f.f.f.f.f.f.f.f.f.f.f.f.f.f.f.f.f.f.f.f.f.f.f.f.f.f.f.f.f.f.f.f.f.f.f.f.f.f.f.f.f.  & e 4   f.f.f.f.f.f.f.f.f.f.f.",
"f.f.f.f.f.f.f.f.f.f.f.f.f.f.f.f.f.f.f.f.f.f.f.f.f.f.f.f.f.f.f.f.f.f.f.f.f.f.f.f.f.f.f.f.f.f.  e W ~ ~ ~ S   f.f.f.f.f.f.f.f.f.f.",
"f.f.f.f.f.f.f.f.f.f.f.f.f.f.f.f.f.f.f.f.f.f.f.f.f.f.f.f.f.f.f.f.f.f.f.f.f.f.f.f.f.f.f.f.f.o R ~ ~ ~ ~ ~ ~ # f.f.f.f.f.f.f.f.f.f.",
"f.f.f.f.f.f.f.f.f.f.f.f.f.f.f.f.f.f.f.f.f.f.f.f.f.f.f.f.f.f.f.f.f.f.f.f.f.f.f.f.f.f.f.f.# Q ~ ~ ~ ~ ~ W 5 . f.f.f.f.f.f.f.f.f.f.",
"f.f.f.f.f.f.f.f.f.f.f.f.f.f.f.f.f.f.f.f.f.f.f.f.f.f.f.f.f.f.f.f.f.f.f.f.f.f.f.f.f.f.f.o W ~ ~ ~ ~ ~ C . X.j f.f.f.f.f.f.f.f.f.f.",
"f.f.f.f.f.f.f.  ] &.|   f.f.f.f.f.f.f.f.f.f.f.f.f.f.f.f.f.f.f.f.f.f.f.f.f.f.f.f.f.f.f.t ~ ~ ~ ~ ! 5   o -. .f.f.f.f.f.f.f.f.f.f.",
"f.f.f.f.f.f.. 0.d.d.d.w.  f.f.f.f.f.f.f.f.f.f.f.f.f.f.f.  o 7 6 o 7 G : + 7 o f.f.f.X ! ~ ~ ~ ! 4   f.f...-.. f.f.f.f.f.f.f.f.f.",
"f.f.f.f.f.f.s d.d.d.d.d.l f.f.f.f.f.f.f.f.f.f.f.f.f.  * v o : x T / / / q x T w X f.& ~ ~ ~ ~ e   f.f.f.j :.a f.f.f.f.f.f.f.f.f.",
"f.f.f.O s } 7.d.d.d.d.d.#.f.f.f.f.f.f.f.f.f.f.f.f.o G / c q % w / / / / / w x v 6   8 ~ ~ ~ S   f.f.f.f.1 :.j f.f.f.f.f.f.f.f.f.",
"f.f.. 0.d.d.d.d.d.d.d.d.z f.f.f.f.f.f.f.f.f.f.  % T ^ 7 G / ^ : q / / Y y % $ : G J $ Z ~ ! # f.f.f.f.f.. -.' f.f.f.f.f.f.f.f.f.",
"f.f.[ d.d.d.d.d.d.d.d.t.. f.f.f.f.f.f.f.f.f.  % + G : I / / / / 7 7 q * G / / : I / U   K C f.f.f.f.f.f.f.O.O.f.f.f.f.f.f.f.f.f.",
"f.f.%.d.d.d.d.d.d.d.d.&.  f.f.f.f.f.f.f.f.f.+ T L   c / / / / / G X * / / / / ^ * ^ / c # # f.f.f.f.f.f.f.' =.  f.f.f.f.f.f.f.f.",
"f.f.z d.d.d.d.d.d.d.d.d.9.. f.f.f.f.f.f.f.  I / : c % H / / / y * T 7 x / / / / J 7 ^ G     f.f.f.f.f.f.f.m :.O f.f.f.f.f.f.f.f.",
"f.f.  #.i.d.e.d 9.d.d.d.d.w.@ f.f.f.f.f.f.q / c y / Y * J / 9 6 ^ / / 7 D / / / J + % x q   f.f.f.f.f.f.f.j :.1 f.f.f.f.f.f.f.f.",
"f.f.f.O     . f.  #.d.d.d.d.t.; f.f.f.f.  T T $ ^ / / T * 7 : ^ / / / ^ : L Y 6 q Y : T U X f.f.f.f.f.f.f.2 :.< f.f.f.f.X $   f.",
"f.f.f.f.f.f.f.f.f.f.z p.d.d.d.u.d f.f.f.6 / w G / / / / D   I / / / / / T $ * U / / J w ^ $ f.f.f.f.f.f.f.1 :.< f.f.X o R ~ t   ",
"f.f.f.f.. d ; f.f.f.f.s t.d.d.d.p.d f.f.+ : a _ m k p 4 X + + G Y / / / c 6 * / / / / q U 6 f.f.f.f.f.f.f.1 :.1 f.f.# W ~ ~ !   ",
"f.f.f.f.#.d.d.r.| ; f.f.O 8.d.d.d.a.l . ; #.} d.d.d.d.d.d.u.r.7.s + 9 q 9 / c y / / / I 6 y # f.f.f.f.f.f.1 :.2 f.& Q ~ ~ ~ S   ",
"f.f.f.f.&.d.d.d.d.a.9.l O   ] p.d.d.s.l | d.8.0.d.d.d.d.d.d.d.q.l 0.w.&.m > c + J U 7 + 6 9 S 4 X f.f.f.f.< ..O 5 ! ~ ~ ~ W X f.",
"f.f.f.f.O 9.s.d.d.d.d.d.y.$.O = q.d.d.7.0.d.{ ; d.d.d.d.d.0.s { a.d.d.d.d.a.q.z o o G / ^ + S ~ Z 4 o     o 4 K ~ ~ ~ ~ ! & b   ",
"f.f.f.f.f.f.; %.p.d.d.d.d.d.d.q.] z r.&.r.&.    y.d.d.8.=     d a.d.d.d.d.d.d.d.;   : I / w K ~ ~ ~ ~ ~ ~ ~ ~ ~ ~ ~ ~ W & n =.  ",
"f.f.f.f.f.f.f.f.O { r.d.d.d.d.d.d.p.7.s &.O     r.d.d.l         ] d.d.d.d.d.d.d.&.  . s x : A ~ ~ ~ ~ ~ ~ ~ ~ ~ ~ ~ S o   ..=.  ",
"f.f.f.f.f.f.f.f.f.f.. d 9.s.d.d.d.d.d.d.y.$.; . p.d.y.            y.d.d.d.d.d.d.i.    q.[     C ~ ~ ~ ~ ~ ~ ~ ~ R 4 X f.f.+.@.  ",
"f.f.f.f.f.f.f.f.f.f.f.f.f.= #.u.d.d.d.d.d.d.d.s.d.d.%.            8.d.d.d.d.d.d.d.z   z a.O f.  o t S R R S t &   f.f.f.  -.o.f.",
"f.f.f.f.f.f.f.f.f.f.f.f.f.f.f.O z q.d.d.d.d.d.d.d.d.z             w.d.d.d.d.d.d.d.9.    y.%.. f.f.f.      h M   f.f.f.f.. :...f.",
"f.f.f.f.f.f.f.f.f.f.f.f.f.f.f.f.f.f.; %.i.d.d.d.d.d.z           O a.d.d.d.d.d.d.d.u.    | p.. f.f.f.f.f.X =.o.f.f.f.f.f.< :.M f.",
"f.f.f.f.f.f.f.f.f.f.f.X f.f.f.f.f.f.f.= 7.$.y.d.d.d.8.          9.d.d.d.d.d.d.d.d.d..   O p.{ f.f.f.f.f.@ :.B f.f.f.f.f.2 :.j f.",
"f.f.f.f.f.f.f.f.f.f.f.i f.f.f.f.f.f.f.l d.d.d.d.d.d.d.9.] z { e.d.d.d.d.d.d.d.d.d.d.d     &.r.. f.f.f.f.2 :.g f.f.f.f.f.f :.1 f.",
"f.f.f.f.f.f.f.f.f.f.f.3.P f.f.f.f.f.f.d d.d.d.d.d.d.d.d.d.d.d.d.d.d.d.d.d.d.d.d.d.d.=     = s.s f.f.f.f.h :.- f.f.f.f.f.m :.@ f.",
"f.f.f.f.f.f.f.f.f.f.>.6.3.* f.f.f.f.f.. d.d.d.d.d.d.d.d.d.d.d.d.d.d.d.d.d.d.d.d.d.w.        q.&.f.f.f.f.B -.. f.f.f.f.f.X.@.  f.",
"f.f.f.f.f.f.f.f.* 1.6.6.6.4.P f.f.f.f.O r.d.d.d.d.d.d.d.d.d.d.d.d.d.d.d.d.d.d.d.a.;         { u.O f.f.  # o   f.f.f.f.. -.' f.f.",
"f.f.f.f.f.f.f.f.f.) 5.6.6.>.$ f.f.f.f.f.} d.d.d.d.d.d.d.d.d.d.d.d.d.d.d.d.d.d.a.l           O d.; f.X S ! ! S X f.f.f.; :.f f.f.",
"f.f.f.f.f.f.f.f.f.f.( 6.1.f.f.f.f.f.f.f.  t.d.d.d.d.d.d.d.d.d.d.d.d.d.d.d.d.t.s               s.{   t Q 8 4 K C   f.f.N :.@ f.f.",
"f.f.f.f.f.f.f.f.f.f.f.2.0 f.f.f.f.f.f.  &.] t.d.d.d.d.d.d.d.d.d.d.d.d.d.e.[ &.{ O           . d.{   K S r K & Q # f.. =.X.f.f.f.",
"f.f.f.f.f.f.f.f.f.f.f.- f.f.f.f.f.f.  &.d.d.8.%.t.d.d.d.d.d.d.p.t.8.{ s l d { e.d.u.w.7.&.7.u.p.= . K t Z ! t A r f.h :.h f.f.f.",
"f.f.f.f.f.f.f.f.f.f.f.  f.f.f.f.f.  | = e.d.d.] w.%.} d d s d ; $.0.i.r.] s.]   . l { #.#.| ] = f.. A t A ! S t t   *.=.O f.f.f.",
"f.f.f.f.f.f.f.f.f.f.f.f.f.f.f.f.  #.d.t.= %.%.w.d.d.a.] d.d.s.#.d.d.d.r.z d.d.#.  f.f.f.f.f.f.f.f.f.e R * Q t Z r m :.b f.f.f.f.",
"f.f.f.f.f.f.f.f.f.f.f.f.f.f.f.=   9.d.d.p.[   8.s.d.q.&.d.d.p.$.d.d.a.$.z d.d.d.8.  f.f.f.f.f.f.f.f.  W V 3 & W i ;.+.. f.f.f.f.",
"f.f.f.f.f.f.f.f.f.f.f.f.f.= 0.d 9.l u.d.d.[ 8.{ = } z 8.p.s.r.{ 8.] l #.= u.d.d.d.w.O O f.f.f.f.f.f.f.& W R W C O.=.- f.f.f.f.f.",
"f.f.f.f.f.f.f.f.f.f.f.f.l { u.= d.u.d y.r.d d.d.a.w.O { ] z l z q.i.d.9.  @ y.d.d.d.y.= . f.f.f.f.f.f.f.o 5 $ j B @ f.f.f.f.f.f.",
"f.f.f.f.f.f.f.f.f.f.. { s.y.d #.d.d.i.l ; q.d.d.d.s.; d.d.d.r.&.d.d.d.{ f.f.O y.d.d.d.i.d   f.f.f.f.f.f.f.f.f.  f.f.f.f.f.f.f.f.",
"f.f.f.f.f.f.f.f.f.. #.d.d.d.#.0.d.d.d.d.7.s $.r.s.y.z d.d.d.r.#.w.%.l   f.f.f.@ t.d.d.d.a.z . f.f.f.f.f.f.f.f.f.f.f.f.f.f.f.f.f.",
"f.f.f.f.f.f.f.f.s u.| i.d.d.[ e.d.d.d.d.d.d.w.#.z s ; ] [ { } 7.w.p.%.. f.f.f.f.O e.d.d.d.s.|   f.f.f.    f.f.f.f.f.f.f.f.f.f.f.",
"f.f.f.f.f.f.O { a.d.s.} s.d.| 0.d.d.d.d.d.d.d.d.d.d.d.d.d.d.d.d.d.t.O f.f.f.f.f.f.O w.d.d.d.d.%.  = | 7.&.z . f.f.f.f.f.f.f.f.f.",
"f.f.f.f.f.  X t.d.d.d.i.#.d.7.{ d.d.d.d.d.d.d.d.d.d.d.d.d.d.d.d.y.= f.f.f.f.f.f.f.f.. w.d.d.d.d.t.s.d.d.d.d.&.  f.f.f.f.f.f.f.f.",
"f.f.f.f.o A K ; a.d.d.d.r.$.s   r.d.d.d.d.d.d.d.d.d.d.d.d.d.d.w.O f.f.f.f.f.f.f.f.f.f.. 0.d.d.d.d.d.d.d.d.d.t.  f.f.f.f.f.f.f.f.",
"f.f.f.  K Q Q C z d.d.d.q.O f.f.@ e.d.d.d.d.d.d.d.d.d.d.d.u.[   f.f.f.f.f.f.f.f.f.f.f.f.  0.d.d.d.d.d.d.d.d.e.  f.f.f.f.f.f.f.f.",
"f.f.& e t W Q Q t $.d.$.  f.f.f.f.. z q.p.d.d.d.d.d.i.0.]   . f.f.f.f.f.f.f.f.f.f.f.f.f.f.O d.d.d.d.d.d.d.d.{ . f.f.f.f.f.f.f.f.",
"f.4 W Q 5 S Q Q W 4 s O f.f.f.f.f.f.f.O   . d l s     O f.f.f.f.f.f.f.f.f.f.f.f.f.f.f.f.f.} d.d.d.d.d.a.y.%.  f.f.f.f.f.f.f.f.f.",
"# W Q Q W 4 K Q S o f.f.f.f.f.f.f.f.f.f.f.f.f.f.f.f.f.f.f.f.f.f.f.f.f.f.f.f.f.f.f.f.f.f.  0.d.d.d.d.e.    . f.f.f.f.f.f.f.f.f.f.",
"X R Q Q Q E 4 r   f.f.f.f.f.f.f.f.f.f.f.f.f.f.f.f.f.f.f.f.f.f.f.f.f.f.f.f.f.f.f.f.f.f.f.O e.d.d.d.d.q.= f.f.f.f.f.f.f.f.f.f.f.f.",
"f.& W Q ! E &   f.f.f.f.f.f.f.f.f.f.f.f.f.f.f.f.f.f.f.f.f.f.f.f.f.f.f.f.f.f.f.f.f.f.f.f.. 8.d.d.d.d.|   f.f.f.f.f.f.f.f.f.f.f.f.",
"f.f.# S A o f.f.f.f.f.f.f.f.f.f.f.f.f.f.f.f.f.f.f.f.f.f.f.f.f.f.f.f.f.f.f.f.f.f.f.f.f.f.f.; y.d.d.q.  f.f.f.f.f.f.f.f.f.f.f.f.f.",
"f.f.f.    f.f.f.f.f.f.f.f.f.f.f.f.f.f.f.f.f.f.f.f.f.f.f.f.f.f.f.f.f.f.f.f.f.f.f.f.f.f.f.f..   s =   f.f.f.f.f.f.f.f.f.f.f.f.f.f.",
"f.f.f.f.f.f.f.f.f.f.f.f.f.f.f.f.f.f.f.f.f.f.f.f.f.f.f.f.f.f.f.f.f.f.f.f.f.f.f.f.f.f.f.f.f.f.f.f.f.f.f.f.f.f.f.f.f.f.f.f.f.f.f.f.",
"f.f.f.f.f.f.f.f.f.f.f.f.f.f.f.f.f.f.f.f.f.f.f.f.f.f.f.f.f.f.f.f.f.f.f.f.f.f.f.f.f.f.f.f.f.f.f.f.f.f.f.f.f.f.f.f.f.f.f.f.f.f.f.f.",
"f.f.f.f.f.f.f.f.f.f.f.f.f.f.f.f.f.f.f.f.f.f.f.f.f.f.f.f.f.f.f.f.f.f.f.f.f.f.f.f.f.f.f.f.f.f.f.f.f.f.f.f.f.f.f.f.f.f.f.f.f.f.f.f.",
"f.f.f.f.f.f.f.f.f.f.f.f.f.f.f.f.f.f.f.f.f.f.f.f.f.f.f.f.f.f.f.f.f.f.f.f.f.f.f.f.f.f.f.f.f.f.f.f.f.f.f.f.f.f.f.f.f.f.f.f.f.f.f.f.",
"f.f.f.f.f.f.f.f.f.f.f.f.f.f.f.f.f.f.f.f.f.f.f.f.f.f.f.f.f.f.f.f.f.f.f.f.f.f.f.f.f.f.f.f.f.f.f.f.f.f.f.f.f.f.f.f.f.f.f.f.f.f.f.f."
};
