/* XPM */
static char *result[] = {
/* columns rows colors chars-per-pixel */
"64 64 189 2 ",
"   c #000000",
".  c #0B0200",
"X  c #0D0B01",
"o  c #0A0A0A",
"O  c #110200",
"+  c #1C0100",
"@  c #130D01",
"#  c #1A0802",
"$  c #151505",
"%  c #1C1401",
"&  c #1C1C06",
"*  c #1E1E08",
"=  c gray7",
"-  c #1B1B1B",
";  c #240000",
":  c #2C0000",
">  c #2F0F03",
",  c #350000",
"<  c #3D0000",
"1  c #3C0902",
"2  c #241A00",
"3  c #2B1F00",
"4  c #242409",
"5  c #2D2C0A",
"6  c #282204",
"7  c #332501",
"8  c #3B2A01",
"9  c #3C2E0B",
"0  c #3A2509",
"q  c #32310B",
"w  c #3D3C0E",
"e  c #3F300C",
"r  c #2C2617",
"t  c #342E1E",
"y  c #232323",
"u  c #2C2C2C",
"i  c #3A362C",
"p  c #373022",
"a  c #343434",
"s  c #3C3A33",
"d  c #3A3A3A",
"f  c #352F20",
"g  c #420000",
"h  c #4E0000",
"j  c #530100",
"k  c #5A0000",
"l  c #5F1304",
"z  c #640100",
"x  c #6D0000",
"c  c #7D0100",
"v  c #740000",
"b  c #452F04",
"n  c #433103",
"m  c #4E3800",
"M  c #4D3507",
"N  c #543C00",
"B  c #742809",
"V  c #6B380D",
"C  c #6C310C",
"Z  c #403C33",
"A  c #42420F",
"S  c #5D4300",
"D  c #444410",
"F  c #4B4A11",
"G  c #4F4711",
"H  c #524811",
"J  c #535314",
"K  c #5B5A15",
"L  c #624600",
"P  c #674A00",
"I  c #6C4D00",
"U  c #745300",
"Y  c #7C5900",
"T  c #7A5700",
"R  c #7A4B12",
"E  c #7A5C16",
"W  c #6F4F09",
"Q  c #616117",
"!  c #666518",
"~  c #6C6B19",
"^  c #6A6618",
"/  c #706F1B",
"(  c #776919",
")  c #75741C",
"_  c #7C7B1D",
"`  c #7B771C",
"'  c #42413F",
"]  c #424242",
"[  c #4B4B4A",
"{  c #545453",
"}  c #5D5D5D",
"|  c #646464",
" . c #6C6C6C",
".. c #757575",
"X. c #7E7E7E",
"o. c #8B0000",
"O. c #850802",
"+. c #940000",
"@. c #9A0200",
"#. c #9D0802",
"$. c #A40200",
"%. c #AA0000",
"&. c #B30000",
"*. c #BC0000",
"=. c #822C0A",
"-. c #C30000",
";. c #CB0000",
":. c #D50000",
">. c #DA0000",
",. c #E30000",
"<. c #ED0000",
"1. c #F30000",
"2. c #FE0000",
"3. c #825D00",
"4. c #844B12",
"5. c #8C6400",
"6. c #876000",
"7. c #916700",
"8. c #946900",
"9. c #9C6F00",
"0. c #83781D",
"q. c #9E7000",
"w. c #A57500",
"e. c #AB7900",
"r. c #A87700",
"t. c #B17E00",
"y. c #82821F",
"u. c #89801F",
"i. c #B68100",
"p. c #BB8500",
"a. c #8A8720",
"s. c #8C8B21",
"d. c #868620",
"f. c #918E22",
"g. c #939223",
"h. c #9D9C25",
"j. c #989724",
"k. c #A09F26",
"l. c #A3A226",
"z. c #ABAA28",
"x. c #B0AF2A",
"c. c #B4B32B",
"v. c #BDBB2D",
"b. c #B9B72C",
"n. c #C58C00",
"m. c #C98F00",
"M. c #CC9100",
"N. c #D39600",
"B. c #D79900",
"V. c #DD9D00",
"C. c #E19F00",
"Z. c #E4A200",
"A. c #EAA601",
"S. c #EDA901",
"D. c #F2AC00",
"F. c #FFB501",
"G. c #C1BF2E",
"H. c #C4C32E",
"J. c #C8C730",
"K. c #CCCB30",
"L. c #D0CF31",
"P. c #D4D232",
"I. c #D8D734",
"U. c #DCDB34",
"Y. c #E0DF35",
"T. c #E4E336",
"R. c #E8E637",
"E. c #EDEB38",
"W. c #E9E837",
"Q. c #F0EE39",
"!. c #F4F33A",
"~. c #F8F73B",
"^. c #FFFD3D",
"/. c #848484",
"(. c gray54",
"). c #9B9B9B",
"_. c #949494",
"`. c #A5A5A5",
"'. c #ACACAC",
"]. c #BCBCBC",
"[. c #CACACA",
"{. c #C4C4C4",
"}. c #D2D2D2",
"|. c #DCDCDC",
" X c #E4E4E4",
".X c #EBEBEB",
"XX c #F5F5F5",
"oX c #FFFFFF",
"OX c None",
/* pixels */
"OXOXOXOXOXOXOXOXOXOXOXOXOXOXOXOXOXOXOXOXOXOXOXOXOXOXOXOXOXOXOXOXOXOXOXOXOXOXOXOXOXOXOXOXOXOXOXOXOXOXOXOXOXOXOXOXOXOXOXOXOXOXOXOX",
"OXOXOXOXOXOXOXOXOXOXOXOXOXOXOXOXOXOXOXOXOXOXOXOXOXOXOXOXOXOX& OXOXOXOXOXOXOXOXOXOXOXOXOXOXOXOXOXOXOXOXOXOXOXOXOXOXOXOXOXOXOXOXOX",
"OXOXOXOXOXOXOXOXOXOXOXOXOXOXOXOXOXOXOXOXOXOXOXOXOXOXOXOXOXOXz.q OXOXOXOXOXOXOXOXOXOXOXOXOXOXOXOXOXOXOXOXOXOXOXOXOXOXOXOXOXOXOXOX",
"OXOXOXOXOXOXOXOXOXOXOXOXOXOXOXOXOXOXOXOXOXOXOXOXOXOXOXOXOXD ^.g.OXOXOXOXOXOXOXOXOXOXOXOXOXOXOXOXOXOXOXOXOXOXOXOXOXOXOXOXOXOXOXOX",
"OXOXOXOXOXOXOXOXOXOXOXOXOXOXOXOXOXOXOXOXOXOXOXOXOXOXOXOXOXg.^.!.5 OXOXOXOXOXOXOXOXOXOXOXOXOXOXOXOXOXOXOXOXOXOXOXOXOXOXOXOXOXOXOX",
"OXOXOXOXOXOXOXOXOXOXOXOXOXOXOXOXOXOXOXOXOXOXOXOXOXOXOXOX4 !.^.^.d.OXOXOXOXOXOXOXOXOXOXOXOXOXOXOXOXOXOXOXOXOXOXOXOXOXOXOXOXOXOXOX",
"OXOXOXOXOXOXOXOXOXOXOXOXOXOXOXOXOXOXOXOXOXOXOXOXOXOXOXOX) ^.^.^.W.4 OXOXOXOXOXOXOXOXOXOXOXOXOXOXOXOXOXOXOXOXOXOXOXOXOXOXOXOXOXOX",
"OXOXOXOXOXOXOXOXOXOXOXOXOXOXOXOXOXOXOXOXOXOXOXOXOXOXd.x.! ^.^.^.^.K z.g.OXOXOXOXOXOXOXOXOXOXOXOXOXOXOXOXOXOXOXOXOXOXOXOXOXOXOXOX",
"OXOXOXOXOXOXOXOXOXOXOXOXOXOXOXOXOXOXOXOXOXOXOXOXO K E.Q.f.E.P.b.^._ ~.T.` ; X OXOXOXOXOXOXOXOXOXOXOXOXOXOXOXOXOXOXOXOXOXOXOXOXOX",
"OXOXOXOXOXOXOXOXOXOXOXOXOXOXOXOXOXOXOXOXOX. ; o.,.R !.0.g.^.0.W ^.z.y.Y.( 2.>.c ; OXOXOXOXOXOXOXOXOXOXOXOXOXOXOXOXOXOXOXOXOXOXOX",
"OXOXOXOXOXOXOXOXOXOXq ~ * OXOXOXOXOXOXOX: %.2.2.2.&.a.Q.R.d.$.;.( U.!.h.#.2.2.2.2.@.; OXOXOXOXOXOXOXOXOXOX$ OXOXOXOXOXOXOXOXOXOX",
"OXOXOXOXOXOXOXOXOXOXOXT.E.g.D OXOXF c.d.$.2.2.2.2.1.@.O   + : ; +     j -.2.2.2.2.2.1.g F J OXOXOXOXJ g.U.4 OXOXOXOXOXOXOXOXOXOX",
"OXOXOXOXOXOXOXOXOXOXOXg.^.^.^.c.q W.I.W.R 2.2.*.k .                       O z ;.2.2.>.f.^.^.d.J s.T.^.^.l.OXOXOXOXOXOXOXOXOXOXOX",
"OXOXOXOXOXOXOXOXOXOXOXK ^.^.^.^.J._ ~ E.E &.:         3 N Y 8.9.5.T N 2         < -.o.T.0.~.K.x.^.^.^.^.K OXOXOXOXOXOXOXOXOXOXOX",
"OXOXOXOXOXOXOXOXOXOXOXOXW.^.^.E.^.T.E.I.@       8 9.A.F.F.F.F.F.F.F.F.F.Z.5.7       : v.U./ ` ~.^.^.^.T.OXOXOXOXOXOXOXOXOXOXOXOX",
"OXOXOXOXOXOXOXOXOXOXOXOX_ W.^.` ^ h.) X     b m.F.F.F.F.F.F.F.F.F.F.F.F.F.F.F.i.7     5 T.^.^.^.T.^.^.y.OXOXOXOXOXOXOXOXOXOXOXOX",
"OXOXOXOXOXOXOXOXOXOXOXq l.) U.J.&.v     @ r.F.F.F.F.e.P 9 S F.F.N s n 5.V.F.F.F.F.7.o   @ ! ` M b.^.^.w OXOXOXOXOXOXOXOXOXOXOXOX",
"OXOXOXOXOXOXOXOXOXOXOXg.^.x.v.G.j     7 Z.F.F.D.3.p /.}.oX/.T 3./.oXXX'.{ m m.F.F.F.N.2     &.B ^.K.~ ~ OXOXOXOXOXOXOXOXOXOXOXOX",
"OXOXOXOXOXOXOXOXOXOXOXg.J.l.^.F     n D.F.F.e.t `.oXoXoXoXoX| { oXoXoXoXoX|.| m C.F.F.A.3   . M ^.) ^.^.) OXOXOXOXOXOXOXOXOXOXOX",
"OXOXOXOXOXOXOXOXOXOXOX> f.z.H     8 D.F.F.I | XXoXoXoXoXoXoXXXXXoXoXoXoXoXoXoX[.i w.F.F.S.2     U.P.) Y.h.OXOXOXOXOXOXOXOXOXOXOX",
"OXOXOXOXOXOXOXOXOXOX. >.,.;.,   % A.F.F.F.8 oXoXoXoXoXoXoXoXoXoXoXoXoXoXoXoXoXoX[.P F.F.F.B.X   q T.^.!.A OXOXOXOXOXOXOXOXOXOXOX",
"OXOXOXOXOXOXOXOXOXOXk 2.2.+.    p.F.F.F.F.S |.oXoXoXoXoXoXoXoXoXoXoXoXoXoXoXoX}.a w.m.m.F.F.q.    j =.O.< OXOXOXOXOXOXOXOXOXOXOX",
"OXOXOXOXOXOXOXOXOX. ;.2.1.+   S F.F.9.6 7 % ].oXoXoXoXoXoXoXoXoXoXoXoXoXoXXXX.o y ] ..d M.F.F.8   : 2.2.%.OXOXOXOXOXOXOXOXOXOXOX",
"OXOXOXOXOXOXOXOXOX, 2.2.+.  . Z.F.Z.i oXoXoXoXXX].[.oXoXoXoXoXoXoXoXoXoX}.u   ).oXoXoX Xe F.F.m.    &.2.2.+ OXOXOXOXOXOXOXOXOXOX",
"OXOXOXOXOXOXOXOXOXo.2.2.:   L F.F.L {.oXoXoX(.o     - {.oXoXoXoXoXoXXX..o     = ).oXoXoX..i.F.F.n   h 2.2.z OXOXOXOXOXOXOXOXOXOX",
"OXOXOXOXOXOXOXOX  o.2.:.    n.F.Z.] oXoXoX_.          o }.oXoXoXoX{.y             '.oXoX.Xn F.F.w.    1.2.&.OXOXOXOXOXOXOXOXOXOX",
"OXOXOXOXOXOXOXF U.H.B o.  % F.F.5.'.oXoXXX-             } oXoXXX .  o             u oXoXoX{ C.F.D.    %.2.>.@ OXOXOXOXOXOXOXOXOX",
"OXOXOXOXOXOXOXb.P.c.b.+   S F.F.e XXoXoX X              a XX].- y ].o               oXoXoX`.5.F.F.8   x $.0.G.z.w OXOXOXOXOXOXOX",
"OXOXOXOXOXOXOXj.~._ T.    8.F.D.] oXoXoX.X              u }   ..XXoX-             o oXoXoXXXn F.F.U   + k.^.c.^.I.OXOXOXOXOXOXOX",
"OXOXOXOXOXOX) g.) T.z.    i.F.M...oXoXoXoX]               u [.oXoXoX .            { oXoXoXoXZ F.F.8.  X ^.U.s.^.!.OXOXOXOXOXOXOX",
"OXOXOX& ) T.^.^.^.T.C     m.F.M.[ XXoXoXoX}.o         o X.XXoXoXoXoX.Xy         - |.oXoXoXoX{ N.F.i.    !.!.! l.~ 4 OXOXOXOXOXOX",
"OX* _ W.^.^.^.^._ 1 ;.    B.F.F.r.s .XoXoXoX|.|     a }.oXoXoXoXoXoXoX.X..u u | .XoXoXoXoX/.m D.F.p.    s.^.~.K.~.E._ OXOXOXOXOX",
"OXOX~ L.^.^.^.^.^.J.l     N.F.F.D.7 { `.`.`.`.]   d `.`.`.`.`.`.`.`.`.`.`.`.`.`.`.`.`.`.} 7 F.F.F.i.  . $.u.!.^.^.^.^.T.^ OXOXOX",
"OXOXOXOXJ z.^.H.s.E.l.    p.F.A.9 ] ] ] =     u ] ] ]   ] ] ] ] ] ] d o ] ] ] ] ] d o ] ] ] n D.F.w.  . 2.+.q l.^.^.^.^.^.J.5 OX",
"OXOXOXOXOXOXw d.W.d.T.    w.F.A.[ oXoX|.- = ).oXoXoXoXo XXoXoXoXoXoXXXo oXoXoXoXoX}.a oXoXoX] D.F.Y   , O.c.^.^.^.^.^.^.c.J OXOX",
"OXOXOXOXOXOXOXv.K.l.H..   U F.F.9 XX/.o   {.oXoXoXoXoXo XXoXoXoXoXoXXX- oXoXoXoXoX}.a oXoXXXe F.F.N   ; z.^.U.k.U.^.z.D OXOXOXOX",
"OXOXOXOXOXOXOXQ ~.T.C x   7 F.F.5.- = '.d }.oXoXoXoXoXo oXoXoXoXoXoXXX= oXoXoXoXoX}.a oXoX).8.F.F.%   # ^.R./ L.y.q OXOXOXOXOXOX",
"OXOXOXOXOXOXOXOXX c 1.&.    Z.F.S.$ .XoXd [.oXoXoXoXoXo XXoXoXoXoXoXXXo oXoXoXoXoX}.a oXXXp D.F.m.    z !.T.) ^.~.  OXOXOXOXOXOX",
"OXOXOXOXOXOXOXOXOX$.2.1.O   5.F.F.5.(.oXd }.oXoXoXoXoXo XXoXoXoXoXoXXX- oXoXoXoXoX}.a oX/.8.F.F.P   : >.0.^.T.^.G.OXOXOXOXOXOXOX",
"OXOXOXOXOXOXOXOXOXj 2.2.x   % F.F.F.b }.d }.oXoXoXoXoXo XXoXoXoXoXoXXX= oXoXoXoXoX}.a }.n F.F.S.X   o.2.-.H s.` OXOXOXOXOXOXOXOX",
"OXOXOXOXOXOXOXOXOX. <.2.>.    8.F.F.V.i u }.oXoXoXoXoXo XXoXoXoXoXoXXX= oXoXoXXX.X}.u i V.F.F.T   . 1.2.:.X OXOXOXOXOXOXOXOXOXOX",
"OXOXOXOXOXOXOXOXOXOXo.2.2.z   @ A.F.F.i.  i r _.oXoXoXo XXoXoXoXoXoXXX= oXoXoXXXX r   e.F.F.B.    c 2.2.z OXOXOXOXOXOXOXOXOXOXOX",
"OXOXOXOXOXOXOXOXOXOX; ,.%.%.O   N F.F.F.F.F.T ].oXoXoXo XXoXoXoXoXoXXX- oXoXoXoXs F.Z.F.F.F.7   + 1.2.,.. OXOXOXOXOXOXOXOXOXOXOX",
"OXOXOXOXOXOXOXOXOXOXOX^ L.b.q     6.F.F.F.F.N |.oXoXoXo oXoXoXoXoXoXXX= oXoXoXXXd B.F.F.F.P     h c ;.x OXOXOXOXOXOXOXOXOXOXOXOX",
"OXOXOXOXOXOXOXOXOXOXw ^.s.J.E.$     9.F.F.F.i.t ].oXoXo XXoXXX] .XoXXX= oXoX[.s 9.F.F.F.T     ! Q.^.a.  OXOXOXOXOXOXOXOXOXOXOXOX",
"OXOXOXOXOXOXOXOXOXOXq ~.^.~ ^.( g     5.F.F.F.A.L [ {.o XXoXX.P [ oXXX= ].{ N V.F.F.F.I     q ^.k.h.^.4 OXOXOXOXOXOXOXOXOXOXOXOX",
"OXOXOXOXOXOXOXOXOXOXOXQ l.` ^.0.1.<     N S.F.F.F.B.U % } X.n F.Y } [ 2 T B.F.F.F.Z.b     h y.^._ ^.W.OXOXOXOXOXOXOXOXOXOXOXOXOX",
"OXOXOXOXOXOXOXOXOXOXOXOXs.^.!.b V V X     % w.F.F.F.F.F.C.p.Z.F.F.p.A.F.F.F.F.F.8.X     , :.y.^.` f.F OXOXOXOXOXOXOXOXOXOXOXOXOX",
"OXOXOXOXOXOXOXOXOXOXOX4 !.^.T.U.^.^.U.5 .     3 9.D.F.F.F.F.F.F.F.F.F.F.F.S.7.2     $ g.H.h.F ^.^.I.OXOXOXOXOXOXOXOXOXOXOXOXOXOX",
"OXOXOXOXOXOXOXOXOXOXOX~ ^.^.^.^.k.` L.H.o.j       X m 5.p.V.F.F.F.B.p.3.n         # U.E.P.^.!.^.^.^.Q OXOXOXOXOXOXOXOXOXOXOXOXOX",
"OXOXOXOXOXOXOXOXOXOXOXH.^.^.^.W.d.^.) !.O.2.;.k                             . z >.4.^.! g.z.^.^.^.^.s.OXOXOXOXOXOXOXOXOXOXOXOXOX",
"OXOXOXOXOXOXOXOXOXOXw ^.^.^.H.! ! ^.^.h.;.2.2.2.<.$.k +               ; z %.1.2.2.4.!.H.^.A H.^.^.^.U.OXOXOXOXOXOXOXOXOXOXOXOXOX",
"OXOXOXOXOXOXOXOXOXOXy.T.d.D OXOXOXD K # c 1.2.2.2.2.$.E _ F c -.c H _ E $.2.2.2.2.@.h.U._ OXOXJ c.^.^.D OXOXOXOXOXOXOXOXOXOXOXOX",
"OXOXOXOXOXOXOXOXOXOXw OXOXOXOXOXOXOXOXOXOX+ c ,.2.;.h.!.P.^.f.+.f.^.L.Q.h.-.2.>.x O OXOXOXOXOXOXOXw h.) OXOXOXOXOXOXOXOXOXOXOXOX",
"OXOXOXOXOXOXOXOXOXOXOXOXOXOXOXOXOXOXOXOXOXOXOX. < g ~.s.l.l.^.A ^.k.l.s.!.< , . OXOXOXOXOXOXOXOXOXOXOXX OXOXOXOXOXOXOXOXOXOXOXOX",
"OXOXOXOXOXOXOXOXOXOXOXOXOXOXOXOXOXOXOXOXOXOXOXOXOXOXh.^.T.s.^.U.^.d.R.^.h.OXOXOXOXOXOXOXOXOXOXOXOXOXOXOXOXOXOXOXOXOXOXOXOXOXOXOX",
"OXOXOXOXOXOXOXOXOXOXOXOXOXOXOXOXOXOXOXOXOXOXOXOXOXOXOXF $ P.^.^.^.!.A F OXOXOXOXOXOXOXOXOXOXOXOXOXOXOXOXOXOXOXOXOXOXOXOXOXOXOXOX",
"OXOXOXOXOXOXOXOXOXOXOXOXOXOXOXOXOXOXOXOXOXOXOXOXOXOXOXOXOX) ^.^.^.E.* OXOXOXOXOXOXOXOXOXOXOXOXOXOXOXOXOXOXOXOXOXOXOXOXOXOXOXOXOX",
"OXOXOXOXOXOXOXOXOXOXOXOXOXOXOXOXOXOXOXOXOXOXOXOXOXOXOXOXOX* E.^.^.a.OXOXOXOXOXOXOXOXOXOXOXOXOXOXOXOXOXOXOXOXOXOXOXOXOXOXOXOXOXOX",
"OXOXOXOXOXOXOXOXOXOXOXOXOXOXOXOXOXOXOXOXOXOXOXOXOXOXOXOXOXOXa.^.~.q OXOXOXOXOXOXOXOXOXOXOXOXOXOXOXOXOXOXOXOXOXOXOXOXOXOXOXOXOXOX",
"OXOXOXOXOXOXOXOXOXOXOXOXOXOXOXOXOXOXOXOXOXOXOXOXOXOXOXOXOXOXq ~.l.OXOXOXOXOXOXOXOXOXOXOXOXOXOXOXOXOXOXOXOXOXOXOXOXOXOXOXOXOXOXOX",
"OXOXOXOXOXOXOXOXOXOXOXOXOXOXOXOXOXOXOXOXOXOXOXOXOXOXOXOXOXOXOXh.A OXOXOXOXOXOXOXOXOXOXOXOXOXOXOXOXOXOXOXOXOXOXOXOXOXOXOXOXOXOXOX",
"OXOXOXOXOXOXOXOXOXOXOXOXOXOXOXOXOXOXOXOXOXOXOXOXOXOXOXOXOXOXOX$ OXOXOXOXOXOXOXOXOXOXOXOXOXOXOXOXOXOXOXOXOXOXOXOXOXOXOXOXOXOXOXOX",
"OXOXOXOXOXOXOXOXOXOXOXOXOXOXOXOXOXOXOXOXOXOXOXOXOXOXOXOXOXOXOXOXOXOXOXOXOXOXOXOXOXOXOXOXOXOXOXOXOXOXOXOXOXOXOXOXOXOXOXOXOXOXOXOX"
};
