/* XPM */
static char *result[] = {
/* columns rows colors chars-per-pixel */
"64 64 147 2 ",
"   c #000101",
".  c #070709",
"X  c #070808",
"o  c #0C0C0C",
"O  c #100F09",
"+  c #13120B",
"@  c #0C0F11",
"#  c #0F1314",
"$  c #131414",
"%  c #151A1B",
"&  c #1C1C1C",
"*  c #242112",
"=  c #2A2815",
"-  c #35311C",
";  c #3D391E",
":  c #191E21",
">  c #1B2123",
",  c #1F2629",
"<  c #242424",
"1  c #292926",
"2  c #222A2C",
"3  c gray17",
"4  c #262A24",
"5  c #31362F",
"6  c #35362A",
"7  c #262E31",
"8  c #2A3337",
"9  c #2F393D",
"0  c #293336",
"q  c #333333",
"w  c #3B3B3B",
"e  c #3F4235",
"r  c #4B4A2F",
"t  c #504C29",
"y  c #5A542E",
"u  c #444533",
"i  c #40403F",
"p  c #494C3A",
"a  c #514E30",
"s  c #555232",
"d  c #645D33",
"f  c #676033",
"g  c #6E6737",
"h  c #756D3A",
"j  c #77703C",
"k  c #7B733E",
"l  c #333E42",
"z  c #364246",
"x  c #39464A",
"c  c #3B494E",
"v  c #384446",
"b  c #3E4D53",
"n  c #434343",
"m  c #444D46",
"M  c #4C4C4C",
"N  c #414F55",
"B  c #425156",
"V  c #445359",
"C  c #48575D",
"Z  c #4A595C",
"A  c #535353",
"S  c #5B5B5B",
"D  c #4A5B61",
"F  c #53666D",
"G  c #53686F",
"H  c #5A6D75",
"J  c #5D727A",
"K  c #646464",
"L  c #6C6C6C",
"P  c #60767D",
"I  c #737373",
"U  c #7C7C7C",
"Y  c #80773F",
"T  c #807740",
"R  c #837A41",
"E  c #8C8346",
"W  c #908747",
"Q  c #A49851",
"!  c #ACA055",
"~  c #BDAF5E",
"^  c #B2A659",
"/  c #BEB15E",
"(  c #C6B863",
")  c #D1C469",
"_  c #DACC6D",
"`  c #E5D672",
"'  c #EBDA75",
"]  c #F7E67B",
"[  c #FFED7F",
"{  c #637A83",
"}  c #687E87",
"|  c #667F88",
" . c #67808A",
".. c #6A838D",
"X. c #6D8790",
"o. c #6E8993",
"O. c #728C96",
"+. c #758F98",
"@. c #76929C",
"#. c #79949E",
"$. c #7A96A1",
"%. c #7C99A4",
"&. c #7F9EAA",
"*. c #838383",
"=. c #8C8C8C",
"-. c #939393",
";. c #999999",
":. c #819DA7",
">. c #829FAA",
",. c #84A2AD",
"<. c #85A6B2",
"1. c #89A7B2",
"2. c #87A8B4",
"3. c #8CAAB6",
"4. c #8DAEBA",
"5. c #90AFBB",
"6. c #8FB2BF",
"7. c #92B1BD",
"8. c #A2A2A2",
"9. c #ABABAB",
"0. c #B3B3B3",
"q. c #BCBCBC",
"w. c #FFEE80",
"e. c #FFF080",
"r. c #95B5C1",
"t. c #97B8C4",
"y. c #99BAC7",
"u. c #9BBCC9",
"i. c #9FC1CE",
"p. c #A0C3CF",
"a. c #A2C5D2",
"s. c #A5C9D6",
"d. c #A9CEDB",
"f. c #A6CAD8",
"g. c #ACD1DE",
"h. c #AED4E2",
"j. c #B0D6E4",
"k. c #B1D8E6",
"l. c #C3C3C3",
"z. c #CACACA",
"x. c #D3D3D3",
"c. c #DBDBDB",
"v. c #E4E4E4",
"b. c #EBEBEB",
"n. c #F3F3F3",
"m. c #FFFFFF",
"M. c None",
/* pixels */
"M.M.M.M.M.M.M.M.M.M.M.M.M.M.M.M.M.M.M.M.M.M.M.M.M.M.M.M.M.M.M.M.M.M.M.M.M.M.M.M.M.M.M.M.M.M.M.M.M.M.M.M.M.M.M.M.M.M.M.M.M.M.M.M.",
"M.M.M.M.M.M.M.M.M.M.M.M.M.M.M.M.M.M.M.M.M.M.M.M.M.M.M.M.M.M.M.M.M.M.M.M.M.M.M.M.M.M.M.M.M.M.M.M.M.M.M.M.M.M.M.M.M.M.M.M.M.M.M.M.",
"M.M.M.M.M.M.M.M.M.M.M.M.M.M.M.M.M.M.M.M.M.M.M.M.o z J ,.4.t.7.1.$.H x $ M.M.M.M.M.M.M.M.M.M.M.M.M.M.M.M.M.M.M.M.M.M.M.M.M.M.M.M.",
"M.M.M.M.M.M.M.M.M.M.M.M.M.M.M.M.M.M.M.M.M.M., { a.j.j.j.j.j.j.j.j.j.j.d...2 M.M.M.M.M.M.M.M.M.M.M.M.M.M.M.M.M.M.M.M.M.M.M.M.M.M.",
"M.M.M.M.M.M.M.M.M.M.M.M.M.M.M.M.M.M.M.M.# G d.h.j.j.j.j.j.j.j.j.j.j.j.j.j.h.H # M.M.M.M.M.M.M.M.M.M.M.M.M.M.M.M.M.M.M.M.M.M.M.M.",
"M.M.M.M.M.M.M.M.M.M.M.M.M.M.M.M.M.M.M.8 r.h.k.k.j.j.j.j.j.j.j.j.j.j.j.j.j.j.j.#.% M.M.M.M.M.M.M.M.M.M.M.M.M.M.M.M.M.M.M.M.M.M.M.",
"M.M.M.M.M.M.M.M.M.M.M.M.M.M.M.M.M.M.x d.h.h.k.h.j.j.j.j.j.j.j.j.j.j.j.j.j.j.d.r.O.M.M.M.M.M.M.M.M.M.M.M.M.M.M.M.M.M.M.M.M.M.M.M.",
"M.M.M.M.M.M.M.M.M.M.M.M.M.M.M.M.M.b h.k.k.h.h.h.j.j.j.j.j.j.j.h.j.j.j.j.j.%.t Y u 9 M.M.M.M.M.M.M.M.M.M.M.M.M.M.M.M.M.M.M.M.M.M.",
"M.M.M.M.M.M.M.M.M.M.M.M.M.M.M.M.b h.j.j.j.d.%.@.X.O.O.@.,.h.j.j.j.j.j.j.k.r [ [ ' v % M.M.M.M.M.M.M.M.M.M.M.M.M.M.M.M.M.M.M.M.M.",
"M.M.M.M.M.M.M.M.M.M.M.M.M.M.M.l h.j.j.f.o...6.r.6.6.6.6.X.9 O.j.j.j.j.j.k.y [ [ w.m D M.M.M.M.M.M.M.M.M.M.M.M.M.M.M.M.M.M.M.M.M.",
"M.M.M.M.M.M.M.M.M.M.M.M.M.M.> a.j.j.4. .r.4.r.r.6.r.6.F k / y D j.j.j.j.j.Z / ] W ..5.M.M.M.M.M.y ~ R M.M.M.M.M.M.M.M.M.M.M.M.M.",
"M.M.M.M.M.M.M.M.M.M.M.M.M.M.>.j.h.<.@.6.r.r.r.&.6.6.6.r [ [ [ e #.j.j.j.j.g.p ' x j.j.> M.M.M.* [ [ w.t M.M.M.M.M.M.M.M.M.M.M.M.",
"M.M.M.M.M.M.M.M.M.M.M.M.M.C j.j.4.$.r.6.6.6.6.6.6.6.6.r [ [ [ p o.a.j.j.j.a.d w.p j.j.z M.M.M.* ] [ [ t M.M.M.M.M.M.M.M.M.M.M.M.",
"M.M.M.M.M.M.M.M.M.M.M.M.$ a.j.a...6.6.6.6.6.6.6.6.6.6.G k ) W J r.#.j.j.h.J ( w.Q X.j.F M.M.M.M.R _ T M.M.M.M.M.M.M.M.M.M.M.M.M.",
"M.M.M.M.M.M.M.M.M.M.M.M.H j.j. .6.r.6.6.6.6.6.6.6.r.6.6.@.5 ` e $.X.j.j.,.f w.[ [ s 1.J M.M.M.- ' ; M.M.M.M.M.M.M.M.M.M.M.M.M.M.",
"M.M.M.M.M.M.M.M.M.M.M.% s.j.<.,.6.6.6.6.6.6.6.6.6.%.H  .$.D ( ' g 0 B m k ] w.[ [ ] h 4 o - h ] ) M.M.M.M.M.M.M.M.M.M.M.M.M.M.M.",
"M.M.M.M.M.M.M.M.M.M.M.D j.j...6.6.6.6.6.6.6.r.&.{ +.s.g.{ 2 g [ [ [ [ [ w.[ [ [ w.[ w.w.e.w.[ [ h M.M.M.M.M.M.M.M.M.M.M.M.M.M.M.",
"M.M.M.M.M.M.M.M.M.M.M.3.j.>.<.6.6.6.6.6.6.6.o.+.u.j.:.& M.M.= [ [ [ [ [ [ [ [ [ [ [ [ ] [ [ [ [ = M.M.M.M.M.M.M.M.M.M.M.M.M.M.M.",
"M.M.M.M.M.M.M.M.M.M.2 h.j...r.6.6.6.6.6.6...<.u.g.#.: M.M.M.M./ [ [ [ _ ! T h g h E ^ ` [ [ [ ~ M.M.M.M.M.M.M.M.M.M.M.M.M.M.M.M.",
"M.M.M.M.M.M.M.M.M.M.B j.t.$.6.6.6.6.6.6.X.r.u.g.3.0 M.M.M.M.M.f _ g 6 S -.l.l.x.l.q.=.A - Y ` d M.M.M.M.M.M.M.M.M.M.M.M.M.M.M.M.",
"M.M.M.M.M.M.M.M.M.M.{ j.@.6.6.6.6.6.6.@.6.7.h.4.D M.M.M.M.M.M.+ i 0.m.m.m.m.m.m.m.m.m.m.n.;.1 + M.M.M.M.M.M.M.M.M.M.M.M.M.M.M.M.",
"M.M.M.M.M.M.M.M.M.M.1.j.X.6.6.6.6.6.6.+.5.j.5.3.o M.M.M.M.M.& 9.m.m.m.m.m.m.m.m.m.m.m.m.m.m.m.*.o M.M.M.M.M.M.M.M.M.M.M.M.M.M.M.",
"M.M.M.M.M.M.M.M.M.M.4.h...6.6.6.6.6.X.i.u.a.a.z M.M.M.M.M.w b.m.m.m.m.m.m.m.m.m.m.m.m.m.m.m.m.m.z.% M.M.M.M.M.M.M.M.M.M.M.M.M.M.",
"M.M.M.M.M.M.M.M.M.M.t.t.$.6.6.6.6.6.+.r.j.7.7.M.M.M.M.M.w n.m.m.m.m.m.m.m.m.m.m.m.m.m.m.m.m.m.m.m.x.$ M.M.M.M.M.M.M.M.M.M.M.M.M.",
"M.M.M.M.M.M.M.M.M.M.7.>.6.6.6.6.6.&.6.7.g.t.D M.M.M.M.1 b.m.m.m.m.m.m.m.m.m.m.m.m.m.m.m.m.m.m.m.m.m.l.. M.M.M.M.M.M.M.M.M.M.M.M.",
"M.M.M.M.M.M.M.M.M.M.3.#.6.6.6.6.6...p.s.r.j.< M.M.M.. q.m.m.m.m.m.m.m.m.m.m.m.m.m.m.m.m.m.m.m.m.m.m.m.*.o M.M.M.M.M.M.M.M.M.M.M.",
"M.M.M.M.M.M.M.M.M.M.,.#.6.6.6.6.7.@.r.j.y.7.M.M.M.M.M m.m.m.m.m.m.m.m.m.m.m.m.m.m.m.m.m.m.m.m.m.m.m.m.m.& M.M.M.M.M.M.M.M.M.M.M.",
"M.M.M.M.M.M.M.M.M.M.+.$.6.6.6.6.6.#.t.j.3.O.M.M.M.M.q.m.m.m.m.m.m.m.m.m.m.m.m.m.m.m.m.m.m.m.m.m.m.m.m.m.-.M.M.M.M.M.M.M.M.M.M.M.",
"M.M.M.M.M.M.M.M.M.M.H $.r.6.6.6.<.1.7.j.r.F M.M.M.1 m.m.m.m.m.m.m.m.m.m.m.m.m.m.m.m.m.m.m.m.m.m.m.m.m.m.b.o M.M.M.M.M.M.M.M.M.M.",
"M.M.M.M.M.M.M.M.M.M.B #.6.6.6.6.o.d.4.j.u.C M.M.M.S m.m.m.m.v.K o   : R n.m.m.m.m.m.n.U %   $ K b.m.m.m.m.w M.M.M.M.M.M.M.M.M.M.",
"M.M.M.M.M.M.M.M.M.M.8 #.6.6.6.6. .j.6.j.7.v M.M.M.*.m.m.m.c.$           w m.m.m.m.n.q           & v.m.m.m.L M.M.M.M.M.M.M.M.M.M.",
"M.M.M.M.M.M.M.M.M.M.o +.r.6.6.6. .j.7.j.3.z M.M.M.9.m.m.m.n               *.m.m.m.I               A m.m.m.-.M.M.M.M.M.M.M.M.M.M.",
"M.M.M.M.M.M.M.M.M.M.M.H &.6.6.6...j.t.j.t.z M.M.M.9.m.m.v.                < m.m.m.%                 n.m.m.8.M.M.M.M.M.M.M.M.M.M.",
"M.M.M.M.M.M.M.M.M.M.M.D o.6.6.6. .j.t.j.r.l M.M.M.8.m.m.q.                . m.m.m.                  z.m.m.;.M.M.M.M.M.M.M.M.M.M.",
"M.M.M.M.M.M.M.M.M.M.M.2 ..r.r.6.$.t.r.j.t.V M.M.M.*.m.m.v.                < m.m.m.$                 n.m.m.U M.M.M.M.M.M.M.M.M.M.",
"M.M.M.M.M.M.M.M.M.M.M.M.D 6.r.r.6.:.s.p.a.C M.M.M.A m.m.m.w               U m.m.m.L               M m.m.m.A M.M.M.M.M.M.M.M.M.M.",
"M.M.M.M.M.M.M.M.M.M.M.M.# r.r.&.6.+.h.r.j.J M.M.M.< m.m.m.x.$           q n.m.m.m.n.1           $ c.m.m.m.& M.M.M.M.M.M.M.M.M.M.",
"M.M.M.M.M.M.M.M.M.M.M.M.. O.r.r.6...g.t.j.1.. M.M.M.0.m.m.m.c.A     $ I n.m.m.m.m.m.n.L o   . S v.m.m.m.0.M.M.M.M.M.M.M.M.M.M.M.",
"M.M.M.M.M.M.M.M.M.M.M.M.M.x r.r.6.4.@.i.a.a., M.M.M.M m.m.m.m.m.m.m.m.m.m.m.m.v.m.m.m.m.m.m.m.m.m.m.m.m.n M.M.M.M.M.M.M.M.M.M.M.",
"M.M.M.M.M.M.M.M.M.M.M.M.M.@ O.r.r.r.o.i.r.j.H M.M.M.. q.m.m.m.m.m.m.m.m.m.b.3   3 b.m.m.m.m.m.m.m.m.m.0.. M.M.M.M.M.M.M.M.M.M.M.",
"M.M.M.M.M.M.M.M.M.M.M.M.M.M., 4.6.6.6.{ t.a.h.7 M.M.M.q n.m.m.m.m.m.m.m.m.*.      =.m.m.m.m.m.m.m.m.b.< M.M.M.M.M.M.M.M.M.M.M.M.",
"M.M.M.M.M.M.M.M.M.M.M.M.M.M.M.b 6.6.6.6.{ <.d.<.@ M.M.M.A m.m.m.m.m.m.m.m.=.      -.m.m.m.m.m.m.m.m.n M.M.M.M.M.M.M.M.M.M.M.M.M.",
"M.M.M.M.M.M.M.M.M.M.M.M.M.M.M.M.F 6.6.6.r. .{ h.G M.M.M.M.S m.m.m.m.m.m.m.n.A . S m.m.m.m.m.m.m.n.M M.M.M.M.M.M.M.M.M.M.M.M.M.M.",
"M.M.M.M.M.M.M.M.M.M.M.M.M.M.M.M.M.D 4.r.6.r.&.J s.z M.M.M.M.n b.m.m.m.m.m.m.m.m.m.m.m.m.m.m.m.x.q M.M.M.M.M.M.M.M.M.M.M.M.M.M.M.",
"M.M.M.M.M.M.M.M.M.M.M.M.M.M.M.M.M.: 0 | | { &.r...&.# M.M.M.M.$ -.n.m.m.m.m.m.m.m.m.m.m.m.b.U o M.M.M.M.M.M.M.M.M.M.M.M.M.M.M.M.",
"M.M.M.M.M.M.M.M.M.M.M.M.M.M.M.M.b @.&.6.r.6. .&.r...D M.M.M.M.w -.w I q.m.m.m.m.m.m.n.0.K 3 -.< M.M.M.M.M.M.M.M.M.M.M.M.M.M.M.M.",
"M.M.M.M.M.M.M.M.M.M.M.M.M.M.M.8 d.X.6.6.2.r.r.{ r.6.{ % M.M.M.;.m.m.l.& n w w n w q q n z.m.m.S M.M.M.M.M.M.M.M.M.M.M.M.M.M.M.M.",
"M.M.M.M.M.M.M.M.M.M.M.M.M.M.M.X.$.r.6.6.r.r.r.&.o.r.3.% M.M.o K b.m.c.L m.m.m.M m.m.n.S m.m.n.A M.M.M.M.M.M.M.M.M.M.M.M.M.M.M.M.",
"M.M.M.M.M.M.M.M.M.M.M.M.M.M.M.r.@.r.r.r.D b @.6. .6.6.l M.M.O c.K I =.=.m.m.m.M m.m.m.i x.I A U M.M.M.M.M.M.M.M.M.M.M.M.M.M.M.M.",
"M.M.M.M.M.M.M.M.M.M.M.M.M.M.. f...r.6. .{ r.&.6. .6.6.D M.M.w m.m.v.M M L =.9.w 9.*.K % *.c.m.x.. M.M.M.M.M.M.M.M.M.M.M.M.M.M.M.",
"M.M.M.M.M.M.M.M.M.M.M.M.M.M.M.4.o.r.r. .| 6.6.&. .6.6.b M.M.n m.m.m.A v.m.x.q.w l.v.m.K c.m.m.m.o M.M.M.M.M.M.M.M.M.M.M.M.M.M.M.",
"M.M.M.M.M.M.M.M.M.M.M.M.M.M.M.X.@.r.r.2.b &.6.{ 6.6.6.2 M.M.$ l -.b.n m.m.m.m.M m.m.m.=.0.b.;.S & M.M.M.M.M.M.M.M.M.M.M.M.M.M.M.",
"M.M.M.M.M.M.M.M.M.M.M.M.M.M.M.9 d.| r.r.&.{  .4.6.6.O.. M.M.M n.9.S 1 I 8.l.z.n z.l.9.M n L l.m.$ M.M.M.M.M.M.M.M.M.M.M.M.M.M.M.",
"M.M.M.M.M.M.M.M.M.M.M.M.M.M.M.M.G r. .r.r.6.r.6.6.&., M.M.M.< m.m.m.m.b.q.;.=.U =.;.q.b.m.m.m.l.M.M.M.M.M.M.M.M.M.M.M.M.M.M.M.M.",
"M.M.M.M.M.M.M.M.M.M.M.M.M.M.M.M.M.x 2.O.....+.X.D : M.M.M.M.. x.m.m.m.m.m.m.m.m.m.m.m.m.m.m.m.L M.M.M.M.M.M.M.M.M.M.M.M.M.M.M.M.",
"M.M.M.M.M.M.M.M.M.M.M.M.M.M.M.M.M.M.M.7 z l % M.M.M.M.M.M.M.M.K m.m.m.m.m.m.m.m.m.m.m.m.m.m.b.& M.M.M.M.M.M.M.M.M.M.M.M.M.M.M.M.",
"M.M.M.M.M.M.M.M.M.M.M.M.M.M.M.M.M.M.M.M.M.M.M.M.M.M.M.M.M.M.M.o l.m.m.m.m.m.m.m.m.m.m.m.m.m.A M.M.M.M.M.M.M.M.M.M.M.M.M.M.M.M.M.",
"M.M.M.M.M.M.M.M.M.M.M.M.M.M.M.M.M.M.M.M.M.M.M.M.M.M.M.M.M.M.M.M.& z.m.m.m.m.m.m.m.m.m.m.m.K M.M.M.M.M.M.M.M.M.M.M.M.M.M.M.M.M.M.",
"M.M.M.M.M.M.M.M.M.M.M.M.M.M.M.M.M.M.M.M.M.M.M.M.M.M.M.M.M.M.M.M.M.$ I v.m.m.m.m.m.m.m.0.w M.M.M.M.M.M.M.M.M.M.M.M.M.M.M.M.M.M.M.",
"M.M.M.M.M.M.M.M.M.M.M.M.M.M.M.M.M.M.M.M.M.M.M.M.M.M.M.M.M.M.M.M.M.M.M.o w L *.U U S q M.M.M.M.M.M.M.M.M.M.M.M.M.M.M.M.M.M.M.M.M.",
"M.M.M.M.M.M.M.M.M.M.M.M.M.M.M.M.M.M.M.M.M.M.M.M.M.M.M.M.M.M.M.M.M.M.M.M.M.M.M.M.M.M.M.M.M.M.M.M.M.M.M.M.M.M.M.M.M.M.M.M.M.M.M.M.",
"M.M.M.M.M.M.M.M.M.M.M.M.M.M.M.M.M.M.M.M.M.M.M.M.M.M.M.M.M.M.M.M.M.M.M.M.M.M.M.M.M.M.M.M.M.M.M.M.M.M.M.M.M.M.M.M.M.M.M.M.M.M.M.M.",
"M.M.M.M.M.M.M.M.M.M.M.M.M.M.M.M.M.M.M.M.M.M.M.M.M.M.M.M.M.M.M.M.M.M.M.M.M.M.M.M.M.M.M.M.M.M.M.M.M.M.M.M.M.M.M.M.M.M.M.M.M.M.M.M.",
"M.M.M.M.M.M.M.M.M.M.M.M.M.M.M.M.M.M.M.M.M.M.M.M.M.M.M.M.M.M.M.M.M.M.M.M.M.M.M.M.M.M.M.M.M.M.M.M.M.M.M.M.M.M.M.M.M.M.M.M.M.M.M.M."
};
