/* XPM */
static char *result[] = {
/* columns rows colors chars-per-pixel */
"64 64 156 2 ",
"   c #465436",
".  c #475538",
"X  c #4A573A",
"o  c #4D593E",
"O  c #4E613B",
"+  c #51643E",
"@  c #56713D",
"#  c #454342",
"$  c #494747",
"%  c #464943",
"&  c #494C45",
"*  c #4C4B4B",
"=  c #504F4F",
"-  c #4B5245",
";  c #4D5A43",
":  c #515C45",
">  c #545D4A",
",  c #585F4E",
"<  c #545353",
"1  c #585757",
"2  c #575C52",
"3  c #595E52",
"4  c #575758",
"5  c #585758",
"6  c #5C5B5C",
"7  c #546543",
"8  c #586746",
"9  c #566A43",
"0  c #586B47",
"q  c #56614A",
"w  c #59634D",
"e  c #5C6C4B",
"r  c #5B7543",
"t  c #5D7A44",
"y  c #5F704D",
"u  c #5C6352",
"i  c #5E6B52",
"p  c #607B47",
"a  c #61744C",
"s  c #637D4B",
"d  c #616D53",
"f  c #676E5F",
"g  c #647353",
"h  c #687557",
"j  c #677B50",
"k  c #6B7D55",
"l  c #657258",
"z  c #6A745E",
"x  c #6E7B5D",
"c  c #5F5F60",
"v  c #605F60",
"b  c #5F6061",
"n  c #636364",
"m  c #676768",
"M  c #67686A",
"N  c #6A6B6C",
"B  c #6C7362",
"V  c #6E6F71",
"C  c #6F7072",
"Z  c #717274",
"A  c #757678",
"S  c #638446",
"D  c #66824D",
"F  c #6B884E",
"G  c #678150",
"H  c #6B8354",
"J  c #6E8A52",
"K  c #6F8558",
"L  c #718B56",
"P  c #71855B",
"I  c #738A5C",
"U  c #788F5D",
"Y  c #7CBB46",
"T  c #7FBC49",
"R  c #7FA35A",
"E  c #748265",
"W  c #768961",
"Q  c #79866A",
"!  c #7D8F68",
"~  c #7C9163",
"^  c #7F8972",
"/  c #82BE4D",
"(  c #81AA57",
")  c #86AC5C",
"_  c #87B05E",
"`  c #809366",
"'  c #849C65",
"]  c #829569",
"[  c #859A6B",
"{  c #8A9E6D",
"}  c #888E7C",
"|  c #8B9C73",
" . c #8C957A",
".. c #8F9E78",
"X. c #929D7D",
"o. c #83A560",
"O. c #8AAC62",
"+. c #8CA26E",
"@. c #8EAB6A",
"#. c #91AD6E",
"$. c #8EB265",
"%. c #93B56B",
"&. c #8EA272",
"*. c #92A476",
"=. c #95AE72",
"-. c #99AF77",
";. c #95A47B",
":. c #98A67E",
">. c #96AA79",
",. c #99AA7E",
"<. c #96B271",
"1. c #99B375",
"2. c #9CB975",
"3. c #9DB37B",
"4. c #A1B57E",
"5. c #A3BB7D",
"6. c #86C051",
"7. c #8AC255",
"8. c #8EC459",
"9. c #92C65D",
"0. c #94C760",
"q. c #96C862",
"w. c #99CA65",
"e. c #9DCC6A",
"r. c #A1CE6E",
"t. c #A3CF70",
"y. c #A6D072",
"u. c #A9D276",
"i. c #ADD47B",
"p. c #B0D57E",
"a. c #97A280",
"s. c #99A482",
"d. c #9DAB83",
"f. c #A1AF87",
"g. c #A2AE89",
"h. c #A3B583",
"j. c #A8B787",
"k. c #A6BA83",
"l. c #A9BB86",
"z. c #A5B38A",
"x. c #A8B788",
"c. c #ABBB8B",
"v. c #AAC185",
"b. c #AEC18A",
"n. c #B1C48D",
"m. c #B3D782",
"M. c #B6D886",
"N. c #B8D987",
"B. c #BBDA8B",
"V. c #B4C591",
"C. c #BFDC90",
"Z. c #C2DD93",
"A. c #C6DF98",
"S. c #C8DF9A",
"D. c #CAE09C",
"F. c None",
/* pixels */
"F.F.F.F.F.F.F.F.F.F.F.F.F.F.F.F.F.F.F.F.F.F.F.F.F.F.F.F.F.F.F.F.F.F.F.F.F.F.F.F.F.F.F.F.F.F.F.F.F.F.F.F.F.F.F.F.F.F.F.F.F.F.F.F.",
"F.F.F.F.F.F.F.F.F.F.F.F.F.F.F.F.F.F.F.F.F.F.F.F.F.F.F.F.F.F.F.F.F.F.F.F.F.F.F.F.F.F.F.F.F.F.F.F.F.F.F.F.F.F.F.F.F.F.F.F.F.F.F.F.",
"F.F.F.F.F.F.F.F.F.F.F.F.F.F.F.F.F.F.F.F.F.F.F.F.F.F.F.F.F.F.F.F.F.F.F.F.F.F.F.F.F.F.F.F.F.F.F.F.F.F.F.F.F.F.F.F.F.F.F.F.F.F.F.F.",
"F.F.F.F.F.F.F.F.F.F.F.F.F.F.F.F.F.F.F.F.F.F.F.F.F.F.F.F.F.F.F.F.F.F.F.F.F.F.F.F.F.F.F.F.F.F.F.F.F.F.F.F.F.F.F.F.F.F.F.F.F.F.F.F.",
"F.F.F.F.F.F.F.F.F.F.F.F.F.F.F.F.F.F.F.F.F.F.F.F.F.F.F.F.F.F.F.F.F.F.F.F.F.F.F.F.F.F.F.F.F.F.F.F.F.F.F.F.F.F.F.F.F.F.F.F.F.F.F.F.",
"F.F.F.F.F.F.F.F.F.F.F.F.F.F.F.F.F.F.F.F.F.F.F.F.F.F.F.F.F.F.F.F.F.F.F.F.F.F.F.F.F.F.F.F.F.F.F.F.F.F.F.F.F.F.F.F.F.F.F.F.F.F.F.F.",
"F.F.F.F.V.c.c.c.l.l.k.k.h.k.4.3.3.3.2.1.3.1.<.Q N C C s.c.c.c.c.l.l.k.k.k.5.4.3.3.3.3.1.1.1.<.B m M m h.c.c.l.k.k.5.k.F.F.F.F.F.",
"F.F.F.c.D.D.D.D.A.Z.Z.Z.B.B.B.B.N.M.m.m.p.p.i.! N A A z.D.D.D.D.Z.Z.Z.Z.B.B.B.N.M.M.m.p.m.i.i.B m N M V.D.D.D.C.Z.B.B.u F.F.F.F.",
"F.F.F.h.S.S.A.Z.Z.Z.B.B.B.B.N.M.m.m.p.p.i.i.u.W N Z C z.S.A.A.Z.Z.Z.B.B.B.B.M.M.m.m.m.i.i.i.u.d n N M b.A.Z.Z.B.B.N.N., F.F.F.F.",
"F.F.F.h.S.Z.Z.Z.C.B.B.B.B.N.m.m.m.p.i.i.u.u.y.I M Z C z.A.A.C.C.Z.B.B.B.N.M.m.m.m.i.i.i.u.y.y.d u N M b.Z.C.B.B.N.N.m.2 F.F.F.F.",
"F.F.F.h.Z.Z.Z.B.B.B.N.N.M.m.m.p.i.i.u.u.u.y.r.K b Z Z f.Z.C.C.C.B.B.B.M.M.m.m.i.i.i.i.y.y.y.e.i v V m v.B.B.N.M.M.m.i.> F.F.F.F.",
"F.F.F.3.Z.C.B.B.B.M.M.m.m.p.p.i.i.u.u.y.r.r.e.K M Z C d.C.C.C.N.N.M.M.M.m.m.i.i.i.i.y.y.y.e.e.i c M n k.B.M.M.m.p.i.i.> F.F.F.F.",
"F.F.F.3.B.B.B.N.M.M.m.m.p.i.i.u.y.y.t.r.e.e.w.K b Z C d.C.N.B.N.M.m.m.m.i.i.i.u.t.y.t.e.e.e.w.i c M n 5.M.m.p.i.i.u.t.> F.F.F.F.",
"F.F.F.3.B.B.M.m.m.p.p.i.i.u.u.y.y.r.e.e.w.q.0.H b Z C d.N.N.N.M.m.m.p.i.i.i.u.y.t.r.e.e.w.w.0.e c m m 2.m.i.i.u.t.t.e.> F.F.F.F.",
"F.F.F.-.N.M.m.m.p.i.i.i.u.u.y.r.r.e.w.w.0.0.9.H b C C >.N.M.M.m.i.i.i.i.y.y.t.r.e.e.w.q.0.0.8.w 6 m n 3.i.i.u.t.t.e.w.> F.F.F.F.",
"F.F.F.-.m.m.p.p.i.i.u.u.t.r.r.e.w.w.q.0.9.8.7.G b V V >.m.m.i.i.i.i.i.t.t.t.r.e.e.w.q.0.8.8.8.w 6 m b 2.u.t.r.e.w.w.q.: F.F.F.F.",
"F.F.F.=.m.p.i.i.i.y.y.r.r.e.w.w.q.0.9.8.8.7.7.G b V V >.m.i.i.i.i.y.y.y.r.e.w.w.q.q.9.8.7.7.6.q 6 n n %.r.r.w.w.q.9.9.: F.F.F.F.",
"F.F.F.=.i.i.i.u.y.t.r.r.e.w.w.0.0.9.8.8.7./ / s u V V &.i.i.i.y.y.y.e.e.e.w.q.q.9.8.8.7.7.6.6.7 6 m b %.e.w.q.9.9.7.7.- F.F.F.F.",
"F.F.F.#.i.u.y.y.t.r.e.w.w.0.0.9.8.8.7.6./ / T t b V V *.i.u.y.y.r.e.e.w.q.q.9.9.8.7.6.6.6.T T q 4 M u $.q.9.9.9./ / / ; F.F.F.F.",
"F.F.F.@.y.y.y.e.e.w.w.w.0.9.8.8.7.6./ / / T T t b N N &.y.y.y.e.e.w.w.q.9.9.8.8.7.7.6.6.T Y Y : 6 n b O.9.8.7./ / / / ; F.F.F.F.",
"F.F.F.E ~ W I P W H K K H H G j G G D S D t t w b V N x W K H H H H G G D s s s s t t t r r t > 6 n 6 k s s t t t t r - F.F.F.F.",
"F.F.F.M M n n n b b b b b b b c b c b b b c b b M V N M b 4 c c 6 6 5 6 6 4 5 4 4 4 4 4 4 5 4 5 c n n 6 < < < < = = < * F.F.F.F.",
"F.F.F.C A Z C C C C C C Z C V V N N V N V N N N N N N N M M N M m M M m n n m n n n n n v v v f b n n n c n 6 v 6 6 6 < F.F.F.F.",
"F.F.F.C Z Z C C C V C V C Z V M N V N N N N N N N M N N M M M b m n m n m m m n n n n n v v v v b 6 6 v 6 6 6 6 6 6 6 < F.F.F.F.",
"F.F.F.X.z.d.d.d.d.d.d.^ N V V a.g.g.d.d.s.d.d.s.s.>.>.>.*.*.*.&.&.&.+.B v m n  .f.:.s.:.:.:.*.;.*.*.*.*.*.| &.{ +.{ { 2 F.F.F.F.",
"F.F.F.x.D.D.A.Z.C.C.B.[ b N N s.D.D.A.A.A.C.C.C.B.B.B.N.m.m.m.m.p.i.i.x 6 n n x.S.S.S.A.A.Z.Z.Z.Z.B.B.N.M.M.m.p.i.i.i.3 F.F.F.F.",
"F.F.F.h.A.Z.C.C.B.B.N.! c N N a.A.A.A.Z.C.C.C.C.B.N.N.M.m.m.m.m.i.i.u.h 5 n v x.A.A.Z.Z.Z.Z.Z.B.N.N.N.M.p.p.p.p.i.i.y.> F.F.F.F.",
"F.F.F.h.Z.C.B.B.N.M.m.] 6 V N a.A.A.Z.C.C.C.N.N.N.M.m.m.m.m.y.i.u.u.t.g 4 n v h.Z.Z.Z.Z.Z.N.M.N.N.N.m.m.p.p.i.i.i.y.y.> F.F.F.F.",
"F.F.F.3.B.B.N.M.m.m.p.~ 6 N N X.Z.C.C.C.N.N.m.m.M.m.m.m.u.i.m.y.y.t.e.g 4 n c h.Z.Z.Z.Z.B.N.N.N.m.m.p.p.i.i.u.u.t.t.r.> F.F.F.F.",
"F.F.F.3.B.N.M.m.m.i.i.~ 6 M N ..C.C.C.B.N.N.m.m.m.m.i.m.i.y.y.r.t.e.e.a < v 6 h.B.Z.N.N.N.M.M.p.p.p.i.p.i.u.y.r.r.e.w.> F.F.F.F.",
"F.F.F.-.M.m.m.i.i.u.y.U 6 M N *.C.B.N.N.M.m.m.m.m.m.y.u.y.y.r.r.e.e.w.y < v 6 3.Z.N.N.M.M.M.p.p.p.p.u.u.u.t.r.r.e.w.q.> F.F.F.F.",
"F.F.F.=.m.i.i.u.y.y.r.L 4 M M | N.N.N.m.m.m.m.m.y.u.y.y.r.e.e.e.w.q.q.y < n 6 ,.N.N.M.M.p.p.p.p.u.u.y.y.r.r.e.w.w.q.q.: F.F.F.F.",
"F.F.F.<.i.i.u.y.r.e.w.L 4 m m | N.m.m.m.p.i.i.i.y.y.r.r.r.e.w.q.q.9.9.0 < v c -.N.M.p.p.p.p.i.u.u.t.t.t.r.w.w.w.9.9.9.: F.F.F.F.",
"F.F.F.@.u.y.r.e.e.w.q.J 4 m m | m.m.p.i.i.u.u.y.y.r.r.e.w.w.9.9.8.8.8.0 < u 6 >.p.p.p.p.i.u.u.t.t.r.r.r.w.w.9.9.9.9.7.: F.F.F.F.",
"F.F.F.@.r.e.e.w.q.9.9.F 4 m n | p.p.i.i.i.y.y.r.r.e.w.w.9.9.9.9.8.7.7.0 = 6 6 =.p.p.i.i.u.u.t.r.r.r.9.w.9.9.9.9.7.8.7.- F.F.F.F.",
"F.F.F.o.e.e.q.0.8.7./ D 4 m m [ i.i.u.y.y.y.r.e.e.w.w.q.9.9.8.7.6./ / 9 < 6 6 =.i.i.u.y.t.t.r.r.9.r.9.9.9.8.8.9./ / / ; F.F.F.F.",
"F.F.F.o.w.0.8.7.7./ / D < n n [ i.u.y.t.r.e.e.w.9.q.9.9.9.7.6.6./ T T 9 = 6 4 #.i.u.t.t.r.r.r.r.w.9.9.9.8.7./ / / / T ; F.F.F.F.",
"F.F.F.R 9.7.7.7./ / T S 4 m m ] y.y.r.e.e.w.w.q.9.9.8.8.6.6.6./ / Y Y 9 = 6 5 @.y.t.r.r.9.r.9.9.9.9.8.8.7./ / / T Y Y ; F.F.F.F.",
"F.F.F.l g y e 0 9 9 9 > 6 n v B h g g e d e e e 0 0 0 0 0 9 8 7 7 + 7 - < 6 5 d d e 8 8 8 8 8 + 8 8 + + + + + O o O O % F.F.F.F.",
"F.F.F.u c 6 6 6 6 6 6 6 v n m v 6 < 4 4 4 < < < < < < < = < = = = = = = 1 6 5 < = = = = * = * * $ * * $ $ * $ $ $ % $ = F.F.F.F.",
"F.F.F.n M m n m n m n n m n v v n v n n 6 n 6 v 6 v 6 6 6 6 6 6 6 6 1 6 6 6 5 1 1 1 1 < 1 < 1 < < < < < < < < = = = = < F.F.F.F.",
"F.F.F.n m n n v n v v v v v f 6 6 6 6 6 6 6 6 6 v 6 v 6 6 5 1 1 4 1 1 < < < < 1 < < < < = < = < < < < = * * * * = * * < F.F.F.F.",
"F.F.F.s.c.c.c.c.l.j.4.4.4.4.4.4.3.3.1.1.1.-.<.x 1 6 6  .c.c.j.j.h.h.5.h.3.4.3.3.1.1.-.-.=.#.#.u = = = :.l.h.h.3.4.3.1.3 F.F.F.F.",
"F.F.F.c.D.S.S.Z.Z.Z.Z.Z.Z.B.N.N.B.M.m.m.p.i.i.P < 6 1 d.D.S.A.A.Z.Z.Z.B.B.B.B.M.N.m.p.p.p.i.i.w $ < = b.S.A.D.Z.Z.B.B.3 F.F.F.F.",
"F.F.F.h.D.A.A.Z.Z.Z.B.Z.B.N.N.M.p.p.p.p.i.u.u.k = 6 1 :.A.A.Z.Z.Z.Z.B.B.B.M.M.M.M.p.p.p.u.u.u.> $ = = l.D.C.B.B.B.B.M.3 F.F.F.F.",
"F.F.F.h.S.A.Z.Z.B.Z.N.N.N.M.m.p.p.p.p.i.u.y.y.k = 1 1 :.A.Z.Z.Z.B.B.B.B.M.M.M.m.p.p.i.i.u.u.r.: $ = * l.Z.B.B.B.M.m.m.> F.F.F.F.",
"F.F.F.h.Z.Z.B.B.B.N.N.M.M.p.p.p.p.u.u.u.y.r.r.j = 1 1 *.Z.Z.Z.B.B.B.M.M.M.m.p.i.p.i.u.u.y.r.r.: # = * 5.N.B.M.m.m.p.i.> F.F.F.F.",
"F.F.F.3.C.C.B.B.N.M.M.M.p.p.p.p.u.u.y.y.r.r.w.s * 1 1 *.Z.B.B.B.B.M.M.m.p.p.i.i.u.y.y.r.r.r.w.: # = * 5.B.M.m.m.i.i.i.> F.F.F.F.",
"F.F.F.3.B.B.B.N.M.m.m.p.i.i.i.u.y.y.r.r.e.w.w.s * 1 1 *.B.B.N.N.M.m.m.p.p.i.u.u.y.y.r.e.e.w.w.o $ = $ 4.p.p.p.p.u.y.r.> F.F.F.F.",
"F.F.F.3.N.B.M.m.m.p.p.i.i.u.y.y.r.r.e.w.w.q.9.a * 1 < &.N.M.M.m.m.p.i.i.u.u.y.y.r.e.e.e.w.w.9.o # = & <.p.p.i.u.t.r.r.> F.F.F.F.",
"F.F.F.-.N.m.m.p.p.i.i.i.u.y.y.e.e.e.w.w.q.9.8.r $ 1 < +.N.M.p.p.p.i.i.u.u.y.r.r.e.e.w.w.9.9.9.o . * & <.i.u.y.r.r.w.9.> F.F.F.F.",
"F.F.F.-.m.p.p.p.i.u.u.y.y.r.e.e.w.w.9.9.9.8.7.t * 1 < { m.p.p.p.i.u.u.y.r.r.e.e.w.q.9.9.9.7.7.X # * $ %.y.t.r.r.r.%.9.+ F.F.F.F.",
"F.F.F.=.p.i.i.i.u.y.y.r.e.e.w.w.9.9.9.8.7.6.6.r $ < 1 ' p.p.p.u.u.y.y.r.e.e.w.w.q.9.9.7.7.6.6.  # $ $ #.r.r.r.9.q.9./ ; F.F.F.F.",
"F.F.F.=.i.i.u.u.y.y.e.e.w.w.q.9.9.9.8.7.6.6.6.@ $ < = { p.i.u.y.y.r.e.e.w.w.w.9.9.8.7.7.6.6.6.  # $ # O.r.9.9.9.$.9./ ; F.F.F.F.",
"F.F.F.#.i.y.y.r.r.e.e.w.q.q.9.9.7.7.6.6.6./ T @ $ < = ' u.u.y.r.e.e.e.w.w.9.9.9.7.7.7.6.6.T T   # $ # ) 9.9.9.9.6.6./ o F.F.F.F.",
"F.F.F.@.y.y.r.r.e.w.w.q.9.8.8.8.6.6.6.6.T Y Y @ $ < = ' y.r.r.r.e.e.w.9.9.9.7.8.6.6.6.T T Y Y   # # # ) / 9./ / 6.6./ : F.F.F.F.",
"F.F.F.F.u q q q q > > q : : : q : : : ; : ; ; - $ < < 3 w q q q 7 q > q : : : q : : ; ; ; : ; % $ < = q q : : : X + ; & F.F.F.F.",
"F.F.F.F.F.F.F.F.F.F.F.F.F.F.F.F.F.F.F.F.F.F.F.F.F.F.F.F.F.F.F.F.F.F.F.F.F.F.F.F.F.F.F.F.F.F.F.F.F.F.F.F.F.F.F.F.F.F.F.F.F.F.F.F.",
"F.F.F.F.F.F.F.F.F.F.F.F.F.F.F.F.F.F.F.F.F.F.F.F.F.F.F.F.F.F.F.F.F.F.F.F.F.F.F.F.F.F.F.F.F.F.F.F.F.F.F.F.F.F.F.F.F.F.F.F.F.F.F.F.",
"F.F.F.F.F.F.F.F.F.F.F.F.F.F.F.F.F.F.F.F.F.F.F.F.F.F.F.F.F.F.F.F.F.F.F.F.F.F.F.F.F.F.F.F.F.F.F.F.F.F.F.F.F.F.F.F.F.F.F.F.F.F.F.F.",
"F.F.F.F.F.F.F.F.F.F.F.F.F.F.F.F.F.F.F.F.F.F.F.F.F.F.F.F.F.F.F.F.F.F.F.F.F.F.F.F.F.F.F.F.F.F.F.F.F.F.F.F.F.F.F.F.F.F.F.F.F.F.F.F.",
"F.F.F.F.F.F.F.F.F.F.F.F.F.F.F.F.F.F.F.F.F.F.F.F.F.F.F.F.F.F.F.F.F.F.F.F.F.F.F.F.F.F.F.F.F.F.F.F.F.F.F.F.F.F.F.F.F.F.F.F.F.F.F.F.",
"F.F.F.F.F.F.F.F.F.F.F.F.F.F.F.F.F.F.F.F.F.F.F.F.F.F.F.F.F.F.F.F.F.F.F.F.F.F.F.F.F.F.F.F.F.F.F.F.F.F.F.F.F.F.F.F.F.F.F.F.F.F.F.F.",
"F.F.F.F.F.F.F.F.F.F.F.F.F.F.F.F.F.F.F.F.F.F.F.F.F.F.F.F.F.F.F.F.F.F.F.F.F.F.F.F.F.F.F.F.F.F.F.F.F.F.F.F.F.F.F.F.F.F.F.F.F.F.F.F."
};
