/* XPM */
static char *result[] = {
/* columns rows colors chars-per-pixel */
"64 64 189 2 ",
"   c #554D3F",
".  c #675329",
"X  c #68572A",
"o  c #6A5A2A",
"O  c #775E2B",
"+  c #655A37",
"@  c #695C36",
"#  c #645639",
"$  c #655B3B",
"%  c #695A39",
"&  c #735F39",
"*  c #6E602E",
"=  c #79642A",
"-  c #7E6B2F",
";  c #77602B",
":  c #6C613A",
">  c #7C6430",
",  c #7E6A30",
"<  c #746439",
"1  c #77693B",
"2  c #786B3A",
"3  c #454342",
"4  c #494747",
"5  c #4D4944",
"6  c #4C4B4B",
"7  c #524D41",
"8  c #504F4F",
"9  c #5A5040",
"0  c #545353",
"q  c #585757",
"w  c #575758",
"e  c #585758",
"r  c #5C5B5C",
"t  c #645D43",
"y  c #655B46",
"u  c #786A48",
"i  c #7D7249",
"p  c #6B6447",
"a  c #5F5F60",
"s  c #605F60",
"d  c #5F6061",
"f  c #636364",
"g  c #676768",
"h  c #67686A",
"j  c #6A6B6C",
"k  c #6E6F71",
"l  c #6F7072",
"z  c #717274",
"x  c #757678",
"c  c #8E6D27",
"v  c #80662F",
"b  c #826C2F",
"n  c #8E6C29",
"m  c #8F7126",
"M  c #84712E",
"N  c #907525",
"B  c #96742B",
"V  c #9A7C2C",
"C  c #947927",
"Z  c #806634",
"A  c #806A34",
"S  c #887538",
"D  c #977633",
"F  c #9B7732",
"G  c #9A7B31",
"H  c #947936",
"J  c #A57D2A",
"K  c #927F40",
"L  c #8C7D47",
"P  c #9D822E",
"I  c #9A8030",
"U  c #A68427",
"Y  c #A88A24",
"T  c #A88729",
"R  c #AE922F",
"E  c #B79621",
"W  c #B7992D",
"Q  c #A58C35",
"!  c #AC943B",
"~  c #AF9432",
"^  c #B69A34",
"/  c #B99E3A",
"(  c #B89D38",
")  c #C89E1E",
"_  c #CAA41C",
"`  c #D5A415",
"'  c #D8AB18",
"]  c #DBB219",
"[  c #FBB70F",
"{  c #FCBC0D",
"}  c #FAAF15",
"|  c #FBB412",
" . c #C49D25",
".. c #CAA623",
"X. c #CFAB27",
"o. c #CAA729",
"O. c #CCA92B",
"+. c #C0A12E",
"@. c #D1AD2A",
"#. c #DAB328",
"$. c #CCAA33",
"%. c #CCAB3B",
"&. c #C1A43A",
"*. c #D1AF34",
"=. c #D1B03C",
"-. c #DAB635",
";. c #FEC606",
":. c #FEC906",
">. c #FDC209",
",. c #FECA0B",
"<. c #FECC13",
"1. c #FECD1B",
"2. c #FECF23",
"3. c #FED027",
"4. c #FED02B",
"5. c #FED234",
"6. c #FED33B",
"7. c #948246",
"8. c #AE9745",
"9. c #B59B43",
"0. c #B59D4C",
"q. c #B89E45",
"w. c #B09C58",
"e. c #BBA147",
"r. c #B7A154",
"t. c #BAA353",
"y. c #BAA45C",
"u. c #BEA85F",
"i. c #938860",
"p. c #968F7B",
"a. c #B19E61",
"s. c #A29779",
"d. c #B9A564",
"f. c #B1A16C",
"g. c #B9A66A",
"h. c #BDA96A",
"j. c #BEA965",
"k. c #B9A770",
"l. c #BCAB73",
"z. c #B2A47C",
"x. c #BBAB7B",
"c. c #B2A375",
"v. c #CBAD42",
"b. c #CBAE4B",
"n. c #C1A74A",
"m. c #CEB14D",
"M. c #CFB147",
"N. c #D2B244",
"B. c #D7B749",
"V. c #CAAF54",
"C. c #C2AA59",
"Z. c #CDB255",
"A. c #CBB25D",
"S. c #D1B554",
"D. c #D1B55C",
"F. c #DABC58",
"G. c #C2AD69",
"H. c #CBB365",
"J. c #CCB56C",
"K. c #D1B764",
"L. c #D2BA6C",
"P. c #D7BC61",
"I. c #CBB673",
"U. c #CCB77A",
"Y. c #CDB97C",
"T. c #C3B179",
"R. c #D1BB74",
"E. c #D1BC7B",
"W. c #FED543",
"Q. c #FED64C",
"!. c #FED751",
"~. c #FED855",
"^. c #FED95C",
"/. c #DCC169",
"(. c #DAC37A",
"). c #FEDB63",
"_. c #FEDC6B",
"`. c #FEDD73",
"'. c #FEDF7A",
"]. c #FEE07E",
"[. c #B7A982",
"{. c #C2B284",
"}. c #CDBA83",
"|. c #D1BD82",
" X c #D8C487",
".X c #FEE083",
"XX c #FEE28C",
"oX c #FEE390",
"OX c None",
/* pixels */
"OXOXOXOXOXOXOXOXOXOXOXOXOXOXOXOXOXOXOXOXOXOXOXOXOXOXOXOXOXOXOXOXOXOXOXOXOXOXOXOXOXOXOXOXOXOXOXOXOXOXOXOXOXOXOXOXOXOXOXOXOXOXOXOX",
"OXOXOXOXOXOXOXOXOXOXOXOXOXOXOXOXOXOXOXOXOXOXOXOXOXOXOXOXOXOXOXOXOXOXOXOXOXOXOXOXOXOXOXOXOXOXOXOXOXOXOXOXOXOXOXOXOXOXOXOXOXOXOXOX",
"OXOXOXOXOXOXOXOXOXOXOXOXOXOXOXOXOXOXOXOXOXOXOXOXOXOXOXOXOXOXOXOXOXOXOXOXOXOXOXOXOXOXOXOXOXOXOXOXOXOXOXOXOXOXOXOXOXOXOXOXOXOXOXOX",
"OXOXOXOXOXOXOXOXOXOXOXOXOXOXOXOXOXOXOXOXOXOXOXOXOXOXOXOXOXOXOXOXOXOXOXOXOXOXOXOXOXOXOXOXOXOXOXOXOXOXOXOXOXOXOXOXOXOXOXOXOXOXOXOX",
"OXOXOXOXOXOXOXOXOXOXOXOXOXOXOXOXOXOXOXOXOXOXOXOXOXOXOXOXOXOXOXOXOXOXOXOXOXOXOXOXOXOXOXOXOXOXOXOXOXOXOXOXOXOXOXOXOXOXOXOXOXOXOXOX",
"OXOXOXOXOXOXOXOXOXOXOXOXOXOXOXOXOXOXOXOXOXOXOXOXOXOXOXOXOXOXOXOXOXOXOXOXOXOXOXOXOXOXOXOXOXOXOXOXOXOXOXOXOXOXOXOXOXOXOXOXOXOXOXOX",
"OXOXOXOX X|.E.R.R.L.L.K.D.Z.S.B.N.N.=.*.*.@.@.7.j l l [. X}.E.R.R.L.K.K.D.Z.S.B.N.N.=.*.*.@.X.i f h g {. XE.R.L.K.D.S.OXOXOXOXOX",
"OXOXOX|.oXXX.X].`._.).^.^.!.W.W.6.5.4.3.3.<.<.P j x x {.XXXX].].`._.).^.~.Q.Q.6.5.5.4.3.1.<.,.i g j h  X.X'.`.).).~.Q.p OXOXOXOX",
"OXOXOXI..X'.`._.).).^.!.Q.W.6.5.4.3.2.1.,.,.:.I g x z T..X].`._.).^.~.!.W.W.6.5.4.3.1.<.,.,.:.2 f j g (.`._.).^.Q.W.6.$ OXOXOXOX",
"OXOXOXI.'.`._.).^.~.W.W.6.6.4.4.2.1.<.,.:.:.;.P f z z T.`.`.).).^.!.!.W.6.5.5.4.1.1.<.,.,.:.;.2 s j g /.).^.Q.W.6.5.4.$ OXOXOXOX",
"OXOXOXH._.).^.^.Q.W.W.6.5.4.3.1.<.,.:.;.:.:.;.I f z z G._.).^.~.!.W.6.6.4.4.2.1.<.,.,.;.;.;.;.2 s h g F.!.W.W.5.4.2.<.+ OXOXOXOX",
"OXOXOXA.).~.~.W.W.6.5.4.2.1.<.<.:.:.;.;.>.>.>.I g z z G.^.~.!.W.6.6.4.4.3.1.<.,.:.:.:.;.;.>.>.< s j f F.W.6.4.2.1.<.,.+ OXOXOXOX",
"OXOXOXV.~.Q.W.6.5.4.3.1.1.<.,.:.,.:.;.>.>.>.>.I f z l G.!.W.W.6.6.4.3.1.1.,.,.:.:.;.;.;.>.>.>.< r h f B.5.2.1.<.,.;.;.+ OXOXOXOX",
"OXOXOXb.W.6.6.4.4.3.1.<.,.:.:.:.>.>.;.;.>.{ { G d l k C.W.6.6.5.3.2.<.<.,.,.:.;.;.;.>.>.>.{ { < s g g #.2.<.,.,.;.;.;.+ OXOXOXOX",
"OXOXOXv.6.5.4.3.1.<.,.,.:.;.;.;.>.>.{ >.{ { { G f l j n.5.5.4.2.1.<.,.:.:.;.;.;.>.>.>.{ { { { < s g f #.,.,.;.;.;.>.>.+ OXOXOXOX",
"OXOXOX%.4.2.1.1.,.,.:.;.;.;.>.>.>.>.{ { { { { V d l k n.4.2.1.<.,.,.:.:.;.;.>.>.>.{ { { { { | < r g f ] :.;.;.>.>.{ { + OXOXOXOX",
"OXOXOX$.2.1.<.,.:.:.;.;.;.>.>.>.{ { { { [ [ [ G s k k &.3.<.<.,.:.;.;.;.;.>.>.{ { { { { [ [ | < r f f ] ;.>.>.>.{ { { # OXOXOXOX",
"OXOXOXo.<.,.:.:.;.;.;.>.>.{ { { { { [ [ [ | | H s k j +.<.,.:.:.;.;.;.>.>.>.{ { { { | { | [ } < r f f ' >.{ { { { [ [ # OXOXOXOX",
"OXOXOX..:.;.;.;.;.>.>.>.>.{ { { { [ [ | | | | D s k h +.,.:.:.;.;.>.>.>.{ { { [ { [ [ | | } } & r f s ' { { { [ [ [ | # OXOXOXOX",
"OXOXOX_ :.;.;.;.>.>.{ >.{ { { [ | [ | | | } } D s j j +.:.:.;.>.>.>.{ >.{ { { { [ | | | | } } & e s s ' { [ [ [ | } } # OXOXOXOX",
"OXOXOXK Q P P T P P V G G V V G V F F F D D F u f j j 7.P P V P V V V V V V C V B B B B B B D y s s s H V B B B B B B 9 OXOXOXOX",
"OXOXOXh h f g d d f f f f f f a d a a a s a a s g k j g a r e r r w r w w w w w w w w w w 0 0 e s f s r 0 0 0 8 8 8 0 6 OXOXOXOX",
"OXOXOXk x z z z z z z l z k k k l j k j k j j j j j j j h h g g g g f g f g f f f f f f f s d d f s s s s s s s a r r 0 OXOXOXOX",
"OXOXOXk z l l l k k k k l l z l l j j j j j j j j j h h g g g g g g f g g g g g f f f d f d d a s s s s r r r r r r r 0 OXOXOXOX",
"OXOXOXs.{.[.T.h.h.j.j.i.h k k p.[.x.x.l.h.h.h.j.u.y.t.t.t.e.e.e./ ( ^ i f f f s.x.x.k.k.g.g.d.d.y.y.r.r.0.q.9./ ( ~ W 9 OXOXOXOX",
"OXOXOXY..X.X`._.).~.Q.8.f k j z.XXXX].].`.`.).^.~.!.W.6.5.5.4.1.1.<.,.S r f f }.XX.X'.'._._.).~.!.W.W.6.5.4.3.3.1.<.,.: OXOXOXOX",
"OXOXOXI.`._.).^.!.W.6.! a j j c.].].].).).^.!.!.Q.6.6.5.4.2.1.<.,.:.:.M r f s I..X].`._.).^.~.Q.W.W.6.4.4.3.1.<.,.,.:.+ OXOXOXOX",
"OXOXOXH.).^.!.W.W.5.3.Q r j j f.].`.).^.~.!.Q.W.6.6.4.3.2.<.<.,.,.:.:.M 0 f d J.`._.).).~.!.Q.W.6.5.4.3.1.<.,.:.:.;.;.+ OXOXOXOX",
"OXOXOXV.~.Q.W.5.4.2.<.R r h j f.).^.^.!.Q.W.6.6.4.4.3.<.<.,.:.:.;.;.;.b w f r H.).).^.~.W.W.6.5.4.2.2.<.<.,.:.;.;.;.>.+ OXOXOXOX",
"OXOXOXb.W.6.5.2.1.<.,.Y r h j a.^.~.!.W.6.6.4.3.3.1.<.,.:.:.;.;.>.;.>.M 0 f r H.^.~.W.W.W.5.5.3.2.1.<.,.:.:.;.;.;.>.>.+ OXOXOXOX",
"OXOXOXv.5.3.1.<.,.;.;.Y r h h w.!.Q.W.6.5.4.3.2.<.,.,.:.:.;.;.>.>.>.>.b 0 a r Z.!.W.6.6.5.4.3.1.<.,.,.:.;.;.;.>.>.{ >.+ OXOXOXOX",
"OXOXOX$.2.<.,.,.;.;.>.Y w h h w.W.6.5.4.3.2.<.<.,.:.:.:.;.>.>.>.>.{ { A 0 f r b.W.6.5.4.3.1.<.<.,.:.;.;.;.>.>.>.>.{ >.$ OXOXOXOX",
"OXOXOXo.,.,.:.;.>.>.>.U w g g 0.5.5.2.2.1.<.,.,.:.;.;.;.>.>.{ { { { { A 0 s r v.5.4.4.1.1.<.,.:.:.;.;.>.>.>.{ { >.{ { + OXOXOXOX",
"OXOXOX_ :.;.>.;.>.{ { U w g g 9.3.2.1.<.,.:.:.;.;.;.>.>.>.>.{ { { { { v 0 r r %.4.3.1.<.,.:.:.;.;.;.>.>.>.{ { { { { | # OXOXOXOX",
"OXOXOX_ ;.>.;.{ { { { U w g g ! 2.<.<.,.:.:.;.;.>.>.>.{ { { { { | [ | v 0 r r $.1.<.,.,.:.:.;.;.>.>.{ >.{ { { [ | { | # OXOXOXOX",
"OXOXOX_ >.>.{ { [ { | J 0 g g ! <.,.:.:.;.;.>.>.>.{ { { { { { [ | | | v 8 r e o.,.,.:.;.;.;.>.>.>.>.{ { { { [ { | | | # OXOXOXOX",
"OXOXOX .>.{ [ { [ | | J w g f ~ :.:.;.;.;.>.>.>.{ { { { { [ | | | | } v 0 r e ..:.:.:.;.>.;.>.{ { { { [ { | | | | | | # OXOXOXOX",
"OXOXOX) [ [ [ | | | | J 0 f f R ;.;.>.;.>.{ >.{ { { { { | | | | } } } Z 8 r 0 _ :.:.;.>.>.>.{ { { { { { [ | | | } } } # OXOXOXOX",
"OXOXOXL S A A Z Z Z 1 y r f f u S A , , , , , , > > - > > > > > = > > 9 0 e e 1 - = = = = = = = = ; ; ; O O O O O O O 5 OXOXOXOX",
"OXOXOXr s r r r r e e s d g f s e 0 r 0 0 w 0 w 0 0 0 8 0 8 0 8 8 8 8 0 e r r 0 8 8 6 8 6 5 6 6 6 6 4 6 4 6 4 4 4 4 6 6 OXOXOXOX",
"OXOXOXf g g g f g f f f f f f f f s s s s s s s r s s r s r r r r r e e r e r r q q q 0 0 0 q 0 0 8 0 0 0 8 8 8 8 8 8 0 OXOXOXOX",
"OXOXOXd g f f f d f d f s a f r r s s r s r r r s r r r r q q r e w q w 0 q 0 0 0 0 0 0 0 0 8 0 0 0 0 8 8 8 8 8 6 6 6 0 OXOXOXOX",
"OXOXOX[.|.|.Y.R.L.L.K.H.D.Z.S.m.M.N.%.$.$.O.X.S q r r s.}.Y.U.I.J.H.H.A.A.Z.m.b.v.%.$.$.O.o.o.: 8 0 8 z.U.I.J.H.H.V.V.y OXOXOXOX",
"OXOXOXY.XXXX'.`.`._.).^.!.Q.W.W.6.4.3.3.1.<.:.I 8 r q x.XX.X'.`.`._.^.^.~.W.W.6.5.4.4.1.1.<.,.* 8 8 8 E..X'._.).^.Q.W.t OXOXOXOX",
"OXOXOXU..X'.`._.).^.~.!.W.W.5.5.3.3.1.<.,.:.:.C 6 r e k.].'.`._.).^.~.!.W.W.5.5.4.3.1.<.,.:.:.o 4 8 8 L.`.).^.~.Q.6.6.$ OXOXOXOX",
"OXOXOXH.`._._.^.~.!.W.W.6.5.4.3.1.1.,.:.,.:.:.N 6 r e g.`._.).^.~.Q.W.6.5.5.4.2.1.<.,.,.:.:.;.o 4 8 8 F.^.~.Q.W.6.4.3.$ OXOXOXOX",
"OXOXOXH._.^.^.!.Q.W.6.5.4.4.1.1.<.,.:.;.;.;.;.N 6 r e y.).^.^.!.W.W.6.5.4.2.2.<.<.:.:.:.;.;.>.o 4 8 6 S.Q.W.6.5.3.1.<.+ OXOXOXOX",
"OXOXOXA.^.~.Q.W.6.6.4.4.2.1.<.,.:.:.;.;.;.;.>.N 6 r 0 y.^.~.W.W.W.5.5.3.2.1.<.,.:.:.;.;.;.>.>.X 3 8 7 B.6.5.4.1.<.,.,.+ OXOXOXOX",
"OXOXOXV.!.W.W.6.5.4.3.1.<.,.:.:.:.;.;.>.>.{ { N 6 0 e t.Q.W.W.6.5.4.2.1.<.,.:.:.:.;.;.>.>.>.{ X 4 6 6 -.4.2.1.,.,.;.;.+ OXOXOXOX",
"OXOXOXb.W.6.5.4.3.1.1.,.,.:.:.;.;.>.>.>.{ >.{ m 6 w 0 e.W.6.5.4.2.1.<.,.,.:.:.;.;.>.>.>.{ { { X 3 6 6 @.1.<.;.:.;.;.>.+ OXOXOXOX",
"OXOXOXv.5.4.3.3.<.<.,.:.;.;.;.;.>.>.>.{ { { { m 6 q 0 9.5.4.3.1.<.<.,.:.;.;.;.>.>.>.{ { { { { . 3 6 4 ' ,.:.;.;.>.>.>.+ OXOXOXOX",
"OXOXOX%.3.2.1.<.,.,.:.:.;.;.>.>.>.{ { { { { | m 4 0 0 ( 2.2.1.<.,.:.:.;.;.;.>.>.>.{ { { { { [ . 3 6 4 ' ;.;.;.>.{ { { + OXOXOXOX",
"OXOXOX$.1.<.,.:.:.;.;.;.>.;.>.{ { { { { [ [ | c 4 0 0 ^ 1.<.,.,.:.;.;.>.;.>.{ >.{ { { [ [ [ | .   3 4 ` >.>.>.{ { { [ # OXOXOXOX",
"OXOXOXo.<.,.:.;.;.;.>.>.>.{ { { { { [ | [ | | n 6 0 0 E ,.:.:.;.;.;.;.>.>.{ { { { { { | | [ | . 3 4 4 ` >.{ { { { [ | # OXOXOXOX",
"OXOXOX_ :.:.;.;.;.>.>.>.{ { { { { | | | | | | n 4 0 8 E :.;.;.;.>.;.>.{ { { { { [ | | | [ } } . 3 3 3 ` { { [ [ | | | # OXOXOXOX",
"OXOXOX_ ;.;.;.>.>.>.{ { { { { { [ | | | } } } n 4 0 0 E :.;.;.>.>.>.{ { { { [ [ [ | | | } } } . 3 3 3 ` { [ [ | | } } # OXOXOXOX",
"OXOXOXOX< : @ @ @ @ @ @ @ @ @ % @ @ % % % % %   6 0 0 t : @ @ @ @ @ @ @ @ @ @ @ % % % % % % % 5 6 0 0 $ % % % % % % % 7 OXOXOXOX",
"OXOXOXOXOXOXOXOXOXOXOXOXOXOXOXOXOXOXOXOXOXOXOXOXOXOXOXOXOXOXOXOXOXOXOXOXOXOXOXOXOXOXOXOXOXOXOXOXOXOXOXOXOXOXOXOXOXOXOXOXOXOXOXOX",
"OXOXOXOXOXOXOXOXOXOXOXOXOXOXOXOXOXOXOXOXOXOXOXOXOXOXOXOXOXOXOXOXOXOXOXOXOXOXOXOXOXOXOXOXOXOXOXOXOXOXOXOXOXOXOXOXOXOXOXOXOXOXOXOX",
"OXOXOXOXOXOXOXOXOXOXOXOXOXOXOXOXOXOXOXOXOXOXOXOXOXOXOXOXOXOXOXOXOXOXOXOXOXOXOXOXOXOXOXOXOXOXOXOXOXOXOXOXOXOXOXOXOXOXOXOXOXOXOXOX",
"OXOXOXOXOXOXOXOXOXOXOXOXOXOXOXOXOXOXOXOXOXOXOXOXOXOXOXOXOXOXOXOXOXOXOXOXOXOXOXOXOXOXOXOXOXOXOXOXOXOXOXOXOXOXOXOXOXOXOXOXOXOXOXOX",
"OXOXOXOXOXOXOXOXOXOXOXOXOXOXOXOXOXOXOXOXOXOXOXOXOXOXOXOXOXOXOXOXOXOXOXOXOXOXOXOXOXOXOXOXOXOXOXOXOXOXOXOXOXOXOXOXOXOXOXOXOXOXOXOX",
"OXOXOXOXOXOXOXOXOXOXOXOXOXOXOXOXOXOXOXOXOXOXOXOXOXOXOXOXOXOXOXOXOXOXOXOXOXOXOXOXOXOXOXOXOXOXOXOXOXOXOXOXOXOXOXOXOXOXOXOXOXOXOXOX",
"OXOXOXOXOXOXOXOXOXOXOXOXOXOXOXOXOXOXOXOXOXOXOXOXOXOXOXOXOXOXOXOXOXOXOXOXOXOXOXOXOXOXOXOXOXOXOXOXOXOXOXOXOXOXOXOXOXOXOXOXOXOXOXOX"
};
