/* XPM */
static char *result[] = {
/* columns rows colors chars-per-pixel */
"64 64 114 2 ",
"   c #454342",
".  c #494747",
"X  c #4A4847",
"o  c #474A4C",
"O  c #4C4B4B",
"+  c #504F4F",
"@  c #474D51",
"#  c #494E53",
"$  c #434F59",
"%  c #45515B",
"&  c #4C555D",
"*  c #545353",
"=  c #585757",
"-  c #565759",
";  c #585758",
":  c #52595E",
">  c #5C5B5C",
",  c #4C5660",
"<  c #4D5961",
"1  c #4D5D69",
"2  c #525B62",
"3  c #5F5F60",
"4  c #515E6A",
"5  c #605F60",
"6  c #4F606C",
"7  c #5F6061",
"8  c #53616D",
"9  c #5A656E",
"0  c #546472",
"q  c #576874",
"w  c #5C6A76",
"e  c #536A7B",
"r  c #5B6E7D",
"t  c #636364",
"y  c #676768",
"u  c #65686B",
"i  c #6A6B6C",
"p  c #636C75",
"a  c #6E6F71",
"s  c #6F7072",
"d  c #63707B",
"f  c #717274",
"g  c #757678",
"h  c #566F81",
"j  c #577083",
"k  c #5B7385",
"l  c #5E7689",
"z  c #5D798E",
"x  c #617585",
"c  c #697681",
"v  c #6A7A86",
"b  c #617789",
"n  c #64798A",
"m  c #737F8A",
"M  c #647D91",
"N  c #7D868F",
"B  c #6C8193",
"V  c #6D879C",
"C  c #6E889D",
"Z  c #7D8994",
"A  c #718799",
"S  c #738A9D",
"D  c #7A8D9E",
"F  c #6E8FAA",
"G  c #768EA1",
"H  c #788FA1",
"J  c #7691A7",
"K  c #7C92A4",
"L  c #7493AC",
"P  c #7A96AD",
"I  c #7D99AF",
"U  c #6D94B1",
"Y  c #7196B3",
"T  c #7499B5",
"R  c #7D9AB2",
"E  c #769BB9",
"W  c #7B9EBA",
"Q  c #7FA1BC",
"!  c #6FA5CD",
"~  c #72A7CE",
"^  c #75A9CF",
"/  c #77AAD0",
"(  c #7CACD1",
")  c #808E99",
"_  c #8394A4",
"`  c #8698A7",
"'  c #8196A9",
"]  c #8599AB",
"[  c #8A9CAC",
"{  c #839DB3",
"}  c #8A9FB2",
"|  c #809FB8",
" . c #8EA0AF",
".. c #86A1B6",
"X. c #8BA2B5",
"o. c #85A2BB",
"O. c #8CA5BA",
"+. c #90A3B3",
"@. c #91A6BA",
"#. c #92A9BC",
"$. c #8DA9C1",
"%. c #93ACC2",
"&. c #98B0C5",
"*. c #81AFD3",
"=. c #85B1D4",
"-. c #8BB5D6",
";. c #8FB7D8",
":. c #90B7D8",
">. c #93BAD9",
",. c #9ABEDB",
"<. c #9EC0DD",
"1. c #A2C2DE",
"2. c #A7C5E0",
"3. c None",
/* pixels */
"3.3.3.3.3.3.3.3.3.3.3.3.3.3.3.3.3.3.3.3.3.3.3.3.3.3.3.3.3.3.3.3.3.3.3.3.3.3.3.3.3.3.3.3.3.3.3.3.3.3.3.3.3.3.3.3.3.3.3.3.3.3.3.3.",
"3.3.3.3.3.3.3.3.3.3.3.3.3.3.3.3.3.3.3.3.3.3.3.3.3.3.3.3.3.3.3.3.3.3.3.3.3.3.3.3.3.3.3.3.3.3.3.3.3.3.3.3.3.3.3.3.3.3.3.3.3.3.3.3.",
"3.3.3.3.3.3.3.3.3.3.3.3.3.3.3.3.3.3.3.3.3.3.3.3.3.3.3.3.3.3.3.3.3.3.3.3.3.3.3.3.3.3.3.3.3.3.3.3.3.3.3.3.3.3.3.3.3.3.3.3.3.3.3.3.",
"3.3.3.3.3.3.3.3.3.3.3.3.3.3.3.3.3.3.3.3.3.3.3.3.3.3.3.3.3.3.3.3.3.3.3.3.3.3.3.3.3.3.3.3.3.3.3.3.3.3.3.3.3.3.3.3.3.3.3.3.3.3.3.3.",
"3.3.3.3.3.3.3.3.3.3.3.3.3.3.3.3.3.3.3.3.3.3.3.3.3.3.3.3.3.3.3.3.3.3.3.3.3.3.3.3.3.3.3.3.3.3.3.3.3.3.3.3.3.3.3.3.3.3.3.3.3.3.3.3.",
"3.3.3.3.3.3.3.3.3.3.3.3.3.3.3.3.3.3.3.3.3.3.3.3.3.3.3.3.3.3.3.3.3.3.3.3.3.3.3.3.3.3.3.3.3.3.3.3.3.3.3.3.3.3.3.3.3.3.3.3.3.3.3.3.",
"3.3.3.3.%.#.@.@.O.O.O.........{ | | | R R R R v i f a _ #.#.@.@.O.O...X.......{ R | R R R R R p t y y  .#.@.O.O.O.....3.3.3.3.3.",
"3.3.3.#.1.2.1.1.<.<.<.,.,.,.>.>.>.:.-.-.-.-.-.B i g g +.2.1.1.1.<.<.<.<.>.,.>.>.>.>.;.-.-.-.=.p u i y &.1.1.1.,.,.,.,.2 3.3.3.3.",
"3.3.3.X.1.1.1.<.,.,.,.,.>.>.>.:.;.-.-.-.=.=.=.v y f f X.1.1.1.<.<.<.,.>.>.>.:.:.;.-.-.-.=.=.=.9 t i y %.1.<.,.,.>.>.:.: 3.3.3.3.",
"3.3.3.X.1.<.<.<.,.,.>.>.>.:.;.;.;.-.=.-.=.=.=.n t f f } 1.<.,.,.,.>.>.>.:.;.:.;.-.-.-.=.=.=.=.8 7 i y $.<.,.>.>.>.:.;.: 3.3.3.3.",
"3.3.3...<.,.<.>.,.>.>.:.;.;.;.-.-.=.=.=.=.*.*.n y g f [ ,.,.,.,.>.>.>.>.;.;.;.-.=.=.=.=.=.=.=.8 7 i y $.>.>.:.:.;.-.-.& 3.3.3.3.",
"3.3.3.[ ,.,.,.>.>.:.:.;.-.-.-.=.=.=.=.=.*.*.( x t f f [ ,.,.,.>.>.;.>.;.-.;.=.=.=.=.=.*.=.( ( 7 7 y y O.>.:.;.;.-.=.=.& 3.3.3.3.",
"3.3.3.{ ,.>.>.>.:.-.;.-.-.-.=.=.=.=.*.*.( ( ( n t f s ] ,.>.>.:.>.;.-.-.-.=.=.=.=.=.=.( *.( ( 8 7 y t o.;.;.-.=.=.=.=.& 3.3.3.3.",
"3.3.3.{ >.>.:.:.-.-.-.-.=.=.=.*.*.*.( ( ( ( ( x t s s ] >.:.:.:.;.-.-.-.=.=.=.=.=.( ( ( ( ( / 8 > y t o.-.-.=.=.=.*.*.& 3.3.3.3.",
"3.3.3.I :.:.-.;.-.-.=.=.=.=.*.*.=.( ( ( ( ( / x t f a I :.;.;.;.-.=.-.=.=.=.*.=.( =.( ( ( ( ^ 8 7 y t Q =.=.=.*.*.( ( & 3.3.3.3.",
"3.3.3.I -.;.-.=.-.=.=.=.=.*.*.( ( ( ( ( / ( ^ k 3 f i P -.-.-.-.=.=.=.*.=.*.( ( ( ( ( ( ( / ^ 8 > y 7 Q =.*.*.=.( ( ( & 3.3.3.3.",
"3.3.3.P -.-.=.=.=.=.( =.( ( ( ( ( ( / / ^ ^ ^ k 7 a a P ;.-.-.=.=.=.*.*.*.*.( ( ( ( / / / ^ ^ 4 > t t Q =.*.( ( ( / / & 3.3.3.3.",
"3.3.3.P -.=.=.=.=.=.=.( ( ( ( ( ( / / ^ ^ ^ ^ k 3 a i J -.=.=.=.*.*.*.*.( ( ( ( / / / ^ ^ ~ ~ 4 > t 7 E ( ( ( / / / / % 3.3.3.3.",
"3.3.3.P =.=.=.=.( =.( ( ( ( ( ( / ^ ^ ^ ^ ^ ! k 3 a i J =.=.=.*.*.*.*.( ( ( ( / / / ^ ^ ~ ~ ~ 4 > t 7 T ( / / ^ / ^ ^ & 3.3.3.3.",
"3.3.3.L =.*.=.( =.( ( ( ( ( / / / / ^ ~ ! ! ~ j 7 a i K *.*.*.( *.( ( ( ( / / / ^ ^ ~ ~ ~ ~ ! 4 - t 7 T ( ^ ^ ^ ^ ~ ~ % 3.3.3.3.",
"3.3.3.v B n n n n n l n l x x x z k k k k k k 8 t a i c n n x x k k x k k k k k j j j j j h j & > t > x k j r j e h h # 3.3.3.3.",
"3.3.3.u i t t t 7 t t 7 t 7 t 5 7 7 7 7 3 > 7 7 y i i y 3 > > > = > > = = = = = = = = = * * * > 7 t t > * * * + * * + O 3.3.3.3.",
"3.3.3.a f g f f s s s s s s a a a i a i a i i i i a i i u y y y y y y y y t y y t t t t t t 7 t t t t t 5 5 5 5 > > 5 * 3.3.3.3.",
"3.3.3.a f s f s s a s s s s a i s i i i i i i i i y i y y y u u y t y t y t y t t 5 t 7 t > t 7 > 7 > > > > > > > > > * 3.3.3.3.",
"3.3.3.)  .[ [ ] ] ] ] N i a a ) [ [ [ ] ] ] ` ] ` ] K K K K K K K J J i 7 t t Z ` ` ` ` _ _ K _ K _ K H H G G S G G S > 3.3.3.3.",
"3.3.3.O.1.1.1.<.<.>.>.A t i i ` 2.1.1.1.<.<.<.>.>.>.>.>.;.;.-.-.-.=.=.d > t t #.1.1.1.1.<.<.<.,.,.>.>.:.:.;.;.-.-.=.-.2 3.3.3.3.",
"3.3.3.X.1.<.<.,.>.>.:.B > i i _ 1.<.1.<.<.,.,.>.>.>.>.>.;.-.-.-.=.=.=.q = t 7 X.1.1.1.<.<.,.,.>.>.:.;.;.;.-.-.-.=.=.=.& 3.3.3.3.",
"3.3.3.} <.,.>.>.>.:.;.B > i i _ <.<.<.<.,.,.>.>.>.;.;.-.-.-.=.=.=.=.=.q = t 5 X.1.<.,.,.,.>.>.>.>.:.;.-.-.-.-.=.=.=.*.& 3.3.3.3.",
"3.3.3.{ ,.>.:.:.;.-.-.B : i i K <.<.<.>.>.>.>.;.;.;.-.-.-.=.=.*.=.*.( q * t > ..,.,.,.,.>.>.:.;.:.;.-.-.-.=.=.*.=.*.*.& 3.3.3.3.",
"3.3.3.{ >.:.;.;.-.-.( B > i i K ,.>.>.>.>.>.;.;.-.-.-.=.=.=.=.=.*.*.( q = t > } ,.,.>.>.>.:.;.-.-.-.-.*.=.=.=.*.*.*.( & 3.3.3.3.",
"3.3.3.R ;.;.-.=.=.=.*.B - i y D >.>.>.>.>.;.-.-.-.=.=.=.=.=.=.=.( ( ( q * 5 > { ,.>.:.;.:.:.-.-.-.-.*.=.=.*.=.*.( ( ( & 3.3.3.3.",
"3.3.3.P -.-.=.=.=.*.=.n - i y D >.>.>.;.;.-.-.=.=.=.=.=.( ( ( ( ( ( ( q * 3 > { >.:.:.;.;.;.-.-.*.=.=.*.*.*.( ( ( ( ( & 3.3.3.3.",
"3.3.3.R -.=.=.*.*.( ( M ; y y D >.-.-.-.-.=.=.=.*.=.=.*.*.( ( ( ( ( / 0 * 3 > I :.:.-.-.-.=.-.*.=.*.*.*.( *.( ( ( / / & 3.3.3.3.",
"3.3.3.L *.*.*.*.( ( ( z = y y S -.-.-.-.=.=.=.=.*.=.( ( ( ( ( / ( ( ~ 0 * 3 ; I -.-.-.-.-.*.=.*.*.*.*.*.( ( ( ( ( ^ ^ & 3.3.3.3.",
"3.3.3.L *.*.( ( ( ( ^ M = y y S -.-.=.=.=.=.=.=.*.( ( ( ( ( ^ ( ^ / ~ 0 * > > R -.-.*.-.*.=.*.*.*.( ( ( ( ^ / ( ^ ^ ~ & 3.3.3.3.",
"3.3.3.F *.( ( ( ( ^ ^ z * y y A -.=.=.=.=.=.( =.*.( ( ( ( / ^ ^ ~ ^ ~ 0 + > ; L -.*.-.=.*.*.*.*.( ( ( ( ( ( ^ ^ ~ ^ ~ & 3.3.3.3.",
"3.3.3.L ( ( / ^ ^ ^ ~ z * y t A =.=.=.*.=.( ( ( ( ( ( / / ^ ^ ^ ~ ~ ! 0 + > ; L =.*.*.*.*.*.*.( ( ( ( ^ / ^ ^ ^ / ~ ! & 3.3.3.3.",
"3.3.3.F ^ ( ^ ^ ~ ~ ! z * y t A =.*.*.( ( ( ( ( / / / / ^ ^ ~ ^ ~ ! ! 8 * > ; L *.*.*.*.( ( ( ( ( ( ^ ^ ^ ^ ~ ~ ! ! ! & 3.3.3.3.",
"3.3.3.w r 0 0 0 0 0 0 < ; u t u w q q q 0 8 0 0 8 8 8 8 8 6 1 8 1 1 4 # * ; ; 9 9 4 4 4 4 4 4 4 1 1 1 1 < < 1 < 1 < 1 o 3.3.3.3.",
"3.3.3.5 3 ; 3 3 ; > ; > 5 y t 5 > ; * * - * * * * * * * * + * + + * * * ; > ; * + + # O O O O O o O o X O o o .   o X O 3.3.3.3.",
"3.3.3.t y y y t y y t y t 5 y 5 5 t t 5 5 5 5 5 > 5 > > > > > > > > ; > > ; ; ; = = = * * * * * * * * * + * + + # + + * 3.3.3.3.",
"3.3.3.t y t t t 5 5 5 5 5 5 5 5 5 > > > > > > > 7 > 5 > = > = = = = = * * * * = * * * * * * * + * * * + + O + O O O O + 3.3.3.3.",
"3.3.3._ #.#.@.+.@.O.O.....} | { | { { R R I I d - > > Z #.@.@.X.O...{ } { { { | { R ' I P Y R 2 + + + _ X.X...} } } R > 3.3.3.3.",
"3.3.3.X.1.1.1.1.<.,.,.,.,.>.>.>.:.:.-.-.-.-.*.x * > ; ] 1.1.1.1.,.<.,.,.,.,.>.>.-.:.-.-.-.-.=.< X * + #.1.1.<.<.,.>.>.2 3.3.3.3.",
"3.3.3.X.1.1.1.,.,.,.,.,.>.>.:.-.:.-.-.-.=.-.*.k + > ; _ 1.<.<.<.,.,.,.>.>.>.>.-.-.-.-.=.=.=.=., X + O @.<.<.>.<.>.>.;.: 3.3.3.3.",
"3.3.3.} 1.1.,.,.,.,.>.>.>.:.:.-.-.-.*.-.*.*.*.r O > ; _ 1.<.<.<.,.,.>.>.:.:.-.-.-.-.-.=.=.=.( , X + O O.,.<.>.>.>.-.-.: 3.3.3.3.",
"3.3.3.} ,.,.,.,.>.>.>.:.:.-.-.-.=.=.=.*.*.*.*.r + ; = _ <.,.<.>.>.>.:.>.:.-.-.-.-.=.=.=.*.=.*.& X + O o.>.>.>.;.-.-.-.& 3.3.3.3.",
"3.3.3.[ ,.,.,.>.>.:.:.-.-.-.-.-.=.=.*.*.*.*.( r O = * K ,.>.>.>.>.:.:.-.-.-.-.=.=.*.=.*.*.( ( &   O O o.:.;.;.-.-.=.=.& 3.3.3.3.",
"3.3.3.{ ,.>.>.:.:.;.-.-.=.-.=.=.=.( =.=.( ( ( e O ; = K >.>.>.:.-.;.-.-.-.=.=.=.( =.=.( ( ( ( % . O O ..;.-.=.=.=.=.=.& 3.3.3.3.",
"3.3.3.R :.:.:.;.;.-.-.-.=.=.=.=.=.=.( ( ( ( ( e O = * H >.:.:.;.-.-.=.-.=.=.=.=.=.=.( ( ( ( ( &   O X R -.-.=.=.=.*.*.& 3.3.3.3.",
"3.3.3.I ;.;.;.-.-.=.=.=.=.=.( ( ( ( ( ( ( ( ( e O = * G ;.;.;.;.-.-.=.=.=.( =.( ( ( ( ( ( / ^ %   O X E -.=.*.*.( ( ( & 3.3.3.3.",
"3.3.3.I ;.-.-.-.=.=.=.=.*.*.=.( ( ( ( ( ^ ^ ^ e X * * S -.-.-.=.=.=.=.=.=.( =.( ( ( ( ^ ( ^ ^ %   X X E *.*.*.( ( ( ( & 3.3.3.3.",
"3.3.3.P -.-.=.=.=.=.=.*.( *.( ( ( ( ^ ( ^ ^ ~ e O * * S -.=.=.=.=.=.=.( ( ( ( ( ( ( ^ ^ ^ ^ ^ %   X . T ( *.( ( ( ^ ^ & 3.3.3.3.",
"3.3.3.P =.=.=.=.*.=.( *.( ( ( ( / / ^ ^ ^ ^ ~ e X * * S =.=.=.=.=.( =.( ( ( ( ( ( ( ^ ^ ^ ^ ! %   X . Y ( ( ( / / ^ ^ & 3.3.3.3.",
"3.3.3.P =.=.=.=.( *.*.( ( ( ( ^ ^ ^ ^ ^ ~ ~ ! e X * + V =.=.*.=.( =.( ( ( ( ( ^ ^ ^ ^ ^ ^ ! ! $   .   L ( ( ^ ^ ^ ~ ~ & 3.3.3.3.",
"3.3.3.L =.*.*.( ( ( ( / ( / / ^ ^ ^ ! ^ ~ ! ! e X * + V =.=.( *.( ( ( ( ( ^ ^ ^ ^ ^ ^ ^ ~ ! ! %   .   U ( ^ ^ ^ ~ ~ ! & 3.3.3.3.",
"3.3.3.3.8 2 < < : : < < : < < : < < < , , , & @ X * * : 2 2 < < 2 < < < < < : , < < < , , , & o X * O 2 : < < < , , < o 3.3.3.3.",
"3.3.3.3.3.3.3.3.3.3.3.3.3.3.3.3.3.3.3.3.3.3.3.3.3.3.3.3.3.3.3.3.3.3.3.3.3.3.3.3.3.3.3.3.3.3.3.3.3.3.3.3.3.3.3.3.3.3.3.3.3.3.3.3.",
"3.3.3.3.3.3.3.3.3.3.3.3.3.3.3.3.3.3.3.3.3.3.3.3.3.3.3.3.3.3.3.3.3.3.3.3.3.3.3.3.3.3.3.3.3.3.3.3.3.3.3.3.3.3.3.3.3.3.3.3.3.3.3.3.",
"3.3.3.3.3.3.3.3.3.3.3.3.3.3.3.3.3.3.3.3.3.3.3.3.3.3.3.3.3.3.3.3.3.3.3.3.3.3.3.3.3.3.3.3.3.3.3.3.3.3.3.3.3.3.3.3.3.3.3.3.3.3.3.3.",
"3.3.3.3.3.3.3.3.3.3.3.3.3.3.3.3.3.3.3.3.3.3.3.3.3.3.3.3.3.3.3.3.3.3.3.3.3.3.3.3.3.3.3.3.3.3.3.3.3.3.3.3.3.3.3.3.3.3.3.3.3.3.3.3.",
"3.3.3.3.3.3.3.3.3.3.3.3.3.3.3.3.3.3.3.3.3.3.3.3.3.3.3.3.3.3.3.3.3.3.3.3.3.3.3.3.3.3.3.3.3.3.3.3.3.3.3.3.3.3.3.3.3.3.3.3.3.3.3.3.",
"3.3.3.3.3.3.3.3.3.3.3.3.3.3.3.3.3.3.3.3.3.3.3.3.3.3.3.3.3.3.3.3.3.3.3.3.3.3.3.3.3.3.3.3.3.3.3.3.3.3.3.3.3.3.3.3.3.3.3.3.3.3.3.3.",
"3.3.3.3.3.3.3.3.3.3.3.3.3.3.3.3.3.3.3.3.3.3.3.3.3.3.3.3.3.3.3.3.3.3.3.3.3.3.3.3.3.3.3.3.3.3.3.3.3.3.3.3.3.3.3.3.3.3.3.3.3.3.3.3."
};
