/* XPM */
static char *result[] = {
/* columns rows colors chars-per-pixel */
"64 64 131 2 ",
"   c #010101",
".  c #0C0303",
"X  c #0B0A07",
"o  c #04040C",
"O  c #0C0C0B",
"+  c #150505",
"@  c #100E07",
"#  c #110F0C",
"$  c #021A02",
"%  c #14130D",
"&  c #18160E",
"*  c #1E1B0E",
"=  c #0E0E12",
"-  c #04041A",
";  c #141313",
":  c #1B1A15",
">  c #1C1C1C",
",  c #250707",
"<  c #210B0B",
"1  c #2C0808",
"2  c #211F19",
"3  c #002500",
"4  c #002900",
"5  c #003300",
"6  c #0E3F0E",
"7  c #1B231B",
"8  c #123012",
"9  c #232115",
"0  c #2C2713",
"q  c #24231A",
"w  c #322D16",
"e  c #35311D",
"r  c #3D361B",
"t  c #3F381D",
"y  c #060627",
"u  c #06062A",
"i  c #08082F",
"p  c #232323",
"a  c #202C20",
"s  c #2C2C2C",
"d  c #333333",
"f  c #3D3D3D",
"g  c #651110",
"h  c #433C1F",
"j  c #463E20",
"k  c #004800",
"l  c #005700",
"z  c #005900",
"x  c #114511",
"c  c #006700",
"v  c #016C01",
"b  c #037403",
"n  c #007C00",
"m  c #117A11",
"M  c #215521",
"N  c #2A5E2A",
"B  c #396E39",
"V  c #3A743A",
"C  c #4C4422",
"Z  c #434128",
"A  c #534A25",
"S  c #594F27",
"D  c #584F29",
"F  c #5C5229",
"G  c #545131",
"H  c #60552A",
"J  c #62582D",
"K  c #706433",
"L  c #776A36",
"P  c #7A6D37",
"I  c #7C6F38",
"U  c #7E7039",
"Y  c #0E0E66",
"T  c #454545",
"R  c #4B4B4B",
"E  c #545454",
"W  c #5B5B5B",
"Q  c #646464",
"!  c #6B6B6B",
"~  c #747474",
"^  c #7D7D7D",
"/  c #861616",
"(  c #911717",
")  c #AF1B1B",
"_  c #B71C1C",
"`  c #BF1E1E",
"'  c #C21E1E",
"]  c #DA2121",
"[  c #E42222",
"{  c #FF2626",
"}  c #83753B",
"|  c #348434",
" . c #3C943C",
".. c #649664",
"X. c #75AC75",
"o. c #71B671",
"O. c #9A8A45",
"+. c #A6944A",
"@. c #A9974C",
"#. c #B29F4F",
"$. c #CBB55A",
"%. c #CFB95C",
"&. c #D4BD5F",
"*. c #D7CB7B",
"=. c #12128C",
"-. c #1818BB",
";. c #1A1AC8",
":. c #1C1CE4",
">. c #1D1DE8",
",. c #1F1FFB",
"<. c #838383",
"1. c #8B8B8B",
"2. c #949494",
"3. c #9D9D9D",
"4. c #A3A3A3",
"5. c gray67",
"6. c #B4B4B4",
"7. c #BBBBBB",
"8. c #80C680",
"9. c #ECDF86",
"0. c #F7E98C",
"q. c #F8EA8C",
"w. c #C4C4C4",
"e. c #CACACA",
"r. c #D3D3D3",
"t. c #DCDCDC",
"y. c #E4E4E4",
"u. c #EBEBEB",
"i. c #F4F4F4",
"p. c #FEFEFE",
"a. c None",
/* pixels */
"a.a.a.a.a.a.a.a.a.a.a.a.a.a.a.a.a.a.a.a.a.a.a.a.a.a.a.a.a.a.a.a.a.a.a.a.a.a.a.a.a.a.a.a.a.a.a.a.a.a.a.a.a.a.a.a.a.a.a.a.a.a.a.a.",
"a.a.a.a.a.a.a.a.a.a.a.a.a.a.a.a.a.a.a.a.a.a.a.a.a.a.a.a.a.a.a.a.a.a.a.a.a.a.a.a.a.a.a.a.a.a.a.a.a.a.a.a.a.a.a.a.a.a.a.a.a.a.a.a.",
"a.a.a.a.a.a.a.a.a.a.a.a.a.a.a.a.a.a.a.a.a.a.a.a.a.a.a.a.a.a.a.a.a.a.a.a.a.a.a.a.a.a.a.a.a.a.a.a.a.a.a.a.a.a.a.a.a.a.a.a.a.a.a.a.",
"a.a.a.a.a.a.a.a.a.a.a.a.a.a.a.a.a.a.a.a.a.a.a.a.a.a.a.a.a.a.a.a.a.a.a.a.a.a.a.a.a.a.a.a.a.a.a.a.a.a.a.a.a.a.a.a.a.a.a.a.a.a.a.a.",
"a.a.a.a.a.a.= p a.a.a.a.a.a.a.a.a.a.a.a.a.a.a.a.a.a.a.a.a.a.a.a.a.a.a.a.a.a.a.a.a.a.a.a.a.a.a.a.a.a.a.a.a.a.a.a.> > a.a.a.a.a.a.",
"a.a.a.a.a.a.E y.p a.a.a.a.a.a.a.a.a.a.a.a.a.a.a.a.a.a.a.a.a.a.a.a.a.a.a.a.a.a.a.a.a.a.a.a.a.a.a.a.a.a.a.a.a.a.X 7.1.; a.a.a.a.a.",
"a.a.a.a.a.X 1.p.R   a.a.a.a.a.a.a.a.a.a.a.a.a.a.a.a.a.a.a.a.a.a.a.a.a.a.a.a.a.a.a.a.a.a.a.a.a.a.a.a.a.a.a.a.    t.t.; a.a.a.a.a.",
"a.a.a.a.a.O 2.p.d     a.a.a.a.a.a.a.a.a.a.a.a.a.a.a.a.a.a.a.v c c n a.a.a.a.a.a.a.a.a.a.a.a.a.a.a.a.a.a.a.      w.i.O a.a.a.a.a.",
"a.a.a.a.a.X <.p.R       a.a.a.a.a.a.a.a.a.a.a.a.a.a.a.v c c c c c c c c v a.a.a.a.a.a.a.a.a.a.a.a.a.a.a.        u.t.; a.a.a.a.a.",
"a.a.a.a.a.a.E p.<.        a.a.a.a.a.a.a.a.a.a.a.a.v v c c c c c c c c c c c v a.a.a.a.a.a.a.a.a.a.a.a.        f p.2.; a.a.a.a.a.",
"a.a.a.a.a.a.= i.t.          a.a.a.a.a.a.a.a.a.v c c c c c c c c c c c c c c c c b a.a.a.a.a.a.a.a.a.          5.p.T a.a.a.a.a.a.",
"a.a.a.a.a.a.: 2.p.!           a.a.a.a.a.a.a.c c c c c c c c c c c c c c c c c c c c a.a.a.a.a.a.a.X         f p.7.O a.a.a.a.a.a.",
"a.a.a.a.a.a.a.> i.u.>           a.a.a.a.a.c c c c c c c c c c c c c c c c v c c c c c a.a.a.a.a.X         X r.p.s a.a.a.a.a.a.a.",
"a.a.a.a.a.a.a.> ~ p.e.X           7 a.a.c c c c c c c c c c c c c c c c c c c c c c c c a.a.a.X           4.p.~ ; a.a.a.a.a.a.a.",
"a.a.a.a.a.a.a.a.= 5.p.7.X           x v c c c c c c c c c c c c c c c c c c c c c c c c c a.X           ~ p.6.X a.a.a.a.a.a.a.a.",
"a.a.a.a.a.a.a.a.a.X 6.p.6.X         l c c c c c c c c c c c c c c c c c c c c c c c c c c l           W p.r.O a.a.a.a.a.a.a.a.a.",
"a.a.a.a.a.a.a.a.a.a.X 7.p.5.X     4 c c c c c c c c c c c c c c c c c c c c c c c c c c c c 3       E p.y.> > a.a.a.a.a.a.a.a.a.",
"a.a.a.a.a.a.a.a.a.a.a.X w.p.5.X   l c c c c c c c c c c c c c c c c c c c c c c c c c c c c k     R i.y.p ; a.a.a.a.a.a.a.a.a.a.",
"a.a.a.a.a.a.a.a.a.a.a.a.O w.p.4.$ c c c c c c c c c c c c c c c c c c c c c c c c c c c c c c $ W p.u.s ; a.a.a.a.a.a.a.a.a.a.a.",
"a.a.a.a.a.a.a.a.a.a.a.a.a.; e.p...c c c c c c c c c c c c c c c c c c c c c c c c c c c c c c | p.y.s O a.a.a.a.a.a.a.a.a.a.a.a.",
"a.a.a.a.a.a.a.a.a.a.a.a.a.a.> r. .c c c c c c c c c c c c c c c c c c c c c c c c c c c c c c m t.p ; a.a.a.a.a.a.a.a.a.a.a.a.a.",
"a.a.a.a.a.a.a.a.a.a.a.a.a.a.a.a b c c c c c c c c c c c c c c c c c c c c c c c c c c c c c c c 8 7 a.a.a.a.a.a.a.a.a.a.a.a.a.a.",
"a.a.a.a.a.a.a.a.a.a.a.a.a.a.a.a.v c c c c c c c c c c c c c c c c c c c c c c c c c c c c c c c a.a.a.a.a.a.a.a.a.a.a.a.a.a.a.a.",
"a.a.a.a.a.a.a.a.a.a.a.a.a.a.a.a.c c c c c c c c c c c c c c c c c c c c c c c c c c c c c c c c a.a.a.a.a.a.a.a.a.a.a.a.a.a.a.a.",
"a.a.a.a.a.a.a.a.a.a.a.a.a.a.a.a.c v c c c c c c c c c c c c c c c c c c c c c c c c c c c c c c a.a.a.a.a.a.a.a.a.a.a.a.a.a.a.a.",
"a.a.a.a.a.a.a.a.a.a.a.a.a.a.a.a.5 o.8.V 5 5 5 5 5 5 5 5 5 5 N X.X.M 5 5 5 5 5 5 5 5 5 5 B X.X.x a.a.a.a.a.a.a.a.a.a.a.a.a.a.a.a.",
"a.a.a.a.a.a.a.a.a.a.a.a.a.a.a.a.; e.p.5.                    2.p.p.^                     6.p.i.o a.a.a.a.a.a.a.a.a.a.a.a.a.a.a.a.",
"a.a.a.a.a.a.a.a.a.a.a.a.a.a.a.a.; 4.p.p.p                 ; u.p.p.t.X                 p p.p.w.X a.a.a.a.a.a.a.a.a.a.a.a.a.a.a.a.",
"a.a.a.a.a.a.a.a.a.a.a.a.a.a.a.a.a.! p.p.6.                2.p.p.p.p.~                 7.p.p.~ = a.a.a.a.a.a.a.a.a.a.a.a.a.a.a.a.",
"a.a.a.a.a.a.a.a.a.a.a.a.a.a.a.a.a.> p.p.p.2.X           <.p.p.p.p.p.p.R           X 3.p.p.p.7 a.a.a.a.a.a.a.a.a.a.a.a.a.a.a.a.a.",
"a.a.a.a.a.a.a.a.a.a.a.a.a.a.a.a.a.; 5.p.p.p.e.E p s E w.p.p.p.p.p.p.p.p.3.f > s ! t.p.p.p.3.O a.a.a.a.a.a.a.a.a.a.a.a.a.a.a.a.a.",
"a.a.a.a.a.a.a.a.a.a.a.a.a.a.a.a.a.a.d p.p.p.p.p.p.p.p.p.p.p.p.t.t.p.p.p.p.p.p.p.p.p.p.p.i.p a.a.a.a.a.a.a.a.a.a.a.a.a.a.a.a.a.a.",
"a.a.a.a.a.a.a.a.a.a.a.a.a.a.a.a.a.a.O 2.p.p.p.p.p.p.p.p.p.p.5.  X 5.p.p.p.p.p.p.p.p.p.p.! O a.a.a.a.a.a.a.a.a.a.a.a.a.a.a.a.a.a.",
"a.a.a.a.a.a.a.a.a.a.a.a.a.a.a.a.a.a.a.O e.p.p.p.p.p.p.p.p.p.Q     ! p.p.p.p.p.p.p.p.p.3.X a.a.a.a.a.a.a.a.a.a.a.a.a.a.a.a.a.a.a.",
"a.> > > > > > > > p > > > > > p > p p ; ; e.p.p.p.p.p.p.p.p.7.; ; w.p.p.p.p.p.p.p.p.4.  X                                       ",
"; Z G % E W W X X O E W E p O   T E R T   O 3.p.p.p.p.p.p.p.p.p.p.p.p.p.p.p.p.p.i.!                                     ; d d O ",
": 9.0.e w.p.E f t.p ^ p.5.> r.2.f i.i.d ! 1.  T w.p.p.p.p.p.p.p.p.p.p.p.p.p.i.4.>                                       5.p.6.O ",
"q 0.0.e p R T i.p.y.s W > r.p.p.2.f f ! p.p.7.; X s <.w.u.p.p.p.p.p.p.y.6.! : X                                       ~ p.p.T a.",
"9 q.0.e p   r.p.p.p.4.  ^ p.p.p.p.s > i.p.p.p.s 3.e.^ : ; ; p s s p = O : ~ e.7.                                  ; 3.p.p.2.O a.",
"2 0.0.e R 4.p t.p.7.> 6.s 2.p.p.E ! <.T i.p.7.X i.p.p.s y.u.t.W W r.u.t.d p.p.i.; d T T T T T T T T T T T T T W 5.i.p.p.1.O a.a.",
"% *.0.e t.p.4.> 4.> w.p.y.s 3.! Q p.p.<.R r.= O 2.u.i.; p.p.p.~ ~ p.p.p.; p.p.w.p 2.p.p.p.p.p.p.p.p.p.p.p.p.p.p.p.u.3.s ; a.a.a.",
"a.O % X O ; ;     X ; ; ; O     ; ; ; ;   X   E E ; d > 7.t.i.! ! i.y.7.; R ; > p ; s d d s d d d d d d d d d d > ; ; a.a.a.a.a.",
"a.a.a.a.a.a.a.a.a.a.X O a.a.a.a.a.a.          2.p.i.<.p R s > O X > s T ; <.t.p.~           p a.a.a.a.d X X a.a.a.a.a.a.a.a.a.a.",
"a.a.a.a.a.a.a.a.a.X C r O a.a.a.a.            W u.p.1.Q p.p.p.! ~ p.p.p.R 5.p.p.~           X a.a.a.a.X r C % a.a.a.a.a.a.a.a.a.",
"a.a.a.a.a.a.a.a.X C &.%.r   a.a.            > > ; Q E ^ p.p.p.! ^ p.p.p.E ! ^ s   >             a.a.; t $.%.h & a.a.a.a.a.a.a.a.",
"a.a.a.a.a.a.a.X A &.&.&.%.r X             ^ 3.R u.2.R > s E ! d d Q T s ; d ^ w.R 2.!           X O t %.%.*.%.h 2 a.a.a.a.a.a.a.",
"a.a.a.a.a.a.a.; j &.&.&.&.%.r           ^ p.7.X u.p.p.p.y.w.5.4.3.5.7.t.i.p.p.p.; 7.p.~           t %.&.&.&.%.t ; a.a.a.a.a.a.a.",
"a.a.a.a.a.a.a.a.& j &.&.&.&.%.r       1.p.r.; X <.p.p.p.p.p.p.p.p.p.p.p.p.p.p.4.X s u.p.~       t %.&.&.&.%.t ; a.a.a.a.a.a.a.a.",
"a.a.a.a.a.a.a.a.a.; C &.&.&.&.$.w   1.p.r.; ; a.; y.p.p.p.p.p.p.p.p.p.p.p.p.t.p a.X d i.p.!   h %.&.&.&.%.j X a.a.a.a.a.a.a.a.a.",
"a.a.a.a.a.a.a.a.a.a.# C &.&.&.&.$.w R e.; > a.a.a.f i.p.p.p.p.p.p.p.p.p.p.r.s a.a.a.# f y.s h %.&.&.&.&.t X a.a.a.a.a.a.a.a.a.a.",
"a.a.a.a.a.a.a.a.a.a.; . A &.&.&.&.$.w   p a.a.a.a.a.f t.p.p.p.p.p.p.p.i.1.> a.a.a.a.a.; . h %.&.&.&.&.j - X a.a.a.a.a.a.a.a.a.a.",
"a.a.a.a.a.a.a.a.a.+ / [ , A &.&.&.&.$.w X a.a.a.a.a.a.> Q 7.u.i.u.7.~ > > a.a.a.a.a.a.X h %.&.&.&.&.C u >.=.o a.a.a.a.a.a.a.a.a.",
"a.a.a.a.a.a.a.a.+ ( { { [ , A &.&.&.&.%.w % a.a.a.a.a.a.a.O > > ; ; a.a.a.a.a.a.a.a.X j %.*.%.&.&.C u :.,.,.=.O a.a.a.a.a.a.a.a.",
"a.a.a.a.a.a.a.. g { { { { [ 1 A &.&.&.&.$.w : a.a.a.a.a.a.a.a.a.a.a.a.a.a.a.a.a.a.O j %.&.&.&.%.C u :.,.,.,.,.Y ; a.a.a.a.a.a.a.",
"a.a.a.a.a.a.; h   _ { { { { '   F &.&.&.&.$.0 a.a.a.a.a.a.a.a.a.a.a.a.a.a.a.a.a.X t %.&.&.&.&.A   ;.,.,.,.,.-.o r ; a.a.a.a.a.a.",
"a.a.a.a.a.> K &.U   _ { { ] < a.  F &.&.&.+.& a.a.a.a.a.a.a.a.a.a.a.a.a.a.a.a.a.a.O @.&.&.&.S # a.u :.,.,.-.X } &.F % a.a.a.a.a.",
"a.a.a.a.a.; A &.&.I . ` ] < a.a.a.  J &.@.% a.a.a.a.a.a.a.a.a.a.a.a.a.a.a.a.a.a.a.a.# @.&.S % a.a.a.i :.-.o U &.&.L a.a.a.a.a.a.",
"a.a.a.a.a.a.% P &.&.L + < a.a.a.a.a.X h % a.a.a.a.a.a.a.a.a.a.a.a.a.a.a.a.a.a.a.a.a.a.% C > a.a.a.a.a.i o U &.&.+.2 a.a.a.a.a.a.",
"a.a.a.a.a.a.a.X L &.#.X a.a.a.a.a.a.a.; a.a.a.a.a.a.a.a.a.a.a.a.a.a.a.a.a.a.a.a.a.a.a.a.2 a.a.a.a.a.a.p : %.&.O.% a.a.a.a.a.a.a.",
"a.a.a.a.a.a.a.a.% A * a.a.a.a.a.a.a.a.a.a.a.a.a.a.a.a.a.a.a.a.a.a.a.a.a.a.a.a.a.a.a.a.a.a.a.a.a.a.a.a.a.q e J : a.a.a.a.a.a.a.a.",
"a.a.a.a.a.a.a.a.a.a.a.a.a.a.a.a.a.a.a.a.a.a.a.a.a.a.a.a.a.a.a.a.a.a.a.a.a.a.a.a.a.a.a.a.a.a.a.a.a.a.a.a.a.: a.a.a.a.a.a.a.a.a.a.",
"a.a.a.a.a.a.a.a.a.a.a.a.a.a.a.a.a.a.a.a.a.a.a.a.a.a.a.a.a.a.a.a.a.a.a.a.a.a.a.a.a.a.a.a.a.a.a.a.a.a.a.a.a.a.a.a.a.a.a.a.a.a.a.a.",
"a.a.a.a.a.a.a.a.a.a.a.a.a.a.a.a.a.a.a.a.a.a.a.a.a.a.a.a.a.a.a.a.a.a.a.a.a.a.a.a.a.a.a.a.a.a.a.a.a.a.a.a.a.a.a.a.a.a.a.a.a.a.a.a.",
"a.a.a.a.a.a.a.a.a.a.a.a.a.a.a.a.a.a.a.a.a.a.a.a.a.a.a.a.a.a.a.a.a.a.a.a.a.a.a.a.a.a.a.a.a.a.a.a.a.a.a.a.a.a.a.a.a.a.a.a.a.a.a.a."
};
